<?xml version="1.0" encoding="UTF-8" standalone="no"?>
<!DOCTYPE svg PUBLIC "-//W3C//DTD SVG 1.1//EN"
 "http://www.w3.org/Graphics/SVG/1.1/DTD/svg11.dtd">
<!-- Generated by graphviz version 2.40.1 (20161225.0304)
 -->
<!-- Title: %3 Pages: 1 -->
<svg width="710pt" height="56pt"
 viewBox="0.00 0.00 710.00 55.50" xmlns="http://www.w3.org/2000/svg" xmlns:xlink="http://www.w3.org/1999/xlink">
<g id="graph0" class="graph" transform="scale(1 1) rotate(0) translate(4 51.5)">
<title>%3</title>
<!-- ListStruct -->
<g id="node1" class="node">
<title>ListStruct</title>
<path fill="#b2ebf2" stroke="#2980b9" d="M368,-.5C368,-.5 421,-.5 421,-.5 427,-.5 433,-6.5 433,-12.5 433,-12.5 433,-34.5 433,-34.5 433,-40.5 427,-46.5 421,-46.5 421,-46.5 368,-46.5 368,-46.5 362,-46.5 356,-40.5 356,-34.5 356,-34.5 356,-12.5 356,-12.5 356,-6.5 362,-.5 368,-.5"/>
<text text-anchor="middle" x="394.5" y="-31.3" font-family="Segoe UI,Roboto,Helvetica,Arial,sans-serif" font-size="14.00" fill="#000000">head, List</text>
<polyline fill="none" stroke="#2980b9" points="356,-23.5 433,-23.5 "/>
<text text-anchor="middle" x="394.5" y="-8.3" font-family="Segoe UI,Roboto,Helvetica,Arial,sans-serif" font-size="14.00" fill="#000000">∅</text>
</g>
<!-- ListFList -->
<g id="node4" class="node">
<title>ListFList</title>
<path fill="#b2ebf2" stroke="#2980b9" d="M566,-41.5C566,-41.5 511,-41.5 511,-41.5 505,-41.5 499,-35.5 499,-29.5 499,-29.5 499,-17.5 499,-17.5 499,-11.5 505,-5.5 511,-5.5 511,-5.5 566,-5.5 566,-5.5 572,-5.5 578,-11.5 578,-17.5 578,-17.5 578,-29.5 578,-29.5 578,-35.5 572,-41.5 566,-41.5"/>
<text text-anchor="middle" x="538.5" y="-19.8" font-family="Segoe UI,Roboto,Helvetica,Arial,sans-serif" font-size="14.00" fill="#000000">ListF[List]</text>
</g>
<!-- ListStruct&#45;&gt;ListFList -->
<g id="edge6" class="edge">
<title>ListStruct:cons&#45;&gt;ListFList</title>
<path fill="none" stroke="#2980b9" stroke-dasharray="5,2" d="M433,-35.5C433,-35.5 461.5394,-32.2538 488.9309,-29.1382"/>
<polygon fill="#2980b9" stroke="#2980b9" points="489.3752,-32.6103 498.9155,-28.0025 488.584,-25.6552 489.3752,-32.6103"/>
<text text-anchor="middle" x="466" y="-35.7" font-family="Segoe UI,Roboto,Helvetica,Arial,sans-serif" font-size="11.00" fill="#000000">Some</text>
</g>
<!-- ListStruct&#45;&gt;ListFList -->
<g id="edge7" class="edge">
<title>ListStruct:nil&#45;&gt;ListFList</title>
<path fill="none" stroke="#2980b9" stroke-dasharray="5,2" d="M433,-11.5C433,-11.5 461.5394,-14.7462 488.9309,-17.8618"/>
<polygon fill="#2980b9" stroke="#2980b9" points="488.584,-21.3448 498.9155,-18.9975 489.3752,-14.3897 488.584,-21.3448"/>
<text text-anchor="middle" x="466" y="-16.7" font-family="Segoe UI,Roboto,Helvetica,Arial,sans-serif" font-size="11.00" fill="#000000">None</text>
</g>
<!-- ListStruct2 -->
<g id="node2" class="node">
<title>ListStruct2</title>
<path fill="#b2ebf2" stroke="#dddddd" d="M246,-.5C246,-.5 285,-.5 285,-.5 291,-.5 297,-6.5 297,-12.5 297,-12.5 297,-34.5 297,-34.5 297,-40.5 291,-46.5 285,-46.5 285,-46.5 246,-46.5 246,-46.5 240,-46.5 234,-40.5 234,-34.5 234,-34.5 234,-12.5 234,-12.5 234,-6.5 240,-.5 246,-.5"/>
<text text-anchor="middle" x="265.5" y="-31.3" font-family="Segoe UI,Roboto,Helvetica,Arial,sans-serif" font-size="14.00" fill="#dddddd">head, A</text>
<polyline fill="none" stroke="#dddddd" points="234,-23.5 297,-23.5 "/>
<text text-anchor="middle" x="265.5" y="-8.3" font-family="Segoe UI,Roboto,Helvetica,Arial,sans-serif" font-size="14.00" fill="#dddddd">∅</text>
</g>
<!-- ListStruct2&#45;&gt;ListStruct -->
<g id="edge4" class="edge">
<title>ListStruct2:cons&#45;&gt;ListStruct:cons</title>
<path fill="none" stroke="#dddddd" d="M297,-35.5C297,-35.5 329.1585,-35.5 345.9915,-35.5"/>
<polygon fill="#dddddd" stroke="#dddddd" points="346,-39.0001 356,-35.5 346,-32.0001 346,-39.0001"/>
<text text-anchor="middle" x="326.5" y="-38.7" font-family="Segoe UI,Roboto,Helvetica,Arial,sans-serif" font-size="11.00" fill="#dddddd">loop</text>
</g>
<!-- ListStruct2&#45;&gt;ListStruct -->
<g id="edge5" class="edge">
<title>ListStruct2:nil&#45;&gt;ListStruct:nil</title>
<path fill="none" stroke="#dddddd" d="M297,-11.5C297,-11.5 329.1585,-11.5 345.9915,-11.5"/>
<polygon fill="#dddddd" stroke="#dddddd" points="346,-15.0001 356,-11.5 346,-8.0001 346,-15.0001"/>
</g>
<!-- ListFA -->
<g id="node3" class="node">
<title>ListFA</title>
<path fill="#b2ebf2" stroke="#dddddd" d="M156,-41.5C156,-41.5 115,-41.5 115,-41.5 109,-41.5 103,-35.5 103,-29.5 103,-29.5 103,-17.5 103,-17.5 103,-11.5 109,-5.5 115,-5.5 115,-5.5 156,-5.5 156,-5.5 162,-5.5 168,-11.5 168,-17.5 168,-17.5 168,-29.5 168,-29.5 168,-35.5 162,-41.5 156,-41.5"/>
<text text-anchor="middle" x="135.5" y="-19.8" font-family="Segoe UI,Roboto,Helvetica,Arial,sans-serif" font-size="14.00" fill="#dddddd">ListF[A]</text>
</g>
<!-- ListFA&#45;&gt;ListStruct2 -->
<g id="edge2" class="edge">
<title>ListFA&#45;&gt;ListStruct2:cons</title>
<path fill="none" stroke="#dddddd" stroke-dasharray="5,2" d="M168.0256,-27.4625C187.5264,-29.8382 210.9968,-32.6976 224.0318,-34.2856"/>
<polygon fill="#dddddd" stroke="#dddddd" points="223.6501,-37.7649 234,-35.5 224.4967,-30.8163 223.6501,-37.7649"/>
<text text-anchor="middle" x="201" y="-35.7" font-family="Segoe UI,Roboto,Helvetica,Arial,sans-serif" font-size="11.00" fill="#dddddd">Some</text>
</g>
<!-- ListFA&#45;&gt;ListStruct2 -->
<g id="edge3" class="edge">
<title>ListFA&#45;&gt;ListStruct2:nil</title>
<path fill="none" stroke="#dddddd" stroke-dasharray="5,2" d="M168.0256,-19.5375C187.5264,-17.1618 210.9968,-14.3024 224.0318,-12.7144"/>
<polygon fill="#dddddd" stroke="#dddddd" points="224.4967,-16.1837 234,-11.5 223.6501,-9.2351 224.4967,-16.1837"/>
<text text-anchor="middle" x="201" y="-16.7" font-family="Segoe UI,Roboto,Helvetica,Arial,sans-serif" font-size="11.00" fill="#dddddd">None</text>
</g>
<!-- List -->
<g id="node5" class="node">
<title>List</title>
<path fill="#b2ebf2" stroke="#2980b9" d="M690,-41.5C690,-41.5 660,-41.5 660,-41.5 654,-41.5 648,-35.5 648,-29.5 648,-29.5 648,-17.5 648,-17.5 648,-11.5 654,-5.5 660,-5.5 660,-5.5 690,-5.5 690,-5.5 696,-5.5 702,-11.5 702,-17.5 702,-17.5 702,-29.5 702,-29.5 702,-35.5 696,-41.5 690,-41.5"/>
<text text-anchor="middle" x="675" y="-19.8" font-family="Segoe UI,Roboto,Helvetica,Arial,sans-serif" font-size="14.00" fill="#000000">List</text>
</g>
<!-- ListFList&#45;&gt;List -->
<g id="edge8" class="edge">
<title>ListFList&#45;&gt;List</title>
<path fill="none" stroke="#2980b9" d="M578.3484,-23.5C597.1175,-23.5 619.3744,-23.5 637.7963,-23.5"/>
<polygon fill="#2980b9" stroke="#2980b9" points="637.8663,-27.0001 647.8662,-23.5 637.8662,-20.0001 637.8663,-27.0001"/>
<text text-anchor="middle" x="613" y="-26.7" font-family="Segoe UI,Roboto,Helvetica,Arial,sans-serif" font-size="11.00" fill="#000000">embed</text>
</g>
<!-- A -->
<g id="node6" class="node">
<title>A</title>
<path fill="#b2ebf2" stroke="#dddddd" d="M42,-41.5C42,-41.5 12,-41.5 12,-41.5 6,-41.5 0,-35.5 0,-29.5 0,-29.5 0,-17.5 0,-17.5 0,-11.5 6,-5.5 12,-5.5 12,-5.5 42,-5.5 42,-5.5 48,-5.5 54,-11.5 54,-17.5 54,-17.5 54,-29.5 54,-29.5 54,-35.5 48,-41.5 42,-41.5"/>
<text text-anchor="middle" x="27" y="-19.8" font-family="Segoe UI,Roboto,Helvetica,Arial,sans-serif" font-size="14.00" fill="#dddddd">A</text>
</g>
<!-- A&#45;&gt;ListFA -->
<g id="edge1" class="edge">
<title>A&#45;&gt;ListFA</title>
<path fill="none" stroke="#dddddd" d="M54.0992,-23.5C65.7877,-23.5 79.7418,-23.5 92.7673,-23.5"/>
<polygon fill="#dddddd" stroke="#dddddd" points="92.9533,-27.0001 102.9533,-23.5 92.9533,-20.0001 92.9533,-27.0001"/>
<text text-anchor="middle" x="78.5" y="-26.7" font-family="Segoe UI,Roboto,Helvetica,Arial,sans-serif" font-size="11.00" fill="#dddddd">op</text>
</g>
</g>
</svg>
