<?xml version="1.0" encoding="UTF-8" standalone="no"?>
<!DOCTYPE svg PUBLIC "-//W3C//DTD SVG 1.1//EN"
 "http://www.w3.org/Graphics/SVG/1.1/DTD/svg11.dtd">
<!-- Generated by graphviz version 2.40.1 (20161225.0304)
 -->
<!-- Title: %3 Pages: 1 -->
<svg width="482pt" height="44pt"
 viewBox="0.00 0.00 482.00 44.00" xmlns="http://www.w3.org/2000/svg" xmlns:xlink="http://www.w3.org/1999/xlink">
<g id="graph0" class="graph" transform="scale(1 1) rotate(0) translate(4 40)">
<title>%3</title>
<!-- ListFA -->
<g id="node1" class="node">
<title>ListFA</title>
<path fill="#b2ebf2" stroke="#2980b9" d="M156,-36C156,-36 115,-36 115,-36 109,-36 103,-30 103,-24 103,-24 103,-12 103,-12 103,-6 109,0 115,0 115,0 156,0 156,0 162,0 168,-6 168,-12 168,-12 168,-24 168,-24 168,-30 162,-36 156,-36"/>
<text text-anchor="middle" x="135.5" y="-14.3" font-family="Segoe UI,Roboto,Helvetica,Arial,sans-serif" font-size="14.00" fill="#000000">ListF[A]</text>
</g>
<!-- ListFList -->
<g id="node2" class="node">
<title>ListFList</title>
<path fill="#b2ebf2" stroke="#2980b9" d="M338,-36C338,-36 283,-36 283,-36 277,-36 271,-30 271,-24 271,-24 271,-12 271,-12 271,-6 277,0 283,0 283,0 338,0 338,0 344,0 350,-6 350,-12 350,-12 350,-24 350,-24 350,-30 344,-36 338,-36"/>
<text text-anchor="middle" x="310.5" y="-14.3" font-family="Segoe UI,Roboto,Helvetica,Arial,sans-serif" font-size="14.00" fill="#000000">ListF[List]</text>
</g>
<!-- ListFA&#45;&gt;ListFList -->
<g id="edge2" class="edge">
<title>ListFA&#45;&gt;ListFList</title>
<path fill="none" stroke="#2980b9" d="M168.006,-18C194.0015,-18 230.8876,-18 260.6174,-18"/>
<polygon fill="#2980b9" stroke="#2980b9" points="260.8052,-21.5001 270.8052,-18 260.8051,-14.5001 260.8052,-21.5001"/>
<text text-anchor="middle" x="219.5" y="-21.2" font-family="Segoe UI,Roboto,Helvetica,Arial,sans-serif" font-size="11.00" fill="#000000">fmap(_, loop)</text>
</g>
<!-- List -->
<g id="node4" class="node">
<title>List</title>
<path fill="#b2ebf2" stroke="#2980b9" d="M462,-36C462,-36 432,-36 432,-36 426,-36 420,-30 420,-24 420,-24 420,-12 420,-12 420,-6 426,0 432,0 432,0 462,0 462,0 468,0 474,-6 474,-12 474,-12 474,-24 474,-24 474,-30 468,-36 462,-36"/>
<text text-anchor="middle" x="447" y="-14.3" font-family="Segoe UI,Roboto,Helvetica,Arial,sans-serif" font-size="14.00" fill="#000000">List</text>
</g>
<!-- ListFList&#45;&gt;List -->
<g id="edge3" class="edge">
<title>ListFList&#45;&gt;List</title>
<path fill="none" stroke="#2980b9" d="M350.3484,-18C369.1175,-18 391.3744,-18 409.7963,-18"/>
<polygon fill="#2980b9" stroke="#2980b9" points="409.8663,-21.5001 419.8662,-18 409.8662,-14.5001 409.8663,-21.5001"/>
<text text-anchor="middle" x="385" y="-21.2" font-family="Segoe UI,Roboto,Helvetica,Arial,sans-serif" font-size="11.00" fill="#000000">embed</text>
</g>
<!-- A -->
<g id="node3" class="node">
<title>A</title>
<path fill="#b2ebf2" stroke="#2980b9" d="M42,-36C42,-36 12,-36 12,-36 6,-36 0,-30 0,-24 0,-24 0,-12 0,-12 0,-6 6,0 12,0 12,0 42,0 42,0 48,0 54,-6 54,-12 54,-12 54,-24 54,-24 54,-30 48,-36 42,-36"/>
<text text-anchor="middle" x="27" y="-14.3" font-family="Segoe UI,Roboto,Helvetica,Arial,sans-serif" font-size="14.00" fill="#000000">A</text>
</g>
<!-- A&#45;&gt;ListFA -->
<g id="edge1" class="edge">
<title>A&#45;&gt;ListFA</title>
<path fill="none" stroke="#2980b9" d="M54.0992,-18C65.7877,-18 79.7418,-18 92.7673,-18"/>
<polygon fill="#2980b9" stroke="#2980b9" points="92.9533,-21.5001 102.9533,-18 92.9533,-14.5001 92.9533,-21.5001"/>
<text text-anchor="middle" x="78.5" y="-21.2" font-family="Segoe UI,Roboto,Helvetica,Arial,sans-serif" font-size="11.00" fill="#000000">op</text>
</g>
</g>
</svg>
