<?xml version="1.0" encoding="UTF-8" standalone="no"?>
<!DOCTYPE svg PUBLIC "-//W3C//DTD SVG 1.1//EN"
 "http://www.w3.org/Graphics/SVG/1.1/DTD/svg11.dtd">
<!-- Generated by graphviz version 2.40.1 (20161225.0304)
 -->
<!-- Title: %3 Pages: 1 -->
<svg width="561pt" height="56pt"
 viewBox="0.00 0.00 561.00 55.50" xmlns="http://www.w3.org/2000/svg" xmlns:xlink="http://www.w3.org/1999/xlink">
<g id="graph0" class="graph" transform="scale(1 1) rotate(0) translate(4 51.5)">
<title>%3</title>
<!-- ListStruct -->
<g id="node1" class="node">
<title>ListStruct</title>
<path fill="#b2ebf2" stroke="#dddddd" d="M386,-.5C386,-.5 424,-.5 424,-.5 430,-.5 436,-6.5 436,-12.5 436,-12.5 436,-34.5 436,-34.5 436,-40.5 430,-46.5 424,-46.5 424,-46.5 386,-46.5 386,-46.5 380,-46.5 374,-40.5 374,-34.5 374,-34.5 374,-12.5 374,-12.5 374,-6.5 380,-.5 386,-.5"/>
<text text-anchor="middle" x="405" y="-31.3" font-family="Segoe UI,Roboto,Helvetica,Arial,sans-serif" font-size="14.00" fill="#dddddd">Int, List</text>
<polyline fill="none" stroke="#dddddd" points="374,-23.5 436,-23.5 "/>
<text text-anchor="middle" x="405" y="-8.3" font-family="Segoe UI,Roboto,Helvetica,Arial,sans-serif" font-size="14.00" fill="#dddddd">∅</text>
</g>
<!-- List -->
<g id="node5" class="node">
<title>List</title>
<path fill="#b2ebf2" stroke="#dddddd" d="M541,-41.5C541,-41.5 511,-41.5 511,-41.5 505,-41.5 499,-35.5 499,-29.5 499,-29.5 499,-17.5 499,-17.5 499,-11.5 505,-5.5 511,-5.5 511,-5.5 541,-5.5 541,-5.5 547,-5.5 553,-11.5 553,-17.5 553,-17.5 553,-29.5 553,-29.5 553,-35.5 547,-41.5 541,-41.5"/>
<text text-anchor="middle" x="526" y="-19.8" font-family="Segoe UI,Roboto,Helvetica,Arial,sans-serif" font-size="14.00" fill="#dddddd">List</text>
</g>
<!-- ListStruct&#45;&gt;List -->
<g id="edge6" class="edge">
<title>ListStruct:cons&#45;&gt;List</title>
<path fill="none" stroke="#dddddd" stroke-dasharray="5,2" d="M436,-35.5C436,-35.5 464.1853,-31.742 489.01,-28.432"/>
<polygon fill="#dddddd" stroke="#dddddd" points="489.5474,-31.8914 498.997,-27.1004 488.6221,-24.9528 489.5474,-31.8914"/>
<text text-anchor="middle" x="467.5" y="-35.7" font-family="Segoe UI,Roboto,Helvetica,Arial,sans-serif" font-size="11.00" fill="#dddddd">Cons</text>
</g>
<!-- ListStruct&#45;&gt;List -->
<g id="edge7" class="edge">
<title>ListStruct:nil&#45;&gt;List</title>
<path fill="none" stroke="#dddddd" stroke-dasharray="5,2" d="M436,-11.5C436,-11.5 464.1853,-15.258 489.01,-18.568"/>
<polygon fill="#dddddd" stroke="#dddddd" points="488.6221,-22.0472 498.997,-19.8996 489.5474,-15.1086 488.6221,-22.0472"/>
<text text-anchor="middle" x="467.5" y="-16.7" font-family="Segoe UI,Roboto,Helvetica,Arial,sans-serif" font-size="11.00" fill="#dddddd">Nil</text>
</g>
<!-- ListStruct2 -->
<g id="node2" class="node">
<title>ListStruct2</title>
<path fill="#b2ebf2" stroke="#2980b9" d="M273,-.5C273,-.5 303,-.5 303,-.5 309,-.5 315,-6.5 315,-12.5 315,-12.5 315,-34.5 315,-34.5 315,-40.5 309,-46.5 303,-46.5 303,-46.5 273,-46.5 273,-46.5 267,-46.5 261,-40.5 261,-34.5 261,-34.5 261,-12.5 261,-12.5 261,-6.5 267,-.5 273,-.5"/>
<text text-anchor="middle" x="288" y="-31.3" font-family="Segoe UI,Roboto,Helvetica,Arial,sans-serif" font-size="14.00" fill="#000000">Int, A</text>
<polyline fill="none" stroke="#2980b9" points="261,-23.5 315,-23.5 "/>
<text text-anchor="middle" x="288" y="-8.3" font-family="Segoe UI,Roboto,Helvetica,Arial,sans-serif" font-size="14.00" fill="#000000">∅</text>
</g>
<!-- ListStruct2&#45;&gt;ListStruct -->
<g id="edge4" class="edge">
<title>ListStruct2:cons&#45;&gt;ListStruct:cons</title>
<path fill="none" stroke="#dddddd" d="M315,-35.5C315,-35.5 347.1585,-35.5 363.9915,-35.5"/>
<polygon fill="#dddddd" stroke="#dddddd" points="364,-39.0001 374,-35.5 364,-32.0001 364,-39.0001"/>
<text text-anchor="middle" x="344.5" y="-38.7" font-family="Segoe UI,Roboto,Helvetica,Arial,sans-serif" font-size="11.00" fill="#dddddd">loop</text>
</g>
<!-- ListStruct2&#45;&gt;ListStruct -->
<g id="edge5" class="edge">
<title>ListStruct2:nil&#45;&gt;ListStruct:nil</title>
<path fill="none" stroke="#dddddd" d="M315,-11.5C315,-11.5 347.1585,-11.5 363.9915,-11.5"/>
<polygon fill="#dddddd" stroke="#dddddd" points="364,-15.0001 374,-11.5 364,-8.0001 364,-15.0001"/>
</g>
<!-- choice -->
<g id="node3" class="node">
<title>choice</title>
<path fill="none" stroke="#2980b9" stroke-dasharray="5,2" d="M149,-.5C149,-.5 179,-.5 179,-.5 185,-.5 191,-6.5 191,-12.5 191,-12.5 191,-34.5 191,-34.5 191,-40.5 185,-46.5 179,-46.5 179,-46.5 149,-46.5 149,-46.5 143,-46.5 137,-40.5 137,-34.5 137,-34.5 137,-12.5 137,-12.5 137,-6.5 143,-.5 149,-.5"/>
<text text-anchor="middle" x="164" y="-31.3" font-family="Segoe UI,Roboto,Helvetica,Arial,sans-serif" font-size="14.00" fill="#000000">true</text>
<polyline fill="none" stroke="#2980b9" stroke-dasharray="5,2" points="137,-23.5 191,-23.5 "/>
<text text-anchor="middle" x="164" y="-8.3" font-family="Segoe UI,Roboto,Helvetica,Arial,sans-serif" font-size="14.00" fill="#000000">false</text>
</g>
<!-- choice&#45;&gt;ListStruct2 -->
<g id="edge2" class="edge">
<title>choice:true&#45;&gt;ListStruct2:cons</title>
<path fill="none" stroke="#2980b9" d="M191,-35.5C191,-35.5 231.6151,-35.5 250.9707,-35.5"/>
<polygon fill="#2980b9" stroke="#2980b9" points="251,-39.0001 261,-35.5 251,-32.0001 251,-39.0001"/>
<text text-anchor="middle" x="226" y="-38.7" font-family="Segoe UI,Roboto,Helvetica,Arial,sans-serif" font-size="11.00" fill="#000000">update</text>
</g>
<!-- choice&#45;&gt;ListStruct2 -->
<g id="edge3" class="edge">
<title>choice:false&#45;&gt;ListStruct2:nil</title>
<path fill="none" stroke="#2980b9" d="M191,-11.5C191,-11.5 231.6151,-11.5 250.9707,-11.5"/>
<polygon fill="#2980b9" stroke="#2980b9" points="251,-15.0001 261,-11.5 251,-8.0001 251,-15.0001"/>
</g>
<!-- A -->
<g id="node4" class="node">
<title>A</title>
<path fill="#b2ebf2" stroke="#2980b9" d="M42,-41.5C42,-41.5 12,-41.5 12,-41.5 6,-41.5 0,-35.5 0,-29.5 0,-29.5 0,-17.5 0,-17.5 0,-11.5 6,-5.5 12,-5.5 12,-5.5 42,-5.5 42,-5.5 48,-5.5 54,-11.5 54,-17.5 54,-17.5 54,-29.5 54,-29.5 54,-35.5 48,-41.5 42,-41.5"/>
<text text-anchor="middle" x="27" y="-19.8" font-family="Segoe UI,Roboto,Helvetica,Arial,sans-serif" font-size="14.00" fill="#000000">A</text>
</g>
<!-- A&#45;&gt;choice -->
<g id="edge1" class="edge">
<title>A&#45;&gt;choice</title>
<path fill="none" stroke="#2980b9" d="M54.0668,-23.5C74.8949,-23.5 103.9092,-23.5 126.9006,-23.5"/>
<polygon fill="#2980b9" stroke="#2980b9" points="126.9895,-27.0001 136.9894,-23.5 126.9894,-20.0001 126.9895,-27.0001"/>
<text text-anchor="middle" x="95.5" y="-26.7" font-family="Segoe UI,Roboto,Helvetica,Arial,sans-serif" font-size="11.00" fill="#000000">predicate</text>
</g>
</g>
</svg>
