<?xml version="1.0" encoding="UTF-8" standalone="no"?>
<!DOCTYPE svg PUBLIC "-//W3C//DTD SVG 1.1//EN"
 "http://www.w3.org/Graphics/SVG/1.1/DTD/svg11.dtd">
<!-- Generated by graphviz version 2.40.1 (20161225.0304)
 -->
<!-- Title: %3 Pages: 1 -->
<svg width="534pt" height="56pt"
 viewBox="0.00 0.00 534.00 55.50" xmlns="http://www.w3.org/2000/svg" xmlns:xlink="http://www.w3.org/1999/xlink">
<g id="graph0" class="graph" transform="scale(1 1) rotate(0) translate(4 51.5)">
<title>%3</title>
<!-- ListStruct -->
<g id="node1" class="node">
<title>ListStruct</title>
<path fill="#b2ebf2" stroke="#2980b9" d="M359,-.5C359,-.5 397,-.5 397,-.5 403,-.5 409,-6.5 409,-12.5 409,-12.5 409,-34.5 409,-34.5 409,-40.5 403,-46.5 397,-46.5 397,-46.5 359,-46.5 359,-46.5 353,-46.5 347,-40.5 347,-34.5 347,-34.5 347,-12.5 347,-12.5 347,-6.5 353,-.5 359,-.5"/>
<text text-anchor="middle" x="378" y="-31.3" font-family="Segoe UI,Roboto,Helvetica,Arial,sans-serif" font-size="14.00" fill="#000000">Int, List</text>
<polyline fill="none" stroke="#2980b9" points="347,-23.5 409,-23.5 "/>
<text text-anchor="middle" x="378" y="-8.3" font-family="Segoe UI,Roboto,Helvetica,Arial,sans-serif" font-size="14.00" fill="#000000">∅</text>
</g>
<!-- List -->
<g id="node4" class="node">
<title>List</title>
<path fill="#b2ebf2" stroke="#2980b9" d="M514,-41.5C514,-41.5 484,-41.5 484,-41.5 478,-41.5 472,-35.5 472,-29.5 472,-29.5 472,-17.5 472,-17.5 472,-11.5 478,-5.5 484,-5.5 484,-5.5 514,-5.5 514,-5.5 520,-5.5 526,-11.5 526,-17.5 526,-17.5 526,-29.5 526,-29.5 526,-35.5 520,-41.5 514,-41.5"/>
<text text-anchor="middle" x="499" y="-19.8" font-family="Segoe UI,Roboto,Helvetica,Arial,sans-serif" font-size="14.00" fill="#000000">List</text>
</g>
<!-- ListStruct&#45;&gt;List -->
<g id="edge6" class="edge">
<title>ListStruct:cons&#45;&gt;List</title>
<path fill="none" stroke="#2980b9" stroke-dasharray="5,2" d="M409,-35.5C409,-35.5 437.1853,-31.742 462.01,-28.432"/>
<polygon fill="#2980b9" stroke="#2980b9" points="462.5474,-31.8914 471.997,-27.1004 461.6221,-24.9528 462.5474,-31.8914"/>
<text text-anchor="middle" x="440.5" y="-35.7" font-family="Segoe UI,Roboto,Helvetica,Arial,sans-serif" font-size="11.00" fill="#000000">Cons</text>
</g>
<!-- ListStruct&#45;&gt;List -->
<g id="edge7" class="edge">
<title>ListStruct:nil&#45;&gt;List</title>
<path fill="none" stroke="#2980b9" stroke-dasharray="5,2" d="M409,-11.5C409,-11.5 437.1853,-15.258 462.01,-18.568"/>
<polygon fill="#2980b9" stroke="#2980b9" points="461.6221,-22.0472 471.997,-19.8996 462.5474,-15.1086 461.6221,-22.0472"/>
<text text-anchor="middle" x="440.5" y="-16.7" font-family="Segoe UI,Roboto,Helvetica,Arial,sans-serif" font-size="11.00" fill="#000000">Nil</text>
</g>
<!-- ListStruct2 -->
<g id="node2" class="node">
<title>ListStruct2</title>
<path fill="#b2ebf2" stroke="#dddddd" d="M246,-.5C246,-.5 276,-.5 276,-.5 282,-.5 288,-6.5 288,-12.5 288,-12.5 288,-34.5 288,-34.5 288,-40.5 282,-46.5 276,-46.5 276,-46.5 246,-46.5 246,-46.5 240,-46.5 234,-40.5 234,-34.5 234,-34.5 234,-12.5 234,-12.5 234,-6.5 240,-.5 246,-.5"/>
<text text-anchor="middle" x="261" y="-31.3" font-family="Segoe UI,Roboto,Helvetica,Arial,sans-serif" font-size="14.00" fill="#dddddd">Int, A</text>
<polyline fill="none" stroke="#dddddd" points="234,-23.5 288,-23.5 "/>
<text text-anchor="middle" x="261" y="-8.3" font-family="Segoe UI,Roboto,Helvetica,Arial,sans-serif" font-size="14.00" fill="#dddddd">∅</text>
</g>
<!-- ListStruct2&#45;&gt;ListStruct -->
<g id="edge4" class="edge">
<title>ListStruct2:cons&#45;&gt;ListStruct:cons</title>
<path fill="none" stroke="#dddddd" d="M288,-35.5C288,-35.5 320.1585,-35.5 336.9915,-35.5"/>
<polygon fill="#dddddd" stroke="#dddddd" points="337,-39.0001 347,-35.5 337,-32.0001 337,-39.0001"/>
<text text-anchor="middle" x="317.5" y="-38.7" font-family="Segoe UI,Roboto,Helvetica,Arial,sans-serif" font-size="11.00" fill="#dddddd">loop</text>
</g>
<!-- ListStruct2&#45;&gt;ListStruct -->
<g id="edge5" class="edge">
<title>ListStruct2:nil&#45;&gt;ListStruct:nil</title>
<path fill="none" stroke="#dddddd" d="M288,-11.5C288,-11.5 320.1585,-11.5 336.9915,-11.5"/>
<polygon fill="#dddddd" stroke="#dddddd" points="337,-15.0001 347,-11.5 337,-8.0001 337,-15.0001"/>
</g>
<!-- ListFA -->
<g id="node3" class="node">
<title>ListFA</title>
<path fill="#b2ebf2" stroke="#dddddd" d="M156,-41.5C156,-41.5 115,-41.5 115,-41.5 109,-41.5 103,-35.5 103,-29.5 103,-29.5 103,-17.5 103,-17.5 103,-11.5 109,-5.5 115,-5.5 115,-5.5 156,-5.5 156,-5.5 162,-5.5 168,-11.5 168,-17.5 168,-17.5 168,-29.5 168,-29.5 168,-35.5 162,-41.5 156,-41.5"/>
<text text-anchor="middle" x="135.5" y="-19.8" font-family="Segoe UI,Roboto,Helvetica,Arial,sans-serif" font-size="14.00" fill="#dddddd">ListF[A]</text>
</g>
<!-- ListFA&#45;&gt;ListStruct2 -->
<g id="edge2" class="edge">
<title>ListFA&#45;&gt;ListStruct2:cons</title>
<path fill="none" stroke="#dddddd" stroke-dasharray="5,2" d="M168.0256,-27.4625C187.5264,-29.8382 210.9968,-32.6976 224.0318,-34.2856"/>
<polygon fill="#dddddd" stroke="#dddddd" points="223.6501,-37.7649 234,-35.5 224.4967,-30.8163 223.6501,-37.7649"/>
<text text-anchor="middle" x="201" y="-35.7" font-family="Segoe UI,Roboto,Helvetica,Arial,sans-serif" font-size="11.00" fill="#dddddd">Some</text>
</g>
<!-- ListFA&#45;&gt;ListStruct2 -->
<g id="edge3" class="edge">
<title>ListFA&#45;&gt;ListStruct2:nil</title>
<path fill="none" stroke="#dddddd" stroke-dasharray="5,2" d="M168.0256,-19.5375C187.5264,-17.1618 210.9968,-14.3024 224.0318,-12.7144"/>
<polygon fill="#dddddd" stroke="#dddddd" points="224.4967,-16.1837 234,-11.5 223.6501,-9.2351 224.4967,-16.1837"/>
<text text-anchor="middle" x="201" y="-16.7" font-family="Segoe UI,Roboto,Helvetica,Arial,sans-serif" font-size="11.00" fill="#dddddd">None</text>
</g>
<!-- A -->
<g id="node5" class="node">
<title>A</title>
<path fill="#b2ebf2" stroke="#dddddd" d="M42,-41.5C42,-41.5 12,-41.5 12,-41.5 6,-41.5 0,-35.5 0,-29.5 0,-29.5 0,-17.5 0,-17.5 0,-11.5 6,-5.5 12,-5.5 12,-5.5 42,-5.5 42,-5.5 48,-5.5 54,-11.5 54,-17.5 54,-17.5 54,-29.5 54,-29.5 54,-35.5 48,-41.5 42,-41.5"/>
<text text-anchor="middle" x="27" y="-19.8" font-family="Segoe UI,Roboto,Helvetica,Arial,sans-serif" font-size="14.00" fill="#dddddd">A</text>
</g>
<!-- A&#45;&gt;ListFA -->
<g id="edge1" class="edge">
<title>A&#45;&gt;ListFA</title>
<path fill="none" stroke="#dddddd" d="M54.0992,-23.5C65.7877,-23.5 79.7418,-23.5 92.7673,-23.5"/>
<polygon fill="#dddddd" stroke="#dddddd" points="92.9533,-27.0001 102.9533,-23.5 92.9533,-20.0001 92.9533,-27.0001"/>
<text text-anchor="middle" x="78.5" y="-26.7" font-family="Segoe UI,Roboto,Helvetica,Arial,sans-serif" font-size="11.00" fill="#dddddd">op</text>
</g>
</g>
</svg>
