<?xml version="1.0" encoding="UTF-8" standalone="no"?>
<!DOCTYPE svg PUBLIC "-//W3C//DTD SVG 1.1//EN"
 "http://www.w3.org/Graphics/SVG/1.1/DTD/svg11.dtd">
<!-- Generated by graphviz version 2.40.1 (20161225.0304)
 -->
<!-- Title: %3 Pages: 1 -->
<svg width="485pt" height="44pt"
 viewBox="0.00 0.00 485.00 44.00" xmlns="http://www.w3.org/2000/svg" xmlns:xlink="http://www.w3.org/1999/xlink">
<g id="graph0" class="graph" transform="scale(1 1) rotate(0) translate(4 40)">
<title>%3</title>
<!-- ListFA -->
<g id="node1" class="node">
<title>ListFA</title>
<path fill="#b2ebf2" stroke="#dddddd" d="M184,-36C184,-36 154,-36 154,-36 148,-36 142,-30 142,-24 142,-24 142,-12 142,-12 142,-6 148,0 154,0 154,0 184,0 184,0 190,0 196,-6 196,-12 196,-12 196,-24 196,-24 196,-30 190,-36 184,-36"/>
<text text-anchor="middle" x="169" y="-14.3" font-family="Segoe UI,Roboto,Helvetica,Arial,sans-serif" font-size="14.00" fill="#dddddd">F[A]</text>
</g>
<!-- ListFList -->
<g id="node2" class="node">
<title>ListFList</title>
<path fill="#b2ebf2" stroke="#dddddd" d="M341,-36C341,-36 311,-36 311,-36 305,-36 299,-30 299,-24 299,-24 299,-12 299,-12 299,-6 305,0 311,0 311,0 341,0 341,0 347,0 353,-6 353,-12 353,-12 353,-24 353,-24 353,-30 347,-36 341,-36"/>
<text text-anchor="middle" x="326" y="-14.3" font-family="Segoe UI,Roboto,Helvetica,Arial,sans-serif" font-size="14.00" fill="#dddddd">F[B]</text>
</g>
<!-- ListFA&#45;&gt;ListFList -->
<g id="edge2" class="edge">
<title>ListFA&#45;&gt;ListFList</title>
<path fill="none" stroke="#dddddd" d="M196.3473,-18C221.8993,-18 260.2585,-18 288.6293,-18"/>
<polygon fill="#dddddd" stroke="#dddddd" points="288.9661,-21.5001 298.9661,-18 288.966,-14.5001 288.9661,-21.5001"/>
<text text-anchor="middle" x="247.5" y="-21.2" font-family="Segoe UI,Roboto,Helvetica,Arial,sans-serif" font-size="11.00" fill="#dddddd">fmap(_, loop)</text>
</g>
<!-- B -->
<g id="node4" class="node">
<title>B</title>
<path fill="#b2ebf2" stroke="#dddddd" d="M465,-36C465,-36 435,-36 435,-36 429,-36 423,-30 423,-24 423,-24 423,-12 423,-12 423,-6 429,0 435,0 435,0 465,0 465,0 471,0 477,-6 477,-12 477,-12 477,-24 477,-24 477,-30 471,-36 465,-36"/>
<text text-anchor="middle" x="450" y="-14.3" font-family="Segoe UI,Roboto,Helvetica,Arial,sans-serif" font-size="14.00" fill="#dddddd">B</text>
</g>
<!-- ListFList&#45;&gt;B -->
<g id="edge3" class="edge">
<title>ListFList&#45;&gt;B</title>
<path fill="none" stroke="#dddddd" d="M353.2123,-18C370.6566,-18 393.5331,-18 412.6655,-18"/>
<polygon fill="#dddddd" stroke="#dddddd" points="412.8512,-21.5001 422.8512,-18 412.8511,-14.5001 412.8512,-21.5001"/>
<text text-anchor="middle" x="388" y="-21.2" font-family="Segoe UI,Roboto,Helvetica,Arial,sans-serif" font-size="11.00" fill="#dddddd">embed</text>
</g>
<!-- A -->
<g id="node3" class="node">
<title>A</title>
<path fill="#b2ebf2" stroke="#dddddd" d="M42,-36C42,-36 12,-36 12,-36 6,-36 0,-30 0,-24 0,-24 0,-12 0,-12 0,-6 6,0 12,0 12,0 42,0 42,0 48,0 54,-6 54,-12 54,-12 54,-24 54,-24 54,-30 48,-36 42,-36"/>
<text text-anchor="middle" x="27" y="-14.3" font-family="Segoe UI,Roboto,Helvetica,Arial,sans-serif" font-size="14.00" fill="#dddddd">A</text>
</g>
<!-- A&#45;&gt;ListFA -->
<g id="edge1" class="edge">
<title>A&#45;&gt;ListFA</title>
<path fill="none" stroke="#2980b9" d="M54.0434,-18C75.9133,-18 106.9567,-18 131.2723,-18"/>
<polygon fill="#2980b9" stroke="#2980b9" points="131.5737,-21.5001 141.5737,-18 131.5736,-14.5001 131.5737,-21.5001"/>
<text text-anchor="middle" x="98" y="-21.2" font-family="Segoe UI,Roboto,Helvetica,Arial,sans-serif" font-size="11.00" fill="#000000">coAlgebra</text>
</g>
</g>
</svg>
