<?xml version="1.0" encoding="UTF-8" standalone="no"?>
<!DOCTYPE svg PUBLIC "-//W3C//DTD SVG 1.1//EN"
 "http://www.w3.org/Graphics/SVG/1.1/DTD/svg11.dtd">
<!-- Generated by graphviz version 2.40.1 (20161225.0304)
 -->
<!-- Title: %3 Pages: 1 -->
<svg width="808pt" height="56pt"
 viewBox="0.00 0.00 808.00 55.50" xmlns="http://www.w3.org/2000/svg" xmlns:xlink="http://www.w3.org/1999/xlink">
<g id="graph0" class="graph" transform="scale(1 1) rotate(0) translate(4 51.5)">
<title>%3</title>
<!-- ListStruct -->
<g id="node1" class="node">
<title>ListStruct</title>
<path fill="#b2ebf2" stroke="#dddddd" d="M331,-.5C331,-.5 384,-.5 384,-.5 390,-.5 396,-6.5 396,-12.5 396,-12.5 396,-34.5 396,-34.5 396,-40.5 390,-46.5 384,-46.5 384,-46.5 331,-46.5 331,-46.5 325,-46.5 319,-40.5 319,-34.5 319,-34.5 319,-12.5 319,-12.5 319,-6.5 325,-.5 331,-.5"/>
<text text-anchor="middle" x="357.5" y="-31.3" font-family="Segoe UI,Roboto,Helvetica,Arial,sans-serif" font-size="14.00" fill="#dddddd">head, List</text>
<polyline fill="none" stroke="#dddddd" points="319,-23.5 396,-23.5 "/>
<text text-anchor="middle" x="357.5" y="-8.3" font-family="Segoe UI,Roboto,Helvetica,Arial,sans-serif" font-size="14.00" fill="#dddddd">∅</text>
</g>
<!-- ListStruct2 -->
<g id="node2" class="node">
<title>ListStruct2</title>
<path fill="#b2ebf2" stroke="#dddddd" d="M467,-.5C467,-.5 506,-.5 506,-.5 512,-.5 518,-6.5 518,-12.5 518,-12.5 518,-34.5 518,-34.5 518,-40.5 512,-46.5 506,-46.5 506,-46.5 467,-46.5 467,-46.5 461,-46.5 455,-40.5 455,-34.5 455,-34.5 455,-12.5 455,-12.5 455,-6.5 461,-.5 467,-.5"/>
<text text-anchor="middle" x="486.5" y="-31.3" font-family="Segoe UI,Roboto,Helvetica,Arial,sans-serif" font-size="14.00" fill="#dddddd">head, A</text>
<polyline fill="none" stroke="#dddddd" points="455,-23.5 518,-23.5 "/>
<text text-anchor="middle" x="486.5" y="-8.3" font-family="Segoe UI,Roboto,Helvetica,Arial,sans-serif" font-size="14.00" fill="#dddddd">∅</text>
</g>
<!-- ListStruct&#45;&gt;ListStruct2 -->
<g id="edge4" class="edge">
<title>ListStruct:cons&#45;&gt;ListStruct2:cons</title>
<path fill="none" stroke="#dddddd" d="M396,-35.5C396,-35.5 428.1585,-35.5 444.9915,-35.5"/>
<polygon fill="#dddddd" stroke="#dddddd" points="445,-39.0001 455,-35.5 445,-32.0001 445,-39.0001"/>
<text text-anchor="middle" x="425.5" y="-38.7" font-family="Segoe UI,Roboto,Helvetica,Arial,sans-serif" font-size="11.00" fill="#dddddd">loop</text>
</g>
<!-- ListStruct&#45;&gt;ListStruct2 -->
<g id="edge5" class="edge">
<title>ListStruct:nil&#45;&gt;ListStruct2:nil</title>
<path fill="none" stroke="#dddddd" d="M396,-11.5C396,-11.5 428.1585,-11.5 444.9915,-11.5"/>
<polygon fill="#dddddd" stroke="#dddddd" points="445,-15.0001 455,-11.5 445,-8.0001 445,-15.0001"/>
</g>
<!-- ListFA -->
<g id="node4" class="node">
<title>ListFA</title>
<path fill="#b2ebf2" stroke="#2980b9" d="M685,-41.5C685,-41.5 596,-41.5 596,-41.5 590,-41.5 584,-35.5 584,-29.5 584,-29.5 584,-17.5 584,-17.5 584,-11.5 590,-5.5 596,-5.5 596,-5.5 685,-5.5 685,-5.5 691,-5.5 697,-11.5 697,-17.5 697,-17.5 697,-29.5 697,-29.5 697,-35.5 691,-41.5 685,-41.5"/>
<text text-anchor="middle" x="640.5" y="-19.8" font-family="Segoe UI,Roboto,Helvetica,Arial,sans-serif" font-size="14.00" fill="#000000">Option[head, A]</text>
</g>
<!-- ListStruct2&#45;&gt;ListFA -->
<g id="edge6" class="edge">
<title>ListStruct2:cons&#45;&gt;ListFA</title>
<path fill="none" stroke="#dddddd" stroke-dasharray="5,2" d="M518,-35.5C518,-35.5 545.0578,-32.8494 573.7401,-30.0397"/>
<polygon fill="#dddddd" stroke="#dddddd" points="574.3004,-33.5017 583.9115,-29.0434 573.6179,-26.535 574.3004,-33.5017"/>
<text text-anchor="middle" x="551" y="-35.7" font-family="Segoe UI,Roboto,Helvetica,Arial,sans-serif" font-size="11.00" fill="#dddddd">Some</text>
</g>
<!-- ListStruct2&#45;&gt;ListFA -->
<g id="edge7" class="edge">
<title>ListStruct2:nil&#45;&gt;ListFA</title>
<path fill="none" stroke="#dddddd" stroke-dasharray="5,2" d="M518,-11.5C518,-11.5 545.0578,-14.1506 573.7401,-16.9603"/>
<polygon fill="#dddddd" stroke="#dddddd" points="573.6179,-20.465 583.9115,-17.9566 574.3004,-13.4983 573.6179,-20.465"/>
<text text-anchor="middle" x="551" y="-17.7" font-family="Segoe UI,Roboto,Helvetica,Arial,sans-serif" font-size="11.00" fill="#dddddd">None</text>
</g>
<!-- ListFList -->
<g id="node3" class="node">
<title>ListFList</title>
<path fill="#b2ebf2" stroke="#2980b9" d="M241,-41.5C241,-41.5 138,-41.5 138,-41.5 132,-41.5 126,-35.5 126,-29.5 126,-29.5 126,-17.5 126,-17.5 126,-11.5 132,-5.5 138,-5.5 138,-5.5 241,-5.5 241,-5.5 247,-5.5 253,-11.5 253,-17.5 253,-17.5 253,-29.5 253,-29.5 253,-35.5 247,-41.5 241,-41.5"/>
<text text-anchor="middle" x="189.5" y="-19.8" font-family="Segoe UI,Roboto,Helvetica,Arial,sans-serif" font-size="14.00" fill="#000000">Option[head, List]</text>
</g>
<!-- ListFList&#45;&gt;ListStruct -->
<g id="edge2" class="edge">
<title>ListFList&#45;&gt;ListStruct:cons</title>
<path fill="none" stroke="#dddddd" stroke-dasharray="5,2" d="M253.1119,-29.3945C274.604,-31.3861 296.2634,-33.3931 308.6146,-34.5376"/>
<polygon fill="#dddddd" stroke="#dddddd" points="308.7197,-38.0623 319,-35.5 309.3656,-31.0922 308.7197,-38.0623"/>
<text text-anchor="middle" x="286" y="-36.7" font-family="Segoe UI,Roboto,Helvetica,Arial,sans-serif" font-size="11.00" fill="#dddddd">Some</text>
</g>
<!-- ListFList&#45;&gt;ListStruct -->
<g id="edge3" class="edge">
<title>ListFList&#45;&gt;ListStruct:nil</title>
<path fill="none" stroke="#dddddd" stroke-dasharray="5,2" d="M253.1119,-17.6055C274.604,-15.6139 296.2634,-13.6069 308.6146,-12.4624"/>
<polygon fill="#dddddd" stroke="#dddddd" points="309.3656,-15.9078 319,-11.5 308.7197,-8.9377 309.3656,-15.9078"/>
<text text-anchor="middle" x="286" y="-17.7" font-family="Segoe UI,Roboto,Helvetica,Arial,sans-serif" font-size="11.00" fill="#dddddd">None</text>
</g>
<!-- A -->
<g id="node6" class="node">
<title>A</title>
<path fill="#b2ebf2" stroke="#dddddd" d="M788,-41.5C788,-41.5 758,-41.5 758,-41.5 752,-41.5 746,-35.5 746,-29.5 746,-29.5 746,-17.5 746,-17.5 746,-11.5 752,-5.5 758,-5.5 758,-5.5 788,-5.5 788,-5.5 794,-5.5 800,-11.5 800,-17.5 800,-17.5 800,-29.5 800,-29.5 800,-35.5 794,-41.5 788,-41.5"/>
<text text-anchor="middle" x="773" y="-19.8" font-family="Segoe UI,Roboto,Helvetica,Arial,sans-serif" font-size="14.00" fill="#dddddd">A</text>
</g>
<!-- ListFA&#45;&gt;A -->
<g id="edge8" class="edge">
<title>ListFA&#45;&gt;A</title>
<path fill="none" stroke="#dddddd" d="M697.0763,-23.5C710.1328,-23.5 723.7016,-23.5 735.695,-23.5"/>
<polygon fill="#dddddd" stroke="#dddddd" points="735.7768,-27.0001 745.7768,-23.5 735.7767,-20.0001 735.7768,-27.0001"/>
<text text-anchor="middle" x="721.5" y="-26.7" font-family="Segoe UI,Roboto,Helvetica,Arial,sans-serif" font-size="11.00" fill="#dddddd">op</text>
</g>
<!-- List -->
<g id="node5" class="node">
<title>List</title>
<path fill="#b2ebf2" stroke="#dddddd" d="M42,-41.5C42,-41.5 12,-41.5 12,-41.5 6,-41.5 0,-35.5 0,-29.5 0,-29.5 0,-17.5 0,-17.5 0,-11.5 6,-5.5 12,-5.5 12,-5.5 42,-5.5 42,-5.5 48,-5.5 54,-11.5 54,-17.5 54,-17.5 54,-29.5 54,-29.5 54,-35.5 48,-41.5 42,-41.5"/>
<text text-anchor="middle" x="27" y="-19.8" font-family="Segoe UI,Roboto,Helvetica,Arial,sans-serif" font-size="14.00" fill="#dddddd">List</text>
</g>
<!-- List&#45;&gt;ListFList -->
<g id="edge1" class="edge">
<title>List&#45;&gt;ListFList</title>
<path fill="none" stroke="#dddddd" d="M54.1988,-23.5C71.0465,-23.5 93.5687,-23.5 115.3974,-23.5"/>
<polygon fill="#dddddd" stroke="#dddddd" points="115.6911,-27.0001 125.6911,-23.5 115.6911,-20.0001 115.6911,-27.0001"/>
<text text-anchor="middle" x="90" y="-26.7" font-family="Segoe UI,Roboto,Helvetica,Arial,sans-serif" font-size="11.00" fill="#dddddd">project</text>
</g>
</g>
</svg>
