<?xml version="1.0" encoding="UTF-8" standalone="no"?>
<!DOCTYPE svg PUBLIC "-//W3C//DTD SVG 1.1//EN"
 "http://www.w3.org/Graphics/SVG/1.1/DTD/svg11.dtd">
<!-- Generated by graphviz version 2.40.1 (20161225.0304)
 -->
<!-- Title: %3 Pages: 1 -->
<svg width="630pt" height="59pt"
 viewBox="0.00 0.00 630.00 58.79" xmlns="http://www.w3.org/2000/svg" xmlns:xlink="http://www.w3.org/1999/xlink">
<g id="graph0" class="graph" transform="scale(1 1) rotate(0) translate(4 54.787)">
<title>%3</title>
<!-- ListStruct -->
<g id="node1" class="node">
<title>ListStruct</title>
<path fill="#b2ebf2" stroke="#2980b9" d="M307,-.787C307,-.787 357,-.787 357,-.787 363,-.787 369,-6.787 369,-12.787 369,-12.787 369,-34.787 369,-34.787 369,-40.787 363,-46.787 357,-46.787 357,-46.787 307,-46.787 307,-46.787 301,-46.787 295,-40.787 295,-34.787 295,-34.787 295,-12.787 295,-12.787 295,-6.787 301,-.787 307,-.787"/>
<text text-anchor="middle" x="332" y="-31.587" font-family="Segoe UI,Roboto,Helvetica,Arial,sans-serif" font-size="14.00" fill="#000000">head, tail</text>
<polyline fill="none" stroke="#2980b9" points="295,-23.787 369,-23.787 "/>
<text text-anchor="middle" x="332" y="-8.587" font-family="Segoe UI,Roboto,Helvetica,Arial,sans-serif" font-size="14.00" fill="#000000">∅</text>
</g>
<!-- ListStruct2 -->
<g id="node2" class="node">
<title>ListStruct2</title>
<path fill="#b2ebf2" stroke="#2980b9" d="M464,-.787C464,-.787 503,-.787 503,-.787 509,-.787 515,-6.787 515,-12.787 515,-12.787 515,-34.787 515,-34.787 515,-40.787 509,-46.787 503,-46.787 503,-46.787 464,-46.787 464,-46.787 458,-46.787 452,-40.787 452,-34.787 452,-34.787 452,-12.787 452,-12.787 452,-6.787 458,-.787 464,-.787"/>
<text text-anchor="middle" x="483.5" y="-31.587" font-family="Segoe UI,Roboto,Helvetica,Arial,sans-serif" font-size="14.00" fill="#000000">head, A</text>
<polyline fill="none" stroke="#2980b9" points="452,-23.787 515,-23.787 "/>
<text text-anchor="middle" x="483.5" y="-8.587" font-family="Segoe UI,Roboto,Helvetica,Arial,sans-serif" font-size="14.00" fill="#000000">∅</text>
</g>
<!-- ListStruct&#45;&gt;ListStruct2 -->
<g id="edge4" class="edge">
<title>ListStruct:cons&#45;&gt;ListStruct2:cons</title>
<path fill="none" stroke="#2980b9" d="M369,-35.787C369,-35.787 419.6592,-35.787 441.8226,-35.787"/>
<polygon fill="#2980b9" stroke="#2980b9" points="442,-39.2871 452,-35.787 442,-32.2871 442,-39.2871"/>
<text text-anchor="middle" x="410.5" y="-39.587" font-family="Segoe UI,Roboto,Helvetica,Arial,sans-serif" font-size="14.00" fill="#000000">recurse</text>
</g>
<!-- ListStruct&#45;&gt;ListStruct2 -->
<g id="edge5" class="edge">
<title>ListStruct:nil&#45;&gt;ListStruct2:nil</title>
<path fill="none" stroke="#2980b9" d="M369,-11.787C369,-11.787 419.6592,-11.787 441.8226,-11.787"/>
<polygon fill="#2980b9" stroke="#2980b9" points="442,-15.2871 452,-11.787 442,-8.2871 442,-15.2871"/>
</g>
<!-- A -->
<g id="node5" class="node">
<title>A</title>
<path fill="#b2ebf2" stroke="#2980b9" d="M610,-41.787C610,-41.787 580,-41.787 580,-41.787 574,-41.787 568,-35.787 568,-29.787 568,-29.787 568,-17.787 568,-17.787 568,-11.787 574,-5.787 580,-5.787 580,-5.787 610,-5.787 610,-5.787 616,-5.787 622,-11.787 622,-17.787 622,-17.787 622,-29.787 622,-29.787 622,-35.787 616,-41.787 610,-41.787"/>
<text text-anchor="middle" x="595" y="-20.087" font-family="Segoe UI,Roboto,Helvetica,Arial,sans-serif" font-size="14.00" fill="#000000">A</text>
</g>
<!-- ListStruct2&#45;&gt;A -->
<g id="edge6" class="edge">
<title>ListStruct2:cons&#45;&gt;A</title>
<path fill="none" stroke="#2980b9" d="M515,-35.787C515,-35.787 536.9394,-32.4961 557.8397,-29.3611"/>
<polygon fill="#2980b9" stroke="#2980b9" points="558.5455,-32.7944 567.9156,-27.8497 557.5071,-25.8719 558.5455,-32.7944"/>
<text text-anchor="middle" x="541.5" y="-36.587" font-family="Segoe UI,Roboto,Helvetica,Arial,sans-serif" font-size="14.00" fill="#000000">op</text>
</g>
<!-- ListStruct2&#45;&gt;A -->
<g id="edge7" class="edge">
<title>ListStruct2:nil&#45;&gt;A</title>
<path fill="none" stroke="#2980b9" d="M515,-11.787C515,-11.787 536.9394,-15.0779 557.8397,-18.213"/>
<polygon fill="#2980b9" stroke="#2980b9" points="557.5071,-21.7022 567.9156,-19.7244 558.5455,-14.7796 557.5071,-21.7022"/>
<text text-anchor="middle" x="527.9198" y="-3.8" font-family="Segoe UI,Roboto,Helvetica,Arial,sans-serif" font-size="14.00" fill="#000000">op</text>
</g>
<!-- ListFList -->
<g id="node3" class="node">
<title>ListFList</title>
<path fill="#b2ebf2" stroke="#2980b9" d="M246,-41.787C246,-41.787 147,-41.787 147,-41.787 141,-41.787 135,-35.787 135,-29.787 135,-29.787 135,-17.787 135,-17.787 135,-11.787 141,-5.787 147,-5.787 147,-5.787 246,-5.787 246,-5.787 252,-5.787 258,-11.787 258,-17.787 258,-17.787 258,-29.787 258,-29.787 258,-35.787 252,-41.787 246,-41.787"/>
<text text-anchor="middle" x="196.5" y="-20.087" font-family="Segoe UI,Roboto,Helvetica,Arial,sans-serif" font-size="14.00" fill="#000000">Option[head, tail]</text>
</g>
<!-- ListFList&#45;&gt;ListStruct -->
<g id="edge2" class="edge">
<title>ListFList&#45;&gt;ListStruct:cons</title>
<path fill="none" stroke="#2980b9" stroke-dasharray="5,2" d="M258.042,-31.2845C268.464,-32.5542 278.1015,-33.7283 284.9202,-34.559"/>
<polygon fill="#2980b9" stroke="#2980b9" points="284.6501,-38.0519 295,-35.787 285.4967,-31.1033 284.6501,-38.0519"/>
</g>
<!-- ListFList&#45;&gt;ListStruct -->
<g id="edge3" class="edge">
<title>ListFList&#45;&gt;ListStruct:nil</title>
<path fill="none" stroke="#2980b9" stroke-dasharray="5,2" d="M258.042,-16.2895C268.464,-15.0198 278.1015,-13.8457 284.9202,-13.015"/>
<polygon fill="#2980b9" stroke="#2980b9" points="285.4967,-16.4708 295,-11.787 284.6501,-9.5221 285.4967,-16.4708"/>
</g>
<!-- List -->
<g id="node4" class="node">
<title>List</title>
<path fill="#b2ebf2" stroke="#2980b9" d="M42,-41.787C42,-41.787 12,-41.787 12,-41.787 6,-41.787 0,-35.787 0,-29.787 0,-29.787 0,-17.787 0,-17.787 0,-11.787 6,-5.787 12,-5.787 12,-5.787 42,-5.787 42,-5.787 48,-5.787 54,-11.787 54,-17.787 54,-17.787 54,-29.787 54,-29.787 54,-35.787 48,-41.787 42,-41.787"/>
<text text-anchor="middle" x="27" y="-20.087" font-family="Segoe UI,Roboto,Helvetica,Arial,sans-serif" font-size="14.00" fill="#000000">List</text>
</g>
<!-- List&#45;&gt;ListFList -->
<g id="edge1" class="edge">
<title>List&#45;&gt;ListFList</title>
<path fill="none" stroke="#2980b9" d="M54.2331,-23.787C73.315,-23.787 99.7624,-23.787 124.6822,-23.787"/>
<polygon fill="#2980b9" stroke="#2980b9" points="124.8721,-27.2871 134.8721,-23.787 124.8721,-20.2871 124.8721,-27.2871"/>
<text text-anchor="middle" x="94.5" y="-27.587" font-family="Segoe UI,Roboto,Helvetica,Arial,sans-serif" font-size="14.00" fill="#000000">project</text>
</g>
</g>
</svg>
