<?xml version="1.0" encoding="UTF-8" standalone="no"?>
<!DOCTYPE svg PUBLIC "-//W3C//DTD SVG 1.1//EN"
 "http://www.w3.org/Graphics/SVG/1.1/DTD/svg11.dtd">
<!-- Generated by graphviz version 2.43.0 (0)
 -->
<!-- Title: %3 Pages: 1 -->
<svg width="497pt" height="44pt"
 viewBox="0.00 0.00 497.00 44.00" xmlns="http://www.w3.org/2000/svg" xmlns:xlink="http://www.w3.org/1999/xlink">
<g id="graph0" class="graph" transform="scale(1 1) rotate(0) translate(4 40)">
<title>%3</title>
<!-- ListFList -->
<g id="node1" class="node">
<title>ListFList</title>
<path fill="#b2ebf2" stroke="#dddddd" d="M199,-36C199,-36 137,-36 137,-36 131,-36 125,-30 125,-24 125,-24 125,-12 125,-12 125,-6 131,0 137,0 137,0 199,0 199,0 205,0 211,-6 211,-12 211,-12 211,-24 211,-24 211,-30 205,-36 199,-36"/>
<text text-anchor="middle" x="168" y="-14.3" font-family="Segoe UI,Roboto,Helvetica,Arial,sans-serif" font-size="14.00" fill="#dddddd">TreeF[Tree]</text>
</g>
<!-- ListFA -->
<g id="node2" class="node">
<title>ListFA</title>
<path fill="#b2ebf2" stroke="#2980b9" d="M350,-36C350,-36 320,-36 320,-36 314,-36 308,-30 308,-24 308,-24 308,-12 308,-12 308,-6 314,0 320,0 320,0 350,0 350,0 356,0 362,-6 362,-12 362,-12 362,-24 362,-24 362,-30 356,-36 350,-36"/>
<text text-anchor="middle" x="335" y="-14.3" font-family="Segoe UI,Roboto,Helvetica,Arial,sans-serif" font-size="14.00" fill="#000000">F[A]</text>
</g>
<!-- ListFList&#45;&gt;ListFA -->
<g id="edge2" class="edge">
<title>ListFList&#45;&gt;ListFA</title>
<path fill="none" stroke="#dddddd" d="M211.06,-18C237.92,-18 272.36,-18 297.96,-18"/>
<polygon fill="#dddddd" stroke="#dddddd" points="297.99,-21.5 307.99,-18 297.99,-14.5 297.99,-21.5"/>
<text text-anchor="middle" x="259.5" y="-21.2" font-family="Segoe UI,Roboto,Helvetica,Arial,sans-serif" font-size="11.00" fill="#dddddd">map(_, loop)</text>
</g>
<!-- A -->
<g id="node4" class="node">
<title>A</title>
<path fill="#b2ebf2" stroke="#dddddd" d="M477,-36C477,-36 447,-36 447,-36 441,-36 435,-30 435,-24 435,-24 435,-12 435,-12 435,-6 441,0 447,0 447,0 477,0 477,0 483,0 489,-6 489,-12 489,-12 489,-24 489,-24 489,-30 483,-36 477,-36"/>
<text text-anchor="middle" x="462" y="-14.3" font-family="Segoe UI,Roboto,Helvetica,Arial,sans-serif" font-size="14.00" fill="#dddddd">A</text>
</g>
<!-- ListFA&#45;&gt;A -->
<g id="edge3" class="edge">
<title>ListFA&#45;&gt;A</title>
<path fill="none" stroke="#dddddd" d="M362.2,-18C380.37,-18 404.8,-18 424.82,-18"/>
<polygon fill="#dddddd" stroke="#dddddd" points="424.83,-21.5 434.83,-18 424.83,-14.5 424.83,-21.5"/>
<text text-anchor="middle" x="398.5" y="-21.2" font-family="Segoe UI,Roboto,Helvetica,Arial,sans-serif" font-size="11.00" fill="#dddddd">algebra</text>
</g>
<!-- B -->
<g id="node3" class="node">
<title>B</title>
<path fill="#b2ebf2" stroke="#dddddd" d="M42,-36C42,-36 12,-36 12,-36 6,-36 0,-30 0,-24 0,-24 0,-12 0,-12 0,-6 6,0 12,0 12,0 42,0 42,0 48,0 54,-6 54,-12 54,-12 54,-24 54,-24 54,-30 48,-36 42,-36"/>
<text text-anchor="middle" x="27" y="-14.3" font-family="Segoe UI,Roboto,Helvetica,Arial,sans-serif" font-size="14.00" fill="#dddddd">Tree</text>
</g>
<!-- B&#45;&gt;ListFList -->
<g id="edge1" class="edge">
<title>B&#45;&gt;ListFList</title>
<path fill="none" stroke="#dddddd" d="M54.14,-18C71.17,-18 93.96,-18 114.61,-18"/>
<polygon fill="#dddddd" stroke="#dddddd" points="114.85,-21.5 124.85,-18 114.85,-14.5 114.85,-21.5"/>
<text text-anchor="middle" x="89.5" y="-21.2" font-family="Segoe UI,Roboto,Helvetica,Arial,sans-serif" font-size="11.00" fill="#dddddd">project</text>
</g>
</g>
</svg>
