<?xml version="1.0" encoding="UTF-8" standalone="no"?>
<!DOCTYPE svg PUBLIC "-//W3C//DTD SVG 1.1//EN"
 "http://www.w3.org/Graphics/SVG/1.1/DTD/svg11.dtd">
<!-- Generated by graphviz version 2.40.1 (20161225.0304)
 -->
<!-- Title: %3 Pages: 1 -->
<svg width="485pt" height="44pt"
 viewBox="0.00 0.00 485.00 44.00" xmlns="http://www.w3.org/2000/svg" xmlns:xlink="http://www.w3.org/1999/xlink">
<g id="graph0" class="graph" transform="scale(1 1) rotate(0) translate(4 40)">
<title>%3</title>
<!-- ListFList -->
<g id="node1" class="node">
<title>ListFList</title>
<path fill="#b2ebf2" stroke="#2980b9" d="M181,-36C181,-36 138,-36 138,-36 132,-36 126,-30 126,-24 126,-24 126,-12 126,-12 126,-6 132,0 138,0 138,0 181,0 181,0 187,0 193,-6 193,-12 193,-12 193,-24 193,-24 193,-30 187,-36 181,-36"/>
<text text-anchor="middle" x="159.5" y="-14.3" font-family="Segoe UI,Roboto,Helvetica,Arial,sans-serif" font-size="14.00" fill="#000000">F[Fix[F]]</text>
</g>
<!-- ListFA -->
<g id="node2" class="node">
<title>ListFA</title>
<path fill="#b2ebf2" stroke="#2980b9" d="M338,-36C338,-36 308,-36 308,-36 302,-36 296,-30 296,-24 296,-24 296,-12 296,-12 296,-6 302,0 308,0 308,0 338,0 338,0 344,0 350,-6 350,-12 350,-12 350,-24 350,-24 350,-30 344,-36 338,-36"/>
<text text-anchor="middle" x="323" y="-14.3" font-family="Segoe UI,Roboto,Helvetica,Arial,sans-serif" font-size="14.00" fill="#000000">F[A]</text>
</g>
<!-- ListFList&#45;&gt;ListFA -->
<g id="edge2" class="edge">
<title>ListFList&#45;&gt;ListFA</title>
<path fill="none" stroke="#2980b9" d="M193.3773,-18C220.3327,-18 258.0097,-18 285.799,-18"/>
<polygon fill="#2980b9" stroke="#2980b9" points="285.9225,-21.5001 295.9225,-18 285.9225,-14.5001 285.9225,-21.5001"/>
<text text-anchor="middle" x="244.5" y="-21.2" font-family="Segoe UI,Roboto,Helvetica,Arial,sans-serif" font-size="11.00" fill="#000000">fmap(_, loop)</text>
</g>
<!-- A -->
<g id="node4" class="node">
<title>A</title>
<path fill="#b2ebf2" stroke="#2980b9" d="M465,-36C465,-36 435,-36 435,-36 429,-36 423,-30 423,-24 423,-24 423,-12 423,-12 423,-6 429,0 435,0 435,0 465,0 465,0 471,0 477,-6 477,-12 477,-12 477,-24 477,-24 477,-30 471,-36 465,-36"/>
<text text-anchor="middle" x="450" y="-14.3" font-family="Segoe UI,Roboto,Helvetica,Arial,sans-serif" font-size="14.00" fill="#000000">A</text>
</g>
<!-- ListFA&#45;&gt;A -->
<g id="edge3" class="edge">
<title>ListFA&#45;&gt;A</title>
<path fill="none" stroke="#2980b9" d="M350.2447,-18C368.492,-18 392.746,-18 412.7693,-18"/>
<polygon fill="#2980b9" stroke="#2980b9" points="412.8004,-21.5001 422.8004,-18 412.8003,-14.5001 412.8004,-21.5001"/>
<text text-anchor="middle" x="386.5" y="-21.2" font-family="Segoe UI,Roboto,Helvetica,Arial,sans-serif" font-size="11.00" fill="#000000">algebra</text>
</g>
<!-- B -->
<g id="node3" class="node">
<title>B</title>
<path fill="#b2ebf2" stroke="#2980b9" d="M42,-36C42,-36 12,-36 12,-36 6,-36 0,-30 0,-24 0,-24 0,-12 0,-12 0,-6 6,0 12,0 12,0 42,0 42,0 48,0 54,-6 54,-12 54,-12 54,-24 54,-24 54,-30 48,-36 42,-36"/>
<text text-anchor="middle" x="27" y="-14.3" font-family="Segoe UI,Roboto,Helvetica,Arial,sans-serif" font-size="14.00" fill="#000000">Fix[F]</text>
</g>
<!-- B&#45;&gt;ListFList -->
<g id="edge1" class="edge">
<title>B&#45;&gt;ListFList</title>
<path fill="none" stroke="#2980b9" d="M54.1331,-18C71.7989,-18 95.246,-18 115.5362,-18"/>
<polygon fill="#2980b9" stroke="#2980b9" points="115.8117,-21.5001 125.8116,-18 115.8116,-14.5001 115.8117,-21.5001"/>
<text text-anchor="middle" x="90" y="-21.2" font-family="Segoe UI,Roboto,Helvetica,Arial,sans-serif" font-size="11.00" fill="#000000">project</text>
</g>
</g>
</svg>
