<?xml version="1.0" encoding="UTF-8" standalone="no"?>
<!DOCTYPE svg PUBLIC "-//W3C//DTD SVG 1.1//EN"
 "http://www.w3.org/Graphics/SVG/1.1/DTD/svg11.dtd">
<!-- Generated by graphviz version 2.40.1 (20161225.0304)
 -->
<!-- Title: %3 Pages: 1 -->
<svg width="487pt" height="98pt"
 viewBox="0.00 0.00 487.00 98.00" xmlns="http://www.w3.org/2000/svg" xmlns:xlink="http://www.w3.org/1999/xlink">
<g id="graph0" class="graph" transform="scale(1 1) rotate(0) translate(4 94)">
<title>%3</title>
<!-- anaB -->
<g id="node1" class="node">
<title>anaB</title>
<path fill="#b2ebf2" stroke="#2980b9" d="M42,-36C42,-36 12,-36 12,-36 6,-36 0,-30 0,-24 0,-24 0,-12 0,-12 0,-6 6,0 12,0 12,0 42,0 42,0 48,0 54,-6 54,-12 54,-12 54,-24 54,-24 54,-30 48,-36 42,-36"/>
<text text-anchor="middle" x="27" y="-14.3" font-family="Segoe UI,Roboto,Helvetica,Arial,sans-serif" font-size="14.00" fill="#000000">B</text>
</g>
<!-- cataB -->
<g id="node2" class="node">
<title>cataB</title>
<path fill="#b2ebf2" stroke="#2980b9" d="M42,-90C42,-90 12,-90 12,-90 6,-90 0,-84 0,-78 0,-78 0,-66 0,-66 0,-60 6,-54 12,-54 12,-54 42,-54 42,-54 48,-54 54,-60 54,-66 54,-66 54,-78 54,-78 54,-84 48,-90 42,-90"/>
<text text-anchor="middle" x="27" y="-68.3" font-family="Segoe UI,Roboto,Helvetica,Arial,sans-serif" font-size="14.00" fill="#000000">B</text>
</g>
<!-- cataFB -->
<g id="node4" class="node">
<title>cataFB</title>
<path fill="#b2ebf2" stroke="#2980b9" d="M168,-90C168,-90 138,-90 138,-90 132,-90 126,-84 126,-78 126,-78 126,-66 126,-66 126,-60 132,-54 138,-54 138,-54 168,-54 168,-54 174,-54 180,-60 180,-66 180,-66 180,-78 180,-78 180,-84 174,-90 168,-90"/>
<text text-anchor="middle" x="153" y="-68.3" font-family="Segoe UI,Roboto,Helvetica,Arial,sans-serif" font-size="14.00" fill="#000000">F[B]</text>
</g>
<!-- cataB&#45;&gt;cataFB -->
<g id="edge1" class="edge">
<title>cataB&#45;&gt;cataFB</title>
<path fill="none" stroke="#2980b9" d="M54.0302,-72C71.9281,-72 95.6509,-72 115.3839,-72"/>
<polygon fill="#2980b9" stroke="#2980b9" points="115.5798,-75.5001 125.5798,-72 115.5797,-68.5001 115.5798,-75.5001"/>
<text text-anchor="middle" x="90" y="-75.2" font-family="Segoe UI,Roboto,Helvetica,Arial,sans-serif" font-size="11.00" fill="#000000">project</text>
</g>
<!-- anaFB -->
<g id="node3" class="node">
<title>anaFB</title>
<path fill="#b2ebf2" stroke="#2980b9" d="M168,-36C168,-36 138,-36 138,-36 132,-36 126,-30 126,-24 126,-24 126,-12 126,-12 126,-6 132,0 138,0 138,0 168,0 168,0 174,0 180,-6 180,-12 180,-12 180,-24 180,-24 180,-30 174,-36 168,-36"/>
<text text-anchor="middle" x="153" y="-14.3" font-family="Segoe UI,Roboto,Helvetica,Arial,sans-serif" font-size="14.00" fill="#000000">F[B]</text>
</g>
<!-- anaFB&#45;&gt;anaB -->
<g id="edge6" class="edge">
<title>anaFB&#45;&gt;anaB</title>
<path fill="none" stroke="#2980b9" d="M125.5798,-18C107.5979,-18 83.8623,-18 64.1877,-18"/>
<polygon fill="#2980b9" stroke="#2980b9" points="64.0302,-14.5001 54.0302,-18 64.0301,-21.5001 64.0302,-14.5001"/>
<text text-anchor="middle" x="90" y="-21.2" font-family="Segoe UI,Roboto,Helvetica,Arial,sans-serif" font-size="11.00" fill="#000000">embed</text>
</g>
<!-- cataFA -->
<g id="node6" class="node">
<title>cataFA</title>
<path fill="#b2ebf2" stroke="#2980b9" d="M325,-90C325,-90 295,-90 295,-90 289,-90 283,-84 283,-78 283,-78 283,-66 283,-66 283,-60 289,-54 295,-54 295,-54 325,-54 325,-54 331,-54 337,-60 337,-66 337,-66 337,-78 337,-78 337,-84 331,-90 325,-90"/>
<text text-anchor="middle" x="310" y="-68.3" font-family="Segoe UI,Roboto,Helvetica,Arial,sans-serif" font-size="14.00" fill="#000000">F[A]</text>
</g>
<!-- cataFB&#45;&gt;cataFA -->
<g id="edge2" class="edge">
<title>cataFB&#45;&gt;cataFA</title>
<path fill="none" stroke="#2980b9" d="M180.3473,-72C205.8993,-72 244.2585,-72 272.6293,-72"/>
<polygon fill="#2980b9" stroke="#2980b9" points="272.9661,-75.5001 282.9661,-72 272.966,-68.5001 272.9661,-75.5001"/>
<text text-anchor="middle" x="231.5" y="-75.2" font-family="Segoe UI,Roboto,Helvetica,Arial,sans-serif" font-size="11.00" fill="#000000">fmap(_, loop)</text>
</g>
<!-- anaFA -->
<g id="node5" class="node">
<title>anaFA</title>
<path fill="#b2ebf2" stroke="#2980b9" d="M325,-36C325,-36 295,-36 295,-36 289,-36 283,-30 283,-24 283,-24 283,-12 283,-12 283,-6 289,0 295,0 295,0 325,0 325,0 331,0 337,-6 337,-12 337,-12 337,-24 337,-24 337,-30 331,-36 325,-36"/>
<text text-anchor="middle" x="310" y="-14.3" font-family="Segoe UI,Roboto,Helvetica,Arial,sans-serif" font-size="14.00" fill="#000000">F[A]</text>
</g>
<!-- anaFA&#45;&gt;anaFB -->
<g id="edge5" class="edge">
<title>anaFA&#45;&gt;anaFB</title>
<path fill="none" stroke="#2980b9" d="M282.9661,-18C257.5194,-18 219.1721,-18 190.7199,-18"/>
<polygon fill="#2980b9" stroke="#2980b9" points="190.3473,-14.5001 180.3473,-18 190.3473,-21.5001 190.3473,-14.5001"/>
<text text-anchor="middle" x="231.5" y="-21.2" font-family="Segoe UI,Roboto,Helvetica,Arial,sans-serif" font-size="11.00" fill="#000000">fmap(_, loop)</text>
</g>
<!-- cataA -->
<g id="node8" class="node">
<title>cataA</title>
<path fill="#b2ebf2" stroke="#2980b9" d="M467,-90C467,-90 437,-90 437,-90 431,-90 425,-84 425,-78 425,-78 425,-66 425,-66 425,-60 431,-54 437,-54 437,-54 467,-54 467,-54 473,-54 479,-60 479,-66 479,-66 479,-78 479,-78 479,-84 473,-90 467,-90"/>
<text text-anchor="middle" x="452" y="-68.3" font-family="Segoe UI,Roboto,Helvetica,Arial,sans-serif" font-size="14.00" fill="#000000">A</text>
</g>
<!-- cataFA&#45;&gt;cataA -->
<g id="edge3" class="edge">
<title>cataFA&#45;&gt;cataA</title>
<path fill="none" stroke="#2980b9" d="M337.0434,-72C358.9133,-72 389.9567,-72 414.2723,-72"/>
<polygon fill="#2980b9" stroke="#2980b9" points="414.5737,-75.5001 424.5737,-72 414.5736,-68.5001 414.5737,-75.5001"/>
<text text-anchor="middle" x="381" y="-75.2" font-family="Segoe UI,Roboto,Helvetica,Arial,sans-serif" font-size="11.00" fill="#000000">algebra</text>
</g>
<!-- anaA -->
<g id="node7" class="node">
<title>anaA</title>
<path fill="#b2ebf2" stroke="#2980b9" d="M467,-36C467,-36 437,-36 437,-36 431,-36 425,-30 425,-24 425,-24 425,-12 425,-12 425,-6 431,0 437,0 437,0 467,0 467,0 473,0 479,-6 479,-12 479,-12 479,-24 479,-24 479,-30 473,-36 467,-36"/>
<text text-anchor="middle" x="452" y="-14.3" font-family="Segoe UI,Roboto,Helvetica,Arial,sans-serif" font-size="14.00" fill="#000000">A</text>
</g>
<!-- anaA&#45;&gt;anaFA -->
<g id="edge4" class="edge">
<title>anaA&#45;&gt;anaFA</title>
<path fill="none" stroke="#2980b9" d="M424.5737,-18C402.5975,-18 371.5403,-18 347.3035,-18"/>
<polygon fill="#2980b9" stroke="#2980b9" points="347.0434,-14.5001 337.0434,-18 347.0433,-21.5001 347.0434,-14.5001"/>
<text text-anchor="middle" x="381" y="-21.2" font-family="Segoe UI,Roboto,Helvetica,Arial,sans-serif" font-size="11.00" fill="#000000">coAlgebra</text>
</g>
</g>
</svg>
