<?xml version="1.0" encoding="UTF-8" standalone="no"?>
<!DOCTYPE svg PUBLIC "-//W3C//DTD SVG 1.1//EN"
 "http://www.w3.org/Graphics/SVG/1.1/DTD/svg11.dtd">
<!-- Generated by graphviz version 2.40.1 (20161225.0304)
 -->
<!-- Title: %3 Pages: 1 -->
<svg width="641pt" height="59pt"
 viewBox="0.00 0.00 641.00 58.50" xmlns="http://www.w3.org/2000/svg" xmlns:xlink="http://www.w3.org/1999/xlink">
<g id="graph0" class="graph" transform="scale(1 1) rotate(0) translate(4 54.5)">
<title>%3</title>
<!-- ListStruct -->
<g id="node1" class="node">
<title>ListStruct</title>
<path fill="#b2ebf2" stroke="#2980b9" d="M307,-.5C307,-.5 357,-.5 357,-.5 363,-.5 369,-6.5 369,-12.5 369,-12.5 369,-34.5 369,-34.5 369,-40.5 363,-46.5 357,-46.5 357,-46.5 307,-46.5 307,-46.5 301,-46.5 295,-40.5 295,-34.5 295,-34.5 295,-12.5 295,-12.5 295,-6.5 301,-.5 307,-.5"/>
<text text-anchor="middle" x="332" y="-31.3" font-family="Segoe UI,Roboto,Helvetica,Arial,sans-serif" font-size="14.00" fill="#000000">head, tail</text>
<polyline fill="none" stroke="#2980b9" points="295,-23.5 369,-23.5 "/>
<text text-anchor="middle" x="332" y="-8.3" font-family="Segoe UI,Roboto,Helvetica,Arial,sans-serif" font-size="14.00" fill="#000000">∅</text>
</g>
<!-- ListStruct2 -->
<g id="node2" class="node">
<title>ListStruct2</title>
<path fill="#b2ebf2" stroke="#2980b9" d="M464,-.5C464,-.5 503,-.5 503,-.5 509,-.5 515,-6.5 515,-12.5 515,-12.5 515,-34.5 515,-34.5 515,-40.5 509,-46.5 503,-46.5 503,-46.5 464,-46.5 464,-46.5 458,-46.5 452,-40.5 452,-34.5 452,-34.5 452,-12.5 452,-12.5 452,-6.5 458,-.5 464,-.5"/>
<text text-anchor="middle" x="483.5" y="-31.3" font-family="Segoe UI,Roboto,Helvetica,Arial,sans-serif" font-size="14.00" fill="#000000">head, A</text>
<polyline fill="none" stroke="#2980b9" points="452,-23.5 515,-23.5 "/>
<text text-anchor="middle" x="483.5" y="-8.3" font-family="Segoe UI,Roboto,Helvetica,Arial,sans-serif" font-size="14.00" fill="#000000">∅</text>
</g>
<!-- ListStruct&#45;&gt;ListStruct2 -->
<g id="edge4" class="edge">
<title>ListStruct:cons&#45;&gt;ListStruct2:cons</title>
<path fill="none" stroke="#2980b9" d="M369,-35.5C369,-35.5 419.6592,-35.5 441.8226,-35.5"/>
<polygon fill="#2980b9" stroke="#2980b9" points="442,-39.0001 452,-35.5 442,-32.0001 442,-39.0001"/>
<text text-anchor="middle" x="410.5" y="-39.3" font-family="Segoe UI,Roboto,Helvetica,Arial,sans-serif" font-size="14.00" fill="#000000">recurse</text>
</g>
<!-- ListStruct&#45;&gt;ListStruct2 -->
<g id="edge5" class="edge">
<title>ListStruct:nil&#45;&gt;ListStruct2:nil</title>
<path fill="none" stroke="#2980b9" d="M369,-11.5C369,-11.5 419.6592,-11.5 441.8226,-11.5"/>
<polygon fill="#2980b9" stroke="#2980b9" points="442,-15.0001 452,-11.5 442,-8.0001 442,-15.0001"/>
</g>
<!-- A -->
<g id="node5" class="node">
<title>A</title>
<path fill="#b2ebf2" stroke="#2980b9" d="M621,-41.5C621,-41.5 591,-41.5 591,-41.5 585,-41.5 579,-35.5 579,-29.5 579,-29.5 579,-17.5 579,-17.5 579,-11.5 585,-5.5 591,-5.5 591,-5.5 621,-5.5 621,-5.5 627,-5.5 633,-11.5 633,-17.5 633,-17.5 633,-29.5 633,-29.5 633,-35.5 627,-41.5 621,-41.5"/>
<text text-anchor="middle" x="606" y="-19.8" font-family="Segoe UI,Roboto,Helvetica,Arial,sans-serif" font-size="14.00" fill="#000000">A</text>
</g>
<!-- ListStruct2&#45;&gt;A -->
<g id="edge6" class="edge">
<title>ListStruct2:cons&#45;&gt;A</title>
<path fill="none" stroke="#2980b9" d="M515,-35.5C515,-35.5 543.4985,-31.742 568.599,-28.432"/>
<polygon fill="#2980b9" stroke="#2980b9" points="569.2404,-31.8778 578.697,-27.1004 568.3252,-24.9379 569.2404,-31.8778"/>
<text text-anchor="middle" x="547" y="-36.3" font-family="Segoe UI,Roboto,Helvetica,Arial,sans-serif" font-size="14.00" fill="#000000">step</text>
</g>
<!-- ListStruct2&#45;&gt;A -->
<g id="edge7" class="edge">
<title>ListStruct2:nil&#45;&gt;A</title>
<path fill="none" stroke="#2980b9" d="M515,-11.5C515,-11.5 543.4985,-15.258 568.599,-18.568"/>
<polygon fill="#2980b9" stroke="#2980b9" points="568.3252,-22.0621 578.697,-19.8996 569.2404,-15.1222 568.3252,-22.0621"/>
<text text-anchor="middle" x="557.2995" y="-3.834" font-family="Segoe UI,Roboto,Helvetica,Arial,sans-serif" font-size="14.00" fill="#000000">base</text>
</g>
<!-- ListFList -->
<g id="node3" class="node">
<title>ListFList</title>
<path fill="#b2ebf2" stroke="#2980b9" d="M246,-41.5C246,-41.5 147,-41.5 147,-41.5 141,-41.5 135,-35.5 135,-29.5 135,-29.5 135,-17.5 135,-17.5 135,-11.5 141,-5.5 147,-5.5 147,-5.5 246,-5.5 246,-5.5 252,-5.5 258,-11.5 258,-17.5 258,-17.5 258,-29.5 258,-29.5 258,-35.5 252,-41.5 246,-41.5"/>
<text text-anchor="middle" x="196.5" y="-19.8" font-family="Segoe UI,Roboto,Helvetica,Arial,sans-serif" font-size="14.00" fill="#000000">Option[head, tail]</text>
</g>
<!-- ListFList&#45;&gt;ListStruct -->
<g id="edge2" class="edge">
<title>ListFList&#45;&gt;ListStruct:cons</title>
<path fill="none" stroke="#2980b9" stroke-dasharray="5,2" d="M258.042,-30.9975C268.464,-32.2672 278.1015,-33.4413 284.9202,-34.272"/>
<polygon fill="#2980b9" stroke="#2980b9" points="284.6501,-37.7649 295,-35.5 285.4967,-30.8163 284.6501,-37.7649"/>
</g>
<!-- ListFList&#45;&gt;ListStruct -->
<g id="edge3" class="edge">
<title>ListFList&#45;&gt;ListStruct:nil</title>
<path fill="none" stroke="#2980b9" stroke-dasharray="5,2" d="M258.042,-16.0025C268.464,-14.7328 278.1015,-13.5587 284.9202,-12.728"/>
<polygon fill="#2980b9" stroke="#2980b9" points="285.4967,-16.1837 295,-11.5 284.6501,-9.2351 285.4967,-16.1837"/>
</g>
<!-- List -->
<g id="node4" class="node">
<title>List</title>
<path fill="#b2ebf2" stroke="#2980b9" d="M42,-41.5C42,-41.5 12,-41.5 12,-41.5 6,-41.5 0,-35.5 0,-29.5 0,-29.5 0,-17.5 0,-17.5 0,-11.5 6,-5.5 12,-5.5 12,-5.5 42,-5.5 42,-5.5 48,-5.5 54,-11.5 54,-17.5 54,-17.5 54,-29.5 54,-29.5 54,-35.5 48,-41.5 42,-41.5"/>
<text text-anchor="middle" x="27" y="-19.8" font-family="Segoe UI,Roboto,Helvetica,Arial,sans-serif" font-size="14.00" fill="#000000">List</text>
</g>
<!-- List&#45;&gt;ListFList -->
<g id="edge1" class="edge">
<title>List&#45;&gt;ListFList</title>
<path fill="none" stroke="#2980b9" d="M54.2331,-23.5C73.315,-23.5 99.7624,-23.5 124.6822,-23.5"/>
<polygon fill="#2980b9" stroke="#2980b9" points="124.8721,-27.0001 134.8721,-23.5 124.8721,-20.0001 124.8721,-27.0001"/>
<text text-anchor="middle" x="94.5" y="-27.3" font-family="Segoe UI,Roboto,Helvetica,Arial,sans-serif" font-size="14.00" fill="#000000">project</text>
</g>
</g>
</svg>
