<?xml version="1.0" encoding="UTF-8" standalone="no"?>
<!DOCTYPE svg PUBLIC "-//W3C//DTD SVG 1.1//EN"
 "http://www.w3.org/Graphics/SVG/1.1/DTD/svg11.dtd">
<!-- Generated by graphviz version 2.40.1 (20161225.0304)
 -->
<!-- Title: %3 Pages: 1 -->
<svg width="688pt" height="56pt"
 viewBox="0.00 0.00 688.00 55.50" xmlns="http://www.w3.org/2000/svg" xmlns:xlink="http://www.w3.org/1999/xlink">
<g id="graph0" class="graph" transform="scale(1 1) rotate(0) translate(4 51.5)">
<title>%3</title>
<!-- ListStruct -->
<g id="node1" class="node">
<title>ListStruct</title>
<path fill="#b2ebf2" stroke="#2980b9" d="M283,-.5C283,-.5 321,-.5 321,-.5 327,-.5 333,-6.5 333,-12.5 333,-12.5 333,-34.5 333,-34.5 333,-40.5 327,-46.5 321,-46.5 321,-46.5 283,-46.5 283,-46.5 277,-46.5 271,-40.5 271,-34.5 271,-34.5 271,-12.5 271,-12.5 271,-6.5 277,-.5 283,-.5"/>
<text text-anchor="middle" x="302" y="-31.3" font-family="Segoe UI,Roboto,Helvetica,Arial,sans-serif" font-size="14.00" fill="#000000">Int, List</text>
<polyline fill="none" stroke="#2980b9" points="271,-23.5 333,-23.5 "/>
<text text-anchor="middle" x="302" y="-8.3" font-family="Segoe UI,Roboto,Helvetica,Arial,sans-serif" font-size="14.00" fill="#000000">∅</text>
</g>
<!-- ListStruct2 -->
<g id="node2" class="node">
<title>ListStruct2</title>
<path fill="#b2ebf2" stroke="#2980b9" d="M404,-.5C404,-.5 434,-.5 434,-.5 440,-.5 446,-6.5 446,-12.5 446,-12.5 446,-34.5 446,-34.5 446,-40.5 440,-46.5 434,-46.5 434,-46.5 404,-46.5 404,-46.5 398,-46.5 392,-40.5 392,-34.5 392,-34.5 392,-12.5 392,-12.5 392,-6.5 398,-.5 404,-.5"/>
<text text-anchor="middle" x="419" y="-31.3" font-family="Segoe UI,Roboto,Helvetica,Arial,sans-serif" font-size="14.00" fill="#000000">Int, A</text>
<polyline fill="none" stroke="#2980b9" points="392,-23.5 446,-23.5 "/>
<text text-anchor="middle" x="419" y="-8.3" font-family="Segoe UI,Roboto,Helvetica,Arial,sans-serif" font-size="14.00" fill="#000000">∅</text>
</g>
<!-- ListStruct&#45;&gt;ListStruct2 -->
<g id="edge4" class="edge">
<title>ListStruct:cons&#45;&gt;ListStruct2:cons</title>
<path fill="none" stroke="#2980b9" d="M333,-35.5C333,-35.5 365.1585,-35.5 381.9915,-35.5"/>
<polygon fill="#2980b9" stroke="#2980b9" points="382,-39.0001 392,-35.5 382,-32.0001 382,-39.0001"/>
<text text-anchor="middle" x="362.5" y="-38.7" font-family="Segoe UI,Roboto,Helvetica,Arial,sans-serif" font-size="11.00" fill="#000000">loop</text>
</g>
<!-- ListStruct&#45;&gt;ListStruct2 -->
<g id="edge5" class="edge">
<title>ListStruct:nil&#45;&gt;ListStruct2:nil</title>
<path fill="none" stroke="#dddddd" d="M333,-11.5C333,-11.5 365.1585,-11.5 381.9915,-11.5"/>
<polygon fill="#dddddd" stroke="#dddddd" points="382,-15.0001 392,-11.5 382,-8.0001 382,-15.0001"/>
</g>
<!-- ListFA -->
<g id="node4" class="node">
<title>ListFA</title>
<path fill="#b2ebf2" stroke="#dddddd" d="M565,-41.5C565,-41.5 524,-41.5 524,-41.5 518,-41.5 512,-35.5 512,-29.5 512,-29.5 512,-17.5 512,-17.5 512,-11.5 518,-5.5 524,-5.5 524,-5.5 565,-5.5 565,-5.5 571,-5.5 577,-11.5 577,-17.5 577,-17.5 577,-29.5 577,-29.5 577,-35.5 571,-41.5 565,-41.5"/>
<text text-anchor="middle" x="544.5" y="-19.8" font-family="Segoe UI,Roboto,Helvetica,Arial,sans-serif" font-size="14.00" fill="#dddddd">ListF[A]</text>
</g>
<!-- ListStruct2&#45;&gt;ListFA -->
<g id="edge6" class="edge">
<title>ListStruct2:cons&#45;&gt;ListFA</title>
<path fill="none" stroke="#dddddd" stroke-dasharray="5,2" d="M446,-35.5C446,-35.5 475.315,-31.9286 501.9599,-28.6825"/>
<polygon fill="#dddddd" stroke="#dddddd" points="502.4711,-32.1462 511.9744,-27.4625 501.6245,-25.1976 502.4711,-32.1462"/>
<text text-anchor="middle" x="479" y="-35.7" font-family="Segoe UI,Roboto,Helvetica,Arial,sans-serif" font-size="11.00" fill="#dddddd">Some</text>
</g>
<!-- ListStruct2&#45;&gt;ListFA -->
<g id="edge7" class="edge">
<title>ListStruct2:nil&#45;&gt;ListFA</title>
<path fill="none" stroke="#dddddd" stroke-dasharray="5,2" d="M446,-11.5C446,-11.5 475.315,-15.0714 501.9599,-18.3175"/>
<polygon fill="#dddddd" stroke="#dddddd" points="501.6245,-21.8024 511.9744,-19.5375 502.4711,-14.8538 501.6245,-21.8024"/>
<text text-anchor="middle" x="479" y="-16.7" font-family="Segoe UI,Roboto,Helvetica,Arial,sans-serif" font-size="11.00" fill="#dddddd">None</text>
</g>
<!-- ListFList -->
<g id="node3" class="node">
<title>ListFList</title>
<path fill="#b2ebf2" stroke="#dddddd" d="M193,-41.5C193,-41.5 138,-41.5 138,-41.5 132,-41.5 126,-35.5 126,-29.5 126,-29.5 126,-17.5 126,-17.5 126,-11.5 132,-5.5 138,-5.5 138,-5.5 193,-5.5 193,-5.5 199,-5.5 205,-11.5 205,-17.5 205,-17.5 205,-29.5 205,-29.5 205,-35.5 199,-41.5 193,-41.5"/>
<text text-anchor="middle" x="165.5" y="-19.8" font-family="Segoe UI,Roboto,Helvetica,Arial,sans-serif" font-size="14.00" fill="#dddddd">ListF[List]</text>
</g>
<!-- ListFList&#45;&gt;ListStruct -->
<g id="edge2" class="edge">
<title>ListFList&#45;&gt;ListStruct:cons</title>
<path fill="none" stroke="#dddddd" stroke-dasharray="5,2" d="M205.0845,-28.0025C225.1977,-30.2903 248.0391,-32.8883 260.8633,-34.347"/>
<polygon fill="#dddddd" stroke="#dddddd" points="260.6685,-37.8473 271,-35.5 261.4597,-30.8922 260.6685,-37.8473"/>
<text text-anchor="middle" x="238" y="-35.7" font-family="Segoe UI,Roboto,Helvetica,Arial,sans-serif" font-size="11.00" fill="#dddddd">Some</text>
</g>
<!-- ListFList&#45;&gt;ListStruct -->
<g id="edge3" class="edge">
<title>ListFList&#45;&gt;ListStruct:nil</title>
<path fill="none" stroke="#dddddd" stroke-dasharray="5,2" d="M205.0845,-18.9975C225.1977,-16.7097 248.0391,-14.1117 260.8633,-12.653"/>
<polygon fill="#dddddd" stroke="#dddddd" points="261.4597,-16.1078 271,-11.5 260.6685,-9.1527 261.4597,-16.1078"/>
<text text-anchor="middle" x="238" y="-16.7" font-family="Segoe UI,Roboto,Helvetica,Arial,sans-serif" font-size="11.00" fill="#dddddd">None</text>
</g>
<!-- A -->
<g id="node6" class="node">
<title>A</title>
<path fill="#b2ebf2" stroke="#dddddd" d="M668,-41.5C668,-41.5 638,-41.5 638,-41.5 632,-41.5 626,-35.5 626,-29.5 626,-29.5 626,-17.5 626,-17.5 626,-11.5 632,-5.5 638,-5.5 638,-5.5 668,-5.5 668,-5.5 674,-5.5 680,-11.5 680,-17.5 680,-17.5 680,-29.5 680,-29.5 680,-35.5 674,-41.5 668,-41.5"/>
<text text-anchor="middle" x="653" y="-19.8" font-family="Segoe UI,Roboto,Helvetica,Arial,sans-serif" font-size="14.00" fill="#dddddd">A</text>
</g>
<!-- ListFA&#45;&gt;A -->
<g id="edge8" class="edge">
<title>ListFA&#45;&gt;A</title>
<path fill="none" stroke="#dddddd" d="M577.0536,-23.5C589.2451,-23.5 603.1869,-23.5 615.7695,-23.5"/>
<polygon fill="#dddddd" stroke="#dddddd" points="615.951,-27.0001 625.951,-23.5 615.9509,-20.0001 615.951,-27.0001"/>
<text text-anchor="middle" x="601.5" y="-26.7" font-family="Segoe UI,Roboto,Helvetica,Arial,sans-serif" font-size="11.00" fill="#dddddd">op</text>
</g>
<!-- List -->
<g id="node5" class="node">
<title>List</title>
<path fill="#b2ebf2" stroke="#dddddd" d="M42,-41.5C42,-41.5 12,-41.5 12,-41.5 6,-41.5 0,-35.5 0,-29.5 0,-29.5 0,-17.5 0,-17.5 0,-11.5 6,-5.5 12,-5.5 12,-5.5 42,-5.5 42,-5.5 48,-5.5 54,-11.5 54,-17.5 54,-17.5 54,-29.5 54,-29.5 54,-35.5 48,-41.5 42,-41.5"/>
<text text-anchor="middle" x="27" y="-19.8" font-family="Segoe UI,Roboto,Helvetica,Arial,sans-serif" font-size="14.00" fill="#dddddd">List</text>
</g>
<!-- List&#45;&gt;ListFList -->
<g id="edge1" class="edge">
<title>List&#45;&gt;ListFList</title>
<path fill="none" stroke="#dddddd" d="M54.033,-23.5C71.5426,-23.5 94.8752,-23.5 115.6671,-23.5"/>
<polygon fill="#dddddd" stroke="#dddddd" points="115.9476,-27.0001 125.9476,-23.5 115.9476,-20.0001 115.9476,-27.0001"/>
<text text-anchor="middle" x="90" y="-26.7" font-family="Segoe UI,Roboto,Helvetica,Arial,sans-serif" font-size="11.00" fill="#dddddd">project</text>
</g>
</g>
</svg>
