<?xml version="1.0" encoding="UTF-8" standalone="no"?>
<!DOCTYPE svg PUBLIC "-//W3C//DTD SVG 1.1//EN"
 "http://www.w3.org/Graphics/SVG/1.1/DTD/svg11.dtd">
<!-- Generated by graphviz version 2.40.1 (20161225.0304)
 -->
<!-- Title: %3 Pages: 1 -->
<svg width="450pt" height="44pt"
 viewBox="0.00 0.00 450.00 44.00" xmlns="http://www.w3.org/2000/svg" xmlns:xlink="http://www.w3.org/1999/xlink">
<g id="graph0" class="graph" transform="scale(1 1) rotate(0) translate(4 40)">
<title>%3</title>
<!-- List -->
<g id="node1" class="node">
<title>List</title>
<path fill="#b2ebf2" stroke="#2980b9" d="M42,-36C42,-36 12,-36 12,-36 6,-36 0,-30 0,-24 0,-24 0,-12 0,-12 0,-6 6,0 12,0 12,0 42,0 42,0 48,0 54,-6 54,-12 54,-12 54,-24 54,-24 54,-30 48,-36 42,-36"/>
<text text-anchor="middle" x="27" y="-14.3" font-family="Segoe UI,Roboto,Helvetica,Arial,sans-serif" font-size="14.00" fill="#000000">List</text>
</g>
<!-- ListFList -->
<g id="node2" class="node">
<title>ListFList</title>
<path fill="#b2ebf2" stroke="#dddddd" d="M170,-36C170,-36 138,-36 138,-36 132,-36 126,-30 126,-24 126,-24 126,-12 126,-12 126,-6 132,0 138,0 138,0 170,0 170,0 176,0 182,-6 182,-12 182,-12 182,-24 182,-24 182,-30 176,-36 170,-36"/>
<text text-anchor="middle" x="154" y="-14.3" font-family="Segoe UI,Roboto,Helvetica,Arial,sans-serif" font-size="14.00" fill="#dddddd">F[List]</text>
</g>
<!-- List&#45;&gt;ListFList -->
<g id="edge1" class="edge">
<title>List&#45;&gt;ListFList</title>
<path fill="none" stroke="#dddddd" d="M54.2447,-18C72.1611,-18 95.8685,-18 115.6761,-18"/>
<polygon fill="#dddddd" stroke="#dddddd" points="115.9217,-21.5001 125.9217,-18 115.9216,-14.5001 115.9217,-21.5001"/>
<text text-anchor="middle" x="90" y="-21.2" font-family="Segoe UI,Roboto,Helvetica,Arial,sans-serif" font-size="11.00" fill="#dddddd">project</text>
</g>
<!-- ListFA -->
<g id="node3" class="node">
<title>ListFA</title>
<path fill="#b2ebf2" stroke="#dddddd" d="M327,-36C327,-36 297,-36 297,-36 291,-36 285,-30 285,-24 285,-24 285,-12 285,-12 285,-6 291,0 297,0 297,0 327,0 327,0 333,0 339,-6 339,-12 339,-12 339,-24 339,-24 339,-30 333,-36 327,-36"/>
<text text-anchor="middle" x="312" y="-14.3" font-family="Segoe UI,Roboto,Helvetica,Arial,sans-serif" font-size="14.00" fill="#dddddd">F[A]</text>
</g>
<!-- ListFList&#45;&gt;ListFA -->
<g id="edge2" class="edge">
<title>ListFList&#45;&gt;ListFA</title>
<path fill="none" stroke="#dddddd" d="M182.2472,-18C207.9845,-18 246.1851,-18 274.4779,-18"/>
<polygon fill="#dddddd" stroke="#dddddd" points="274.7897,-21.5001 284.7897,-18 274.7896,-14.5001 274.7897,-21.5001"/>
<text text-anchor="middle" x="233.5" y="-21.2" font-family="Segoe UI,Roboto,Helvetica,Arial,sans-serif" font-size="11.00" fill="#dddddd">fmap(_, loop)</text>
</g>
<!-- A -->
<g id="node4" class="node">
<title>A</title>
<path fill="#b2ebf2" stroke="#dddddd" d="M430,-36C430,-36 400,-36 400,-36 394,-36 388,-30 388,-24 388,-24 388,-12 388,-12 388,-6 394,0 400,0 400,0 430,0 430,0 436,0 442,-6 442,-12 442,-12 442,-24 442,-24 442,-30 436,-36 430,-36"/>
<text text-anchor="middle" x="415" y="-14.3" font-family="Segoe UI,Roboto,Helvetica,Arial,sans-serif" font-size="14.00" fill="#dddddd">A</text>
</g>
<!-- ListFA&#45;&gt;A -->
<g id="edge3" class="edge">
<title>ListFA&#45;&gt;A</title>
<path fill="none" stroke="#dddddd" d="M339.062,-18C350.7965,-18 364.7346,-18 377.4467,-18"/>
<polygon fill="#dddddd" stroke="#dddddd" points="377.7611,-21.5001 387.7611,-18 377.7611,-14.5001 377.7611,-21.5001"/>
<text text-anchor="middle" x="363.5" y="-21.2" font-family="Segoe UI,Roboto,Helvetica,Arial,sans-serif" font-size="11.00" fill="#dddddd">op</text>
</g>
</g>
</svg>
