<?xml version="1.0" encoding="UTF-8" standalone="no"?>
<!DOCTYPE svg PUBLIC "-//W3C//DTD SVG 1.1//EN"
 "http://www.w3.org/Graphics/SVG/1.1/DTD/svg11.dtd">
<!-- Generated by graphviz version 2.40.1 (20161225.0304)
 -->
<!-- Title: %3 Pages: 1 -->
<svg width="602pt" height="56pt"
 viewBox="0.00 0.00 602.00 55.50" xmlns="http://www.w3.org/2000/svg" xmlns:xlink="http://www.w3.org/1999/xlink">
<g id="graph0" class="graph" transform="scale(1 1) rotate(0) translate(4 51.5)">
<title>%3</title>
<!-- ListStruct -->
<g id="node1" class="node">
<title>ListStruct</title>
<path fill="#b2ebf2" stroke="#2980b9" d="M316,-.5C316,-.5 354,-.5 354,-.5 360,-.5 366,-6.5 366,-12.5 366,-12.5 366,-34.5 366,-34.5 366,-40.5 360,-46.5 354,-46.5 354,-46.5 316,-46.5 316,-46.5 310,-46.5 304,-40.5 304,-34.5 304,-34.5 304,-12.5 304,-12.5 304,-6.5 310,-.5 316,-.5"/>
<text text-anchor="middle" x="335" y="-31.3" font-family="Segoe UI,Roboto,Helvetica,Arial,sans-serif" font-size="14.00" fill="#000000">Int, List</text>
<polyline fill="none" stroke="#2980b9" points="304,-23.5 366,-23.5 "/>
<text text-anchor="middle" x="335" y="-8.3" font-family="Segoe UI,Roboto,Helvetica,Arial,sans-serif" font-size="14.00" fill="#000000">∅</text>
</g>
<!-- ListStruct2 -->
<g id="node2" class="node">
<title>ListStruct2</title>
<path fill="#b2ebf2" stroke="#dddddd" d="M437,-.5C437,-.5 467,-.5 467,-.5 473,-.5 479,-6.5 479,-12.5 479,-12.5 479,-34.5 479,-34.5 479,-40.5 473,-46.5 467,-46.5 467,-46.5 437,-46.5 437,-46.5 431,-46.5 425,-40.5 425,-34.5 425,-34.5 425,-12.5 425,-12.5 425,-6.5 431,-.5 437,-.5"/>
<text text-anchor="middle" x="452" y="-31.3" font-family="Segoe UI,Roboto,Helvetica,Arial,sans-serif" font-size="14.00" fill="#dddddd">Int, A</text>
<polyline fill="none" stroke="#dddddd" points="425,-23.5 479,-23.5 "/>
<text text-anchor="middle" x="452" y="-8.3" font-family="Segoe UI,Roboto,Helvetica,Arial,sans-serif" font-size="14.00" fill="#dddddd">∅</text>
</g>
<!-- ListStruct&#45;&gt;ListStruct2 -->
<g id="edge4" class="edge">
<title>ListStruct:cons&#45;&gt;ListStruct2:cons</title>
<path fill="none" stroke="#dddddd" d="M366,-35.5C366,-35.5 398.1585,-35.5 414.9915,-35.5"/>
<polygon fill="#dddddd" stroke="#dddddd" points="415,-39.0001 425,-35.5 415,-32.0001 415,-39.0001"/>
<text text-anchor="middle" x="395.5" y="-38.7" font-family="Segoe UI,Roboto,Helvetica,Arial,sans-serif" font-size="11.00" fill="#dddddd">loop</text>
</g>
<!-- ListStruct&#45;&gt;ListStruct2 -->
<g id="edge5" class="edge">
<title>ListStruct:nil&#45;&gt;ListStruct2:nil</title>
<path fill="none" stroke="#dddddd" d="M366,-11.5C366,-11.5 398.1585,-11.5 414.9915,-11.5"/>
<polygon fill="#dddddd" stroke="#dddddd" points="415,-15.0001 425,-11.5 415,-8.0001 415,-15.0001"/>
</g>
<!-- A -->
<g id="node5" class="node">
<title>A</title>
<path fill="#b2ebf2" stroke="#dddddd" d="M582,-41.5C582,-41.5 552,-41.5 552,-41.5 546,-41.5 540,-35.5 540,-29.5 540,-29.5 540,-17.5 540,-17.5 540,-11.5 546,-5.5 552,-5.5 552,-5.5 582,-5.5 582,-5.5 588,-5.5 594,-11.5 594,-17.5 594,-17.5 594,-29.5 594,-29.5 594,-35.5 588,-41.5 582,-41.5"/>
<text text-anchor="middle" x="567" y="-19.8" font-family="Segoe UI,Roboto,Helvetica,Arial,sans-serif" font-size="14.00" fill="#dddddd">A</text>
</g>
<!-- ListStruct2&#45;&gt;A -->
<g id="edge6" class="edge">
<title>ListStruct2:cons&#45;&gt;A</title>
<path fill="none" stroke="#dddddd" d="M479,-35.5C479,-35.5 505.6484,-31.8661 529.6163,-28.5978"/>
<polygon fill="#dddddd" stroke="#dddddd" points="530.2033,-32.0502 539.6386,-27.2311 529.2574,-25.1144 530.2033,-32.0502"/>
<text text-anchor="middle" x="509.5" y="-35.7" font-family="Segoe UI,Roboto,Helvetica,Arial,sans-serif" font-size="11.00" fill="#dddddd">step</text>
</g>
<!-- ListStruct2&#45;&gt;A -->
<g id="edge7" class="edge">
<title>ListStruct2:nil&#45;&gt;A</title>
<path fill="none" stroke="#dddddd" d="M479,-11.5C479,-11.5 505.6484,-15.1339 529.6163,-18.4022"/>
<polygon fill="#dddddd" stroke="#dddddd" points="529.2574,-21.8856 539.6386,-19.7689 530.2033,-14.9498 529.2574,-21.8856"/>
<text text-anchor="middle" x="509.5" y="-16.7" font-family="Segoe UI,Roboto,Helvetica,Arial,sans-serif" font-size="11.00" fill="#dddddd">base</text>
</g>
<!-- ListFList -->
<g id="node3" class="node">
<title>ListFList</title>
<path fill="#b2ebf2" stroke="#2980b9" d="M226,-41.5C226,-41.5 138,-41.5 138,-41.5 132,-41.5 126,-35.5 126,-29.5 126,-29.5 126,-17.5 126,-17.5 126,-11.5 132,-5.5 138,-5.5 138,-5.5 226,-5.5 226,-5.5 232,-5.5 238,-11.5 238,-17.5 238,-17.5 238,-29.5 238,-29.5 238,-35.5 232,-41.5 226,-41.5"/>
<text text-anchor="middle" x="182" y="-19.8" font-family="Segoe UI,Roboto,Helvetica,Arial,sans-serif" font-size="14.00" fill="#000000">Option[Int, List]</text>
</g>
<!-- ListFList&#45;&gt;ListStruct -->
<g id="edge2" class="edge">
<title>ListFList&#45;&gt;ListStruct:cons</title>
<path fill="none" stroke="#2980b9" stroke-dasharray="5,2" d="M238.0011,-29.0083C259.2987,-31.1032 281.4146,-33.2785 293.8701,-34.5036"/>
<polygon fill="#2980b9" stroke="#2980b9" points="293.7054,-38.0042 304,-35.5 294.3907,-31.0378 293.7054,-38.0042"/>
<text text-anchor="middle" x="271" y="-35.7" font-family="Segoe UI,Roboto,Helvetica,Arial,sans-serif" font-size="11.00" fill="#000000">Some</text>
</g>
<!-- ListFList&#45;&gt;ListStruct -->
<g id="edge3" class="edge">
<title>ListFList&#45;&gt;ListStruct:nil</title>
<path fill="none" stroke="#2980b9" stroke-dasharray="5,2" d="M238.0011,-17.9917C259.2987,-15.8968 281.4146,-13.7215 293.8701,-12.4964"/>
<polygon fill="#2980b9" stroke="#2980b9" points="294.3907,-15.9622 304,-11.5 293.7054,-8.9958 294.3907,-15.9622"/>
<text text-anchor="middle" x="271" y="-17.7" font-family="Segoe UI,Roboto,Helvetica,Arial,sans-serif" font-size="11.00" fill="#000000">None</text>
</g>
<!-- List -->
<g id="node4" class="node">
<title>List</title>
<path fill="#b2ebf2" stroke="#2980b9" d="M42,-41.5C42,-41.5 12,-41.5 12,-41.5 6,-41.5 0,-35.5 0,-29.5 0,-29.5 0,-17.5 0,-17.5 0,-11.5 6,-5.5 12,-5.5 12,-5.5 42,-5.5 42,-5.5 48,-5.5 54,-11.5 54,-17.5 54,-17.5 54,-29.5 54,-29.5 54,-35.5 48,-41.5 42,-41.5"/>
<text text-anchor="middle" x="27" y="-19.8" font-family="Segoe UI,Roboto,Helvetica,Arial,sans-serif" font-size="14.00" fill="#000000">List</text>
</g>
<!-- List&#45;&gt;ListFList -->
<g id="edge1" class="edge">
<title>List&#45;&gt;ListFList</title>
<path fill="none" stroke="#2980b9" d="M54.3541,-23.5C71.3852,-23.5 94.0784,-23.5 115.6045,-23.5"/>
<polygon fill="#2980b9" stroke="#2980b9" points="115.717,-27.0001 125.7169,-23.5 115.7169,-20.0001 115.717,-27.0001"/>
<text text-anchor="middle" x="90" y="-26.7" font-family="Segoe UI,Roboto,Helvetica,Arial,sans-serif" font-size="11.00" fill="#000000">project</text>
</g>
</g>
</svg>
