<?xml version="1.0" encoding="UTF-8" standalone="no"?>
<!DOCTYPE svg PUBLIC "-//W3C//DTD SVG 1.1//EN"
 "http://www.w3.org/Graphics/SVG/1.1/DTD/svg11.dtd">
<!-- Generated by graphviz version 2.40.1 (20161225.0304)
 -->
<!-- Title: %3 Pages: 1 -->
<svg width="487pt" height="44pt"
 viewBox="0.00 0.00 487.00 44.00" xmlns="http://www.w3.org/2000/svg" xmlns:xlink="http://www.w3.org/1999/xlink">
<g id="graph0" class="graph" transform="scale(1 1) rotate(0) translate(4 40)">
<title>%3</title>
<!-- ListFList -->
<g id="node1" class="node">
<title>ListFList</title>
<path fill="#b2ebf2" stroke="#2980b9" d="M168,-36C168,-36 138,-36 138,-36 132,-36 126,-30 126,-24 126,-24 126,-12 126,-12 126,-6 132,0 138,0 138,0 168,0 168,0 174,0 180,-6 180,-12 180,-12 180,-24 180,-24 180,-30 174,-36 168,-36"/>
<text text-anchor="middle" x="153" y="-14.3" font-family="Segoe UI,Roboto,Helvetica,Arial,sans-serif" font-size="14.00" fill="#000000">F[B]</text>
</g>
<!-- ListFA -->
<g id="node2" class="node">
<title>ListFA</title>
<path fill="#b2ebf2" stroke="#2980b9" d="M340,-36C340,-36 310,-36 310,-36 304,-36 298,-30 298,-24 298,-24 298,-12 298,-12 298,-6 304,0 310,0 310,0 340,0 340,0 346,0 352,-6 352,-12 352,-12 352,-24 352,-24 352,-30 346,-36 340,-36"/>
<text text-anchor="middle" x="325" y="-14.3" font-family="Segoe UI,Roboto,Helvetica,Arial,sans-serif" font-size="14.00" fill="#000000">F[A]</text>
</g>
<!-- ListFList&#45;&gt;ListFA -->
<g id="edge2" class="edge">
<title>ListFList&#45;&gt;ListFA</title>
<path fill="none" stroke="#2980b9" d="M180.2539,-18C209.1895,-18 255.121,-18 287.4685,-18"/>
<polygon fill="#2980b9" stroke="#2980b9" points="287.8736,-21.5001 297.8736,-18 287.8736,-14.5001 287.8736,-21.5001"/>
<text text-anchor="middle" x="239" y="-21.2" font-family="Segoe UI,Roboto,Helvetica,Arial,sans-serif" font-size="11.00" fill="#000000">fmap(_, recurse)</text>
</g>
<!-- A -->
<g id="node4" class="node">
<title>A</title>
<path fill="#b2ebf2" stroke="#2980b9" d="M467,-36C467,-36 437,-36 437,-36 431,-36 425,-30 425,-24 425,-24 425,-12 425,-12 425,-6 431,0 437,0 437,0 467,0 467,0 473,0 479,-6 479,-12 479,-12 479,-24 479,-24 479,-30 473,-36 467,-36"/>
<text text-anchor="middle" x="452" y="-14.3" font-family="Segoe UI,Roboto,Helvetica,Arial,sans-serif" font-size="14.00" fill="#000000">A</text>
</g>
<!-- ListFA&#45;&gt;A -->
<g id="edge3" class="edge">
<title>ListFA&#45;&gt;A</title>
<path fill="none" stroke="#2980b9" d="M352.2447,-18C370.492,-18 394.746,-18 414.7693,-18"/>
<polygon fill="#2980b9" stroke="#2980b9" points="414.8004,-21.5001 424.8004,-18 414.8003,-14.5001 414.8004,-21.5001"/>
<text text-anchor="middle" x="388.5" y="-21.2" font-family="Segoe UI,Roboto,Helvetica,Arial,sans-serif" font-size="11.00" fill="#000000">algebra</text>
</g>
<!-- B -->
<g id="node3" class="node">
<title>B</title>
<path fill="#b2ebf2" stroke="#2980b9" d="M42,-36C42,-36 12,-36 12,-36 6,-36 0,-30 0,-24 0,-24 0,-12 0,-12 0,-6 6,0 12,0 12,0 42,0 42,0 48,0 54,-6 54,-12 54,-12 54,-24 54,-24 54,-30 48,-36 42,-36"/>
<text text-anchor="middle" x="27" y="-14.3" font-family="Segoe UI,Roboto,Helvetica,Arial,sans-serif" font-size="14.00" fill="#000000">B</text>
</g>
<!-- B&#45;&gt;ListFList -->
<g id="edge1" class="edge">
<title>B&#45;&gt;ListFList</title>
<path fill="none" stroke="#2980b9" d="M54.0302,-18C71.9281,-18 95.6509,-18 115.3839,-18"/>
<polygon fill="#2980b9" stroke="#2980b9" points="115.5798,-21.5001 125.5798,-18 115.5797,-14.5001 115.5798,-21.5001"/>
<text text-anchor="middle" x="90" y="-21.2" font-family="Segoe UI,Roboto,Helvetica,Arial,sans-serif" font-size="11.00" fill="#000000">project</text>
</g>
</g>
</svg>
