<?xml version="1.0" encoding="UTF-8" standalone="no"?>
<!DOCTYPE svg PUBLIC "-//W3C//DTD SVG 1.1//EN"
 "http://www.w3.org/Graphics/SVG/1.1/DTD/svg11.dtd">
<!-- Generated by graphviz version 2.40.1 (20161225.0304)
 -->
<!-- Title: %3 Pages: 1 -->
<svg width="712pt" height="56pt"
 viewBox="0.00 0.00 712.00 55.50" xmlns="http://www.w3.org/2000/svg" xmlns:xlink="http://www.w3.org/1999/xlink">
<g id="graph0" class="graph" transform="scale(1 1) rotate(0) translate(4 51.5)">
<title>%3</title>
<!-- ListStruct -->
<g id="node1" class="node">
<title>ListStruct</title>
<path fill="#b2ebf2" stroke="#2980b9" d="M283,-.5C283,-.5 336,-.5 336,-.5 342,-.5 348,-6.5 348,-12.5 348,-12.5 348,-34.5 348,-34.5 348,-40.5 342,-46.5 336,-46.5 336,-46.5 283,-46.5 283,-46.5 277,-46.5 271,-40.5 271,-34.5 271,-34.5 271,-12.5 271,-12.5 271,-6.5 277,-.5 283,-.5"/>
<text text-anchor="middle" x="309.5" y="-31.3" font-family="Segoe UI,Roboto,Helvetica,Arial,sans-serif" font-size="14.00" fill="#000000">head, List</text>
<polyline fill="none" stroke="#2980b9" points="271,-23.5 348,-23.5 "/>
<text text-anchor="middle" x="309.5" y="-8.3" font-family="Segoe UI,Roboto,Helvetica,Arial,sans-serif" font-size="14.00" fill="#000000">∅</text>
</g>
<!-- ListStruct2 -->
<g id="node2" class="node">
<title>ListStruct2</title>
<path fill="#b2ebf2" stroke="#2980b9" d="M419,-.5C419,-.5 458,-.5 458,-.5 464,-.5 470,-6.5 470,-12.5 470,-12.5 470,-34.5 470,-34.5 470,-40.5 464,-46.5 458,-46.5 458,-46.5 419,-46.5 419,-46.5 413,-46.5 407,-40.5 407,-34.5 407,-34.5 407,-12.5 407,-12.5 407,-6.5 413,-.5 419,-.5"/>
<text text-anchor="middle" x="438.5" y="-31.3" font-family="Segoe UI,Roboto,Helvetica,Arial,sans-serif" font-size="14.00" fill="#000000">head, A</text>
<polyline fill="none" stroke="#2980b9" points="407,-23.5 470,-23.5 "/>
<text text-anchor="middle" x="438.5" y="-8.3" font-family="Segoe UI,Roboto,Helvetica,Arial,sans-serif" font-size="14.00" fill="#000000">∅</text>
</g>
<!-- ListStruct&#45;&gt;ListStruct2 -->
<g id="edge4" class="edge">
<title>ListStruct:cons&#45;&gt;ListStruct2:cons</title>
<path fill="none" stroke="#2980b9" d="M348,-35.5C348,-35.5 380.1585,-35.5 396.9915,-35.5"/>
<polygon fill="#2980b9" stroke="#2980b9" points="397,-39.0001 407,-35.5 397,-32.0001 397,-39.0001"/>
<text text-anchor="middle" x="377.5" y="-38.7" font-family="Segoe UI,Roboto,Helvetica,Arial,sans-serif" font-size="11.00" fill="#000000">loop</text>
</g>
<!-- ListStruct&#45;&gt;ListStruct2 -->
<g id="edge5" class="edge">
<title>ListStruct:nil&#45;&gt;ListStruct2:nil</title>
<path fill="none" stroke="#2980b9" d="M348,-11.5C348,-11.5 380.1585,-11.5 396.9915,-11.5"/>
<polygon fill="#2980b9" stroke="#2980b9" points="397,-15.0001 407,-11.5 397,-8.0001 397,-15.0001"/>
</g>
<!-- ListFA -->
<g id="node4" class="node">
<title>ListFA</title>
<path fill="#b2ebf2" stroke="#2980b9" d="M589,-41.5C589,-41.5 548,-41.5 548,-41.5 542,-41.5 536,-35.5 536,-29.5 536,-29.5 536,-17.5 536,-17.5 536,-11.5 542,-5.5 548,-5.5 548,-5.5 589,-5.5 589,-5.5 595,-5.5 601,-11.5 601,-17.5 601,-17.5 601,-29.5 601,-29.5 601,-35.5 595,-41.5 589,-41.5"/>
<text text-anchor="middle" x="568.5" y="-19.8" font-family="Segoe UI,Roboto,Helvetica,Arial,sans-serif" font-size="14.00" fill="#000000">ListF[A]</text>
</g>
<!-- ListStruct2&#45;&gt;ListFA -->
<g id="edge6" class="edge">
<title>ListStruct2:cons&#45;&gt;ListFA</title>
<path fill="none" stroke="#2980b9" stroke-dasharray="5,2" d="M470,-35.5C470,-35.5 499.315,-31.9286 525.9599,-28.6825"/>
<polygon fill="#2980b9" stroke="#2980b9" points="526.4711,-32.1462 535.9744,-27.4625 525.6245,-25.1976 526.4711,-32.1462"/>
<text text-anchor="middle" x="503" y="-35.7" font-family="Segoe UI,Roboto,Helvetica,Arial,sans-serif" font-size="11.00" fill="#000000">Some</text>
</g>
<!-- ListStruct2&#45;&gt;ListFA -->
<g id="edge7" class="edge">
<title>ListStruct2:nil&#45;&gt;ListFA</title>
<path fill="none" stroke="#2980b9" stroke-dasharray="5,2" d="M470,-11.5C470,-11.5 499.315,-15.0714 525.9599,-18.3175"/>
<polygon fill="#2980b9" stroke="#2980b9" points="525.6245,-21.8024 535.9744,-19.5375 526.4711,-14.8538 525.6245,-21.8024"/>
<text text-anchor="middle" x="503" y="-16.7" font-family="Segoe UI,Roboto,Helvetica,Arial,sans-serif" font-size="11.00" fill="#000000">None</text>
</g>
<!-- ListFList -->
<g id="node3" class="node">
<title>ListFList</title>
<path fill="#b2ebf2" stroke="#2980b9" d="M193,-41.5C193,-41.5 138,-41.5 138,-41.5 132,-41.5 126,-35.5 126,-29.5 126,-29.5 126,-17.5 126,-17.5 126,-11.5 132,-5.5 138,-5.5 138,-5.5 193,-5.5 193,-5.5 199,-5.5 205,-11.5 205,-17.5 205,-17.5 205,-29.5 205,-29.5 205,-35.5 199,-41.5 193,-41.5"/>
<text text-anchor="middle" x="165.5" y="-19.8" font-family="Segoe UI,Roboto,Helvetica,Arial,sans-serif" font-size="14.00" fill="#000000">ListF[List]</text>
</g>
<!-- ListFList&#45;&gt;ListStruct -->
<g id="edge2" class="edge">
<title>ListFList&#45;&gt;ListStruct:cons</title>
<path fill="none" stroke="#2980b9" stroke-dasharray="5,2" d="M205.0845,-28.0025C225.1977,-30.2903 248.0391,-32.8883 260.8633,-34.347"/>
<polygon fill="#2980b9" stroke="#2980b9" points="260.6685,-37.8473 271,-35.5 261.4597,-30.8922 260.6685,-37.8473"/>
<text text-anchor="middle" x="238" y="-35.7" font-family="Segoe UI,Roboto,Helvetica,Arial,sans-serif" font-size="11.00" fill="#000000">Some</text>
</g>
<!-- ListFList&#45;&gt;ListStruct -->
<g id="edge3" class="edge">
<title>ListFList&#45;&gt;ListStruct:nil</title>
<path fill="none" stroke="#2980b9" stroke-dasharray="5,2" d="M205.0845,-18.9975C225.1977,-16.7097 248.0391,-14.1117 260.8633,-12.653"/>
<polygon fill="#2980b9" stroke="#2980b9" points="261.4597,-16.1078 271,-11.5 260.6685,-9.1527 261.4597,-16.1078"/>
<text text-anchor="middle" x="238" y="-16.7" font-family="Segoe UI,Roboto,Helvetica,Arial,sans-serif" font-size="11.00" fill="#000000">None</text>
</g>
<!-- A -->
<g id="node6" class="node">
<title>A</title>
<path fill="#b2ebf2" stroke="#2980b9" d="M692,-41.5C692,-41.5 662,-41.5 662,-41.5 656,-41.5 650,-35.5 650,-29.5 650,-29.5 650,-17.5 650,-17.5 650,-11.5 656,-5.5 662,-5.5 662,-5.5 692,-5.5 692,-5.5 698,-5.5 704,-11.5 704,-17.5 704,-17.5 704,-29.5 704,-29.5 704,-35.5 698,-41.5 692,-41.5"/>
<text text-anchor="middle" x="677" y="-19.8" font-family="Segoe UI,Roboto,Helvetica,Arial,sans-serif" font-size="14.00" fill="#000000">A</text>
</g>
<!-- ListFA&#45;&gt;A -->
<g id="edge8" class="edge">
<title>ListFA&#45;&gt;A</title>
<path fill="none" stroke="#2980b9" d="M601.0536,-23.5C613.2451,-23.5 627.1869,-23.5 639.7695,-23.5"/>
<polygon fill="#2980b9" stroke="#2980b9" points="639.951,-27.0001 649.951,-23.5 639.9509,-20.0001 639.951,-27.0001"/>
<text text-anchor="middle" x="625.5" y="-26.7" font-family="Segoe UI,Roboto,Helvetica,Arial,sans-serif" font-size="11.00" fill="#000000">op</text>
</g>
<!-- List -->
<g id="node5" class="node">
<title>List</title>
<path fill="#b2ebf2" stroke="#2980b9" d="M42,-41.5C42,-41.5 12,-41.5 12,-41.5 6,-41.5 0,-35.5 0,-29.5 0,-29.5 0,-17.5 0,-17.5 0,-11.5 6,-5.5 12,-5.5 12,-5.5 42,-5.5 42,-5.5 48,-5.5 54,-11.5 54,-17.5 54,-17.5 54,-29.5 54,-29.5 54,-35.5 48,-41.5 42,-41.5"/>
<text text-anchor="middle" x="27" y="-19.8" font-family="Segoe UI,Roboto,Helvetica,Arial,sans-serif" font-size="14.00" fill="#000000">List</text>
</g>
<!-- List&#45;&gt;ListFList -->
<g id="edge1" class="edge">
<title>List&#45;&gt;ListFList</title>
<path fill="none" stroke="#2980b9" d="M54.033,-23.5C71.5426,-23.5 94.8752,-23.5 115.6671,-23.5"/>
<polygon fill="#2980b9" stroke="#2980b9" points="115.9476,-27.0001 125.9476,-23.5 115.9476,-20.0001 115.9476,-27.0001"/>
<text text-anchor="middle" x="90" y="-26.7" font-family="Segoe UI,Roboto,Helvetica,Arial,sans-serif" font-size="11.00" fill="#000000">project</text>
</g>
</g>
</svg>
