<?xml version="1.0" encoding="UTF-8" standalone="no"?>
<!DOCTYPE svg PUBLIC "-//W3C//DTD SVG 1.1//EN"
 "http://www.w3.org/Graphics/SVG/1.1/DTD/svg11.dtd">
<!-- Generated by graphviz version 2.40.1 (20161225.0304)
 -->
<!-- Title: %3 Pages: 1 -->
<svg width="484pt" height="44pt"
 viewBox="0.00 0.00 484.00 44.00" xmlns="http://www.w3.org/2000/svg" xmlns:xlink="http://www.w3.org/1999/xlink">
<g id="graph0" class="graph" transform="scale(1 1) rotate(0) translate(4 40)">
<title>%3</title>
<!-- ListFList -->
<g id="node1" class="node">
<title>ListFList</title>
<path fill="#b2ebf2" stroke="#2980b9" d="M193,-36C193,-36 138,-36 138,-36 132,-36 126,-30 126,-24 126,-24 126,-12 126,-12 126,-6 132,0 138,0 138,0 193,0 193,0 199,0 205,-6 205,-12 205,-12 205,-24 205,-24 205,-30 199,-36 193,-36"/>
<text text-anchor="middle" x="165.5" y="-14.3" font-family="Segoe UI,Roboto,Helvetica,Arial,sans-serif" font-size="14.00" fill="#000000">ListF[List]</text>
</g>
<!-- ListFA -->
<g id="node2" class="node">
<title>ListFA</title>
<path fill="#b2ebf2" stroke="#2980b9" d="M361,-36C361,-36 320,-36 320,-36 314,-36 308,-30 308,-24 308,-24 308,-12 308,-12 308,-6 314,0 320,0 320,0 361,0 361,0 367,0 373,-6 373,-12 373,-12 373,-24 373,-24 373,-30 367,-36 361,-36"/>
<text text-anchor="middle" x="340.5" y="-14.3" font-family="Segoe UI,Roboto,Helvetica,Arial,sans-serif" font-size="14.00" fill="#000000">ListF[A]</text>
</g>
<!-- ListFList&#45;&gt;ListFA -->
<g id="edge2" class="edge">
<title>ListFList&#45;&gt;ListFA</title>
<path fill="none" stroke="#2980b9" d="M205.2102,-18C232.7518,-18 269.4055,-18 297.6138,-18"/>
<polygon fill="#2980b9" stroke="#2980b9" points="297.9748,-21.5001 307.9748,-18 297.9748,-14.5001 297.9748,-21.5001"/>
<text text-anchor="middle" x="256.5" y="-21.2" font-family="Segoe UI,Roboto,Helvetica,Arial,sans-serif" font-size="11.00" fill="#000000">fmap(_, loop)</text>
</g>
<!-- A -->
<g id="node4" class="node">
<title>A</title>
<path fill="#b2ebf2" stroke="#2980b9" d="M464,-36C464,-36 434,-36 434,-36 428,-36 422,-30 422,-24 422,-24 422,-12 422,-12 422,-6 428,0 434,0 434,0 464,0 464,0 470,0 476,-6 476,-12 476,-12 476,-24 476,-24 476,-30 470,-36 464,-36"/>
<text text-anchor="middle" x="449" y="-14.3" font-family="Segoe UI,Roboto,Helvetica,Arial,sans-serif" font-size="14.00" fill="#000000">A</text>
</g>
<!-- ListFA&#45;&gt;A -->
<g id="edge3" class="edge">
<title>ListFA&#45;&gt;A</title>
<path fill="none" stroke="#2980b9" d="M373.0536,-18C385.2451,-18 399.1869,-18 411.7695,-18"/>
<polygon fill="#2980b9" stroke="#2980b9" points="411.951,-21.5001 421.951,-18 411.9509,-14.5001 411.951,-21.5001"/>
<text text-anchor="middle" x="397.5" y="-21.2" font-family="Segoe UI,Roboto,Helvetica,Arial,sans-serif" font-size="11.00" fill="#000000">op</text>
</g>
<!-- List -->
<g id="node3" class="node">
<title>List</title>
<path fill="#b2ebf2" stroke="#2980b9" d="M42,-36C42,-36 12,-36 12,-36 6,-36 0,-30 0,-24 0,-24 0,-12 0,-12 0,-6 6,0 12,0 12,0 42,0 42,0 48,0 54,-6 54,-12 54,-12 54,-24 54,-24 54,-30 48,-36 42,-36"/>
<text text-anchor="middle" x="27" y="-14.3" font-family="Segoe UI,Roboto,Helvetica,Arial,sans-serif" font-size="14.00" fill="#000000">List</text>
</g>
<!-- List&#45;&gt;ListFList -->
<g id="edge1" class="edge">
<title>List&#45;&gt;ListFList</title>
<path fill="none" stroke="#2980b9" d="M54.033,-18C71.5426,-18 94.8752,-18 115.6671,-18"/>
<polygon fill="#2980b9" stroke="#2980b9" points="115.9476,-21.5001 125.9476,-18 115.9476,-14.5001 115.9476,-21.5001"/>
<text text-anchor="middle" x="90" y="-21.2" font-family="Segoe UI,Roboto,Helvetica,Arial,sans-serif" font-size="11.00" fill="#000000">project</text>
</g>
</g>
</svg>
