<?xml version="1.0" encoding="UTF-8" standalone="no"?>
<!DOCTYPE svg PUBLIC "-//W3C//DTD SVG 1.1//EN"
 "http://www.w3.org/Graphics/SVG/1.1/DTD/svg11.dtd">
<!-- Generated by graphviz version 2.40.1 (20161225.0304)
 -->
<!-- Title: %3 Pages: 1 -->
<svg width="451pt" height="56pt"
 viewBox="0.00 0.00 451.00 55.50" xmlns="http://www.w3.org/2000/svg" xmlns:xlink="http://www.w3.org/1999/xlink">
<g id="graph0" class="graph" transform="scale(1 1) rotate(0) translate(4 51.5)">
<title>%3</title>
<!-- ListStruct -->
<g id="node1" class="node">
<title>ListStruct</title>
<path fill="#b2ebf2" stroke="#2980b9" d="M129,-.5C129,-.5 179,-.5 179,-.5 185,-.5 191,-6.5 191,-12.5 191,-12.5 191,-34.5 191,-34.5 191,-40.5 185,-46.5 179,-46.5 179,-46.5 129,-46.5 129,-46.5 123,-46.5 117,-40.5 117,-34.5 117,-34.5 117,-12.5 117,-12.5 117,-6.5 123,-.5 129,-.5"/>
<text text-anchor="middle" x="154" y="-31.3" font-family="Segoe UI,Roboto,Helvetica,Arial,sans-serif" font-size="14.00" fill="#000000">head, tail</text>
<polyline fill="none" stroke="#2980b9" points="117,-23.5 191,-23.5 "/>
<text text-anchor="middle" x="154" y="-8.3" font-family="Segoe UI,Roboto,Helvetica,Arial,sans-serif" font-size="14.00" fill="#000000">∅</text>
</g>
<!-- ListStruct2 -->
<g id="node2" class="node">
<title>ListStruct2</title>
<path fill="#b2ebf2" stroke="#dddddd" d="M277,-.5C277,-.5 316,-.5 316,-.5 322,-.5 328,-6.5 328,-12.5 328,-12.5 328,-34.5 328,-34.5 328,-40.5 322,-46.5 316,-46.5 316,-46.5 277,-46.5 277,-46.5 271,-46.5 265,-40.5 265,-34.5 265,-34.5 265,-12.5 265,-12.5 265,-6.5 271,-.5 277,-.5"/>
<text text-anchor="middle" x="296.5" y="-31.3" font-family="Segoe UI,Roboto,Helvetica,Arial,sans-serif" font-size="14.00" fill="#dddddd">head, A</text>
<polyline fill="none" stroke="#dddddd" points="265,-23.5 328,-23.5 "/>
<text text-anchor="middle" x="296.5" y="-8.3" font-family="Segoe UI,Roboto,Helvetica,Arial,sans-serif" font-size="14.00" fill="#dddddd">∅</text>
</g>
<!-- ListStruct&#45;&gt;ListStruct2 -->
<g id="edge3" class="edge">
<title>ListStruct:cons&#45;&gt;ListStruct2:cons</title>
<path fill="none" stroke="#dddddd" d="M191,-35.5C191,-35.5 234.3774,-35.5 254.7106,-35.5"/>
<polygon fill="#dddddd" stroke="#dddddd" points="255,-39.0001 265,-35.5 255,-32.0001 255,-39.0001"/>
<text text-anchor="middle" x="228" y="-38.7" font-family="Segoe UI,Roboto,Helvetica,Arial,sans-serif" font-size="11.00" fill="#dddddd">recurse</text>
</g>
<!-- ListStruct&#45;&gt;ListStruct2 -->
<g id="edge4" class="edge">
<title>ListStruct:nil&#45;&gt;ListStruct2:nil</title>
<path fill="none" stroke="#dddddd" d="M191,-11.5C191,-11.5 234.3774,-11.5 254.7106,-11.5"/>
<polygon fill="#dddddd" stroke="#dddddd" points="255,-15.0001 265,-11.5 255,-8.0001 255,-15.0001"/>
</g>
<!-- A -->
<g id="node4" class="node">
<title>A</title>
<path fill="#b2ebf2" stroke="#dddddd" d="M431,-41.5C431,-41.5 401,-41.5 401,-41.5 395,-41.5 389,-35.5 389,-29.5 389,-29.5 389,-17.5 389,-17.5 389,-11.5 395,-5.5 401,-5.5 401,-5.5 431,-5.5 431,-5.5 437,-5.5 443,-11.5 443,-17.5 443,-17.5 443,-29.5 443,-29.5 443,-35.5 437,-41.5 431,-41.5"/>
<text text-anchor="middle" x="416" y="-19.8" font-family="Segoe UI,Roboto,Helvetica,Arial,sans-serif" font-size="14.00" fill="#dddddd">A</text>
</g>
<!-- ListStruct2&#45;&gt;A -->
<g id="edge5" class="edge">
<title>ListStruct2:cons&#45;&gt;A</title>
<path fill="none" stroke="#dddddd" d="M328,-35.5C328,-35.5 354.6484,-31.8661 378.6163,-28.5978"/>
<polygon fill="#dddddd" stroke="#dddddd" points="379.2033,-32.0502 388.6386,-27.2311 378.2574,-25.1144 379.2033,-32.0502"/>
<text text-anchor="middle" x="358.5" y="-35.7" font-family="Segoe UI,Roboto,Helvetica,Arial,sans-serif" font-size="11.00" fill="#dddddd">step</text>
</g>
<!-- ListStruct2&#45;&gt;A -->
<g id="edge6" class="edge">
<title>ListStruct2:nil&#45;&gt;A</title>
<path fill="none" stroke="#dddddd" d="M328,-11.5C328,-11.5 354.6484,-15.1339 378.6163,-18.4022"/>
<polygon fill="#dddddd" stroke="#dddddd" points="378.2574,-21.8856 388.6386,-19.7689 379.2033,-14.9498 378.2574,-21.8856"/>
<text text-anchor="middle" x="358.5" y="-16.7" font-family="Segoe UI,Roboto,Helvetica,Arial,sans-serif" font-size="11.00" fill="#dddddd">base</text>
</g>
<!-- List -->
<g id="node3" class="node">
<title>List</title>
<path fill="#b2ebf2" stroke="#dddddd" d="M42,-41.5C42,-41.5 12,-41.5 12,-41.5 6,-41.5 0,-35.5 0,-29.5 0,-29.5 0,-17.5 0,-17.5 0,-11.5 6,-5.5 12,-5.5 12,-5.5 42,-5.5 42,-5.5 48,-5.5 54,-11.5 54,-17.5 54,-17.5 54,-29.5 54,-29.5 54,-35.5 48,-41.5 42,-41.5"/>
<text text-anchor="middle" x="27" y="-19.8" font-family="Segoe UI,Roboto,Helvetica,Arial,sans-serif" font-size="14.00" fill="#dddddd">List</text>
</g>
<!-- List&#45;&gt;ListStruct -->
<g id="edge1" class="edge">
<title>List&#45;&gt;ListStruct:cons</title>
<path fill="none" stroke="#dddddd" stroke-dasharray="5,2" d="M54.003,-27.1004C71.8144,-29.4753 94.1296,-32.4506 106.8563,-34.1475"/>
<polygon fill="#dddddd" stroke="#dddddd" points="106.6251,-37.6476 117,-35.5 107.5503,-30.709 106.6251,-37.6476"/>
<text text-anchor="middle" x="85.5" y="-35.7" font-family="Segoe UI,Roboto,Helvetica,Arial,sans-serif" font-size="11.00" fill="#dddddd">Cons</text>
</g>
<!-- List&#45;&gt;ListStruct -->
<g id="edge2" class="edge">
<title>List&#45;&gt;ListStruct:nil</title>
<path fill="none" stroke="#dddddd" stroke-dasharray="5,2" d="M54.003,-19.8996C71.8144,-17.5247 94.1296,-14.5494 106.8563,-12.8525"/>
<polygon fill="#dddddd" stroke="#dddddd" points="107.5503,-16.291 117,-11.5 106.6251,-9.3524 107.5503,-16.291"/>
<text text-anchor="middle" x="85.5" y="-16.7" font-family="Segoe UI,Roboto,Helvetica,Arial,sans-serif" font-size="11.00" fill="#dddddd">Nil</text>
</g>
</g>
</svg>
