<?xml version="1.0" encoding="UTF-8" standalone="no"?>
<!DOCTYPE svg PUBLIC "-//W3C//DTD SVG 1.1//EN"
 "http://www.w3.org/Graphics/SVG/1.1/DTD/svg11.dtd">
<!-- Generated by graphviz version 2.40.1 (20161225.0304)
 -->
<!-- Title: %3 Pages: 1 -->
<svg width="495pt" height="44pt"
 viewBox="0.00 0.00 495.00 44.00" xmlns="http://www.w3.org/2000/svg" xmlns:xlink="http://www.w3.org/1999/xlink">
<g id="graph0" class="graph" transform="scale(1 1) rotate(0) translate(4 40)">
<title>%3</title>
<!-- ListFList -->
<g id="node1" class="node">
<title>ListFList</title>
<path fill="#b2ebf2" stroke="#2980b9" d="M189,-36C189,-36 138,-36 138,-36 132,-36 126,-30 126,-24 126,-24 126,-12 126,-12 126,-6 132,0 138,0 138,0 189,0 189,0 195,0 201,-6 201,-12 201,-12 201,-24 201,-24 201,-30 195,-36 189,-36"/>
<text text-anchor="middle" x="163.5" y="-14.3" font-family="Segoe UI,Roboto,Helvetica,Arial,sans-serif" font-size="14.00" fill="#000000">ListF[tail]</text>
</g>
<!-- ListFA -->
<g id="node2" class="node">
<title>ListFA</title>
<path fill="#b2ebf2" stroke="#2980b9" d="M372,-36C372,-36 331,-36 331,-36 325,-36 319,-30 319,-24 319,-24 319,-12 319,-12 319,-6 325,0 331,0 331,0 372,0 372,0 378,0 384,-6 384,-12 384,-12 384,-24 384,-24 384,-30 378,-36 372,-36"/>
<text text-anchor="middle" x="351.5" y="-14.3" font-family="Segoe UI,Roboto,Helvetica,Arial,sans-serif" font-size="14.00" fill="#000000">ListF[A]</text>
</g>
<!-- ListFList&#45;&gt;ListFA -->
<g id="edge2" class="edge">
<title>ListFList&#45;&gt;ListFA</title>
<path fill="none" stroke="#dddddd" d="M201.0928,-18C232.2271,-18 276.4624,-18 308.9027,-18"/>
<polygon fill="#dddddd" stroke="#dddddd" points="308.9893,-21.5001 318.9893,-18 308.9893,-14.5001 308.9893,-21.5001"/>
<text text-anchor="middle" x="260" y="-21.2" font-family="Segoe UI,Roboto,Helvetica,Arial,sans-serif" font-size="11.00" fill="#dddddd">fmap(_, recurse)</text>
</g>
<!-- A -->
<g id="node4" class="node">
<title>A</title>
<path fill="#b2ebf2" stroke="#dddddd" d="M475,-36C475,-36 445,-36 445,-36 439,-36 433,-30 433,-24 433,-24 433,-12 433,-12 433,-6 439,0 445,0 445,0 475,0 475,0 481,0 487,-6 487,-12 487,-12 487,-24 487,-24 487,-30 481,-36 475,-36"/>
<text text-anchor="middle" x="460" y="-14.3" font-family="Segoe UI,Roboto,Helvetica,Arial,sans-serif" font-size="14.00" fill="#dddddd">A</text>
</g>
<!-- ListFA&#45;&gt;A -->
<g id="edge3" class="edge">
<title>ListFA&#45;&gt;A</title>
<path fill="none" stroke="#dddddd" d="M384.0536,-18C396.2451,-18 410.1869,-18 422.7695,-18"/>
<polygon fill="#dddddd" stroke="#dddddd" points="422.951,-21.5001 432.951,-18 422.9509,-14.5001 422.951,-21.5001"/>
<text text-anchor="middle" x="408.5" y="-21.2" font-family="Segoe UI,Roboto,Helvetica,Arial,sans-serif" font-size="11.00" fill="#dddddd">op</text>
</g>
<!-- List -->
<g id="node3" class="node">
<title>List</title>
<path fill="#b2ebf2" stroke="#dddddd" d="M42,-36C42,-36 12,-36 12,-36 6,-36 0,-30 0,-24 0,-24 0,-12 0,-12 0,-6 6,0 12,0 12,0 42,0 42,0 48,0 54,-6 54,-12 54,-12 54,-24 54,-24 54,-30 48,-36 42,-36"/>
<text text-anchor="middle" x="27" y="-14.3" font-family="Segoe UI,Roboto,Helvetica,Arial,sans-serif" font-size="14.00" fill="#dddddd">List</text>
</g>
<!-- List&#45;&gt;ListFList -->
<g id="edge1" class="edge">
<title>List&#45;&gt;ListFList</title>
<path fill="none" stroke="#dddddd" d="M54.2947,-18C71.8656,-18 95.1835,-18 115.7596,-18"/>
<polygon fill="#dddddd" stroke="#dddddd" points="115.9129,-21.5001 125.9129,-18 115.9129,-14.5001 115.9129,-21.5001"/>
<text text-anchor="middle" x="90" y="-21.2" font-family="Segoe UI,Roboto,Helvetica,Arial,sans-serif" font-size="11.00" fill="#dddddd">project</text>
</g>
</g>
</svg>
