<?xml version="1.0" encoding="UTF-8" standalone="no"?>
<!DOCTYPE svg PUBLIC "-//W3C//DTD SVG 1.1//EN"
 "http://www.w3.org/Graphics/SVG/1.1/DTD/svg11.dtd">
<!-- Generated by graphviz version 2.40.1 (20161225.0304)
 -->
<!-- Title: %3 Pages: 1 -->
<svg width="801pt" height="56pt"
 viewBox="0.00 0.00 801.00 55.50" xmlns="http://www.w3.org/2000/svg" xmlns:xlink="http://www.w3.org/1999/xlink">
<g id="graph0" class="graph" transform="scale(1 1) rotate(0) translate(4 51.5)">
<title>%3</title>
<!-- ListStruct -->
<g id="node1" class="node">
<title>ListStruct</title>
<path fill="#b2ebf2" stroke="#dddddd" d="M327,-.5C327,-.5 377,-.5 377,-.5 383,-.5 389,-6.5 389,-12.5 389,-12.5 389,-34.5 389,-34.5 389,-40.5 383,-46.5 377,-46.5 377,-46.5 327,-46.5 327,-46.5 321,-46.5 315,-40.5 315,-34.5 315,-34.5 315,-12.5 315,-12.5 315,-6.5 321,-.5 327,-.5"/>
<text text-anchor="middle" x="352" y="-31.3" font-family="Segoe UI,Roboto,Helvetica,Arial,sans-serif" font-size="14.00" fill="#dddddd">head, tail</text>
<polyline fill="none" stroke="#dddddd" points="315,-23.5 389,-23.5 "/>
<text text-anchor="middle" x="352" y="-8.3" font-family="Segoe UI,Roboto,Helvetica,Arial,sans-serif" font-size="14.00" fill="#dddddd">∅</text>
</g>
<!-- ListStruct2 -->
<g id="node2" class="node">
<title>ListStruct2</title>
<path fill="#b2ebf2" stroke="#dddddd" d="M460,-.5C460,-.5 499,-.5 499,-.5 505,-.5 511,-6.5 511,-12.5 511,-12.5 511,-34.5 511,-34.5 511,-40.5 505,-46.5 499,-46.5 499,-46.5 460,-46.5 460,-46.5 454,-46.5 448,-40.5 448,-34.5 448,-34.5 448,-12.5 448,-12.5 448,-6.5 454,-.5 460,-.5"/>
<text text-anchor="middle" x="479.5" y="-31.3" font-family="Segoe UI,Roboto,Helvetica,Arial,sans-serif" font-size="14.00" fill="#dddddd">head, A</text>
<polyline fill="none" stroke="#dddddd" points="448,-23.5 511,-23.5 "/>
<text text-anchor="middle" x="479.5" y="-8.3" font-family="Segoe UI,Roboto,Helvetica,Arial,sans-serif" font-size="14.00" fill="#dddddd">∅</text>
</g>
<!-- ListStruct&#45;&gt;ListStruct2 -->
<g id="edge4" class="edge">
<title>ListStruct:cons&#45;&gt;ListStruct2:cons</title>
<path fill="none" stroke="#dddddd" d="M389,-35.5C389,-35.5 421.1585,-35.5 437.9915,-35.5"/>
<polygon fill="#dddddd" stroke="#dddddd" points="438,-39.0001 448,-35.5 438,-32.0001 438,-39.0001"/>
<text text-anchor="middle" x="418.5" y="-38.7" font-family="Segoe UI,Roboto,Helvetica,Arial,sans-serif" font-size="11.00" fill="#dddddd">loop</text>
</g>
<!-- ListStruct&#45;&gt;ListStruct2 -->
<g id="edge5" class="edge">
<title>ListStruct:nil&#45;&gt;ListStruct2:nil</title>
<path fill="none" stroke="#dddddd" d="M389,-11.5C389,-11.5 421.1585,-11.5 437.9915,-11.5"/>
<polygon fill="#dddddd" stroke="#dddddd" points="438,-15.0001 448,-11.5 438,-8.0001 438,-15.0001"/>
</g>
<!-- ListFA -->
<g id="node4" class="node">
<title>ListFA</title>
<path fill="#b2ebf2" stroke="#2980b9" d="M678,-41.5C678,-41.5 589,-41.5 589,-41.5 583,-41.5 577,-35.5 577,-29.5 577,-29.5 577,-17.5 577,-17.5 577,-11.5 583,-5.5 589,-5.5 589,-5.5 678,-5.5 678,-5.5 684,-5.5 690,-11.5 690,-17.5 690,-17.5 690,-29.5 690,-29.5 690,-35.5 684,-41.5 678,-41.5"/>
<text text-anchor="middle" x="633.5" y="-19.8" font-family="Segoe UI,Roboto,Helvetica,Arial,sans-serif" font-size="14.00" fill="#000000">Option[head, A]</text>
</g>
<!-- ListStruct2&#45;&gt;ListFA -->
<g id="edge6" class="edge">
<title>ListStruct2:cons&#45;&gt;ListFA</title>
<path fill="none" stroke="#dddddd" stroke-dasharray="5,2" d="M511,-35.5C511,-35.5 538.0578,-32.8494 566.7401,-30.0397"/>
<polygon fill="#dddddd" stroke="#dddddd" points="567.3004,-33.5017 576.9115,-29.0434 566.6179,-26.535 567.3004,-33.5017"/>
<text text-anchor="middle" x="544" y="-35.7" font-family="Segoe UI,Roboto,Helvetica,Arial,sans-serif" font-size="11.00" fill="#dddddd">Some</text>
</g>
<!-- ListStruct2&#45;&gt;ListFA -->
<g id="edge7" class="edge">
<title>ListStruct2:nil&#45;&gt;ListFA</title>
<path fill="none" stroke="#dddddd" stroke-dasharray="5,2" d="M511,-11.5C511,-11.5 538.0578,-14.1506 566.7401,-16.9603"/>
<polygon fill="#dddddd" stroke="#dddddd" points="566.6179,-20.465 576.9115,-17.9566 567.3004,-13.4983 566.6179,-20.465"/>
<text text-anchor="middle" x="544" y="-17.7" font-family="Segoe UI,Roboto,Helvetica,Arial,sans-serif" font-size="11.00" fill="#dddddd">None</text>
</g>
<!-- ListFList -->
<g id="node3" class="node">
<title>ListFList</title>
<path fill="#b2ebf2" stroke="#2980b9" d="M237,-41.5C237,-41.5 138,-41.5 138,-41.5 132,-41.5 126,-35.5 126,-29.5 126,-29.5 126,-17.5 126,-17.5 126,-11.5 132,-5.5 138,-5.5 138,-5.5 237,-5.5 237,-5.5 243,-5.5 249,-11.5 249,-17.5 249,-17.5 249,-29.5 249,-29.5 249,-35.5 243,-41.5 237,-41.5"/>
<text text-anchor="middle" x="187.5" y="-19.8" font-family="Segoe UI,Roboto,Helvetica,Arial,sans-serif" font-size="14.00" fill="#000000">Option[head, tail]</text>
</g>
<!-- ListFList&#45;&gt;ListStruct -->
<g id="edge2" class="edge">
<title>ListFList&#45;&gt;ListStruct:cons</title>
<path fill="none" stroke="#dddddd" stroke-dasharray="5,2" d="M249.0092,-29.2891C270.6604,-31.3269 292.6567,-33.3971 304.992,-34.5581"/>
<polygon fill="#dddddd" stroke="#dddddd" points="304.716,-38.0475 315,-35.5 305.372,-31.0783 304.716,-38.0475"/>
<text text-anchor="middle" x="282" y="-36.7" font-family="Segoe UI,Roboto,Helvetica,Arial,sans-serif" font-size="11.00" fill="#dddddd">Some</text>
</g>
<!-- ListFList&#45;&gt;ListStruct -->
<g id="edge3" class="edge">
<title>ListFList&#45;&gt;ListStruct:nil</title>
<path fill="none" stroke="#dddddd" stroke-dasharray="5,2" d="M249.0092,-17.7109C270.6604,-15.6731 292.6567,-13.6029 304.992,-12.4419"/>
<polygon fill="#dddddd" stroke="#dddddd" points="305.372,-15.9217 315,-11.5 304.716,-8.9525 305.372,-15.9217"/>
<text text-anchor="middle" x="282" y="-17.7" font-family="Segoe UI,Roboto,Helvetica,Arial,sans-serif" font-size="11.00" fill="#dddddd">None</text>
</g>
<!-- A -->
<g id="node6" class="node">
<title>A</title>
<path fill="#b2ebf2" stroke="#dddddd" d="M781,-41.5C781,-41.5 751,-41.5 751,-41.5 745,-41.5 739,-35.5 739,-29.5 739,-29.5 739,-17.5 739,-17.5 739,-11.5 745,-5.5 751,-5.5 751,-5.5 781,-5.5 781,-5.5 787,-5.5 793,-11.5 793,-17.5 793,-17.5 793,-29.5 793,-29.5 793,-35.5 787,-41.5 781,-41.5"/>
<text text-anchor="middle" x="766" y="-19.8" font-family="Segoe UI,Roboto,Helvetica,Arial,sans-serif" font-size="14.00" fill="#dddddd">A</text>
</g>
<!-- ListFA&#45;&gt;A -->
<g id="edge8" class="edge">
<title>ListFA&#45;&gt;A</title>
<path fill="none" stroke="#dddddd" d="M690.0763,-23.5C703.1328,-23.5 716.7016,-23.5 728.695,-23.5"/>
<polygon fill="#dddddd" stroke="#dddddd" points="728.7768,-27.0001 738.7768,-23.5 728.7767,-20.0001 728.7768,-27.0001"/>
<text text-anchor="middle" x="714.5" y="-26.7" font-family="Segoe UI,Roboto,Helvetica,Arial,sans-serif" font-size="11.00" fill="#dddddd">op</text>
</g>
<!-- List -->
<g id="node5" class="node">
<title>List</title>
<path fill="#b2ebf2" stroke="#dddddd" d="M42,-41.5C42,-41.5 12,-41.5 12,-41.5 6,-41.5 0,-35.5 0,-29.5 0,-29.5 0,-17.5 0,-17.5 0,-11.5 6,-5.5 12,-5.5 12,-5.5 42,-5.5 42,-5.5 48,-5.5 54,-11.5 54,-17.5 54,-17.5 54,-29.5 54,-29.5 54,-35.5 48,-41.5 42,-41.5"/>
<text text-anchor="middle" x="27" y="-19.8" font-family="Segoe UI,Roboto,Helvetica,Arial,sans-serif" font-size="14.00" fill="#dddddd">List</text>
</g>
<!-- List&#45;&gt;ListFList -->
<g id="edge1" class="edge">
<title>List&#45;&gt;ListFList</title>
<path fill="none" stroke="#dddddd" d="M54.2266,-23.5C71.1353,-23.5 93.7285,-23.5 115.5026,-23.5"/>
<polygon fill="#dddddd" stroke="#dddddd" points="115.7604,-27.0001 125.7604,-23.5 115.7603,-20.0001 115.7604,-27.0001"/>
<text text-anchor="middle" x="90" y="-26.7" font-family="Segoe UI,Roboto,Helvetica,Arial,sans-serif" font-size="11.00" fill="#dddddd">project</text>
</g>
</g>
</svg>
