<?xml version="1.0" encoding="UTF-8" standalone="no"?>
<!DOCTYPE svg PUBLIC "-//W3C//DTD SVG 1.1//EN"
 "http://www.w3.org/Graphics/SVG/1.1/DTD/svg11.dtd">
<!-- Generated by graphviz version 2.40.1 (20161225.0304)
 -->
<!-- Title: %3 Pages: 1 -->
<svg width="488pt" height="98pt"
 viewBox="0.00 0.00 488.00 98.00" xmlns="http://www.w3.org/2000/svg" xmlns:xlink="http://www.w3.org/1999/xlink">
<g id="graph0" class="graph" transform="scale(1 1) rotate(0) translate(4 94)">
<title>%3</title>
<!-- anaA -->
<g id="node1" class="node">
<title>anaA</title>
<path fill="#b2ebf2" stroke="#2980b9" d="M42,-36C42,-36 12,-36 12,-36 6,-36 0,-30 0,-24 0,-24 0,-12 0,-12 0,-6 6,0 12,0 12,0 42,0 42,0 48,0 54,-6 54,-12 54,-12 54,-24 54,-24 54,-30 48,-36 42,-36"/>
<text text-anchor="middle" x="27" y="-14.3" font-family="Segoe UI,Roboto,Helvetica,Arial,sans-serif" font-size="14.00" fill="#000000">A</text>
</g>
<!-- anaFA -->
<g id="node3" class="node">
<title>anaFA</title>
<path fill="#b2ebf2" stroke="#2980b9" d="M184,-36C184,-36 154,-36 154,-36 148,-36 142,-30 142,-24 142,-24 142,-12 142,-12 142,-6 148,0 154,0 154,0 184,0 184,0 190,0 196,-6 196,-12 196,-12 196,-24 196,-24 196,-30 190,-36 184,-36"/>
<text text-anchor="middle" x="169" y="-14.3" font-family="Segoe UI,Roboto,Helvetica,Arial,sans-serif" font-size="14.00" fill="#000000">F[A]</text>
</g>
<!-- anaA&#45;&gt;anaFA -->
<g id="edge4" class="edge">
<title>anaA&#45;&gt;anaFA</title>
<path fill="none" stroke="#2980b9" d="M54.0434,-18C75.9133,-18 106.9567,-18 131.2723,-18"/>
<polygon fill="#2980b9" stroke="#2980b9" points="131.5737,-21.5001 141.5737,-18 131.5736,-14.5001 131.5737,-21.5001"/>
<text text-anchor="middle" x="98" y="-21.2" font-family="Segoe UI,Roboto,Helvetica,Arial,sans-serif" font-size="11.00" fill="#000000">coAlgebra</text>
</g>
<!-- cataB -->
<g id="node2" class="node">
<title>cataB</title>
<path fill="#b2ebf2" stroke="#2980b9" d="M42,-90C42,-90 12,-90 12,-90 6,-90 0,-84 0,-78 0,-78 0,-66 0,-66 0,-60 6,-54 12,-54 12,-54 42,-54 42,-54 48,-54 54,-60 54,-66 54,-66 54,-78 54,-78 54,-84 48,-90 42,-90"/>
<text text-anchor="middle" x="27" y="-68.3" font-family="Segoe UI,Roboto,Helvetica,Arial,sans-serif" font-size="14.00" fill="#000000">B</text>
</g>
<!-- cataFB -->
<g id="node4" class="node">
<title>cataFB</title>
<path fill="#b2ebf2" stroke="#2980b9" d="M184,-90C184,-90 154,-90 154,-90 148,-90 142,-84 142,-78 142,-78 142,-66 142,-66 142,-60 148,-54 154,-54 154,-54 184,-54 184,-54 190,-54 196,-60 196,-66 196,-66 196,-78 196,-78 196,-84 190,-90 184,-90"/>
<text text-anchor="middle" x="169" y="-68.3" font-family="Segoe UI,Roboto,Helvetica,Arial,sans-serif" font-size="14.00" fill="#000000">F[B]</text>
</g>
<!-- cataB&#45;&gt;cataFB -->
<g id="edge1" class="edge">
<title>cataB&#45;&gt;cataFB</title>
<path fill="none" stroke="#2980b9" d="M54.0434,-72C75.9133,-72 106.9567,-72 131.2723,-72"/>
<polygon fill="#2980b9" stroke="#2980b9" points="131.5737,-75.5001 141.5737,-72 131.5736,-68.5001 131.5737,-75.5001"/>
<text text-anchor="middle" x="98" y="-75.2" font-family="Segoe UI,Roboto,Helvetica,Arial,sans-serif" font-size="11.00" fill="#000000">project</text>
</g>
<!-- anaFB -->
<g id="node5" class="node">
<title>anaFB</title>
<path fill="#b2ebf2" stroke="#2980b9" d="M341,-36C341,-36 311,-36 311,-36 305,-36 299,-30 299,-24 299,-24 299,-12 299,-12 299,-6 305,0 311,0 311,0 341,0 341,0 347,0 353,-6 353,-12 353,-12 353,-24 353,-24 353,-30 347,-36 341,-36"/>
<text text-anchor="middle" x="326" y="-14.3" font-family="Segoe UI,Roboto,Helvetica,Arial,sans-serif" font-size="14.00" fill="#000000">F[B]</text>
</g>
<!-- anaFA&#45;&gt;anaFB -->
<g id="edge5" class="edge">
<title>anaFA&#45;&gt;anaFB</title>
<path fill="none" stroke="#2980b9" d="M196.3473,-18C221.8993,-18 260.2585,-18 288.6293,-18"/>
<polygon fill="#2980b9" stroke="#2980b9" points="288.9661,-21.5001 298.9661,-18 288.966,-14.5001 288.9661,-21.5001"/>
<text text-anchor="middle" x="247.5" y="-21.2" font-family="Segoe UI,Roboto,Helvetica,Arial,sans-serif" font-size="11.00" fill="#000000">fmap(_, loop)</text>
</g>
<!-- cataFA -->
<g id="node6" class="node">
<title>cataFA</title>
<path fill="#b2ebf2" stroke="#2980b9" d="M341,-90C341,-90 311,-90 311,-90 305,-90 299,-84 299,-78 299,-78 299,-66 299,-66 299,-60 305,-54 311,-54 311,-54 341,-54 341,-54 347,-54 353,-60 353,-66 353,-66 353,-78 353,-78 353,-84 347,-90 341,-90"/>
<text text-anchor="middle" x="326" y="-68.3" font-family="Segoe UI,Roboto,Helvetica,Arial,sans-serif" font-size="14.00" fill="#000000">F[A]</text>
</g>
<!-- cataFB&#45;&gt;cataFA -->
<g id="edge2" class="edge">
<title>cataFB&#45;&gt;cataFA</title>
<path fill="none" stroke="#2980b9" d="M196.3473,-72C221.8993,-72 260.2585,-72 288.6293,-72"/>
<polygon fill="#2980b9" stroke="#2980b9" points="288.9661,-75.5001 298.9661,-72 288.966,-68.5001 288.9661,-75.5001"/>
<text text-anchor="middle" x="247.5" y="-75.2" font-family="Segoe UI,Roboto,Helvetica,Arial,sans-serif" font-size="11.00" fill="#000000">fmap(_, loop)</text>
</g>
<!-- anaB -->
<g id="node7" class="node">
<title>anaB</title>
<path fill="#b2ebf2" stroke="#2980b9" d="M468,-36C468,-36 438,-36 438,-36 432,-36 426,-30 426,-24 426,-24 426,-12 426,-12 426,-6 432,0 438,0 438,0 468,0 468,0 474,0 480,-6 480,-12 480,-12 480,-24 480,-24 480,-30 474,-36 468,-36"/>
<text text-anchor="middle" x="453" y="-14.3" font-family="Segoe UI,Roboto,Helvetica,Arial,sans-serif" font-size="14.00" fill="#000000">B</text>
</g>
<!-- anaFB&#45;&gt;anaB -->
<g id="edge6" class="edge">
<title>anaFB&#45;&gt;anaB</title>
<path fill="none" stroke="#2980b9" d="M353.2447,-18C371.492,-18 395.746,-18 415.7693,-18"/>
<polygon fill="#2980b9" stroke="#2980b9" points="415.8004,-21.5001 425.8004,-18 415.8003,-14.5001 415.8004,-21.5001"/>
<text text-anchor="middle" x="389.5" y="-21.2" font-family="Segoe UI,Roboto,Helvetica,Arial,sans-serif" font-size="11.00" fill="#000000">embed</text>
</g>
<!-- cataA -->
<g id="node8" class="node">
<title>cataA</title>
<path fill="#b2ebf2" stroke="#2980b9" d="M468,-90C468,-90 438,-90 438,-90 432,-90 426,-84 426,-78 426,-78 426,-66 426,-66 426,-60 432,-54 438,-54 438,-54 468,-54 468,-54 474,-54 480,-60 480,-66 480,-66 480,-78 480,-78 480,-84 474,-90 468,-90"/>
<text text-anchor="middle" x="453" y="-68.3" font-family="Segoe UI,Roboto,Helvetica,Arial,sans-serif" font-size="14.00" fill="#000000">A</text>
</g>
<!-- cataFA&#45;&gt;cataA -->
<g id="edge3" class="edge">
<title>cataFA&#45;&gt;cataA</title>
<path fill="none" stroke="#2980b9" d="M353.2447,-72C371.492,-72 395.746,-72 415.7693,-72"/>
<polygon fill="#2980b9" stroke="#2980b9" points="415.8004,-75.5001 425.8004,-72 415.8003,-68.5001 415.8004,-75.5001"/>
<text text-anchor="middle" x="389.5" y="-75.2" font-family="Segoe UI,Roboto,Helvetica,Arial,sans-serif" font-size="11.00" fill="#000000">algebra</text>
</g>
</g>
</svg>
