<?xml version="1.0" encoding="UTF-8" standalone="no"?>
<!DOCTYPE svg PUBLIC "-//W3C//DTD SVG 1.1//EN"
 "http://www.w3.org/Graphics/SVG/1.1/DTD/svg11.dtd">
<!-- Generated by graphviz version 2.40.1 (20161225.0304)
 -->
<!-- Title: %3 Pages: 1 -->
<svg width="488pt" height="44pt"
 viewBox="0.00 0.00 488.00 44.00" xmlns="http://www.w3.org/2000/svg" xmlns:xlink="http://www.w3.org/1999/xlink">
<g id="graph0" class="graph" transform="scale(1 1) rotate(0) translate(4 40)">
<title>%3</title>
<!-- FX -->
<g id="node1" class="node">
<title>FX</title>
<path fill="#b2ebf2" stroke="#2980b9" d="M184,-36C184,-36 154,-36 154,-36 148,-36 142,-30 142,-24 142,-24 142,-12 142,-12 142,-6 148,0 154,0 154,0 184,0 184,0 190,0 196,-6 196,-12 196,-12 196,-24 196,-24 196,-30 190,-36 184,-36"/>
<text text-anchor="middle" x="169" y="-14.3" font-family="Segoe UI,Roboto,Helvetica,Arial,sans-serif" font-size="14.00" fill="#000000">F[X]</text>
</g>
<!-- FY -->
<g id="node2" class="node">
<title>FY</title>
<path fill="#b2ebf2" stroke="#2980b9" d="M341,-36C341,-36 311,-36 311,-36 305,-36 299,-30 299,-24 299,-24 299,-12 299,-12 299,-6 305,0 311,0 311,0 341,0 341,0 347,0 353,-6 353,-12 353,-12 353,-24 353,-24 353,-30 347,-36 341,-36"/>
<text text-anchor="middle" x="326" y="-14.3" font-family="Segoe UI,Roboto,Helvetica,Arial,sans-serif" font-size="14.00" fill="#000000">F[Y]</text>
</g>
<!-- FX&#45;&gt;FY -->
<g id="edge2" class="edge">
<title>FX&#45;&gt;FY</title>
<path fill="none" stroke="#2980b9" d="M196.3473,-18C221.8993,-18 260.2585,-18 288.6293,-18"/>
<polygon fill="#2980b9" stroke="#2980b9" points="288.9661,-21.5001 298.9661,-18 288.966,-14.5001 288.9661,-21.5001"/>
<text text-anchor="middle" x="247.5" y="-21.2" font-family="Segoe UI,Roboto,Helvetica,Arial,sans-serif" font-size="11.00" fill="#000000">fmap(_, loop)</text>
</g>
<!-- Y -->
<g id="node4" class="node">
<title>Y</title>
<path fill="#b2ebf2" stroke="#2980b9" d="M468,-36C468,-36 438,-36 438,-36 432,-36 426,-30 426,-24 426,-24 426,-12 426,-12 426,-6 432,0 438,0 438,0 468,0 468,0 474,0 480,-6 480,-12 480,-12 480,-24 480,-24 480,-30 474,-36 468,-36"/>
<text text-anchor="middle" x="453" y="-14.3" font-family="Segoe UI,Roboto,Helvetica,Arial,sans-serif" font-size="14.00" fill="#000000">Y</text>
</g>
<!-- FY&#45;&gt;Y -->
<g id="edge3" class="edge">
<title>FY&#45;&gt;Y</title>
<path fill="none" stroke="#2980b9" d="M353.2447,-18C371.492,-18 395.746,-18 415.7693,-18"/>
<polygon fill="#2980b9" stroke="#2980b9" points="415.8004,-21.5001 425.8004,-18 415.8003,-14.5001 415.8004,-21.5001"/>
<text text-anchor="middle" x="389.5" y="-21.2" font-family="Segoe UI,Roboto,Helvetica,Arial,sans-serif" font-size="11.00" fill="#000000">algebra</text>
</g>
<!-- X -->
<g id="node3" class="node">
<title>X</title>
<path fill="#b2ebf2" stroke="#2980b9" d="M42,-36C42,-36 12,-36 12,-36 6,-36 0,-30 0,-24 0,-24 0,-12 0,-12 0,-6 6,0 12,0 12,0 42,0 42,0 48,0 54,-6 54,-12 54,-12 54,-24 54,-24 54,-30 48,-36 42,-36"/>
<text text-anchor="middle" x="27" y="-14.3" font-family="Segoe UI,Roboto,Helvetica,Arial,sans-serif" font-size="14.00" fill="#000000">X</text>
</g>
<!-- X&#45;&gt;FX -->
<g id="edge1" class="edge">
<title>X&#45;&gt;FX</title>
<path fill="none" stroke="#2980b9" d="M54.0434,-18C75.9133,-18 106.9567,-18 131.2723,-18"/>
<polygon fill="#2980b9" stroke="#2980b9" points="131.5737,-21.5001 141.5737,-18 131.5736,-14.5001 131.5737,-21.5001"/>
<text text-anchor="middle" x="98" y="-21.2" font-family="Segoe UI,Roboto,Helvetica,Arial,sans-serif" font-size="11.00" fill="#000000">coAlgebra</text>
</g>
</g>
</svg>
