<?xml version="1.0" encoding="UTF-8" standalone="no"?>
<!DOCTYPE svg PUBLIC "-//W3C//DTD SVG 1.1//EN"
 "http://www.w3.org/Graphics/SVG/1.1/DTD/svg11.dtd">
<!-- Generated by graphviz version 2.40.1 (20161225.0304)
 -->
<!-- Title: %3 Pages: 1 -->
<svg width="720pt" height="56pt"
 viewBox="0.00 0.00 720.00 55.50" xmlns="http://www.w3.org/2000/svg" xmlns:xlink="http://www.w3.org/1999/xlink">
<g id="graph0" class="graph" transform="scale(1 1) rotate(0) translate(4 51.5)">
<title>%3</title>
<!-- ListStruct -->
<g id="node1" class="node">
<title>ListStruct</title>
<path fill="#b2ebf2" stroke="#2980b9" d="M279,-.5C279,-.5 329,-.5 329,-.5 335,-.5 341,-6.5 341,-12.5 341,-12.5 341,-34.5 341,-34.5 341,-40.5 335,-46.5 329,-46.5 329,-46.5 279,-46.5 279,-46.5 273,-46.5 267,-40.5 267,-34.5 267,-34.5 267,-12.5 267,-12.5 267,-6.5 273,-.5 279,-.5"/>
<text text-anchor="middle" x="304" y="-31.3" font-family="Segoe UI,Roboto,Helvetica,Arial,sans-serif" font-size="14.00" fill="#000000">head, tail</text>
<polyline fill="none" stroke="#2980b9" points="267,-23.5 341,-23.5 "/>
<text text-anchor="middle" x="304" y="-8.3" font-family="Segoe UI,Roboto,Helvetica,Arial,sans-serif" font-size="14.00" fill="#000000">∅</text>
</g>
<!-- ListStruct2 -->
<g id="node2" class="node">
<title>ListStruct2</title>
<path fill="#b2ebf2" stroke="#2980b9" d="M427,-.5C427,-.5 466,-.5 466,-.5 472,-.5 478,-6.5 478,-12.5 478,-12.5 478,-34.5 478,-34.5 478,-40.5 472,-46.5 466,-46.5 466,-46.5 427,-46.5 427,-46.5 421,-46.5 415,-40.5 415,-34.5 415,-34.5 415,-12.5 415,-12.5 415,-6.5 421,-.5 427,-.5"/>
<text text-anchor="middle" x="446.5" y="-31.3" font-family="Segoe UI,Roboto,Helvetica,Arial,sans-serif" font-size="14.00" fill="#000000">head, A</text>
<polyline fill="none" stroke="#2980b9" points="415,-23.5 478,-23.5 "/>
<text text-anchor="middle" x="446.5" y="-8.3" font-family="Segoe UI,Roboto,Helvetica,Arial,sans-serif" font-size="14.00" fill="#000000">∅</text>
</g>
<!-- ListStruct&#45;&gt;ListStruct2 -->
<g id="edge4" class="edge">
<title>ListStruct:cons&#45;&gt;ListStruct2:cons</title>
<path fill="none" stroke="#2980b9" d="M341,-35.5C341,-35.5 384.3774,-35.5 404.7106,-35.5"/>
<polygon fill="#2980b9" stroke="#2980b9" points="405,-39.0001 415,-35.5 405,-32.0001 405,-39.0001"/>
<text text-anchor="middle" x="378" y="-38.7" font-family="Segoe UI,Roboto,Helvetica,Arial,sans-serif" font-size="11.00" fill="#000000">recurse</text>
</g>
<!-- ListStruct&#45;&gt;ListStruct2 -->
<g id="edge5" class="edge">
<title>ListStruct:nil&#45;&gt;ListStruct2:nil</title>
<path fill="none" stroke="#2980b9" d="M341,-11.5C341,-11.5 384.3774,-11.5 404.7106,-11.5"/>
<polygon fill="#2980b9" stroke="#2980b9" points="405,-15.0001 415,-11.5 405,-8.0001 405,-15.0001"/>
</g>
<!-- ListFA -->
<g id="node4" class="node">
<title>ListFA</title>
<path fill="#b2ebf2" stroke="#dddddd" d="M597,-41.5C597,-41.5 556,-41.5 556,-41.5 550,-41.5 544,-35.5 544,-29.5 544,-29.5 544,-17.5 544,-17.5 544,-11.5 550,-5.5 556,-5.5 556,-5.5 597,-5.5 597,-5.5 603,-5.5 609,-11.5 609,-17.5 609,-17.5 609,-29.5 609,-29.5 609,-35.5 603,-41.5 597,-41.5"/>
<text text-anchor="middle" x="576.5" y="-19.8" font-family="Segoe UI,Roboto,Helvetica,Arial,sans-serif" font-size="14.00" fill="#dddddd">ListF[A]</text>
</g>
<!-- ListStruct2&#45;&gt;ListFA -->
<g id="edge6" class="edge">
<title>ListStruct2:cons&#45;&gt;ListFA</title>
<path fill="none" stroke="#2980b9" stroke-dasharray="5,2" d="M478,-35.5C478,-35.5 507.315,-31.9286 533.9599,-28.6825"/>
<polygon fill="#2980b9" stroke="#2980b9" points="534.4711,-32.1462 543.9744,-27.4625 533.6245,-25.1976 534.4711,-32.1462"/>
<text text-anchor="middle" x="511" y="-35.7" font-family="Segoe UI,Roboto,Helvetica,Arial,sans-serif" font-size="11.00" fill="#000000">Some</text>
</g>
<!-- ListStruct2&#45;&gt;ListFA -->
<g id="edge7" class="edge">
<title>ListStruct2:nil&#45;&gt;ListFA</title>
<path fill="none" stroke="#2980b9" stroke-dasharray="5,2" d="M478,-11.5C478,-11.5 507.315,-15.0714 533.9599,-18.3175"/>
<polygon fill="#2980b9" stroke="#2980b9" points="533.6245,-21.8024 543.9744,-19.5375 534.4711,-14.8538 533.6245,-21.8024"/>
<text text-anchor="middle" x="511" y="-16.7" font-family="Segoe UI,Roboto,Helvetica,Arial,sans-serif" font-size="11.00" fill="#000000">None</text>
</g>
<!-- ListFList -->
<g id="node3" class="node">
<title>ListFList</title>
<path fill="#b2ebf2" stroke="#dddddd" d="M189,-41.5C189,-41.5 138,-41.5 138,-41.5 132,-41.5 126,-35.5 126,-29.5 126,-29.5 126,-17.5 126,-17.5 126,-11.5 132,-5.5 138,-5.5 138,-5.5 189,-5.5 189,-5.5 195,-5.5 201,-11.5 201,-17.5 201,-17.5 201,-29.5 201,-29.5 201,-35.5 195,-41.5 189,-41.5"/>
<text text-anchor="middle" x="163.5" y="-19.8" font-family="Segoe UI,Roboto,Helvetica,Arial,sans-serif" font-size="14.00" fill="#dddddd">ListF[tail]</text>
</g>
<!-- ListFList&#45;&gt;ListStruct -->
<g id="edge2" class="edge">
<title>ListFList&#45;&gt;ListStruct:cons</title>
<path fill="none" stroke="#2980b9" stroke-dasharray="5,2" d="M201.1587,-27.8662C221.0416,-30.1715 243.9287,-32.8251 256.8076,-34.3183"/>
<polygon fill="#2980b9" stroke="#2980b9" points="256.6634,-37.8249 267,-35.5 257.4697,-30.8715 256.6634,-37.8249"/>
<text text-anchor="middle" x="234" y="-35.7" font-family="Segoe UI,Roboto,Helvetica,Arial,sans-serif" font-size="11.00" fill="#000000">Some</text>
</g>
<!-- ListFList&#45;&gt;ListStruct -->
<g id="edge3" class="edge">
<title>ListFList&#45;&gt;ListStruct:nil</title>
<path fill="none" stroke="#2980b9" stroke-dasharray="5,2" d="M201.1587,-19.1338C221.0416,-16.8285 243.9287,-14.1749 256.8076,-12.6817"/>
<polygon fill="#2980b9" stroke="#2980b9" points="257.4697,-16.1285 267,-11.5 256.6634,-9.1751 257.4697,-16.1285"/>
<text text-anchor="middle" x="234" y="-16.7" font-family="Segoe UI,Roboto,Helvetica,Arial,sans-serif" font-size="11.00" fill="#000000">None</text>
</g>
<!-- A -->
<g id="node6" class="node">
<title>A</title>
<path fill="#b2ebf2" stroke="#dddddd" d="M700,-41.5C700,-41.5 670,-41.5 670,-41.5 664,-41.5 658,-35.5 658,-29.5 658,-29.5 658,-17.5 658,-17.5 658,-11.5 664,-5.5 670,-5.5 670,-5.5 700,-5.5 700,-5.5 706,-5.5 712,-11.5 712,-17.5 712,-17.5 712,-29.5 712,-29.5 712,-35.5 706,-41.5 700,-41.5"/>
<text text-anchor="middle" x="685" y="-19.8" font-family="Segoe UI,Roboto,Helvetica,Arial,sans-serif" font-size="14.00" fill="#dddddd">A</text>
</g>
<!-- ListFA&#45;&gt;A -->
<g id="edge8" class="edge">
<title>ListFA&#45;&gt;A</title>
<path fill="none" stroke="#dddddd" d="M609.0536,-23.5C621.2451,-23.5 635.1869,-23.5 647.7695,-23.5"/>
<polygon fill="#dddddd" stroke="#dddddd" points="647.951,-27.0001 657.951,-23.5 647.9509,-20.0001 647.951,-27.0001"/>
<text text-anchor="middle" x="633.5" y="-26.7" font-family="Segoe UI,Roboto,Helvetica,Arial,sans-serif" font-size="11.00" fill="#dddddd">op</text>
</g>
<!-- List -->
<g id="node5" class="node">
<title>List</title>
<path fill="#b2ebf2" stroke="#dddddd" d="M42,-41.5C42,-41.5 12,-41.5 12,-41.5 6,-41.5 0,-35.5 0,-29.5 0,-29.5 0,-17.5 0,-17.5 0,-11.5 6,-5.5 12,-5.5 12,-5.5 42,-5.5 42,-5.5 48,-5.5 54,-11.5 54,-17.5 54,-17.5 54,-29.5 54,-29.5 54,-35.5 48,-41.5 42,-41.5"/>
<text text-anchor="middle" x="27" y="-19.8" font-family="Segoe UI,Roboto,Helvetica,Arial,sans-serif" font-size="14.00" fill="#dddddd">List</text>
</g>
<!-- List&#45;&gt;ListFList -->
<g id="edge1" class="edge">
<title>List&#45;&gt;ListFList</title>
<path fill="none" stroke="#dddddd" d="M54.2947,-23.5C71.8656,-23.5 95.1835,-23.5 115.7596,-23.5"/>
<polygon fill="#dddddd" stroke="#dddddd" points="115.9129,-27.0001 125.9129,-23.5 115.9129,-20.0001 115.9129,-27.0001"/>
<text text-anchor="middle" x="90" y="-26.7" font-family="Segoe UI,Roboto,Helvetica,Arial,sans-serif" font-size="11.00" fill="#dddddd">project</text>
</g>
</g>
</svg>
