<?xml version="1.0" encoding="UTF-8" standalone="no"?>
<!DOCTYPE svg PUBLIC "-//W3C//DTD SVG 1.1//EN"
 "http://www.w3.org/Graphics/SVG/1.1/DTD/svg11.dtd">
<!-- Generated by graphviz version 2.40.1 (20161225.0304)
 -->
<!-- Title: %3 Pages: 1 -->
<svg width="582pt" height="59pt"
 viewBox="0.00 0.00 582.00 58.79" xmlns="http://www.w3.org/2000/svg" xmlns:xlink="http://www.w3.org/1999/xlink">
<g id="graph0" class="graph" transform="scale(1 1) rotate(0) translate(4 54.787)">
<title>%3</title>
<!-- ListStruct -->
<g id="node1" class="node">
<title>ListStruct</title>
<path fill="#b2ebf2" stroke="#2980b9" d="M259,-.787C259,-.787 309,-.787 309,-.787 315,-.787 321,-6.787 321,-12.787 321,-12.787 321,-34.787 321,-34.787 321,-40.787 315,-46.787 309,-46.787 309,-46.787 259,-46.787 259,-46.787 253,-46.787 247,-40.787 247,-34.787 247,-34.787 247,-12.787 247,-12.787 247,-6.787 253,-.787 259,-.787"/>
<text text-anchor="middle" x="284" y="-31.587" font-family="Segoe UI,Roboto,Helvetica,Arial,sans-serif" font-size="14.00" fill="#000000">head, tail</text>
<polyline fill="none" stroke="#2980b9" points="247,-23.787 321,-23.787 "/>
<text text-anchor="middle" x="284" y="-8.587" font-family="Segoe UI,Roboto,Helvetica,Arial,sans-serif" font-size="14.00" fill="#000000">∅</text>
</g>
<!-- ListStruct2 -->
<g id="node2" class="node">
<title>ListStruct2</title>
<path fill="#b2ebf2" stroke="#2980b9" d="M416,-.787C416,-.787 455,-.787 455,-.787 461,-.787 467,-6.787 467,-12.787 467,-12.787 467,-34.787 467,-34.787 467,-40.787 461,-46.787 455,-46.787 455,-46.787 416,-46.787 416,-46.787 410,-46.787 404,-40.787 404,-34.787 404,-34.787 404,-12.787 404,-12.787 404,-6.787 410,-.787 416,-.787"/>
<text text-anchor="middle" x="435.5" y="-31.587" font-family="Segoe UI,Roboto,Helvetica,Arial,sans-serif" font-size="14.00" fill="#000000">head, A</text>
<polyline fill="none" stroke="#2980b9" points="404,-23.787 467,-23.787 "/>
<text text-anchor="middle" x="435.5" y="-8.587" font-family="Segoe UI,Roboto,Helvetica,Arial,sans-serif" font-size="14.00" fill="#000000">∅</text>
</g>
<!-- ListStruct&#45;&gt;ListStruct2 -->
<g id="edge4" class="edge">
<title>ListStruct:cons&#45;&gt;ListStruct2:cons</title>
<path fill="none" stroke="#2980b9" d="M321,-35.787C321,-35.787 371.6592,-35.787 393.8226,-35.787"/>
<polygon fill="#2980b9" stroke="#2980b9" points="394,-39.2871 404,-35.787 394,-32.2871 394,-39.2871"/>
<text text-anchor="middle" x="362.5" y="-39.587" font-family="Segoe UI,Roboto,Helvetica,Arial,sans-serif" font-size="14.00" fill="#000000">recurse</text>
</g>
<!-- ListStruct&#45;&gt;ListStruct2 -->
<g id="edge5" class="edge">
<title>ListStruct:nil&#45;&gt;ListStruct2:nil</title>
<path fill="none" stroke="#2980b9" d="M321,-11.787C321,-11.787 371.6592,-11.787 393.8226,-11.787"/>
<polygon fill="#2980b9" stroke="#2980b9" points="394,-15.2871 404,-11.787 394,-8.2871 394,-15.2871"/>
</g>
<!-- A -->
<g id="node5" class="node">
<title>A</title>
<path fill="#b2ebf2" stroke="#2980b9" d="M562,-41.787C562,-41.787 532,-41.787 532,-41.787 526,-41.787 520,-35.787 520,-29.787 520,-29.787 520,-17.787 520,-17.787 520,-11.787 526,-5.787 532,-5.787 532,-5.787 562,-5.787 562,-5.787 568,-5.787 574,-11.787 574,-17.787 574,-17.787 574,-29.787 574,-29.787 574,-35.787 568,-41.787 562,-41.787"/>
<text text-anchor="middle" x="547" y="-20.087" font-family="Segoe UI,Roboto,Helvetica,Arial,sans-serif" font-size="14.00" fill="#000000">A</text>
</g>
<!-- ListStruct2&#45;&gt;A -->
<g id="edge6" class="edge">
<title>ListStruct2:cons&#45;&gt;A</title>
<path fill="none" stroke="#2980b9" d="M467,-35.787C467,-35.787 488.9394,-32.4961 509.8397,-29.3611"/>
<polygon fill="#2980b9" stroke="#2980b9" points="510.5455,-32.7944 519.9156,-27.8497 509.5071,-25.8719 510.5455,-32.7944"/>
<text text-anchor="middle" x="493.5" y="-36.587" font-family="Segoe UI,Roboto,Helvetica,Arial,sans-serif" font-size="14.00" fill="#000000">op</text>
</g>
<!-- ListStruct2&#45;&gt;A -->
<g id="edge7" class="edge">
<title>ListStruct2:nil&#45;&gt;A</title>
<path fill="none" stroke="#2980b9" d="M467,-11.787C467,-11.787 488.9394,-15.0779 509.8397,-18.213"/>
<polygon fill="#2980b9" stroke="#2980b9" points="509.5071,-21.7022 519.9156,-19.7244 510.5455,-14.7796 509.5071,-21.7022"/>
<text text-anchor="middle" x="479.9198" y="-3.8" font-family="Segoe UI,Roboto,Helvetica,Arial,sans-serif" font-size="14.00" fill="#000000">op</text>
</g>
<!-- ListFList -->
<g id="node3" class="node">
<title>ListFList</title>
<path fill="#b2ebf2" stroke="#2980b9" d="M198,-41.787C198,-41.787 147,-41.787 147,-41.787 141,-41.787 135,-35.787 135,-29.787 135,-29.787 135,-17.787 135,-17.787 135,-11.787 141,-5.787 147,-5.787 147,-5.787 198,-5.787 198,-5.787 204,-5.787 210,-11.787 210,-17.787 210,-17.787 210,-29.787 210,-29.787 210,-35.787 204,-41.787 198,-41.787"/>
<text text-anchor="middle" x="172.5" y="-20.087" font-family="Segoe UI,Roboto,Helvetica,Arial,sans-serif" font-size="14.00" fill="#000000">ListF[tail]</text>
</g>
<!-- ListFList&#45;&gt;ListStruct -->
<g id="edge2" class="edge">
<title>ListFList&#45;&gt;ListStruct:cons</title>
<path fill="none" stroke="#2980b9" stroke-dasharray="5,2" d="M210.1865,-29.8573C220.1475,-31.4618 230.0669,-33.0595 237.0949,-34.1916"/>
<polygon fill="#2980b9" stroke="#2980b9" points="236.5706,-37.6522 247,-35.787 237.6839,-30.7412 236.5706,-37.6522"/>
</g>
<!-- ListFList&#45;&gt;ListStruct -->
<g id="edge3" class="edge">
<title>ListFList&#45;&gt;ListStruct:nil</title>
<path fill="none" stroke="#2980b9" stroke-dasharray="5,2" d="M210.1865,-17.7167C220.1475,-16.1123 230.0669,-14.5145 237.0949,-13.3825"/>
<polygon fill="#2980b9" stroke="#2980b9" points="237.6839,-16.8328 247,-11.787 236.5706,-9.9219 237.6839,-16.8328"/>
</g>
<!-- List -->
<g id="node4" class="node">
<title>List</title>
<path fill="#b2ebf2" stroke="#2980b9" d="M42,-41.787C42,-41.787 12,-41.787 12,-41.787 6,-41.787 0,-35.787 0,-29.787 0,-29.787 0,-17.787 0,-17.787 0,-11.787 6,-5.787 12,-5.787 12,-5.787 42,-5.787 42,-5.787 48,-5.787 54,-11.787 54,-17.787 54,-17.787 54,-29.787 54,-29.787 54,-35.787 48,-41.787 42,-41.787"/>
<text text-anchor="middle" x="27" y="-20.087" font-family="Segoe UI,Roboto,Helvetica,Arial,sans-serif" font-size="14.00" fill="#000000">List</text>
</g>
<!-- List&#45;&gt;ListFList -->
<g id="edge1" class="edge">
<title>List&#45;&gt;ListFList</title>
<path fill="none" stroke="#2980b9" d="M54.0264,-23.787C73.8565,-23.787 101.3088,-23.787 124.7947,-23.787"/>
<polygon fill="#2980b9" stroke="#2980b9" points="124.923,-27.2871 134.923,-23.787 124.923,-20.2871 124.923,-27.2871"/>
<text text-anchor="middle" x="94.5" y="-27.587" font-family="Segoe UI,Roboto,Helvetica,Arial,sans-serif" font-size="14.00" fill="#000000">project</text>
</g>
</g>
</svg>
