<?xml version="1.0" encoding="UTF-8" standalone="no"?>
<!DOCTYPE svg PUBLIC "-//W3C//DTD SVG 1.1//EN"
 "http://www.w3.org/Graphics/SVG/1.1/DTD/svg11.dtd">
<!-- Generated by graphviz version 2.40.1 (20161225.0304)
 -->
<!-- Title: %3 Pages: 1 -->
<svg width="480pt" height="44pt"
 viewBox="0.00 0.00 480.00 44.00" xmlns="http://www.w3.org/2000/svg" xmlns:xlink="http://www.w3.org/1999/xlink">
<g id="graph0" class="graph" transform="scale(1 1) rotate(0) translate(4 40)">
<title>%3</title>
<!-- ListFList -->
<g id="node1" class="node">
<title>ListFList</title>
<path fill="#b2ebf2" stroke="#2980b9" d="M189,-36C189,-36 138,-36 138,-36 132,-36 126,-30 126,-24 126,-24 126,-12 126,-12 126,-6 132,0 138,0 138,0 189,0 189,0 195,0 201,-6 201,-12 201,-12 201,-24 201,-24 201,-30 195,-36 189,-36"/>
<text text-anchor="middle" x="163.5" y="-14.3" font-family="Segoe UI,Roboto,Helvetica,Arial,sans-serif" font-size="14.00" fill="#000000">ListF[tail]</text>
</g>
<!-- ListFA -->
<g id="node2" class="node">
<title>ListFA</title>
<path fill="#b2ebf2" stroke="#2980b9" d="M357,-36C357,-36 316,-36 316,-36 310,-36 304,-30 304,-24 304,-24 304,-12 304,-12 304,-6 310,0 316,0 316,0 357,0 357,0 363,0 369,-6 369,-12 369,-12 369,-24 369,-24 369,-30 363,-36 357,-36"/>
<text text-anchor="middle" x="336.5" y="-14.3" font-family="Segoe UI,Roboto,Helvetica,Arial,sans-serif" font-size="14.00" fill="#000000">ListF[A]</text>
</g>
<!-- ListFList&#45;&gt;ListFA -->
<g id="edge2" class="edge">
<title>ListFList&#45;&gt;ListFA</title>
<path fill="none" stroke="#dddddd" d="M201.0384,-18C228.3871,-18 265.4722,-18 293.9256,-18"/>
<polygon fill="#dddddd" stroke="#dddddd" points="293.9839,-21.5001 303.9838,-18 293.9838,-14.5001 293.9839,-21.5001"/>
<text text-anchor="middle" x="252.5" y="-21.2" font-family="Segoe UI,Roboto,Helvetica,Arial,sans-serif" font-size="11.00" fill="#dddddd">fmap(_, loop)</text>
</g>
<!-- A -->
<g id="node4" class="node">
<title>A</title>
<path fill="#b2ebf2" stroke="#dddddd" d="M460,-36C460,-36 430,-36 430,-36 424,-36 418,-30 418,-24 418,-24 418,-12 418,-12 418,-6 424,0 430,0 430,0 460,0 460,0 466,0 472,-6 472,-12 472,-12 472,-24 472,-24 472,-30 466,-36 460,-36"/>
<text text-anchor="middle" x="445" y="-14.3" font-family="Segoe UI,Roboto,Helvetica,Arial,sans-serif" font-size="14.00" fill="#dddddd">A</text>
</g>
<!-- ListFA&#45;&gt;A -->
<g id="edge3" class="edge">
<title>ListFA&#45;&gt;A</title>
<path fill="none" stroke="#dddddd" d="M369.0536,-18C381.2451,-18 395.1869,-18 407.7695,-18"/>
<polygon fill="#dddddd" stroke="#dddddd" points="407.951,-21.5001 417.951,-18 407.9509,-14.5001 407.951,-21.5001"/>
<text text-anchor="middle" x="393.5" y="-21.2" font-family="Segoe UI,Roboto,Helvetica,Arial,sans-serif" font-size="11.00" fill="#dddddd">op</text>
</g>
<!-- List -->
<g id="node3" class="node">
<title>List</title>
<path fill="#b2ebf2" stroke="#dddddd" d="M42,-36C42,-36 12,-36 12,-36 6,-36 0,-30 0,-24 0,-24 0,-12 0,-12 0,-6 6,0 12,0 12,0 42,0 42,0 48,0 54,-6 54,-12 54,-12 54,-24 54,-24 54,-30 48,-36 42,-36"/>
<text text-anchor="middle" x="27" y="-14.3" font-family="Segoe UI,Roboto,Helvetica,Arial,sans-serif" font-size="14.00" fill="#dddddd">List</text>
</g>
<!-- List&#45;&gt;ListFList -->
<g id="edge1" class="edge">
<title>List&#45;&gt;ListFList</title>
<path fill="none" stroke="#dddddd" d="M54.2947,-18C71.8656,-18 95.1835,-18 115.7596,-18"/>
<polygon fill="#dddddd" stroke="#dddddd" points="115.9129,-21.5001 125.9129,-18 115.9129,-14.5001 115.9129,-21.5001"/>
<text text-anchor="middle" x="90" y="-21.2" font-family="Segoe UI,Roboto,Helvetica,Arial,sans-serif" font-size="11.00" fill="#dddddd">project</text>
</g>
</g>
</svg>
