<?xml version="1.0" encoding="UTF-8" standalone="no"?>
<!DOCTYPE svg PUBLIC "-//W3C//DTD SVG 1.1//EN"
 "http://www.w3.org/Graphics/SVG/1.1/DTD/svg11.dtd">
<!-- Generated by graphviz version 2.40.1 (20161225.0304)
 -->
<!-- Title: %3 Pages: 1 -->
<svg width="705pt" height="56pt"
 viewBox="0.00 0.00 705.00 55.50" xmlns="http://www.w3.org/2000/svg" xmlns:xlink="http://www.w3.org/1999/xlink">
<g id="graph0" class="graph" transform="scale(1 1) rotate(0) translate(4 51.5)">
<title>%3</title>
<!-- ListStruct -->
<g id="node1" class="node">
<title>ListStruct</title>
<path fill="#b2ebf2" stroke="#dddddd" d="M279,-.5C279,-.5 329,-.5 329,-.5 335,-.5 341,-6.5 341,-12.5 341,-12.5 341,-34.5 341,-34.5 341,-40.5 335,-46.5 329,-46.5 329,-46.5 279,-46.5 279,-46.5 273,-46.5 267,-40.5 267,-34.5 267,-34.5 267,-12.5 267,-12.5 267,-6.5 273,-.5 279,-.5"/>
<text text-anchor="middle" x="304" y="-31.3" font-family="Segoe UI,Roboto,Helvetica,Arial,sans-serif" font-size="14.00" fill="#dddddd">head, tail</text>
<polyline fill="none" stroke="#dddddd" points="267,-23.5 341,-23.5 "/>
<text text-anchor="middle" x="304" y="-8.3" font-family="Segoe UI,Roboto,Helvetica,Arial,sans-serif" font-size="14.00" fill="#dddddd">∅</text>
</g>
<!-- ListStruct2 -->
<g id="node2" class="node">
<title>ListStruct2</title>
<path fill="#b2ebf2" stroke="#2980b9" d="M412,-.5C412,-.5 451,-.5 451,-.5 457,-.5 463,-6.5 463,-12.5 463,-12.5 463,-34.5 463,-34.5 463,-40.5 457,-46.5 451,-46.5 451,-46.5 412,-46.5 412,-46.5 406,-46.5 400,-40.5 400,-34.5 400,-34.5 400,-12.5 400,-12.5 400,-6.5 406,-.5 412,-.5"/>
<text text-anchor="middle" x="431.5" y="-31.3" font-family="Segoe UI,Roboto,Helvetica,Arial,sans-serif" font-size="14.00" fill="#000000">head, A</text>
<polyline fill="none" stroke="#2980b9" points="400,-23.5 463,-23.5 "/>
<text text-anchor="middle" x="431.5" y="-8.3" font-family="Segoe UI,Roboto,Helvetica,Arial,sans-serif" font-size="14.00" fill="#000000">∅</text>
</g>
<!-- ListStruct&#45;&gt;ListStruct2 -->
<g id="edge4" class="edge">
<title>ListStruct:cons&#45;&gt;ListStruct2:cons</title>
<path fill="none" stroke="#dddddd" d="M341,-35.5C341,-35.5 373.1585,-35.5 389.9915,-35.5"/>
<polygon fill="#dddddd" stroke="#dddddd" points="390,-39.0001 400,-35.5 390,-32.0001 390,-39.0001"/>
<text text-anchor="middle" x="370.5" y="-38.7" font-family="Segoe UI,Roboto,Helvetica,Arial,sans-serif" font-size="11.00" fill="#dddddd">loop</text>
</g>
<!-- ListStruct&#45;&gt;ListStruct2 -->
<g id="edge5" class="edge">
<title>ListStruct:nil&#45;&gt;ListStruct2:nil</title>
<path fill="none" stroke="#dddddd" d="M341,-11.5C341,-11.5 373.1585,-11.5 389.9915,-11.5"/>
<polygon fill="#dddddd" stroke="#dddddd" points="390,-15.0001 400,-11.5 390,-8.0001 390,-15.0001"/>
</g>
<!-- ListFA -->
<g id="node4" class="node">
<title>ListFA</title>
<path fill="#b2ebf2" stroke="#2980b9" d="M582,-41.5C582,-41.5 541,-41.5 541,-41.5 535,-41.5 529,-35.5 529,-29.5 529,-29.5 529,-17.5 529,-17.5 529,-11.5 535,-5.5 541,-5.5 541,-5.5 582,-5.5 582,-5.5 588,-5.5 594,-11.5 594,-17.5 594,-17.5 594,-29.5 594,-29.5 594,-35.5 588,-41.5 582,-41.5"/>
<text text-anchor="middle" x="561.5" y="-19.8" font-family="Segoe UI,Roboto,Helvetica,Arial,sans-serif" font-size="14.00" fill="#000000">ListF[A]</text>
</g>
<!-- ListStruct2&#45;&gt;ListFA -->
<g id="edge6" class="edge">
<title>ListStruct2:cons&#45;&gt;ListFA</title>
<path fill="none" stroke="#2980b9" stroke-dasharray="5,2" d="M463,-35.5C463,-35.5 492.315,-31.9286 518.9599,-28.6825"/>
<polygon fill="#2980b9" stroke="#2980b9" points="519.4711,-32.1462 528.9744,-27.4625 518.6245,-25.1976 519.4711,-32.1462"/>
<text text-anchor="middle" x="496" y="-35.7" font-family="Segoe UI,Roboto,Helvetica,Arial,sans-serif" font-size="11.00" fill="#000000">Some</text>
</g>
<!-- ListStruct2&#45;&gt;ListFA -->
<g id="edge7" class="edge">
<title>ListStruct2:nil&#45;&gt;ListFA</title>
<path fill="none" stroke="#2980b9" stroke-dasharray="5,2" d="M463,-11.5C463,-11.5 492.315,-15.0714 518.9599,-18.3175"/>
<polygon fill="#2980b9" stroke="#2980b9" points="518.6245,-21.8024 528.9744,-19.5375 519.4711,-14.8538 518.6245,-21.8024"/>
<text text-anchor="middle" x="496" y="-16.7" font-family="Segoe UI,Roboto,Helvetica,Arial,sans-serif" font-size="11.00" fill="#000000">None</text>
</g>
<!-- ListFList -->
<g id="node3" class="node">
<title>ListFList</title>
<path fill="#b2ebf2" stroke="#dddddd" d="M189,-41.5C189,-41.5 138,-41.5 138,-41.5 132,-41.5 126,-35.5 126,-29.5 126,-29.5 126,-17.5 126,-17.5 126,-11.5 132,-5.5 138,-5.5 138,-5.5 189,-5.5 189,-5.5 195,-5.5 201,-11.5 201,-17.5 201,-17.5 201,-29.5 201,-29.5 201,-35.5 195,-41.5 189,-41.5"/>
<text text-anchor="middle" x="163.5" y="-19.8" font-family="Segoe UI,Roboto,Helvetica,Arial,sans-serif" font-size="14.00" fill="#dddddd">ListF[tail]</text>
</g>
<!-- ListFList&#45;&gt;ListStruct -->
<g id="edge2" class="edge">
<title>ListFList&#45;&gt;ListStruct:cons</title>
<path fill="none" stroke="#dddddd" stroke-dasharray="5,2" d="M201.1587,-27.8662C221.0416,-30.1715 243.9287,-32.8251 256.8076,-34.3183"/>
<polygon fill="#dddddd" stroke="#dddddd" points="256.6634,-37.8249 267,-35.5 257.4697,-30.8715 256.6634,-37.8249"/>
<text text-anchor="middle" x="234" y="-35.7" font-family="Segoe UI,Roboto,Helvetica,Arial,sans-serif" font-size="11.00" fill="#dddddd">Some</text>
</g>
<!-- ListFList&#45;&gt;ListStruct -->
<g id="edge3" class="edge">
<title>ListFList&#45;&gt;ListStruct:nil</title>
<path fill="none" stroke="#dddddd" stroke-dasharray="5,2" d="M201.1587,-19.1338C221.0416,-16.8285 243.9287,-14.1749 256.8076,-12.6817"/>
<polygon fill="#dddddd" stroke="#dddddd" points="257.4697,-16.1285 267,-11.5 256.6634,-9.1751 257.4697,-16.1285"/>
<text text-anchor="middle" x="234" y="-16.7" font-family="Segoe UI,Roboto,Helvetica,Arial,sans-serif" font-size="11.00" fill="#dddddd">None</text>
</g>
<!-- A -->
<g id="node6" class="node">
<title>A</title>
<path fill="#b2ebf2" stroke="#dddddd" d="M685,-41.5C685,-41.5 655,-41.5 655,-41.5 649,-41.5 643,-35.5 643,-29.5 643,-29.5 643,-17.5 643,-17.5 643,-11.5 649,-5.5 655,-5.5 655,-5.5 685,-5.5 685,-5.5 691,-5.5 697,-11.5 697,-17.5 697,-17.5 697,-29.5 697,-29.5 697,-35.5 691,-41.5 685,-41.5"/>
<text text-anchor="middle" x="670" y="-19.8" font-family="Segoe UI,Roboto,Helvetica,Arial,sans-serif" font-size="14.00" fill="#dddddd">A</text>
</g>
<!-- ListFA&#45;&gt;A -->
<g id="edge8" class="edge">
<title>ListFA&#45;&gt;A</title>
<path fill="none" stroke="#dddddd" d="M594.0536,-23.5C606.2451,-23.5 620.1869,-23.5 632.7695,-23.5"/>
<polygon fill="#dddddd" stroke="#dddddd" points="632.951,-27.0001 642.951,-23.5 632.9509,-20.0001 632.951,-27.0001"/>
<text text-anchor="middle" x="618.5" y="-26.7" font-family="Segoe UI,Roboto,Helvetica,Arial,sans-serif" font-size="11.00" fill="#dddddd">op</text>
</g>
<!-- List -->
<g id="node5" class="node">
<title>List</title>
<path fill="#b2ebf2" stroke="#dddddd" d="M42,-41.5C42,-41.5 12,-41.5 12,-41.5 6,-41.5 0,-35.5 0,-29.5 0,-29.5 0,-17.5 0,-17.5 0,-11.5 6,-5.5 12,-5.5 12,-5.5 42,-5.5 42,-5.5 48,-5.5 54,-11.5 54,-17.5 54,-17.5 54,-29.5 54,-29.5 54,-35.5 48,-41.5 42,-41.5"/>
<text text-anchor="middle" x="27" y="-19.8" font-family="Segoe UI,Roboto,Helvetica,Arial,sans-serif" font-size="14.00" fill="#dddddd">List</text>
</g>
<!-- List&#45;&gt;ListFList -->
<g id="edge1" class="edge">
<title>List&#45;&gt;ListFList</title>
<path fill="none" stroke="#dddddd" d="M54.2947,-23.5C71.8656,-23.5 95.1835,-23.5 115.7596,-23.5"/>
<polygon fill="#dddddd" stroke="#dddddd" points="115.9129,-27.0001 125.9129,-23.5 115.9129,-20.0001 115.9129,-27.0001"/>
<text text-anchor="middle" x="90" y="-26.7" font-family="Segoe UI,Roboto,Helvetica,Arial,sans-serif" font-size="11.00" fill="#dddddd">project</text>
</g>
</g>
</svg>
