<?xml version="1.0" encoding="UTF-8" standalone="no"?>
<!DOCTYPE svg PUBLIC "-//W3C//DTD SVG 1.1//EN"
 "http://www.w3.org/Graphics/SVG/1.1/DTD/svg11.dtd">
<!-- Generated by graphviz version 2.40.1 (20161225.0304)
 -->
<!-- Title: %3 Pages: 1 -->
<svg width="684pt" height="59pt"
 viewBox="0.00 0.00 684.00 58.50" xmlns="http://www.w3.org/2000/svg" xmlns:xlink="http://www.w3.org/1999/xlink">
<g id="graph0" class="graph" transform="scale(1 1) rotate(0) translate(4 54.5)">
<title>%3</title>
<!-- ListStruct -->
<g id="node1" class="node">
<title>ListStruct</title>
<path fill="#b2ebf2" stroke="#2980b9" d="M259,-.5C259,-.5 309,-.5 309,-.5 315,-.5 321,-6.5 321,-12.5 321,-12.5 321,-34.5 321,-34.5 321,-40.5 315,-46.5 309,-46.5 309,-46.5 259,-46.5 259,-46.5 253,-46.5 247,-40.5 247,-34.5 247,-34.5 247,-12.5 247,-12.5 247,-6.5 253,-.5 259,-.5"/>
<text text-anchor="middle" x="284" y="-31.3" font-family="Segoe UI,Roboto,Helvetica,Arial,sans-serif" font-size="14.00" fill="#000000">head, tail</text>
<polyline fill="none" stroke="#2980b9" points="247,-23.5 321,-23.5 "/>
<text text-anchor="middle" x="284" y="-8.3" font-family="Segoe UI,Roboto,Helvetica,Arial,sans-serif" font-size="14.00" fill="#000000">∅</text>
</g>
<!-- ListStruct2 -->
<g id="node2" class="node">
<title>ListStruct2</title>
<path fill="#b2ebf2" stroke="#2980b9" d="M416,-.5C416,-.5 455,-.5 455,-.5 461,-.5 467,-6.5 467,-12.5 467,-12.5 467,-34.5 467,-34.5 467,-40.5 461,-46.5 455,-46.5 455,-46.5 416,-46.5 416,-46.5 410,-46.5 404,-40.5 404,-34.5 404,-34.5 404,-12.5 404,-12.5 404,-6.5 410,-.5 416,-.5"/>
<text text-anchor="middle" x="435.5" y="-31.3" font-family="Segoe UI,Roboto,Helvetica,Arial,sans-serif" font-size="14.00" fill="#000000">head, A</text>
<polyline fill="none" stroke="#2980b9" points="404,-23.5 467,-23.5 "/>
<text text-anchor="middle" x="435.5" y="-8.3" font-family="Segoe UI,Roboto,Helvetica,Arial,sans-serif" font-size="14.00" fill="#000000">∅</text>
</g>
<!-- ListStruct&#45;&gt;ListStruct2 -->
<g id="edge4" class="edge">
<title>ListStruct:cons&#45;&gt;ListStruct2:cons</title>
<path fill="none" stroke="#2980b9" d="M321,-35.5C321,-35.5 371.6592,-35.5 393.8226,-35.5"/>
<polygon fill="#2980b9" stroke="#2980b9" points="394,-39.0001 404,-35.5 394,-32.0001 394,-39.0001"/>
<text text-anchor="middle" x="362.5" y="-39.3" font-family="Segoe UI,Roboto,Helvetica,Arial,sans-serif" font-size="14.00" fill="#000000">recurse</text>
</g>
<!-- ListStruct&#45;&gt;ListStruct2 -->
<g id="edge5" class="edge">
<title>ListStruct:nil&#45;&gt;ListStruct2:nil</title>
<path fill="none" stroke="#2980b9" d="M321,-11.5C321,-11.5 371.6592,-11.5 393.8226,-11.5"/>
<polygon fill="#2980b9" stroke="#2980b9" points="394,-15.0001 404,-11.5 394,-8.0001 394,-15.0001"/>
</g>
<!-- ListFA -->
<g id="node4" class="node">
<title>ListFA</title>
<path fill="#b2ebf2" stroke="#2980b9" d="M557,-41.5C557,-41.5 516,-41.5 516,-41.5 510,-41.5 504,-35.5 504,-29.5 504,-29.5 504,-17.5 504,-17.5 504,-11.5 510,-5.5 516,-5.5 516,-5.5 557,-5.5 557,-5.5 563,-5.5 569,-11.5 569,-17.5 569,-17.5 569,-29.5 569,-29.5 569,-35.5 563,-41.5 557,-41.5"/>
<text text-anchor="middle" x="536.5" y="-19.8" font-family="Segoe UI,Roboto,Helvetica,Arial,sans-serif" font-size="14.00" fill="#000000">ListF[A]</text>
</g>
<!-- ListStruct2&#45;&gt;ListFA -->
<g id="edge6" class="edge">
<title>ListStruct2:cons&#45;&gt;ListFA</title>
<path fill="none" stroke="#2980b9" stroke-dasharray="5,2" d="M467,-35.5C467,-35.5 479.3838,-33.3618 493.6966,-30.8905"/>
<polygon fill="#2980b9" stroke="#2980b9" points="494.5264,-34.2991 503.7851,-29.1486 493.3354,-27.4012 494.5264,-34.2991"/>
</g>
<!-- ListStruct2&#45;&gt;ListFA -->
<g id="edge7" class="edge">
<title>ListStruct2:nil&#45;&gt;ListFA</title>
<path fill="none" stroke="#2980b9" stroke-dasharray="5,2" d="M467,-11.5C467,-11.5 479.3838,-13.6382 493.6966,-16.1095"/>
<polygon fill="#2980b9" stroke="#2980b9" points="493.3354,-19.5988 503.7851,-17.8514 494.5264,-12.7009 493.3354,-19.5988"/>
</g>
<!-- ListFList -->
<g id="node3" class="node">
<title>ListFList</title>
<path fill="#b2ebf2" stroke="#2980b9" d="M198,-41.5C198,-41.5 147,-41.5 147,-41.5 141,-41.5 135,-35.5 135,-29.5 135,-29.5 135,-17.5 135,-17.5 135,-11.5 141,-5.5 147,-5.5 147,-5.5 198,-5.5 198,-5.5 204,-5.5 210,-11.5 210,-17.5 210,-17.5 210,-29.5 210,-29.5 210,-35.5 204,-41.5 198,-41.5"/>
<text text-anchor="middle" x="172.5" y="-19.8" font-family="Segoe UI,Roboto,Helvetica,Arial,sans-serif" font-size="14.00" fill="#000000">ListF[tail]</text>
</g>
<!-- ListFList&#45;&gt;ListStruct -->
<g id="edge2" class="edge">
<title>ListFList&#45;&gt;ListStruct:cons</title>
<path fill="none" stroke="#2980b9" stroke-dasharray="5,2" d="M210.1865,-29.5703C220.1475,-31.1748 230.0669,-32.7725 237.0949,-33.9046"/>
<polygon fill="#2980b9" stroke="#2980b9" points="236.5706,-37.3651 247,-35.5 237.6839,-30.4542 236.5706,-37.3651"/>
</g>
<!-- ListFList&#45;&gt;ListStruct -->
<g id="edge3" class="edge">
<title>ListFList&#45;&gt;ListStruct:nil</title>
<path fill="none" stroke="#2980b9" stroke-dasharray="5,2" d="M210.1865,-17.4297C220.1475,-15.8252 230.0669,-14.2275 237.0949,-13.0954"/>
<polygon fill="#2980b9" stroke="#2980b9" points="237.6839,-16.5458 247,-11.5 236.5706,-9.6349 237.6839,-16.5458"/>
</g>
<!-- A -->
<g id="node6" class="node">
<title>A</title>
<path fill="#b2ebf2" stroke="#2980b9" d="M664,-41.5C664,-41.5 634,-41.5 634,-41.5 628,-41.5 622,-35.5 622,-29.5 622,-29.5 622,-17.5 622,-17.5 622,-11.5 628,-5.5 634,-5.5 634,-5.5 664,-5.5 664,-5.5 670,-5.5 676,-11.5 676,-17.5 676,-17.5 676,-29.5 676,-29.5 676,-35.5 670,-41.5 664,-41.5"/>
<text text-anchor="middle" x="649" y="-19.8" font-family="Segoe UI,Roboto,Helvetica,Arial,sans-serif" font-size="14.00" fill="#000000">A</text>
</g>
<!-- ListFA&#45;&gt;A -->
<g id="edge8" class="edge">
<title>ListFA&#45;&gt;A</title>
<path fill="none" stroke="#2980b9" d="M569.0397,-23.5C582.3814,-23.5 597.9014,-23.5 611.699,-23.5"/>
<polygon fill="#2980b9" stroke="#2980b9" points="611.8499,-27.0001 621.8498,-23.5 611.8498,-20.0001 611.8499,-27.0001"/>
<text text-anchor="middle" x="595.5" y="-27.3" font-family="Segoe UI,Roboto,Helvetica,Arial,sans-serif" font-size="14.00" fill="#000000">op</text>
</g>
<!-- List -->
<g id="node5" class="node">
<title>List</title>
<path fill="#b2ebf2" stroke="#2980b9" d="M42,-41.5C42,-41.5 12,-41.5 12,-41.5 6,-41.5 0,-35.5 0,-29.5 0,-29.5 0,-17.5 0,-17.5 0,-11.5 6,-5.5 12,-5.5 12,-5.5 42,-5.5 42,-5.5 48,-5.5 54,-11.5 54,-17.5 54,-17.5 54,-29.5 54,-29.5 54,-35.5 48,-41.5 42,-41.5"/>
<text text-anchor="middle" x="27" y="-19.8" font-family="Segoe UI,Roboto,Helvetica,Arial,sans-serif" font-size="14.00" fill="#000000">List</text>
</g>
<!-- List&#45;&gt;ListFList -->
<g id="edge1" class="edge">
<title>List&#45;&gt;ListFList</title>
<path fill="none" stroke="#2980b9" d="M54.0264,-23.5C73.8565,-23.5 101.3088,-23.5 124.7947,-23.5"/>
<polygon fill="#2980b9" stroke="#2980b9" points="124.923,-27.0001 134.923,-23.5 124.923,-20.0001 124.923,-27.0001"/>
<text text-anchor="middle" x="94.5" y="-27.3" font-family="Segoe UI,Roboto,Helvetica,Arial,sans-serif" font-size="14.00" fill="#000000">project</text>
</g>
</g>
</svg>
