<?xml version="1.0" encoding="UTF-8" standalone="no"?>
<!DOCTYPE svg PUBLIC "-//W3C//DTD SVG 1.1//EN"
 "http://www.w3.org/Graphics/SVG/1.1/DTD/svg11.dtd">
<!-- Generated by graphviz version 2.40.1 (20161225.0304)
 -->
<!-- Title: %3 Pages: 1 -->
<svg width="778pt" height="46pt"
 viewBox="0.00 0.00 777.70 45.70" xmlns="http://www.w3.org/2000/svg" xmlns:xlink="http://www.w3.org/1999/xlink">
<g id="graph0" class="graph" transform="scale(1 1) rotate(0) translate(4 41.6967)">
<title>%3</title>
<!-- l1 -->
<g id="node1" class="node">
<title>l1</title>
<polygon fill="#ffffff" stroke="#2980b9" points="27,-36.8483 0,-18.8483 27,-.8483 54,-18.8483 27,-36.8483"/>
</g>
<!-- p1 -->
<g id="node5" class="node">
<title>p1</title>
<ellipse fill="#b2ebf2" stroke="#2980b9" cx="135" cy="-18.8483" rx="18" ry="18"/>
<text text-anchor="middle" x="135" y="-15.1483" font-family="Segoe UI,Roboto,Helvetica,Arial,sans-serif" font-size="14.00" fill="#000000">3</text>
</g>
<!-- l1&#45;&gt;p1 -->
<g id="edge1" class="edge">
<title>l1&#45;&gt;p1</title>
<path fill="none" stroke="#2980b9" d="M54.253,-18.8483C70.1953,-18.8483 90.2988,-18.8483 106.4581,-18.8483"/>
<polygon fill="#2980b9" stroke="#2980b9" points="106.9157,-22.3484 116.9156,-18.8483 106.9156,-15.3484 106.9157,-22.3484"/>
<text text-anchor="middle" x="85.5" y="-22.0483" font-family="Segoe UI,Roboto,Helvetica,Arial,sans-serif" font-size="11.00" fill="#000000">value</text>
</g>
<!-- l2 -->
<g id="node2" class="node">
<title>l2</title>
<polygon fill="#ffffff" stroke="#2980b9" points="232,-36.8483 205,-18.8483 232,-.8483 259,-18.8483 232,-36.8483"/>
</g>
<!-- p2 -->
<g id="node6" class="node">
<title>p2</title>
<ellipse fill="#b2ebf2" stroke="#2980b9" cx="340" cy="-18.8483" rx="18" ry="18"/>
<text text-anchor="middle" x="340" y="-15.1483" font-family="Segoe UI,Roboto,Helvetica,Arial,sans-serif" font-size="14.00" fill="#000000">2</text>
</g>
<!-- l2&#45;&gt;p2 -->
<g id="edge3" class="edge">
<title>l2&#45;&gt;p2</title>
<path fill="none" stroke="#2980b9" d="M259.253,-18.8483C275.1953,-18.8483 295.2988,-18.8483 311.4581,-18.8483"/>
<polygon fill="#2980b9" stroke="#2980b9" points="311.9157,-22.3484 321.9156,-18.8483 311.9156,-15.3484 311.9157,-22.3484"/>
<text text-anchor="middle" x="290.5" y="-22.0483" font-family="Segoe UI,Roboto,Helvetica,Arial,sans-serif" font-size="11.00" fill="#000000">value</text>
</g>
<!-- l3 -->
<g id="node3" class="node">
<title>l3</title>
<polygon fill="#ffffff" stroke="#2980b9" points="437,-36.8483 410,-18.8483 437,-.8483 464,-18.8483 437,-36.8483"/>
</g>
<!-- p3 -->
<g id="node7" class="node">
<title>p3</title>
<ellipse fill="#b2ebf2" stroke="#2980b9" cx="545" cy="-18.8483" rx="18" ry="18"/>
<text text-anchor="middle" x="545" y="-15.1483" font-family="Segoe UI,Roboto,Helvetica,Arial,sans-serif" font-size="14.00" fill="#000000">1</text>
</g>
<!-- l3&#45;&gt;p3 -->
<g id="edge5" class="edge">
<title>l3&#45;&gt;p3</title>
<path fill="none" stroke="#2980b9" d="M464.253,-18.8483C480.1953,-18.8483 500.2988,-18.8483 516.4581,-18.8483"/>
<polygon fill="#2980b9" stroke="#2980b9" points="516.9157,-22.3484 526.9156,-18.8483 516.9156,-15.3484 516.9157,-22.3484"/>
<text text-anchor="middle" x="495.5" y="-22.0483" font-family="Segoe UI,Roboto,Helvetica,Arial,sans-serif" font-size="11.00" fill="#000000">value</text>
</g>
<!-- l4 -->
<!-- nil -->
<!-- l4&#45;&gt;nil -->
<!-- p1&#45;&gt;l2 -->
<g id="edge2" class="edge">
<title>p1&#45;&gt;l2</title>
<path fill="none" stroke="#2980b9" d="M153.245,-18.8483C164.9035,-18.8483 180.4456,-18.8483 194.6414,-18.8483"/>
<polygon fill="#2980b9" stroke="#2980b9" points="194.6654,-22.3484 204.6654,-18.8483 194.6654,-15.3484 194.6654,-22.3484"/>
<text text-anchor="middle" x="179" y="-22.0483" font-family="Segoe UI,Roboto,Helvetica,Arial,sans-serif" font-size="11.00" fill="#000000">tail</text>
</g>
<!-- p2&#45;&gt;l3 -->
<g id="edge4" class="edge">
<title>p2&#45;&gt;l3</title>
<path fill="none" stroke="#2980b9" d="M358.245,-18.8483C369.9035,-18.8483 385.4456,-18.8483 399.6414,-18.8483"/>
<polygon fill="#2980b9" stroke="#2980b9" points="399.6654,-22.3484 409.6654,-18.8483 399.6654,-15.3484 399.6654,-22.3484"/>
<text text-anchor="middle" x="384" y="-22.0483" font-family="Segoe UI,Roboto,Helvetica,Arial,sans-serif" font-size="11.00" fill="#000000">tail</text>
</g>
<!-- p3&#45;&gt;l4 -->
</g>
</svg>
