<?xml version="1.0" encoding="UTF-8" standalone="no"?>
<!DOCTYPE svg PUBLIC "-//W3C//DTD SVG 1.1//EN"
 "http://www.w3.org/Graphics/SVG/1.1/DTD/svg11.dtd">
<!-- Generated by graphviz version 2.40.1 (20161225.0304)
 -->
<!-- Title: %3 Pages: 1 -->
<svg width="316pt" height="46pt"
 viewBox="0.00 0.00 315.70 45.70" xmlns="http://www.w3.org/2000/svg" xmlns:xlink="http://www.w3.org/1999/xlink">
<g id="graph0" class="graph" transform="scale(1 1) rotate(0) translate(4 41.6967)">
<title>%3</title>
<!-- nil -->
<g id="node1" class="node">
<title>nil</title>
<ellipse fill="#ffffff" stroke="#2980b9" cx="288.8483" cy="-18.8483" rx="18.6979" ry="18.6979"/>
<text text-anchor="middle" x="288.8483" y="-15.1483" font-family="Segoe UI,Roboto,Helvetica,Arial,sans-serif" font-size="14.00" fill="#000000">∅</text>
</g>
<!-- p1 -->
<g id="node2" class="node">
<title>p1</title>
<path fill="#b2ebf2" stroke="#dddddd" d="M42,-36.8483C42,-36.8483 12,-36.8483 12,-36.8483 6,-36.8483 0,-30.8483 0,-24.8483 0,-24.8483 0,-12.8483 0,-12.8483 0,-6.8483 6,-.8483 12,-.8483 12,-.8483 42,-.8483 42,-.8483 48,-.8483 54,-6.8483 54,-12.8483 54,-12.8483 54,-24.8483 54,-24.8483 54,-30.8483 48,-36.8483 42,-36.8483"/>
<text text-anchor="middle" x="27" y="-15.1483" font-family="Segoe UI,Roboto,Helvetica,Arial,sans-serif" font-size="14.00" fill="#dddddd">1</text>
</g>
<!-- p2 -->
<g id="node3" class="node">
<title>p2</title>
<path fill="#b2ebf2" stroke="#dddddd" d="M132,-36.8483C132,-36.8483 102,-36.8483 102,-36.8483 96,-36.8483 90,-30.8483 90,-24.8483 90,-24.8483 90,-12.8483 90,-12.8483 90,-6.8483 96,-.8483 102,-.8483 102,-.8483 132,-.8483 132,-.8483 138,-.8483 144,-6.8483 144,-12.8483 144,-12.8483 144,-24.8483 144,-24.8483 144,-30.8483 138,-36.8483 132,-36.8483"/>
<text text-anchor="middle" x="117" y="-15.1483" font-family="Segoe UI,Roboto,Helvetica,Arial,sans-serif" font-size="14.00" fill="#dddddd">2</text>
</g>
<!-- p1&#45;&gt;p2 -->
<g id="edge1" class="edge">
<title>p1&#45;&gt;p2</title>
<path fill="none" stroke="#dddddd" d="M54.003,-18.8483C62.0277,-18.8483 70.9665,-18.8483 79.5309,-18.8483"/>
<polygon fill="#dddddd" stroke="#dddddd" points="79.7051,-22.3484 89.705,-18.8483 79.705,-15.3484 79.7051,-22.3484"/>
</g>
<!-- p3 -->
<g id="node4" class="node">
<title>p3</title>
<path fill="#b2ebf2" stroke="#dddddd" d="M222,-36.8483C222,-36.8483 192,-36.8483 192,-36.8483 186,-36.8483 180,-30.8483 180,-24.8483 180,-24.8483 180,-12.8483 180,-12.8483 180,-6.8483 186,-.8483 192,-.8483 192,-.8483 222,-.8483 222,-.8483 228,-.8483 234,-6.8483 234,-12.8483 234,-12.8483 234,-24.8483 234,-24.8483 234,-30.8483 228,-36.8483 222,-36.8483"/>
<text text-anchor="middle" x="207" y="-15.1483" font-family="Segoe UI,Roboto,Helvetica,Arial,sans-serif" font-size="14.00" fill="#dddddd">3</text>
</g>
<!-- p2&#45;&gt;p3 -->
<g id="edge2" class="edge">
<title>p2&#45;&gt;p3</title>
<path fill="none" stroke="#dddddd" d="M144.003,-18.8483C152.0277,-18.8483 160.9665,-18.8483 169.5309,-18.8483"/>
<polygon fill="#dddddd" stroke="#dddddd" points="169.7051,-22.3484 179.705,-18.8483 169.705,-15.3484 169.7051,-22.3484"/>
</g>
<!-- p3&#45;&gt;nil -->
<g id="edge3" class="edge">
<title>p3&#45;&gt;nil</title>
<path fill="none" stroke="#dddddd" d="M234.2543,-18.8483C242.4941,-18.8483 251.5692,-18.8483 259.9147,-18.8483"/>
<polygon fill="#dddddd" stroke="#dddddd" points="259.9776,-22.3484 269.9775,-18.8483 259.9775,-15.3484 259.9776,-22.3484"/>
</g>
</g>
</svg>
