<?xml version="1.0" encoding="UTF-8" standalone="no"?>
<!DOCTYPE svg PUBLIC "-//W3C//DTD SVG 1.1//EN"
 "http://www.w3.org/Graphics/SVG/1.1/DTD/svg11.dtd">
<!-- Generated by graphviz version 2.43.0 (0)
 -->
<!-- Title: %3 Pages: 1 -->
<svg width="780pt" height="48pt"
 viewBox="0.00 0.00 780.30 48.30" xmlns="http://www.w3.org/2000/svg" xmlns:xlink="http://www.w3.org/1999/xlink">
<g id="graph0" class="graph" transform="scale(1 1) rotate(0) translate(4 44.3)">
<title>%3</title>
<!-- l1 -->
<g id="node1" class="node">
<title>l1</title>
<polygon fill="#ffffff" stroke="#2980b9" points="27,-38.15 0,-20.15 27,-2.15 54,-20.15 27,-38.15"/>
</g>
<!-- p1 -->
<g id="node5" class="node">
<title>p1</title>
<ellipse fill="#b2ebf2" stroke="#2980b9" cx="135" cy="-20.15" rx="18" ry="18"/>
<text text-anchor="middle" x="135" y="-16.45" font-family="Segoe UI,Roboto,Helvetica,Arial,sans-serif" font-size="14.00" fill="#000000">3</text>
</g>
<!-- l1&#45;&gt;p1 -->
<g id="edge1" class="edge">
<title>l1&#45;&gt;p1</title>
<path fill="none" stroke="#2980b9" d="M54.2,-20.15C70.04,-20.15 90.22,-20.15 106.32,-20.15"/>
<polygon fill="#2980b9" stroke="#2980b9" points="106.71,-23.65 116.71,-20.15 106.71,-16.65 106.71,-23.65"/>
<text text-anchor="middle" x="85.5" y="-23.35" font-family="Segoe UI,Roboto,Helvetica,Arial,sans-serif" font-size="11.00" fill="#000000">value</text>
</g>
<!-- l2 -->
<g id="node2" class="node">
<title>l2</title>
<polygon fill="#ffffff" stroke="#2980b9" points="232,-38.15 205,-20.15 232,-2.15 259,-20.15 232,-38.15"/>
</g>
<!-- p2 -->
<!-- l2&#45;&gt;p2 -->
<g id="edge3" class="edge">
<title>l2&#45;&gt;p2</title>
<path fill="none" stroke="#2980b9" d="M259.2,-20.15C275.04,-20.15 295.22,-20.15 311.32,-20.15"/>
<polygon fill="#2980b9" stroke="#2980b9" points="311.71,-23.65 321.71,-20.15 311.71,-16.65 311.71,-23.65"/>
<text text-anchor="middle" x="290.5" y="-23.35" font-family="Segoe UI,Roboto,Helvetica,Arial,sans-serif" font-size="11.00" fill="#000000">value</text>
</g>
<!-- l3 -->
<!-- p3 -->
<!-- l3&#45;&gt;p3 -->
<!-- l4 -->
<!-- nil -->
<!-- l4&#45;&gt;nil -->
<!-- p1&#45;&gt;l2 -->
<g id="edge2" class="edge">
<title>p1&#45;&gt;l2</title>
<path fill="none" stroke="#2980b9" d="M153.42,-20.15C164.86,-20.15 180.26,-20.15 194.32,-20.15"/>
<polygon fill="#2980b9" stroke="#2980b9" points="194.72,-23.65 204.72,-20.15 194.72,-16.65 194.72,-23.65"/>
<text text-anchor="middle" x="179" y="-23.35" font-family="Segoe UI,Roboto,Helvetica,Arial,sans-serif" font-size="11.00" fill="#000000">tail</text>
</g>
<!-- p2&#45;&gt;l3 -->
<!-- p3&#45;&gt;l4 -->
</g>
</svg>
