<?xml version="1.0" encoding="UTF-8" standalone="no"?>
<!DOCTYPE svg PUBLIC "-//W3C//DTD SVG 1.1//EN"
 "http://www.w3.org/Graphics/SVG/1.1/DTD/svg11.dtd">
<!-- Generated by graphviz version 2.40.1 (20161225.0304)
 -->
<!-- Title: %3 Pages: 1 -->
<svg width="364pt" height="46pt"
 viewBox="0.00 0.00 363.70 45.70" xmlns="http://www.w3.org/2000/svg" xmlns:xlink="http://www.w3.org/1999/xlink">
<g id="graph0" class="graph" transform="scale(1 1) rotate(0) translate(4 41.6967)">
<title>%3</title>
<!-- p1 -->
<g id="node1" class="node">
<title>p1</title>
<path fill="#b2ebf2" stroke="#dddddd" d="M42,-36.8483C42,-36.8483 12,-36.8483 12,-36.8483 6,-36.8483 0,-30.8483 0,-24.8483 0,-24.8483 0,-12.8483 0,-12.8483 0,-6.8483 6,-.8483 12,-.8483 12,-.8483 42,-.8483 42,-.8483 48,-.8483 54,-6.8483 54,-12.8483 54,-12.8483 54,-24.8483 54,-24.8483 54,-30.8483 48,-36.8483 42,-36.8483"/>
<text text-anchor="middle" x="27" y="-15.1483" font-family="Segoe UI,Roboto,Helvetica,Arial,sans-serif" font-size="14.00" fill="#dddddd">1</text>
</g>
<!-- p2 -->
<g id="node2" class="node">
<title>p2</title>
<path fill="#b2ebf2" stroke="#dddddd" d="M148,-36.8483C148,-36.8483 118,-36.8483 118,-36.8483 112,-36.8483 106,-30.8483 106,-24.8483 106,-24.8483 106,-12.8483 106,-12.8483 106,-6.8483 112,-.8483 118,-.8483 118,-.8483 148,-.8483 148,-.8483 154,-.8483 160,-6.8483 160,-12.8483 160,-12.8483 160,-24.8483 160,-24.8483 160,-30.8483 154,-36.8483 148,-36.8483"/>
<text text-anchor="middle" x="133" y="-15.1483" font-family="Segoe UI,Roboto,Helvetica,Arial,sans-serif" font-size="14.00" fill="#dddddd">2</text>
</g>
<!-- p1&#45;&gt;p2 -->
<g id="edge1" class="edge">
<title>p1&#45;&gt;p2</title>
<path fill="none" stroke="#dddddd" d="M54.0225,-18.8483C66.6333,-18.8483 81.8509,-18.8483 95.5484,-18.8483"/>
<polygon fill="#dddddd" stroke="#dddddd" points="95.6583,-22.3484 105.6582,-18.8483 95.6582,-15.3484 95.6583,-22.3484"/>
<text text-anchor="middle" x="80" y="-22.0483" font-family="Segoe UI,Roboto,Helvetica,Arial,sans-serif" font-size="11.00" fill="#dddddd">tail</text>
</g>
<!-- p3 -->
<g id="node3" class="node">
<title>p3</title>
<path fill="#b2ebf2" stroke="#dddddd" d="M254,-36.8483C254,-36.8483 224,-36.8483 224,-36.8483 218,-36.8483 212,-30.8483 212,-24.8483 212,-24.8483 212,-12.8483 212,-12.8483 212,-6.8483 218,-.8483 224,-.8483 224,-.8483 254,-.8483 254,-.8483 260,-.8483 266,-6.8483 266,-12.8483 266,-12.8483 266,-24.8483 266,-24.8483 266,-30.8483 260,-36.8483 254,-36.8483"/>
<text text-anchor="middle" x="239" y="-15.1483" font-family="Segoe UI,Roboto,Helvetica,Arial,sans-serif" font-size="14.00" fill="#dddddd">3</text>
</g>
<!-- p2&#45;&gt;p3 -->
<g id="edge2" class="edge">
<title>p2&#45;&gt;p3</title>
<path fill="none" stroke="#2980b9" d="M160.0225,-18.8483C172.6333,-18.8483 187.8509,-18.8483 201.5484,-18.8483"/>
<polygon fill="#2980b9" stroke="#2980b9" points="201.6583,-22.3484 211.6582,-18.8483 201.6582,-15.3484 201.6583,-22.3484"/>
<text text-anchor="middle" x="186" y="-22.0483" font-family="Segoe UI,Roboto,Helvetica,Arial,sans-serif" font-size="11.00" fill="#000000">tail</text>
</g>
<!-- nil -->
<g id="node4" class="node">
<title>nil</title>
<ellipse fill="#ffffff" stroke="#dddddd" cx="336.8483" cy="-18.8483" rx="18.6979" ry="18.6979"/>
<text text-anchor="middle" x="336.8483" y="-15.1483" font-family="Segoe UI,Roboto,Helvetica,Arial,sans-serif" font-size="14.00" fill="#dddddd">∅</text>
</g>
<!-- p3&#45;&gt;nil -->
<g id="edge3" class="edge">
<title>p3&#45;&gt;nil</title>
<path fill="none" stroke="#dddddd" d="M266.2562,-18.8483C279.0678,-18.8483 294.3637,-18.8483 307.4367,-18.8483"/>
<polygon fill="#dddddd" stroke="#dddddd" points="307.7917,-22.3484 317.7917,-18.8483 307.7917,-15.3484 307.7917,-22.3484"/>
<text text-anchor="middle" x="292" y="-22.0483" font-family="Segoe UI,Roboto,Helvetica,Arial,sans-serif" font-size="11.00" fill="#dddddd">tail</text>
</g>
</g>
</svg>
