<?xml version="1.0" encoding="UTF-8" standalone="no"?>
<!DOCTYPE svg PUBLIC "-//W3C//DTD SVG 1.1//EN"
 "http://www.w3.org/Graphics/SVG/1.1/DTD/svg11.dtd">
<!-- Generated by graphviz version 2.40.1 (20161225.0304)
 -->
<!-- Title: %3 Pages: 1 -->
<svg width="380pt" height="44pt"
 viewBox="0.00 0.00 380.00 44.00" xmlns="http://www.w3.org/2000/svg" xmlns:xlink="http://www.w3.org/1999/xlink">
<g id="graph0" class="graph" transform="scale(1 1) rotate(0) translate(4 40)">
<title>%3</title>
<!-- s3 -->
<g id="node1" class="node">
<title>s3</title>
<path fill="#b2ebf2" stroke="#dddddd" d="M42,-36C42,-36 12,-36 12,-36 6,-36 0,-30 0,-24 0,-24 0,-12 0,-12 0,-6 6,0 12,0 12,0 42,0 42,0 48,0 54,-6 54,-12 54,-12 54,-24 54,-24 54,-30 48,-36 42,-36"/>
<text text-anchor="middle" x="27" y="-14.3" font-family="Segoe UI,Roboto,Helvetica,Arial,sans-serif" font-size="14.00" fill="#dddddd">3</text>
</g>
<!-- s2 -->
<g id="node2" class="node">
<title>s2</title>
<path fill="#b2ebf2" stroke="#2980b9" d="M124,-30C124,-30 115,-24 115,-24 110.5,-21 110.5,-15 115,-12 115,-12 124,-6 124,-6 128.5,-3 137.5,-3 142,-6 142,-6 151,-12 151,-12 155.5,-15 155.5,-21 151,-24 151,-24 142,-30 142,-30 137.5,-33 128.5,-33 124,-30"/>
<text text-anchor="middle" x="133" y="-14.3" font-family="Segoe UI,Roboto,Helvetica,Arial,sans-serif" font-size="14.00" fill="#000000">2</text>
</g>
<!-- s3&#45;&gt;s2 -->
<g id="edge1" class="edge">
<title>s3&#45;&gt;s2</title>
<path fill="none" stroke="#dddddd" d="M54.0225,-18C66.6333,-18 81.8509,-18 95.5484,-18"/>
<polygon fill="#dddddd" stroke="#dddddd" points="95.6583,-21.5001 105.6582,-18 95.6582,-14.5001 95.6583,-21.5001"/>
<text text-anchor="middle" x="80" y="-21.2" font-family="Segoe UI,Roboto,Helvetica,Arial,sans-serif" font-size="11.00" fill="#dddddd">tail</text>
</g>
<!-- s1 -->
<!-- s2&#45;&gt;s1 -->
<!-- nil -->
<!-- s1&#45;&gt;nil -->
</g>
</svg>
