<?xml version="1.0" encoding="UTF-8" standalone="no"?>
<!DOCTYPE svg PUBLIC "-//W3C//DTD SVG 1.1//EN"
 "http://www.w3.org/Graphics/SVG/1.1/DTD/svg11.dtd">
<!-- Generated by graphviz version 2.43.0 (0)
 -->
<!-- Title: %3 Pages: 1 -->
<svg width="308pt" height="44pt"
 viewBox="0.00 0.00 308.00 44.00" xmlns="http://www.w3.org/2000/svg" xmlns:xlink="http://www.w3.org/1999/xlink">
<g id="graph0" class="graph" transform="scale(1 1) rotate(0) translate(4 40)">
<title>%3</title>
<!-- s3 -->
<g id="node1" class="node">
<title>s3</title>
<ellipse fill="#b2ebf2" stroke="#dddddd" cx="18" cy="-18" rx="18" ry="18"/>
<text text-anchor="middle" x="18" y="-14.3" font-family="Segoe UI,Roboto,Helvetica,Arial,sans-serif" font-size="14.00" fill="#dddddd">3</text>
</g>
<!-- s2 -->
<g id="node2" class="node">
<title>s2</title>
<ellipse fill="#b2ebf2" stroke="#dddddd" cx="106" cy="-18" rx="18" ry="18"/>
<text text-anchor="middle" x="106" y="-14.3" font-family="Segoe UI,Roboto,Helvetica,Arial,sans-serif" font-size="14.00" fill="#dddddd">2</text>
</g>
<!-- s3&#45;&gt;s2 -->
<g id="edge1" class="edge">
<title>s3&#45;&gt;s2</title>
<path fill="none" stroke="#dddddd" d="M36.4,-18C48.25,-18 64.18,-18 77.71,-18"/>
<polygon fill="#dddddd" stroke="#dddddd" points="77.92,-21.5 87.92,-18 77.92,-14.5 77.92,-21.5"/>
<text text-anchor="middle" x="62" y="-21.2" font-family="Segoe UI,Roboto,Helvetica,Arial,sans-serif" font-size="11.00" fill="#dddddd">tail</text>
</g>
<!-- s1 -->
<g id="node3" class="node">
<title>s1</title>
<ellipse fill="#b2ebf2" stroke="#2980b9" cx="194" cy="-18" rx="18" ry="18"/>
<polyline fill="none" stroke="#2980b9" points="205.91,-31.5 182.09,-31.5 "/>
<polyline fill="none" stroke="#2980b9" points="205.91,-4.5 182.09,-4.5 "/>
<text text-anchor="middle" x="194" y="-14.3" font-family="Segoe UI,Roboto,Helvetica,Arial,sans-serif" font-size="14.00" fill="#000000">1</text>
</g>
<!-- s2&#45;&gt;s1 -->
<g id="edge2" class="edge">
<title>s2&#45;&gt;s1</title>
<path fill="none" stroke="#2980b9" d="M124.4,-18C136.25,-18 152.18,-18 165.71,-18"/>
<polygon fill="#2980b9" stroke="#2980b9" points="165.92,-21.5 175.92,-18 165.92,-14.5 165.92,-21.5"/>
<text text-anchor="middle" x="150" y="-21.2" font-family="Segoe UI,Roboto,Helvetica,Arial,sans-serif" font-size="11.00" fill="#000000">tail</text>
</g>
<!-- nil -->
<!-- s1&#45;&gt;nil -->
</g>
</svg>
