<?xml version="1.0" encoding="UTF-8" standalone="no"?>
<!DOCTYPE svg PUBLIC "-//W3C//DTD SVG 1.1//EN"
 "http://www.w3.org/Graphics/SVG/1.1/DTD/svg11.dtd">
<!-- Generated by graphviz version 2.40.1 (20161225.0304)
 -->
<!-- Title: %3 Pages: 1 -->
<svg width="380pt" height="44pt"
 viewBox="0.00 0.00 380.00 44.00" xmlns="http://www.w3.org/2000/svg" xmlns:xlink="http://www.w3.org/1999/xlink">
<g id="graph0" class="graph" transform="scale(1 1) rotate(0) translate(4 40)">
<title>%3</title>
<!-- s3 -->
<g id="node1" class="node">
<title>s3</title>
<path fill="#b2ebf2" stroke="#dddddd" d="M42,-36C42,-36 12,-36 12,-36 6,-36 0,-30 0,-24 0,-24 0,-12 0,-12 0,-6 6,0 12,0 12,0 42,0 42,0 48,0 54,-6 54,-12 54,-12 54,-24 54,-24 54,-30 48,-36 42,-36"/>
<text text-anchor="middle" x="27" y="-14.3" font-family="Segoe UI,Roboto,Helvetica,Arial,sans-serif" font-size="14.00" fill="#dddddd">3</text>
</g>
<!-- s2 -->
<g id="node2" class="node">
<title>s2</title>
<path fill="#b2ebf2" stroke="#dddddd" d="M148,-36C148,-36 118,-36 118,-36 112,-36 106,-30 106,-24 106,-24 106,-12 106,-12 106,-6 112,0 118,0 118,0 148,0 148,0 154,0 160,-6 160,-12 160,-12 160,-24 160,-24 160,-30 154,-36 148,-36"/>
<text text-anchor="middle" x="133" y="-14.3" font-family="Segoe UI,Roboto,Helvetica,Arial,sans-serif" font-size="14.00" fill="#dddddd">2</text>
</g>
<!-- s3&#45;&gt;s2 -->
<g id="edge1" class="edge">
<title>s3&#45;&gt;s2</title>
<path fill="none" stroke="#dddddd" d="M54.0225,-18C66.6333,-18 81.8509,-18 95.5484,-18"/>
<polygon fill="#dddddd" stroke="#dddddd" points="95.6583,-21.5001 105.6582,-18 95.6582,-14.5001 95.6583,-21.5001"/>
<text text-anchor="middle" x="80" y="-21.2" font-family="Segoe UI,Roboto,Helvetica,Arial,sans-serif" font-size="11.00" fill="#dddddd">tail</text>
</g>
<!-- s1 -->
<g id="node3" class="node">
<title>s1</title>
<path fill="#b2ebf2" stroke="#2980b9" d="M254,-36C254,-36 224,-36 224,-36 218,-36 212,-30 212,-24 212,-24 212,-12 212,-12 212,-6 218,0 224,0 224,0 254,0 254,0 260,0 266,-6 266,-12 266,-12 266,-24 266,-24 266,-30 260,-36 254,-36"/>
<text text-anchor="middle" x="239" y="-14.3" font-family="Segoe UI,Roboto,Helvetica,Arial,sans-serif" font-size="14.00" fill="#000000">1</text>
</g>
<!-- s2&#45;&gt;s1 -->
<g id="edge2" class="edge">
<title>s2&#45;&gt;s1</title>
<path fill="none" stroke="#dddddd" d="M160.0225,-18C172.6333,-18 187.8509,-18 201.5484,-18"/>
<polygon fill="#dddddd" stroke="#dddddd" points="201.6583,-21.5001 211.6582,-18 201.6582,-14.5001 201.6583,-21.5001"/>
<text text-anchor="middle" x="186" y="-21.2" font-family="Segoe UI,Roboto,Helvetica,Arial,sans-serif" font-size="11.00" fill="#dddddd">tail</text>
</g>
<!-- nil -->
<g id="node4" class="node">
<title>nil</title>
<path fill="#b2ebf2" stroke="#2980b9" d="M336,-30C336,-30 327,-24 327,-24 322.5,-21 322.5,-15 327,-12 327,-12 336,-6 336,-6 340.5,-3 349.5,-3 354,-6 354,-6 363,-12 363,-12 367.5,-15 367.5,-21 363,-24 363,-24 354,-30 354,-30 349.5,-33 340.5,-33 336,-30"/>
<text text-anchor="middle" x="345" y="-14.3" font-family="Segoe UI,Roboto,Helvetica,Arial,sans-serif" font-size="14.00" fill="#000000">0</text>
</g>
<!-- s1&#45;&gt;nil -->
<g id="edge3" class="edge">
<title>s1&#45;&gt;nil</title>
<path fill="none" stroke="#2980b9" d="M266.0225,-18C278.6333,-18 293.8509,-18 307.5484,-18"/>
<polygon fill="#2980b9" stroke="#2980b9" points="307.6583,-21.5001 317.6582,-18 307.6582,-14.5001 307.6583,-21.5001"/>
<text text-anchor="middle" x="292" y="-21.2" font-family="Segoe UI,Roboto,Helvetica,Arial,sans-serif" font-size="11.00" fill="#000000">tail</text>
</g>
</g>
</svg>
