<?xml version="1.0" encoding="UTF-8" standalone="no"?>
<!DOCTYPE svg PUBLIC "-//W3C//DTD SVG 1.1//EN"
 "http://www.w3.org/Graphics/SVG/1.1/DTD/svg11.dtd">
<!-- Generated by graphviz version 2.40.1 (20161225.0304)
 -->
<!-- Title: %3 Pages: 1 -->
<svg width="310pt" height="46pt"
 viewBox="0.00 0.00 309.70 45.70" xmlns="http://www.w3.org/2000/svg" xmlns:xlink="http://www.w3.org/1999/xlink">
<g id="graph0" class="graph" transform="scale(1 1) rotate(0) translate(4 41.6967)">
<title>%3</title>
<!-- s3 -->
<g id="node1" class="node">
<title>s3</title>
<ellipse fill="#b2ebf2" stroke="#dddddd" cx="18" cy="-18.8483" rx="18" ry="18"/>
<text text-anchor="middle" x="18" y="-15.1483" font-family="Segoe UI,Roboto,Helvetica,Arial,sans-serif" font-size="14.00" fill="#dddddd">3</text>
</g>
<!-- s2 -->
<g id="node2" class="node">
<title>s2</title>
<ellipse fill="#b2ebf2" stroke="#dddddd" cx="106" cy="-18.8483" rx="18" ry="18"/>
<text text-anchor="middle" x="106" y="-15.1483" font-family="Segoe UI,Roboto,Helvetica,Arial,sans-serif" font-size="14.00" fill="#dddddd">2</text>
</g>
<!-- s3&#45;&gt;s2 -->
<g id="edge1" class="edge">
<title>s3&#45;&gt;s2</title>
<path fill="none" stroke="#dddddd" d="M36.2337,-18.8483C48.1508,-18.8483 63.9616,-18.8483 77.5183,-18.8483"/>
<polygon fill="#dddddd" stroke="#dddddd" points="77.7897,-22.3484 87.7897,-18.8483 77.7897,-15.3484 77.7897,-22.3484"/>
<text text-anchor="middle" x="62" y="-22.0483" font-family="Segoe UI,Roboto,Helvetica,Arial,sans-serif" font-size="11.00" fill="#dddddd">tail</text>
</g>
<!-- s1 -->
<g id="node3" class="node">
<title>s1</title>
<ellipse fill="#b2ebf2" stroke="#dddddd" cx="194" cy="-18.8483" rx="18" ry="18"/>
<text text-anchor="middle" x="194" y="-15.1483" font-family="Segoe UI,Roboto,Helvetica,Arial,sans-serif" font-size="14.00" fill="#dddddd">1</text>
</g>
<!-- s2&#45;&gt;s1 -->
<g id="edge2" class="edge">
<title>s2&#45;&gt;s1</title>
<path fill="none" stroke="#dddddd" d="M124.2337,-18.8483C136.1508,-18.8483 151.9616,-18.8483 165.5183,-18.8483"/>
<polygon fill="#dddddd" stroke="#dddddd" points="165.7897,-22.3484 175.7897,-18.8483 165.7897,-15.3484 165.7897,-22.3484"/>
<text text-anchor="middle" x="150" y="-22.0483" font-family="Segoe UI,Roboto,Helvetica,Arial,sans-serif" font-size="11.00" fill="#dddddd">tail</text>
</g>
<!-- nil -->
<g id="node4" class="node">
<title>nil</title>
<ellipse fill="#ffffff" stroke="#2980b9" cx="282.8483" cy="-18.8483" rx="18.6979" ry="18.6979"/>
<text text-anchor="middle" x="282.8483" y="-15.1483" font-family="Segoe UI,Roboto,Helvetica,Arial,sans-serif" font-size="14.00" fill="#000000">∅</text>
</g>
<!-- s1&#45;&gt;nil -->
<g id="edge3" class="edge">
<title>s1&#45;&gt;nil</title>
<path fill="none" stroke="#dddddd" d="M212.4094,-18.8483C224.2811,-18.8483 239.9797,-18.8483 253.5433,-18.8483"/>
<polygon fill="#dddddd" stroke="#dddddd" points="253.8495,-22.3484 263.8495,-18.8483 253.8494,-15.3484 253.8495,-22.3484"/>
<text text-anchor="middle" x="238" y="-22.0483" font-family="Segoe UI,Roboto,Helvetica,Arial,sans-serif" font-size="11.00" fill="#dddddd">tail</text>
</g>
</g>
</svg>
