<?xml version="1.0" encoding="UTF-8" standalone="no"?>
<!DOCTYPE svg PUBLIC "-//W3C//DTD SVG 1.1//EN"
 "http://www.w3.org/Graphics/SVG/1.1/DTD/svg11.dtd">
<!-- Generated by graphviz version 2.40.1 (20161225.0304)
 -->
<!-- Title: %3 Pages: 1 -->
<svg width="308pt" height="44pt"
 viewBox="0.00 0.00 308.00 44.00" xmlns="http://www.w3.org/2000/svg" xmlns:xlink="http://www.w3.org/1999/xlink">
<g id="graph0" class="graph" transform="scale(1 1) rotate(0) translate(4 40)">
<title>%3</title>
<!-- s3 -->
<g id="node1" class="node">
<title>s3</title>
<ellipse fill="#b2ebf2" stroke="#dddddd" cx="18" cy="-18" rx="18" ry="18"/>
<text text-anchor="middle" x="18" y="-14.3" font-family="Segoe UI,Roboto,Helvetica,Arial,sans-serif" font-size="14.00" fill="#dddddd">3</text>
</g>
<!-- s2 -->
<g id="node2" class="node">
<title>s2</title>
<ellipse fill="#b2ebf2" stroke="#dddddd" cx="106" cy="-18" rx="18" ry="18"/>
<text text-anchor="middle" x="106" y="-14.3" font-family="Segoe UI,Roboto,Helvetica,Arial,sans-serif" font-size="14.00" fill="#dddddd">2</text>
</g>
<!-- s3&#45;&gt;s2 -->
<g id="edge1" class="edge">
<title>s3&#45;&gt;s2</title>
<path fill="none" stroke="#dddddd" d="M36.2337,-18C48.1508,-18 63.9616,-18 77.5183,-18"/>
<polygon fill="#dddddd" stroke="#dddddd" points="77.7897,-21.5001 87.7897,-18 77.7897,-14.5001 77.7897,-21.5001"/>
<text text-anchor="middle" x="62" y="-21.2" font-family="Segoe UI,Roboto,Helvetica,Arial,sans-serif" font-size="11.00" fill="#dddddd">tail</text>
</g>
<!-- s1 -->
<g id="node3" class="node">
<title>s1</title>
<ellipse fill="#b2ebf2" stroke="#dddddd" cx="194" cy="-18" rx="18" ry="18"/>
<text text-anchor="middle" x="194" y="-14.3" font-family="Segoe UI,Roboto,Helvetica,Arial,sans-serif" font-size="14.00" fill="#dddddd">1</text>
</g>
<!-- s2&#45;&gt;s1 -->
<g id="edge2" class="edge">
<title>s2&#45;&gt;s1</title>
<path fill="none" stroke="#dddddd" d="M124.2337,-18C136.1508,-18 151.9616,-18 165.5183,-18"/>
<polygon fill="#dddddd" stroke="#dddddd" points="165.7897,-21.5001 175.7897,-18 165.7897,-14.5001 165.7897,-21.5001"/>
<text text-anchor="middle" x="150" y="-21.2" font-family="Segoe UI,Roboto,Helvetica,Arial,sans-serif" font-size="11.00" fill="#dddddd">tail</text>
</g>
<!-- nil -->
<g id="node4" class="node">
<title>nil</title>
<ellipse fill="#b2ebf2" stroke="#2980b9" cx="282" cy="-18" rx="18" ry="18"/>
<polyline fill="none" stroke="#2980b9" points="293.9052,-31.5 270.0948,-31.5 "/>
<polyline fill="none" stroke="#2980b9" points="293.9052,-4.5 270.0948,-4.5 "/>
<text text-anchor="middle" x="282" y="-14.3" font-family="Segoe UI,Roboto,Helvetica,Arial,sans-serif" font-size="14.00" fill="#000000">0</text>
</g>
<!-- s1&#45;&gt;nil -->
<g id="edge3" class="edge">
<title>s1&#45;&gt;nil</title>
<path fill="none" stroke="#2980b9" d="M212.2337,-18C224.1508,-18 239.9616,-18 253.5183,-18"/>
<polygon fill="#2980b9" stroke="#2980b9" points="253.7897,-21.5001 263.7897,-18 253.7897,-14.5001 253.7897,-21.5001"/>
<text text-anchor="middle" x="238" y="-21.2" font-family="Segoe UI,Roboto,Helvetica,Arial,sans-serif" font-size="11.00" fill="#000000">tail</text>
</g>
</g>
</svg>
