<?xml version="1.0" encoding="UTF-8" standalone="no"?>
<!DOCTYPE svg PUBLIC "-//W3C//DTD SVG 1.1//EN"
 "http://www.w3.org/Graphics/SVG/1.1/DTD/svg11.dtd">
<!-- Generated by graphviz version 2.43.0 (0)
 -->
<!-- Title: %3 Pages: 1 -->
<svg width="305pt" height="44pt"
 viewBox="0.00 0.00 305.00 44.00" xmlns="http://www.w3.org/2000/svg" xmlns:xlink="http://www.w3.org/1999/xlink">
<g id="graph0" class="graph" transform="scale(1 1) rotate(0) translate(4 40)">
<title>%3</title>
<!-- s3 -->
<g id="node1" class="node cell,disabled">
<title>s3</title>
<ellipse fill="#d0dce3" stroke="#d0dce3" cx="18" cy="-18" rx="18" ry="18"/>
<text text-anchor="middle" x="18" y="-14.3" font-family="Inter,Arial" font-size="14.00" fill="#ffffff">3</text>
</g>
<!-- s2 -->
<g id="node2" class="node cell,disabled">
<title>s2</title>
<ellipse fill="#d0dce3" stroke="#d0dce3" cx="105" cy="-18" rx="18" ry="18"/>
<text text-anchor="middle" x="105" y="-14.3" font-family="Inter,Arial" font-size="14.00" fill="#ffffff">2</text>
</g>
<!-- s3&#45;&gt;s2 -->
<g id="edge1" class="edge disabled">
<title>s3&#45;&gt;s2</title>
<path fill="none" stroke="#d0dce3" d="M36.2,-18C47.84,-18 63.45,-18 76.76,-18"/>
<polygon fill="#d0dce3" stroke="#d0dce3" points="76.82,-21.5 86.82,-18 76.82,-14.5 76.82,-21.5"/>
<text text-anchor="middle" x="61.5" y="-21.2" font-family="Inter,Arial" font-size="11.00" fill="#d0dce3">tail</text>
</g>
<!-- s1 -->
<g id="node3" class="node cell,disabled">
<title>s1</title>
<ellipse fill="#d0dce3" stroke="#d0dce3" cx="192" cy="-18" rx="18" ry="18"/>
<text text-anchor="middle" x="192" y="-14.3" font-family="Inter,Arial" font-size="14.00" fill="#ffffff">1</text>
</g>
<!-- s2&#45;&gt;s1 -->
<g id="edge2" class="edge disabled">
<title>s2&#45;&gt;s1</title>
<path fill="none" stroke="#d0dce3" d="M123.2,-18C134.84,-18 150.45,-18 163.76,-18"/>
<polygon fill="#d0dce3" stroke="#d0dce3" points="163.82,-21.5 173.82,-18 163.82,-14.5 163.82,-21.5"/>
<text text-anchor="middle" x="148.5" y="-21.2" font-family="Inter,Arial" font-size="11.00" fill="#d0dce3">tail</text>
</g>
<!-- nil -->
<g id="node4" class="node nil,catafocus">
<title>nil</title>
<ellipse fill="#ffffff" stroke="#586e75" cx="279" cy="-18" rx="18" ry="18"/>
<polyline fill="none" stroke="#586e75" points="290.91,-31.5 267.09,-31.5 "/>
<polyline fill="none" stroke="#586e75" points="290.91,-4.5 267.09,-4.5 "/>
<text text-anchor="middle" x="279" y="-14.3" font-family="Inter,Arial" font-size="14.00" fill="#586e75">0</text>
</g>
<!-- s1&#45;&gt;nil -->
<g id="edge3" class="edge">
<title>s1&#45;&gt;nil</title>
<path fill="none" stroke="#586e75" d="M210.2,-18C221.84,-18 237.45,-18 250.76,-18"/>
<polygon fill="#586e75" stroke="#586e75" points="250.82,-21.5 260.82,-18 250.82,-14.5 250.82,-21.5"/>
<text text-anchor="middle" x="235.5" y="-21.2" font-family="Inter,Arial" font-size="11.00" fill="#586e75">tail</text>
</g>
</g>
</svg>
