<?xml version="1.0" encoding="UTF-8" standalone="no"?>
<!DOCTYPE svg PUBLIC "-//W3C//DTD SVG 1.1//EN"
 "http://www.w3.org/Graphics/SVG/1.1/DTD/svg11.dtd">
<!-- Generated by graphviz version 2.43.0 (0)
 -->
<!-- Title: %3 Pages: 1 -->
<svg width="535pt" height="98pt"
 viewBox="0.00 0.00 535.00 98.00" xmlns="http://www.w3.org/2000/svg" xmlns:xlink="http://www.w3.org/1999/xlink">
<g id="graph0" class="graph" transform="scale(1 1) rotate(0) translate(4 94)">
<title>%3</title>
<!-- B -->
<g id="node1" class="node">
<title>B</title>
<path fill="#b2ebf2" stroke="#dddddd" d="M42,-62C42,-62 12,-62 12,-62 6,-62 0,-56 0,-50 0,-50 0,-38 0,-38 0,-32 6,-26 12,-26 12,-26 42,-26 42,-26 48,-26 54,-32 54,-38 54,-38 54,-50 54,-50 54,-56 48,-62 42,-62"/>
<text text-anchor="middle" x="27" y="-40.3" font-family="Segoe UI,Roboto,Helvetica,Arial,sans-serif" font-size="14.00" fill="#dddddd">B</text>
</g>
<!-- cataFB -->
<g id="node3" class="node">
<title>cataFB</title>
<path fill="#b2ebf2" stroke="#dddddd" d="M172,-90C172,-90 142,-90 142,-90 136,-90 130,-84 130,-78 130,-78 130,-66 130,-66 130,-60 136,-54 142,-54 142,-54 172,-54 172,-54 178,-54 184,-60 184,-66 184,-66 184,-78 184,-78 184,-84 178,-90 172,-90"/>
<text text-anchor="middle" x="157" y="-68.3" font-family="Segoe UI,Roboto,Helvetica,Arial,sans-serif" font-size="14.00" fill="#dddddd">F[B]</text>
</g>
<!-- B&#45;&gt;cataFB -->
<g id="edge1" class="edge">
<title>B&#45;&gt;cataFB</title>
<path fill="none" stroke="#dddddd" d="M54.21,-49.73C73.19,-53.89 99.09,-59.55 120.01,-64.13"/>
<polygon fill="#dddddd" stroke="#dddddd" points="119.31,-67.56 129.82,-66.27 120.8,-60.72 119.31,-67.56"/>
<text text-anchor="middle" x="89.5" y="-63.2" font-family="Segoe UI,Roboto,Helvetica,Arial,sans-serif" font-size="11.00" fill="#dddddd">project</text>
</g>
<!-- anaFB -->
<g id="node2" class="node">
<title>anaFB</title>
<path fill="#b2ebf2" stroke="#2980b9" d="M177,-36C177,-36 137,-36 137,-36 131,-36 125,-30 125,-24 125,-24 125,-12 125,-12 125,-6 131,0 137,0 137,0 177,0 177,0 183,0 189,-6 189,-12 189,-12 189,-24 189,-24 189,-30 183,-36 177,-36"/>
<text text-anchor="middle" x="157" y="-14.3" font-family="Segoe UI,Roboto,Helvetica,Arial,sans-serif" font-size="14.00" fill="#000000">ListF[B]</text>
</g>
<!-- anaFB&#45;&gt;B -->
<g id="edge6" class="edge">
<title>anaFB&#45;&gt;B</title>
<path fill="none" stroke="#dddddd" d="M124.86,-24.33C106.51,-28.05 83.22,-32.78 64.08,-36.67"/>
<polygon fill="#dddddd" stroke="#dddddd" points="63.31,-33.26 54.21,-38.68 64.71,-40.12 63.31,-33.26"/>
<text text-anchor="middle" x="89.5" y="-36.2" font-family="Segoe UI,Roboto,Helvetica,Arial,sans-serif" font-size="11.00" fill="#dddddd">embed</text>
</g>
<!-- cataFA -->
<g id="node5" class="node">
<title>cataFA</title>
<path fill="#b2ebf2" stroke="#dddddd" d="M336.5,-90C336.5,-90 306.5,-90 306.5,-90 300.5,-90 294.5,-84 294.5,-78 294.5,-78 294.5,-66 294.5,-66 294.5,-60 300.5,-54 306.5,-54 306.5,-54 336.5,-54 336.5,-54 342.5,-54 348.5,-60 348.5,-66 348.5,-66 348.5,-78 348.5,-78 348.5,-84 342.5,-90 336.5,-90"/>
<text text-anchor="middle" x="321.5" y="-68.3" font-family="Segoe UI,Roboto,Helvetica,Arial,sans-serif" font-size="14.00" fill="#dddddd">F[A]</text>
</g>
<!-- cataFB&#45;&gt;cataFA -->
<g id="edge2" class="edge">
<title>cataFB&#45;&gt;cataFA</title>
<path fill="none" stroke="#dddddd" d="M184.11,-72C211.23,-72 253.89,-72 284.27,-72"/>
<polygon fill="#dddddd" stroke="#dddddd" points="284.46,-75.5 294.46,-72 284.46,-68.5 284.46,-75.5"/>
<text text-anchor="middle" x="237.5" y="-75.2" font-family="Segoe UI,Roboto,Helvetica,Arial,sans-serif" font-size="11.00" fill="#dddddd">map(_, loop)</text>
</g>
<!-- anaFA -->
<g id="node4" class="node">
<title>anaFA</title>
<path fill="#b2ebf2" stroke="#2980b9" d="M345,-36C345,-36 298,-36 298,-36 292,-36 286,-30 286,-24 286,-24 286,-12 286,-12 286,-6 292,0 298,0 298,0 345,0 345,0 351,0 357,-6 357,-12 357,-12 357,-24 357,-24 357,-30 351,-36 345,-36"/>
<text text-anchor="middle" x="321.5" y="-14.3" font-family="Segoe UI,Roboto,Helvetica,Arial,sans-serif" font-size="14.00" fill="#000000">ListF[Int]</text>
</g>
<!-- anaFA&#45;&gt;anaFB -->
<g id="edge5" class="edge">
<title>anaFA&#45;&gt;anaFB</title>
<path fill="none" stroke="#2980b9" d="M285.89,-18C260.63,-18 226.28,-18 199.54,-18"/>
<polygon fill="#2980b9" stroke="#2980b9" points="199.33,-14.5 189.33,-18 199.33,-21.5 199.33,-14.5"/>
<text text-anchor="middle" x="237.5" y="-21.2" font-family="Segoe UI,Roboto,Helvetica,Arial,sans-serif" font-size="11.00" fill="#000000">map(_, loop)</text>
</g>
<!-- cataA -->
<g id="node7" class="node">
<title>cataA</title>
<path fill="#b2ebf2" stroke="#dddddd" d="M515,-90C515,-90 485,-90 485,-90 479,-90 473,-84 473,-78 473,-78 473,-66 473,-66 473,-60 479,-54 485,-54 485,-54 515,-54 515,-54 521,-54 527,-60 527,-66 527,-66 527,-78 527,-78 527,-84 521,-90 515,-90"/>
<text text-anchor="middle" x="500" y="-68.3" font-family="Segoe UI,Roboto,Helvetica,Arial,sans-serif" font-size="14.00" fill="#dddddd">A</text>
</g>
<!-- cataFA&#45;&gt;cataA -->
<g id="edge3" class="edge">
<title>cataFA&#45;&gt;cataA</title>
<path fill="none" stroke="#dddddd" d="M348.54,-72C378.65,-72 428.43,-72 462.41,-72"/>
<polygon fill="#dddddd" stroke="#dddddd" points="462.85,-75.5 472.85,-72 462.85,-68.5 462.85,-75.5"/>
<text text-anchor="middle" x="415" y="-75.2" font-family="Segoe UI,Roboto,Helvetica,Arial,sans-serif" font-size="11.00" fill="#dddddd">algebra</text>
</g>
<!-- anaA -->
<g id="node6" class="node">
<title>anaA</title>
<path fill="#b2ebf2" stroke="#dddddd" d="M515,-36C515,-36 485,-36 485,-36 479,-36 473,-30 473,-24 473,-24 473,-12 473,-12 473,-6 479,0 485,0 485,0 515,0 515,0 521,0 527,-6 527,-12 527,-12 527,-24 527,-24 527,-30 521,-36 515,-36"/>
<text text-anchor="middle" x="500" y="-14.3" font-family="Segoe UI,Roboto,Helvetica,Arial,sans-serif" font-size="14.00" fill="#dddddd">Int</text>
</g>
<!-- anaA&#45;&gt;anaFA -->
<g id="edge4" class="edge">
<title>anaA&#45;&gt;anaFA</title>
<path fill="none" stroke="#dddddd" d="M472.81,-18C445.17,-18 401.07,-18 367.77,-18"/>
<polygon fill="#dddddd" stroke="#dddddd" points="367.37,-14.5 357.37,-18 367.37,-21.5 367.37,-14.5"/>
<text text-anchor="middle" x="415" y="-21.2" font-family="Segoe UI,Roboto,Helvetica,Arial,sans-serif" font-size="11.00" fill="#dddddd">rangeCoAlgebra</text>
</g>
</g>
</svg>
