<?xml version="1.0" encoding="UTF-8" standalone="no"?>
<!DOCTYPE svg PUBLIC "-//W3C//DTD SVG 1.1//EN"
 "http://www.w3.org/Graphics/SVG/1.1/DTD/svg11.dtd">
<!-- Generated by graphviz version 2.43.0 (0)
 -->
<!-- Title: %3 Pages: 1 -->
<svg width="419pt" height="206pt"
 viewBox="0.00 0.00 419.00 206.00" xmlns="http://www.w3.org/2000/svg" xmlns:xlink="http://www.w3.org/1999/xlink">
<g id="graph0" class="graph" transform="scale(1 1) rotate(0) translate(4 202)">
<title>%3</title>
<!-- s3algebra -->
<!-- s2algebra -->
<!-- s3algebra&#45;&gt;s2algebra -->
<!-- s3project -->
<g id="node2" class="node">
<title>s3project</title>
<path fill="#b2ebf2" stroke="#2980b9" d="M42,-90C42,-90 12,-90 12,-90 6,-90 0,-84 0,-78 0,-78 0,-66 0,-66 0,-60 6,-54 12,-54 12,-54 42,-54 42,-54 48,-54 54,-60 54,-66 54,-66 54,-78 54,-78 54,-84 48,-90 42,-90"/>
<text text-anchor="middle" x="27" y="-68.3" font-family="Segoe UI,Roboto,Helvetica,Arial,sans-serif" font-size="14.00" fill="#000000">3</text>
</g>
<!-- s2project -->
<g id="node6" class="node">
<title>s2project</title>
<path fill="#b2ebf2" stroke="#2980b9" d="M161,-90C161,-90 131,-90 131,-90 125,-90 119,-84 119,-78 119,-78 119,-66 119,-66 119,-60 125,-54 131,-54 131,-54 161,-54 161,-54 167,-54 173,-60 173,-66 173,-66 173,-78 173,-78 173,-84 167,-90 161,-90"/>
<text text-anchor="middle" x="146" y="-68.3" font-family="Segoe UI,Roboto,Helvetica,Arial,sans-serif" font-size="14.00" fill="#000000">2</text>
</g>
<!-- s3project&#45;&gt;s2project -->
<g id="edge7" class="edge">
<title>s3project&#45;&gt;s2project</title>
<path fill="none" stroke="#2980b9" d="M54.26,-72C70.21,-72 90.83,-72 108.37,-72"/>
<polygon fill="#2980b9" stroke="#2980b9" points="108.83,-75.5 118.83,-72 108.83,-68.5 108.83,-75.5"/>
<text text-anchor="middle" x="86.5" y="-75.2" font-family="Segoe UI,Roboto,Helvetica,Arial,sans-serif" font-size="11.00" fill="#000000">Some</text>
</g>
<!-- s3embed -->
<g id="node3" class="node">
<title>s3embed</title>
<path fill="#b2ebf2" stroke="#2980b9" d="M42,-144C42,-144 12,-144 12,-144 6,-144 0,-138 0,-132 0,-132 0,-120 0,-120 0,-114 6,-108 12,-108 12,-108 42,-108 42,-108 48,-108 54,-114 54,-120 54,-120 54,-132 54,-132 54,-138 48,-144 42,-144"/>
<text text-anchor="middle" x="27" y="-122.3" font-family="Segoe UI,Roboto,Helvetica,Arial,sans-serif" font-size="14.00" fill="#000000">3</text>
</g>
<!-- s2embed -->
<g id="node7" class="node">
<title>s2embed</title>
<path fill="#b2ebf2" stroke="#2980b9" d="M161,-144C161,-144 131,-144 131,-144 125,-144 119,-138 119,-132 119,-132 119,-120 119,-120 119,-114 125,-108 131,-108 131,-108 161,-108 161,-108 167,-108 173,-114 173,-120 173,-120 173,-132 173,-132 173,-138 167,-144 161,-144"/>
<text text-anchor="middle" x="146" y="-122.3" font-family="Segoe UI,Roboto,Helvetica,Arial,sans-serif" font-size="14.00" fill="#000000">2</text>
</g>
<!-- s3embed&#45;&gt;s2embed -->
<g id="edge4" class="edge">
<title>s3embed&#45;&gt;s2embed</title>
<path fill="none" stroke="#2980b9" d="M54.26,-126C70.21,-126 90.83,-126 108.37,-126"/>
<polygon fill="#2980b9" stroke="#2980b9" points="108.83,-129.5 118.83,-126 108.83,-122.5 108.83,-129.5"/>
<text text-anchor="middle" x="86.5" y="-129.2" font-family="Segoe UI,Roboto,Helvetica,Arial,sans-serif" font-size="11.00" fill="#000000">Cons</text>
</g>
<!-- s3 -->
<g id="node4" class="node">
<title>s3</title>
<path fill="#b2ebf2" stroke="#2980b9" d="M42,-198C42,-198 12,-198 12,-198 6,-198 0,-192 0,-186 0,-186 0,-174 0,-174 0,-168 6,-162 12,-162 12,-162 42,-162 42,-162 48,-162 54,-168 54,-174 54,-174 54,-186 54,-186 54,-192 48,-198 42,-198"/>
<text text-anchor="middle" x="27" y="-176.3" font-family="Segoe UI,Roboto,Helvetica,Arial,sans-serif" font-size="14.00" fill="#000000">3</text>
</g>
<!-- s2 -->
<g id="node8" class="node">
<title>s2</title>
<path fill="#b2ebf2" stroke="#2980b9" d="M161,-198C161,-198 131,-198 131,-198 125,-198 119,-192 119,-186 119,-186 119,-174 119,-174 119,-168 125,-162 131,-162 131,-162 161,-162 161,-162 167,-162 173,-168 173,-174 173,-174 173,-186 173,-186 173,-192 167,-198 161,-198"/>
<text text-anchor="middle" x="146" y="-176.3" font-family="Segoe UI,Roboto,Helvetica,Arial,sans-serif" font-size="14.00" fill="#000000">2</text>
</g>
<!-- s3&#45;&gt;s2 -->
<g id="edge1" class="edge">
<title>s3&#45;&gt;s2</title>
<path fill="none" stroke="#2980b9" d="M54.26,-180C70.21,-180 90.83,-180 108.37,-180"/>
<polygon fill="#2980b9" stroke="#2980b9" points="108.83,-183.5 118.83,-180 108.83,-176.5 108.83,-183.5"/>
<text text-anchor="middle" x="86.5" y="-183.2" font-family="Segoe UI,Roboto,Helvetica,Arial,sans-serif" font-size="11.00" fill="#000000">Some</text>
</g>
<!-- s1algebra -->
<!-- s2algebra&#45;&gt;s1algebra -->
<!-- s1project -->
<g id="node10" class="node">
<title>s1project</title>
<path fill="#b2ebf2" stroke="#2980b9" d="M280,-90C280,-90 250,-90 250,-90 244,-90 238,-84 238,-78 238,-78 238,-66 238,-66 238,-60 244,-54 250,-54 250,-54 280,-54 280,-54 286,-54 292,-60 292,-66 292,-66 292,-78 292,-78 292,-84 286,-90 280,-90"/>
<text text-anchor="middle" x="265" y="-68.3" font-family="Segoe UI,Roboto,Helvetica,Arial,sans-serif" font-size="14.00" fill="#000000">1</text>
</g>
<!-- s2project&#45;&gt;s1project -->
<g id="edge8" class="edge">
<title>s2project&#45;&gt;s1project</title>
<path fill="none" stroke="#2980b9" d="M173.26,-72C189.21,-72 209.83,-72 227.37,-72"/>
<polygon fill="#2980b9" stroke="#2980b9" points="227.83,-75.5 237.83,-72 227.83,-68.5 227.83,-75.5"/>
<text text-anchor="middle" x="205.5" y="-75.2" font-family="Segoe UI,Roboto,Helvetica,Arial,sans-serif" font-size="11.00" fill="#000000">Some</text>
</g>
<!-- s1embed -->
<g id="node11" class="node">
<title>s1embed</title>
<path fill="#b2ebf2" stroke="#2980b9" d="M280,-144C280,-144 250,-144 250,-144 244,-144 238,-138 238,-132 238,-132 238,-120 238,-120 238,-114 244,-108 250,-108 250,-108 280,-108 280,-108 286,-108 292,-114 292,-120 292,-120 292,-132 292,-132 292,-138 286,-144 280,-144"/>
<text text-anchor="middle" x="265" y="-122.3" font-family="Segoe UI,Roboto,Helvetica,Arial,sans-serif" font-size="14.00" fill="#000000">1</text>
</g>
<!-- s2embed&#45;&gt;s1embed -->
<g id="edge5" class="edge">
<title>s2embed&#45;&gt;s1embed</title>
<path fill="none" stroke="#2980b9" d="M173.26,-126C189.21,-126 209.83,-126 227.37,-126"/>
<polygon fill="#2980b9" stroke="#2980b9" points="227.83,-129.5 237.83,-126 227.83,-122.5 227.83,-129.5"/>
<text text-anchor="middle" x="205.5" y="-129.2" font-family="Segoe UI,Roboto,Helvetica,Arial,sans-serif" font-size="11.00" fill="#000000">Cons</text>
</g>
<!-- s1 -->
<g id="node12" class="node">
<title>s1</title>
<path fill="#b2ebf2" stroke="#2980b9" d="M280,-198C280,-198 250,-198 250,-198 244,-198 238,-192 238,-186 238,-186 238,-174 238,-174 238,-168 244,-162 250,-162 250,-162 280,-162 280,-162 286,-162 292,-168 292,-174 292,-174 292,-186 292,-186 292,-192 286,-198 280,-198"/>
<text text-anchor="middle" x="265" y="-176.3" font-family="Segoe UI,Roboto,Helvetica,Arial,sans-serif" font-size="14.00" fill="#000000">1</text>
</g>
<!-- s2&#45;&gt;s1 -->
<g id="edge2" class="edge">
<title>s2&#45;&gt;s1</title>
<path fill="none" stroke="#2980b9" d="M173.26,-180C189.21,-180 209.83,-180 227.37,-180"/>
<polygon fill="#2980b9" stroke="#2980b9" points="227.83,-183.5 237.83,-180 227.83,-176.5 227.83,-183.5"/>
<text text-anchor="middle" x="205.5" y="-183.2" font-family="Segoe UI,Roboto,Helvetica,Arial,sans-serif" font-size="11.00" fill="#000000">Some</text>
</g>
<!-- nilalgebra -->
<!-- s1algebra&#45;&gt;nilalgebra -->
<!-- nilproject -->
<g id="node14" class="node">
<title>nilproject</title>
<path fill="#b2ebf2" stroke="#2980b9" d="M399,-90C399,-90 369,-90 369,-90 363,-90 357,-84 357,-78 357,-78 357,-66 357,-66 357,-60 363,-54 369,-54 369,-54 399,-54 399,-54 405,-54 411,-60 411,-66 411,-66 411,-78 411,-78 411,-84 405,-90 399,-90"/>
<text text-anchor="middle" x="384" y="-68.3" font-family="Segoe UI,Roboto,Helvetica,Arial,sans-serif" font-size="14.00" fill="#000000">None</text>
</g>
<!-- s1project&#45;&gt;nilproject -->
<g id="edge9" class="edge">
<title>s1project&#45;&gt;nilproject</title>
<path fill="none" stroke="#2980b9" d="M292.26,-72C308.21,-72 328.83,-72 346.37,-72"/>
<polygon fill="#2980b9" stroke="#2980b9" points="346.83,-75.5 356.83,-72 346.83,-68.5 346.83,-75.5"/>
<text text-anchor="middle" x="324.5" y="-75.2" font-family="Segoe UI,Roboto,Helvetica,Arial,sans-serif" font-size="11.00" fill="#000000">Some</text>
</g>
<!-- nilembed -->
<g id="node15" class="node">
<title>nilembed</title>
<path fill="#b2ebf2" stroke="#2980b9" d="M399,-144C399,-144 369,-144 369,-144 363,-144 357,-138 357,-132 357,-132 357,-120 357,-120 357,-114 363,-108 369,-108 369,-108 399,-108 399,-108 405,-108 411,-114 411,-120 411,-120 411,-132 411,-132 411,-138 405,-144 399,-144"/>
<text text-anchor="middle" x="384" y="-122.3" font-family="Segoe UI,Roboto,Helvetica,Arial,sans-serif" font-size="14.00" fill="#000000">Nil</text>
</g>
<!-- s1embed&#45;&gt;nilembed -->
<g id="edge6" class="edge">
<title>s1embed&#45;&gt;nilembed</title>
<path fill="none" stroke="#2980b9" d="M292.26,-126C308.21,-126 328.83,-126 346.37,-126"/>
<polygon fill="#2980b9" stroke="#2980b9" points="346.83,-129.5 356.83,-126 346.83,-122.5 346.83,-129.5"/>
<text text-anchor="middle" x="324.5" y="-129.2" font-family="Segoe UI,Roboto,Helvetica,Arial,sans-serif" font-size="11.00" fill="#000000">Cons</text>
</g>
<!-- nil -->
<g id="node16" class="node">
<title>nil</title>
<path fill="#b2ebf2" stroke="#2980b9" d="M399,-198C399,-198 369,-198 369,-198 363,-198 357,-192 357,-186 357,-186 357,-174 357,-174 357,-168 363,-162 369,-162 369,-162 399,-162 399,-162 405,-162 411,-168 411,-174 411,-174 411,-186 411,-186 411,-192 405,-198 399,-198"/>
<text text-anchor="middle" x="384" y="-176.3" font-family="Segoe UI,Roboto,Helvetica,Arial,sans-serif" font-size="14.00" fill="#000000">None</text>
</g>
<!-- s1&#45;&gt;nil -->
<g id="edge3" class="edge">
<title>s1&#45;&gt;nil</title>
<path fill="none" stroke="#2980b9" d="M292.26,-180C308.21,-180 328.83,-180 346.37,-180"/>
<polygon fill="#2980b9" stroke="#2980b9" points="346.83,-183.5 356.83,-180 346.83,-176.5 346.83,-183.5"/>
<text text-anchor="middle" x="324.5" y="-183.2" font-family="Segoe UI,Roboto,Helvetica,Arial,sans-serif" font-size="11.00" fill="#000000">Some</text>
</g>
</g>
</svg>
