<?xml version="1.0" encoding="UTF-8" standalone="no"?>
<!DOCTYPE svg PUBLIC "-//W3C//DTD SVG 1.1//EN"
 "http://www.w3.org/Graphics/SVG/1.1/DTD/svg11.dtd">
<!-- Generated by graphviz version 2.43.0 (0)
 -->
<!-- Title: %3 Pages: 1 -->
<svg width="570pt" height="44pt"
 viewBox="0.00 0.00 570.00 44.00" xmlns="http://www.w3.org/2000/svg" xmlns:xlink="http://www.w3.org/1999/xlink">
<g id="graph0" class="graph" transform="scale(1 1) rotate(0) translate(4 40)">
<title>%3</title>
<!-- anaFA -->
<g id="node1" class="node">
<title>anaFA</title>
<path fill="#b2ebf2" stroke="#dddddd" d="M212,-36C212,-36 182,-36 182,-36 176,-36 170,-30 170,-24 170,-24 170,-12 170,-12 170,-6 176,0 182,0 182,0 212,0 212,0 218,0 224,-6 224,-12 224,-12 224,-24 224,-24 224,-30 218,-36 212,-36"/>
<text text-anchor="middle" x="197" y="-14.3" font-family="Segoe UI,Roboto,Helvetica,Arial,sans-serif" font-size="14.00" fill="#dddddd">F[A]</text>
</g>
<!-- cataFA -->
<g id="node2" class="node">
<title>cataFA</title>
<path fill="#b2ebf2" stroke="#2980b9" d="M377,-36C377,-36 333,-36 333,-36 327,-36 321,-30 321,-24 321,-24 321,-12 321,-12 321,-6 327,0 333,0 333,0 377,0 377,0 383,0 389,-6 389,-12 389,-12 389,-24 389,-24 389,-30 383,-36 377,-36"/>
<text text-anchor="middle" x="355" y="-14.3" font-family="Segoe UI,Roboto,Helvetica,Arial,sans-serif" font-size="14.00" fill="#000000">F[String]</text>
</g>
<!-- anaFA&#45;&gt;cataFA -->
<g id="edge2" class="edge">
<title>anaFA&#45;&gt;cataFA</title>
<path fill="none" stroke="#dddddd" d="M224.11,-18C247.65,-18 282.72,-18 310.48,-18"/>
<polygon fill="#dddddd" stroke="#dddddd" points="310.73,-21.5 320.73,-18 310.73,-14.5 310.73,-21.5"/>
<text text-anchor="middle" x="272.5" y="-21.2" font-family="Segoe UI,Roboto,Helvetica,Arial,sans-serif" font-size="11.00" fill="#dddddd">map(_, loop)</text>
</g>
<!-- cataA -->
<g id="node4" class="node">
<title>cataA</title>
<path fill="#b2ebf2" stroke="#2980b9" d="M550,-36C550,-36 520,-36 520,-36 514,-36 508,-30 508,-24 508,-24 508,-12 508,-12 508,-6 514,0 520,0 520,0 550,0 550,0 556,0 562,-6 562,-12 562,-12 562,-24 562,-24 562,-30 556,-36 550,-36"/>
<text text-anchor="middle" x="535" y="-14.3" font-family="Segoe UI,Roboto,Helvetica,Arial,sans-serif" font-size="14.00" fill="#000000">String</text>
</g>
<!-- cataFA&#45;&gt;cataA -->
<g id="edge3" class="edge">
<title>cataFA&#45;&gt;cataA</title>
<path fill="none" stroke="#dddddd" d="M389.06,-18C419.87,-18 465.7,-18 497.55,-18"/>
<polygon fill="#dddddd" stroke="#dddddd" points="497.77,-21.5 507.77,-18 497.77,-14.5 497.77,-21.5"/>
<text text-anchor="middle" x="448.5" y="-21.2" font-family="Segoe UI,Roboto,Helvetica,Arial,sans-serif" font-size="11.00" fill="#dddddd">mkStringAlgebra</text>
</g>
<!-- anaA -->
<g id="node3" class="node">
<title>anaA</title>
<path fill="#b2ebf2" stroke="#dddddd" d="M42,-36C42,-36 12,-36 12,-36 6,-36 0,-30 0,-24 0,-24 0,-12 0,-12 0,-6 6,0 12,0 12,0 42,0 42,0 48,0 54,-6 54,-12 54,-12 54,-24 54,-24 54,-30 48,-36 42,-36"/>
<text text-anchor="middle" x="27" y="-14.3" font-family="Segoe UI,Roboto,Helvetica,Arial,sans-serif" font-size="14.00" fill="#dddddd">A</text>
</g>
<!-- anaA&#45;&gt;anaFA -->
<g id="edge1" class="edge">
<title>anaA&#45;&gt;anaFA</title>
<path fill="none" stroke="#dddddd" d="M54.25,-18C82.61,-18 127.98,-18 159.73,-18"/>
<polygon fill="#dddddd" stroke="#dddddd" points="159.93,-21.5 169.93,-18 159.93,-14.5 159.93,-21.5"/>
<text text-anchor="middle" x="112" y="-21.2" font-family="Segoe UI,Roboto,Helvetica,Arial,sans-serif" font-size="11.00" fill="#dddddd">rangeCoAlgebra</text>
</g>
</g>
</svg>
