<?xml version="1.0" encoding="UTF-8" standalone="no"?>
<!DOCTYPE svg PUBLIC "-//W3C//DTD SVG 1.1//EN"
 "http://www.w3.org/Graphics/SVG/1.1/DTD/svg11.dtd">
<!-- Generated by graphviz version 2.43.0 (0)
 -->
<!-- Title: %3 Pages: 1 -->
<svg width="555pt" height="98pt"
 viewBox="0.00 0.00 555.00 98.00" xmlns="http://www.w3.org/2000/svg" xmlns:xlink="http://www.w3.org/1999/xlink">
<g id="graph0" class="graph dual" transform="scale(1 1) rotate(0) translate(4 94)">
<title>%3</title>
<!-- B -->
<g id="node1" class="node">
<title>B</title>
<path fill="#ffffff" stroke="#586e75" d="M42,-62C42,-62 12,-62 12,-62 6,-62 0,-56 0,-50 0,-50 0,-38 0,-38 0,-32 6,-26 12,-26 12,-26 42,-26 42,-26 48,-26 54,-32 54,-38 54,-38 54,-50 54,-50 54,-56 48,-62 42,-62"/>
<text text-anchor="middle" x="27" y="-40.3" font-family="Inter,Arial" font-size="14.00" fill="#586e75">B</text>
</g>
<!-- cataFB -->
<g id="node3" class="node disabled">
<title>cataFB</title>
<path fill="#ffffff" stroke="#d0dce3" d="M176,-90C176,-90 146,-90 146,-90 140,-90 134,-84 134,-78 134,-78 134,-66 134,-66 134,-60 140,-54 146,-54 146,-54 176,-54 176,-54 182,-54 188,-60 188,-66 188,-66 188,-78 188,-78 188,-84 182,-90 176,-90"/>
<text text-anchor="middle" x="161" y="-68.3" font-family="Inter,Arial" font-size="14.00" fill="#d0dce3">F[B]</text>
</g>
<!-- B&#45;&gt;cataFB -->
<g id="edge1" class="edge disabled">
<title>B&#45;&gt;cataFB</title>
<path fill="none" stroke="#d0dce3" d="M54.08,-49.53C74.06,-53.77 101.85,-59.67 123.95,-64.35"/>
<polygon fill="#d0dce3" stroke="#d0dce3" points="123.47,-67.83 133.98,-66.48 124.92,-60.98 123.47,-67.83"/>
<text text-anchor="middle" x="90.5" y="-63.2" font-family="Inter,Arial" font-size="11.00" fill="#d0dce3">project</text>
</g>
<!-- anaFB -->
<g id="node2" class="node">
<title>anaFB</title>
<path fill="#ffffff" stroke="#586e75" d="M183,-36C183,-36 139,-36 139,-36 133,-36 127,-30 127,-24 127,-24 127,-12 127,-12 127,-6 133,0 139,0 139,0 183,0 183,0 189,0 195,-6 195,-12 195,-12 195,-24 195,-24 195,-30 189,-36 183,-36"/>
<text text-anchor="middle" x="161" y="-14.3" font-family="Inter,Arial" font-size="14.00" fill="#586e75">ListF[B]</text>
</g>
<!-- anaFB&#45;&gt;B -->
<g id="edge6" class="edge">
<title>anaFB&#45;&gt;B</title>
<path fill="none" stroke="#586e75" d="M126.94,-24.51C107.74,-28.29 83.55,-33.06 63.89,-36.93"/>
<polygon fill="#586e75" stroke="#586e75" points="63.21,-33.5 54.08,-38.86 64.57,-40.36 63.21,-33.5"/>
<text text-anchor="middle" x="90.5" y="-36.2" font-family="Inter,Arial" font-size="11.00" fill="#586e75">embed</text>
</g>
<!-- cataFA -->
<g id="node5" class="node disabled">
<title>cataFA</title>
<path fill="#ffffff" stroke="#d0dce3" d="M348.5,-90C348.5,-90 318.5,-90 318.5,-90 312.5,-90 306.5,-84 306.5,-78 306.5,-78 306.5,-66 306.5,-66 306.5,-60 312.5,-54 318.5,-54 318.5,-54 348.5,-54 348.5,-54 354.5,-54 360.5,-60 360.5,-66 360.5,-66 360.5,-78 360.5,-78 360.5,-84 354.5,-90 348.5,-90"/>
<text text-anchor="middle" x="333.5" y="-68.3" font-family="Inter,Arial" font-size="14.00" fill="#d0dce3">F[A]</text>
</g>
<!-- cataFB&#45;&gt;cataFA -->
<g id="edge2" class="edge disabled">
<title>cataFB&#45;&gt;cataFA</title>
<path fill="none" stroke="#d0dce3" d="M188.27,-72C217.14,-72 263.71,-72 296.09,-72"/>
<polygon fill="#d0dce3" stroke="#d0dce3" points="296.48,-75.5 306.48,-72 296.48,-68.5 296.48,-75.5"/>
<text text-anchor="middle" x="245" y="-75.2" font-family="Inter,Arial" font-size="11.00" fill="#d0dce3">map(_, loop)</text>
</g>
<!-- anaFA -->
<g id="node4" class="node disabled">
<title>anaFA</title>
<path fill="#ffffff" stroke="#d0dce3" d="M360,-36C360,-36 307,-36 307,-36 301,-36 295,-30 295,-24 295,-24 295,-12 295,-12 295,-6 301,0 307,0 307,0 360,0 360,0 366,0 372,-6 372,-12 372,-12 372,-24 372,-24 372,-30 366,-36 360,-36"/>
<text text-anchor="middle" x="333.5" y="-14.3" font-family="Inter,Arial" font-size="14.00" fill="#d0dce3">ListF[Int]</text>
</g>
<!-- anaFA&#45;&gt;anaFB -->
<g id="edge5" class="edge disabled">
<title>anaFA&#45;&gt;anaFB</title>
<path fill="none" stroke="#d0dce3" d="M294.85,-18C268.44,-18 233.06,-18 205.45,-18"/>
<polygon fill="#d0dce3" stroke="#d0dce3" points="205.28,-14.5 195.28,-18 205.28,-21.5 205.28,-14.5"/>
<text text-anchor="middle" x="245" y="-21.2" font-family="Inter,Arial" font-size="11.00" fill="#d0dce3">map(_, loop)</text>
</g>
<!-- cataA -->
<g id="node7" class="node disabled">
<title>cataA</title>
<path fill="#ffffff" stroke="#d0dce3" d="M535,-90C535,-90 505,-90 505,-90 499,-90 493,-84 493,-78 493,-78 493,-66 493,-66 493,-60 499,-54 505,-54 505,-54 535,-54 535,-54 541,-54 547,-60 547,-66 547,-66 547,-78 547,-78 547,-84 541,-90 535,-90"/>
<text text-anchor="middle" x="520" y="-68.3" font-family="Inter,Arial" font-size="14.00" fill="#d0dce3">A</text>
</g>
<!-- cataFA&#45;&gt;cataA -->
<g id="edge3" class="edge disabled">
<title>cataFA&#45;&gt;cataA</title>
<path fill="none" stroke="#d0dce3" d="M360.54,-72C392.46,-72 446.71,-72 482.71,-72"/>
<polygon fill="#d0dce3" stroke="#d0dce3" points="482.79,-75.5 492.79,-72 482.79,-68.5 482.79,-75.5"/>
<text text-anchor="middle" x="432.5" y="-75.2" font-family="Inter,Arial" font-size="11.00" fill="#d0dce3">algebra</text>
</g>
<!-- anaA -->
<g id="node6" class="node disabled">
<title>anaA</title>
<path fill="#ffffff" stroke="#d0dce3" d="M535,-36C535,-36 505,-36 505,-36 499,-36 493,-30 493,-24 493,-24 493,-12 493,-12 493,-6 499,0 505,0 505,0 535,0 535,0 541,0 547,-6 547,-12 547,-12 547,-24 547,-24 547,-30 541,-36 535,-36"/>
<text text-anchor="middle" x="520" y="-14.3" font-family="Inter,Arial" font-size="14.00" fill="#d0dce3">Int</text>
</g>
<!-- anaA&#45;&gt;anaFA -->
<g id="edge4" class="edge disabled">
<title>anaA&#45;&gt;anaFA</title>
<path fill="none" stroke="#d0dce3" d="M492.86,-18C464.21,-18 417.61,-18 382.36,-18"/>
<polygon fill="#d0dce3" stroke="#d0dce3" points="382.28,-14.5 372.28,-18 382.28,-21.5 382.28,-14.5"/>
<text text-anchor="middle" x="432.5" y="-21.2" font-family="Inter,Arial" font-size="11.00" fill="#d0dce3">rangeCoAlgebra</text>
</g>
</g>
</svg>
