<?xml version="1.0" encoding="UTF-8" standalone="no"?>
<!DOCTYPE svg PUBLIC "-//W3C//DTD SVG 1.1//EN"
 "http://www.w3.org/Graphics/SVG/1.1/DTD/svg11.dtd">
<!-- Generated by graphviz version 2.43.0 (0)
 -->
<!-- Title: %3 Pages: 1 -->
<svg width="570pt" height="98pt"
 viewBox="0.00 0.00 570.00 98.00" xmlns="http://www.w3.org/2000/svg" xmlns:xlink="http://www.w3.org/1999/xlink">
<g id="graph0" class="graph dual" transform="scale(1 1) rotate(0) translate(4 94)">
<title>%3</title>
<!-- B -->
<g id="node1" class="node disabled">
<title>B</title>
<path fill="#ffffff" stroke="#d0dce3" d="M42,-62C42,-62 12,-62 12,-62 6,-62 0,-56 0,-50 0,-50 0,-38 0,-38 0,-32 6,-26 12,-26 12,-26 42,-26 42,-26 48,-26 54,-32 54,-38 54,-38 54,-50 54,-50 54,-56 48,-62 42,-62"/>
<text text-anchor="middle" x="27" y="-40.3" font-family="Inter,Arial" font-size="14.00" fill="#d0dce3">List</text>
</g>
<!-- cataFB -->
<g id="node3" class="node">
<title>cataFB</title>
<path fill="#ffffff" stroke="#586e75" d="M198,-90C198,-90 139,-90 139,-90 133,-90 127,-84 127,-78 127,-78 127,-66 127,-66 127,-60 133,-54 139,-54 139,-54 198,-54 198,-54 204,-54 210,-60 210,-66 210,-66 210,-78 210,-78 210,-84 204,-90 198,-90"/>
<text text-anchor="middle" x="168.5" y="-68.3" font-family="Inter,Arial" font-size="14.00" fill="#586e75">ListF[List]</text>
</g>
<!-- B&#45;&gt;cataFB -->
<g id="edge1" class="edge disabled">
<title>B&#45;&gt;cataFB</title>
<path fill="none" stroke="#d0dce3" d="M54.24,-49.27C71.89,-52.81 95.72,-57.59 116.97,-61.86"/>
<polygon fill="#d0dce3" stroke="#d0dce3" points="116.35,-65.3 126.84,-63.84 117.72,-58.44 116.35,-65.3"/>
<text text-anchor="middle" x="90.5" y="-62.2" font-family="Inter,Arial" font-size="11.00" fill="#d0dce3">project</text>
</g>
<!-- anaFB -->
<g id="node2" class="node disabled">
<title>anaFB</title>
<path fill="#ffffff" stroke="#d0dce3" d="M198,-36C198,-36 139,-36 139,-36 133,-36 127,-30 127,-24 127,-24 127,-12 127,-12 127,-6 133,0 139,0 139,0 198,0 198,0 204,0 210,-6 210,-12 210,-12 210,-24 210,-24 210,-30 204,-36 198,-36"/>
<text text-anchor="middle" x="168.5" y="-14.3" font-family="Inter,Arial" font-size="14.00" fill="#d0dce3">ListF[List]</text>
</g>
<!-- anaFB&#45;&gt;B -->
<g id="edge6" class="edge disabled">
<title>anaFB&#45;&gt;B</title>
<path fill="none" stroke="#d0dce3" d="M126.84,-25.58C106.99,-29.28 83.31,-33.69 64.11,-37.27"/>
<polygon fill="#d0dce3" stroke="#d0dce3" points="63.43,-33.84 54.24,-39.11 64.71,-40.72 63.43,-33.84"/>
<text text-anchor="middle" x="90.5" y="-36.2" font-family="Inter,Arial" font-size="11.00" fill="#d0dce3">embed</text>
</g>
<!-- cataFA -->
<g id="node5" class="node">
<title>cataFA</title>
<path fill="#ffffff" stroke="#586e75" d="M371,-90C371,-90 326,-90 326,-90 320,-90 314,-84 314,-78 314,-78 314,-66 314,-66 314,-60 320,-54 326,-54 326,-54 371,-54 371,-54 377,-54 383,-60 383,-66 383,-66 383,-78 383,-78 383,-84 377,-90 371,-90"/>
<text text-anchor="middle" x="348.5" y="-68.3" font-family="Inter,Arial" font-size="14.00" fill="#586e75">ListF[A]</text>
</g>
<!-- cataFB&#45;&gt;cataFA -->
<g id="edge2" class="edge">
<title>cataFB&#45;&gt;cataFA</title>
<path fill="none" stroke="#586e75" d="M210.34,-72C238.22,-72 275.12,-72 303.63,-72"/>
<polygon fill="#586e75" stroke="#586e75" points="303.72,-75.5 313.72,-72 303.72,-68.5 303.72,-75.5"/>
<text text-anchor="middle" x="260" y="-75.2" font-family="Inter,Arial" font-size="11.00" fill="#586e75">map(_, loop)</text>
</g>
<!-- anaFA -->
<g id="node4" class="node disabled">
<title>anaFA</title>
<path fill="#ffffff" stroke="#d0dce3" d="M375,-36C375,-36 322,-36 322,-36 316,-36 310,-30 310,-24 310,-24 310,-12 310,-12 310,-6 316,0 322,0 322,0 375,0 375,0 381,0 387,-6 387,-12 387,-12 387,-24 387,-24 387,-30 381,-36 375,-36"/>
<text text-anchor="middle" x="348.5" y="-14.3" font-family="Inter,Arial" font-size="14.00" fill="#d0dce3">ListF[Int]</text>
</g>
<!-- anaFA&#45;&gt;anaFB -->
<g id="edge5" class="edge disabled">
<title>anaFA&#45;&gt;anaFB</title>
<path fill="none" stroke="#d0dce3" d="M309.89,-18C283.9,-18 249.01,-18 220.52,-18"/>
<polygon fill="#d0dce3" stroke="#d0dce3" points="220.34,-14.5 210.34,-18 220.34,-21.5 220.34,-14.5"/>
<text text-anchor="middle" x="260" y="-21.2" font-family="Inter,Arial" font-size="11.00" fill="#d0dce3">map(_, loop)</text>
</g>
<!-- cataA -->
<g id="node7" class="node disabled">
<title>cataA</title>
<path fill="#ffffff" stroke="#d0dce3" d="M550,-90C550,-90 520,-90 520,-90 514,-90 508,-84 508,-78 508,-78 508,-66 508,-66 508,-60 514,-54 520,-54 520,-54 550,-54 550,-54 556,-54 562,-60 562,-66 562,-66 562,-78 562,-78 562,-84 556,-90 550,-90"/>
<text text-anchor="middle" x="535" y="-68.3" font-family="Inter,Arial" font-size="14.00" fill="#d0dce3">A</text>
</g>
<!-- cataFA&#45;&gt;cataA -->
<g id="edge3" class="edge disabled">
<title>cataFA&#45;&gt;cataA</title>
<path fill="none" stroke="#d0dce3" d="M383.34,-72C415.73,-72 464.43,-72 497.63,-72"/>
<polygon fill="#d0dce3" stroke="#d0dce3" points="497.83,-75.5 507.83,-72 497.83,-68.5 497.83,-75.5"/>
<text text-anchor="middle" x="447.5" y="-75.2" font-family="Inter,Arial" font-size="11.00" fill="#d0dce3">algebra</text>
</g>
<!-- anaA -->
<g id="node6" class="node disabled">
<title>anaA</title>
<path fill="#ffffff" stroke="#d0dce3" d="M550,-36C550,-36 520,-36 520,-36 514,-36 508,-30 508,-24 508,-24 508,-12 508,-12 508,-6 514,0 520,0 520,0 550,0 550,0 556,0 562,-6 562,-12 562,-12 562,-24 562,-24 562,-30 556,-36 550,-36"/>
<text text-anchor="middle" x="535" y="-14.3" font-family="Inter,Arial" font-size="14.00" fill="#d0dce3">Int</text>
</g>
<!-- anaA&#45;&gt;anaFA -->
<g id="edge4" class="edge disabled">
<title>anaA&#45;&gt;anaFA</title>
<path fill="none" stroke="#d0dce3" d="M507.86,-18C479.21,-18 432.61,-18 397.36,-18"/>
<polygon fill="#d0dce3" stroke="#d0dce3" points="397.28,-14.5 387.28,-18 397.28,-21.5 397.28,-14.5"/>
<text text-anchor="middle" x="447.5" y="-21.2" font-family="Inter,Arial" font-size="11.00" fill="#d0dce3">rangeCoAlgebra</text>
</g>
</g>
</svg>
