<?xml version="1.0" encoding="UTF-8" standalone="no"?>
<!DOCTYPE svg PUBLIC "-//W3C//DTD SVG 1.1//EN"
 "http://www.w3.org/Graphics/SVG/1.1/DTD/svg11.dtd">
<!-- Generated by graphviz version 2.43.0 (0)
 -->
<!-- Title: %3 Pages: 1 -->
<svg width="518pt" height="98pt"
 viewBox="0.00 0.00 518.00 98.00" xmlns="http://www.w3.org/2000/svg" xmlns:xlink="http://www.w3.org/1999/xlink">
<g id="graph0" class="graph dual" transform="scale(1 1) rotate(0) translate(4 94)">
<title>%3</title>
<!-- B -->
<g id="node1" class="node disabled">
<title>B</title>
<path fill="#ffffff" stroke="#d0dce3" d="M42,-62C42,-62 12,-62 12,-62 6,-62 0,-56 0,-50 0,-50 0,-38 0,-38 0,-32 6,-26 12,-26 12,-26 42,-26 42,-26 48,-26 54,-32 54,-38 54,-38 54,-50 54,-50 54,-56 48,-62 42,-62"/>
<text text-anchor="middle" x="27" y="-40.3" font-family="Inter,Arial" font-size="14.00" fill="#d0dce3">B</text>
</g>
<!-- cataFB -->
<g id="node3" class="node disabled">
<title>cataFB</title>
<path fill="#ffffff" stroke="#d0dce3" d="M169,-90C169,-90 139,-90 139,-90 133,-90 127,-84 127,-78 127,-78 127,-66 127,-66 127,-60 133,-54 139,-54 139,-54 169,-54 169,-54 175,-54 181,-60 181,-66 181,-66 181,-78 181,-78 181,-84 175,-90 169,-90"/>
<text text-anchor="middle" x="154" y="-68.3" font-family="Inter,Arial" font-size="14.00" fill="#d0dce3">F[B]</text>
</g>
<!-- B&#45;&gt;cataFB -->
<g id="edge1" class="edge disabled">
<title>B&#45;&gt;cataFB</title>
<path fill="none" stroke="#d0dce3" d="M54.2,-49.87C72.37,-53.94 96.8,-59.41 116.82,-63.9"/>
<polygon fill="#d0dce3" stroke="#d0dce3" points="116.31,-67.37 126.83,-66.14 117.84,-60.54 116.31,-67.37"/>
<text text-anchor="middle" x="90.5" y="-65.2" font-family="Inter,Arial" font-size="11.00" fill="#d0dce3">project</text>
</g>
<!-- anaFB -->
<g id="node2" class="node disabled">
<title>anaFB</title>
<path fill="#ffffff" stroke="#d0dce3" d="M169,-36C169,-36 139,-36 139,-36 133,-36 127,-30 127,-24 127,-24 127,-12 127,-12 127,-6 133,0 139,0 139,0 169,0 169,0 175,0 181,-6 181,-12 181,-12 181,-24 181,-24 181,-30 175,-36 169,-36"/>
<text text-anchor="middle" x="154" y="-14.3" font-family="Inter,Arial" font-size="14.00" fill="#d0dce3">F[B]</text>
</g>
<!-- anaFB&#45;&gt;B -->
<g id="edge6" class="edge disabled">
<title>anaFB&#45;&gt;B</title>
<path fill="none" stroke="#d0dce3" d="M126.83,-23.44C108.67,-27.22 84.24,-32.3 64.22,-36.47"/>
<polygon fill="#d0dce3" stroke="#d0dce3" points="63.28,-33.09 54.2,-38.55 64.71,-39.94 63.28,-33.09"/>
<text text-anchor="middle" x="90.5" y="-36.2" font-family="Inter,Arial" font-size="11.00" fill="#d0dce3">embed</text>
</g>
<!-- cataFA -->
<g id="node5" class="node disabled">
<title>cataFA</title>
<path fill="#ffffff" stroke="#d0dce3" d="M323,-90C323,-90 293,-90 293,-90 287,-90 281,-84 281,-78 281,-78 281,-66 281,-66 281,-60 287,-54 293,-54 293,-54 323,-54 323,-54 329,-54 335,-60 335,-66 335,-66 335,-78 335,-78 335,-84 329,-90 323,-90"/>
<text text-anchor="middle" x="308" y="-68.3" font-family="Inter,Arial" font-size="14.00" fill="#d0dce3">F[A]</text>
</g>
<!-- cataFB&#45;&gt;cataFA -->
<g id="edge2" class="edge disabled">
<title>cataFB&#45;&gt;cataFA</title>
<path fill="none" stroke="#d0dce3" d="M181.13,-72C205.89,-72 243.3,-72 270.9,-72"/>
<polygon fill="#d0dce3" stroke="#d0dce3" points="270.96,-75.5 280.96,-72 270.96,-68.5 270.96,-75.5"/>
<text text-anchor="middle" x="231" y="-75.2" font-family="Inter,Arial" font-size="11.00" fill="#d0dce3">map(_, loop)</text>
</g>
<!-- anaFA -->
<g id="node4" class="node">
<title>anaFA</title>
<path fill="#ffffff" stroke="#586e75" d="M323,-36C323,-36 293,-36 293,-36 287,-36 281,-30 281,-24 281,-24 281,-12 281,-12 281,-6 287,0 293,0 293,0 323,0 323,0 329,0 335,-6 335,-12 335,-12 335,-24 335,-24 335,-30 329,-36 323,-36"/>
<text text-anchor="middle" x="308" y="-14.3" font-family="Inter,Arial" font-size="14.00" fill="#586e75">F[Int]</text>
</g>
<!-- anaFA&#45;&gt;anaFB -->
<g id="edge5" class="edge disabled">
<title>anaFA&#45;&gt;anaFB</title>
<path fill="none" stroke="#d0dce3" d="M280.96,-18C256.22,-18 218.82,-18 191.19,-18"/>
<polygon fill="#d0dce3" stroke="#d0dce3" points="191.13,-14.5 181.13,-18 191.13,-21.5 191.13,-14.5"/>
<text text-anchor="middle" x="231" y="-21.2" font-family="Inter,Arial" font-size="11.00" fill="#d0dce3">map(_, loop)</text>
</g>
<!-- cataA -->
<g id="node7" class="node disabled">
<title>cataA</title>
<path fill="#ffffff" stroke="#d0dce3" d="M498,-90C498,-90 468,-90 468,-90 462,-90 456,-84 456,-78 456,-78 456,-66 456,-66 456,-60 462,-54 468,-54 468,-54 498,-54 498,-54 504,-54 510,-60 510,-66 510,-66 510,-78 510,-78 510,-84 504,-90 498,-90"/>
<text text-anchor="middle" x="483" y="-68.3" font-family="Inter,Arial" font-size="14.00" fill="#d0dce3">A</text>
</g>
<!-- cataFA&#45;&gt;cataA -->
<g id="edge3" class="edge disabled">
<title>cataFA&#45;&gt;cataA</title>
<path fill="none" stroke="#d0dce3" d="M335.27,-72C364.7,-72 412.59,-72 445.61,-72"/>
<polygon fill="#d0dce3" stroke="#d0dce3" points="445.76,-75.5 455.76,-72 445.76,-68.5 445.76,-75.5"/>
<text text-anchor="middle" x="395.5" y="-75.2" font-family="Inter,Arial" font-size="11.00" fill="#d0dce3">algebra</text>
</g>
<!-- anaA -->
<g id="node6" class="node">
<title>anaA</title>
<path fill="#ffffff" stroke="#586e75" d="M498,-36C498,-36 468,-36 468,-36 462,-36 456,-30 456,-24 456,-24 456,-12 456,-12 456,-6 462,0 468,0 468,0 498,0 498,0 504,0 510,-6 510,-12 510,-12 510,-24 510,-24 510,-30 504,-36 498,-36"/>
<text text-anchor="middle" x="483" y="-14.3" font-family="Inter,Arial" font-size="14.00" fill="#586e75">Int</text>
</g>
<!-- anaA&#45;&gt;anaFA -->
<g id="edge4" class="edge">
<title>anaA&#45;&gt;anaFA</title>
<path fill="none" stroke="#586e75" d="M455.76,-18C426.35,-18 378.47,-18 345.44,-18"/>
<polygon fill="#586e75" stroke="#586e75" points="345.28,-14.5 335.27,-18 345.27,-21.5 345.28,-14.5"/>
<text text-anchor="middle" x="395.5" y="-21.2" font-family="Inter,Arial" font-size="11.00" fill="#586e75">rangeCoAlgebra</text>
</g>
</g>
</svg>
