<?xml version="1.0" encoding="UTF-8" standalone="no"?>
<!DOCTYPE svg PUBLIC "-//W3C//DTD SVG 1.1//EN"
 "http://www.w3.org/Graphics/SVG/1.1/DTD/svg11.dtd">
<!-- Generated by graphviz version 2.43.0 (0)
 -->
<!-- Title: %3 Pages: 1 -->
<svg width="628pt" height="44pt"
 viewBox="0.00 0.00 628.00 44.00" xmlns="http://www.w3.org/2000/svg" xmlns:xlink="http://www.w3.org/1999/xlink">
<g id="graph0" class="graph" transform="scale(1 1) rotate(0) translate(4 40)">
<title>%3</title>
<!-- anaFA -->
<g id="node1" class="node">
<title>anaFA</title>
<path fill="#ffffff" stroke="#586e75" d="M232,-36C232,-36 187,-36 187,-36 181,-36 175,-30 175,-24 175,-24 175,-12 175,-12 175,-6 181,0 187,0 187,0 232,0 232,0 238,0 244,-6 244,-12 244,-12 244,-24 244,-24 244,-30 238,-36 232,-36"/>
<text text-anchor="middle" x="209.5" y="-14.3" font-family="Inter,Arial" font-size="14.00" fill="#586e75">ListF[A]</text>
</g>
<!-- cataFA -->
<g id="node2" class="node disabled">
<title>cataFA</title>
<path fill="#ffffff" stroke="#d0dce3" d="M430,-36C430,-36 356,-36 356,-36 350,-36 344,-30 344,-24 344,-24 344,-12 344,-12 344,-6 350,0 356,0 356,0 430,0 430,0 436,0 442,-6 442,-12 442,-12 442,-24 442,-24 442,-30 436,-36 430,-36"/>
<text text-anchor="middle" x="393" y="-14.3" font-family="Inter,Arial" font-size="14.00" fill="#d0dce3">ListF[String]</text>
</g>
<!-- anaFA&#45;&gt;cataFA -->
<g id="edge2" class="edge disabled">
<title>anaFA&#45;&gt;cataFA</title>
<path fill="none" stroke="#d0dce3" d="M244.21,-18C269.25,-18 304.02,-18 333.55,-18"/>
<polygon fill="#d0dce3" stroke="#d0dce3" points="333.75,-21.5 343.75,-18 333.75,-14.5 333.75,-21.5"/>
<text text-anchor="middle" x="294" y="-21.2" font-family="Inter,Arial" font-size="11.00" fill="#d0dce3">map(_, loop)</text>
</g>
<!-- cataA -->
<g id="node4" class="node disabled">
<title>cataA</title>
<path fill="#ffffff" stroke="#d0dce3" d="M608,-36C608,-36 576,-36 576,-36 570,-36 564,-30 564,-24 564,-24 564,-12 564,-12 564,-6 570,0 576,0 576,0 608,0 608,0 614,0 620,-6 620,-12 620,-12 620,-24 620,-24 620,-30 614,-36 608,-36"/>
<text text-anchor="middle" x="592" y="-14.3" font-family="Inter,Arial" font-size="14.00" fill="#d0dce3">String</text>
</g>
<!-- cataFA&#45;&gt;cataA -->
<g id="edge3" class="edge disabled">
<title>cataFA&#45;&gt;cataA</title>
<path fill="none" stroke="#d0dce3" d="M442.19,-18C476.58,-18 522.15,-18 553.76,-18"/>
<polygon fill="#d0dce3" stroke="#d0dce3" points="553.91,-21.5 563.91,-18 553.91,-14.5 553.91,-21.5"/>
<text text-anchor="middle" x="503" y="-21.2" font-family="Inter,Arial" font-size="11.00" fill="#d0dce3">mkStringAlgebra</text>
</g>
<!-- anaA -->
<g id="node3" class="node">
<title>anaA</title>
<path fill="#ffffff" stroke="#586e75" d="M42,-36C42,-36 12,-36 12,-36 6,-36 0,-30 0,-24 0,-24 0,-12 0,-12 0,-6 6,0 12,0 12,0 42,0 42,0 48,0 54,-6 54,-12 54,-12 54,-24 54,-24 54,-30 48,-36 42,-36"/>
<text text-anchor="middle" x="27" y="-14.3" font-family="Inter,Arial" font-size="14.00" fill="#586e75">A</text>
</g>
<!-- anaA&#45;&gt;anaFA -->
<g id="edge1" class="edge disabled">
<title>anaA&#45;&gt;anaFA</title>
<path fill="none" stroke="#d0dce3" d="M54.25,-18C83.13,-18 130.04,-18 164.56,-18"/>
<polygon fill="#d0dce3" stroke="#d0dce3" points="164.84,-21.5 174.84,-18 164.84,-14.5 164.84,-21.5"/>
<text text-anchor="middle" x="114.5" y="-21.2" font-family="Inter,Arial" font-size="11.00" fill="#d0dce3">rangeCoAlgebra</text>
</g>
</g>
</svg>
