<?xml version="1.0" encoding="UTF-8" standalone="no"?>
<!DOCTYPE svg PUBLIC "-//W3C//DTD SVG 1.1//EN"
 "http://www.w3.org/Graphics/SVG/1.1/DTD/svg11.dtd">
<!-- Generated by graphviz version 2.43.0 (0)
 -->
<!-- Title: %3 Pages: 1 -->
<svg width="570pt" height="98pt"
 viewBox="0.00 0.00 570.00 98.00" xmlns="http://www.w3.org/2000/svg" xmlns:xlink="http://www.w3.org/1999/xlink">
<g id="graph0" class="graph dual" transform="scale(1 1) rotate(0) translate(4 94)">
<title>%3</title>
<!-- B -->
<g id="node1" class="node">
<title>B</title>
<path fill="#ffffff" stroke="#586e75" d="M42,-62C42,-62 12,-62 12,-62 6,-62 0,-56 0,-50 0,-50 0,-38 0,-38 0,-32 6,-26 12,-26 12,-26 42,-26 42,-26 48,-26 54,-32 54,-38 54,-38 54,-50 54,-50 54,-56 48,-62 42,-62"/>
<text text-anchor="middle" x="27" y="-40.3" font-family="Inter,Arial" font-size="14.00" fill="#586e75">List</text>
</g>
<!-- cataFB -->
<g id="node3" class="node disabled">
<title>cataFB</title>
<path fill="#ffffff" stroke="#d0dce3" d="M183.5,-90C183.5,-90 153.5,-90 153.5,-90 147.5,-90 141.5,-84 141.5,-78 141.5,-78 141.5,-66 141.5,-66 141.5,-60 147.5,-54 153.5,-54 153.5,-54 183.5,-54 183.5,-54 189.5,-54 195.5,-60 195.5,-66 195.5,-66 195.5,-78 195.5,-78 195.5,-84 189.5,-90 183.5,-90"/>
<text text-anchor="middle" x="168.5" y="-68.3" font-family="Inter,Arial" font-size="14.00" fill="#d0dce3">F[B]</text>
</g>
<!-- B&#45;&gt;cataFB -->
<g id="edge1" class="edge disabled">
<title>B&#45;&gt;cataFB</title>
<path fill="none" stroke="#d0dce3" d="M54.24,-49.27C76.06,-53.65 107.35,-59.93 131.51,-64.78"/>
<polygon fill="#d0dce3" stroke="#d0dce3" points="130.89,-68.22 141.38,-66.76 132.26,-61.36 130.89,-68.22"/>
<text text-anchor="middle" x="90.5" y="-62.2" font-family="Inter,Arial" font-size="11.00" fill="#d0dce3">project</text>
</g>
<!-- anaFB -->
<g id="node2" class="node">
<title>anaFB</title>
<path fill="#ffffff" stroke="#586e75" d="M198,-36C198,-36 139,-36 139,-36 133,-36 127,-30 127,-24 127,-24 127,-12 127,-12 127,-6 133,0 139,0 139,0 198,0 198,0 204,0 210,-6 210,-12 210,-12 210,-24 210,-24 210,-30 204,-36 198,-36"/>
<text text-anchor="middle" x="168.5" y="-14.3" font-family="Inter,Arial" font-size="14.00" fill="#586e75">ListF[List]</text>
</g>
<!-- anaFB&#45;&gt;B -->
<g id="edge6" class="edge">
<title>anaFB&#45;&gt;B</title>
<path fill="none" stroke="#586e75" d="M126.84,-25.58C106.99,-29.28 83.31,-33.69 64.11,-37.27"/>
<polygon fill="#586e75" stroke="#586e75" points="63.43,-33.84 54.24,-39.11 64.71,-40.72 63.43,-33.84"/>
<text text-anchor="middle" x="90.5" y="-36.2" font-family="Inter,Arial" font-size="11.00" fill="#586e75">embed</text>
</g>
<!-- cataFA -->
<g id="node5" class="node disabled">
<title>cataFA</title>
<path fill="#ffffff" stroke="#d0dce3" d="M363.5,-90C363.5,-90 333.5,-90 333.5,-90 327.5,-90 321.5,-84 321.5,-78 321.5,-78 321.5,-66 321.5,-66 321.5,-60 327.5,-54 333.5,-54 333.5,-54 363.5,-54 363.5,-54 369.5,-54 375.5,-60 375.5,-66 375.5,-66 375.5,-78 375.5,-78 375.5,-84 369.5,-90 363.5,-90"/>
<text text-anchor="middle" x="348.5" y="-68.3" font-family="Inter,Arial" font-size="14.00" fill="#d0dce3">F[A]</text>
</g>
<!-- cataFB&#45;&gt;cataFA -->
<g id="edge2" class="edge disabled">
<title>cataFB&#45;&gt;cataFA</title>
<path fill="none" stroke="#d0dce3" d="M195.76,-72C226.35,-72 277.05,-72 311.34,-72"/>
<polygon fill="#d0dce3" stroke="#d0dce3" points="311.42,-75.5 321.42,-72 311.42,-68.5 311.42,-75.5"/>
<text text-anchor="middle" x="260" y="-75.2" font-family="Inter,Arial" font-size="11.00" fill="#d0dce3">map(_, loop)</text>
</g>
<!-- anaFA -->
<g id="node4" class="node disabled">
<title>anaFA</title>
<path fill="#ffffff" stroke="#d0dce3" d="M375,-36C375,-36 322,-36 322,-36 316,-36 310,-30 310,-24 310,-24 310,-12 310,-12 310,-6 316,0 322,0 322,0 375,0 375,0 381,0 387,-6 387,-12 387,-12 387,-24 387,-24 387,-30 381,-36 375,-36"/>
<text text-anchor="middle" x="348.5" y="-14.3" font-family="Inter,Arial" font-size="14.00" fill="#d0dce3">ListF[Int]</text>
</g>
<!-- anaFA&#45;&gt;anaFB -->
<g id="edge5" class="edge disabled">
<title>anaFA&#45;&gt;anaFB</title>
<path fill="none" stroke="#d0dce3" d="M309.89,-18C283.9,-18 249.01,-18 220.52,-18"/>
<polygon fill="#d0dce3" stroke="#d0dce3" points="220.34,-14.5 210.34,-18 220.34,-21.5 220.34,-14.5"/>
<text text-anchor="middle" x="260" y="-21.2" font-family="Inter,Arial" font-size="11.00" fill="#d0dce3">map(_, loop)</text>
</g>
<!-- cataA -->
<g id="node7" class="node disabled">
<title>cataA</title>
<path fill="#ffffff" stroke="#d0dce3" d="M550,-90C550,-90 520,-90 520,-90 514,-90 508,-84 508,-78 508,-78 508,-66 508,-66 508,-60 514,-54 520,-54 520,-54 550,-54 550,-54 556,-54 562,-60 562,-66 562,-66 562,-78 562,-78 562,-84 556,-90 550,-90"/>
<text text-anchor="middle" x="535" y="-68.3" font-family="Inter,Arial" font-size="14.00" fill="#d0dce3">A</text>
</g>
<!-- cataFA&#45;&gt;cataA -->
<g id="edge3" class="edge disabled">
<title>cataFA&#45;&gt;cataA</title>
<path fill="none" stroke="#d0dce3" d="M375.54,-72C407.46,-72 461.71,-72 497.71,-72"/>
<polygon fill="#d0dce3" stroke="#d0dce3" points="497.79,-75.5 507.79,-72 497.79,-68.5 497.79,-75.5"/>
<text text-anchor="middle" x="447.5" y="-75.2" font-family="Inter,Arial" font-size="11.00" fill="#d0dce3">algebra</text>
</g>
<!-- anaA -->
<g id="node6" class="node disabled">
<title>anaA</title>
<path fill="#ffffff" stroke="#d0dce3" d="M550,-36C550,-36 520,-36 520,-36 514,-36 508,-30 508,-24 508,-24 508,-12 508,-12 508,-6 514,0 520,0 520,0 550,0 550,0 556,0 562,-6 562,-12 562,-12 562,-24 562,-24 562,-30 556,-36 550,-36"/>
<text text-anchor="middle" x="535" y="-14.3" font-family="Inter,Arial" font-size="14.00" fill="#d0dce3">Int</text>
</g>
<!-- anaA&#45;&gt;anaFA -->
<g id="edge4" class="edge disabled">
<title>anaA&#45;&gt;anaFA</title>
<path fill="none" stroke="#d0dce3" d="M507.86,-18C479.21,-18 432.61,-18 397.36,-18"/>
<polygon fill="#d0dce3" stroke="#d0dce3" points="397.28,-14.5 387.28,-18 397.28,-21.5 397.28,-14.5"/>
<text text-anchor="middle" x="447.5" y="-21.2" font-family="Inter,Arial" font-size="11.00" fill="#d0dce3">rangeCoAlgebra</text>
</g>
</g>
</svg>
