<?xml version="1.0" encoding="UTF-8" standalone="no"?>
<!DOCTYPE svg PUBLIC "-//W3C//DTD SVG 1.1//EN"
 "http://www.w3.org/Graphics/SVG/1.1/DTD/svg11.dtd">
<!-- Generated by graphviz version 2.43.0 (0)
 -->
<!-- Title: %3 Pages: 1 -->
<svg width="549pt" height="98pt"
 viewBox="0.00 0.00 549.00 98.00" xmlns="http://www.w3.org/2000/svg" xmlns:xlink="http://www.w3.org/1999/xlink">
<g id="graph0" class="graph" transform="scale(1 1) rotate(0) translate(4 94)">
<title>%3</title>
<!-- List -->
<g id="node1" class="node">
<title>List</title>
<path fill="#b2ebf2" stroke="#2980b9" d="M42,-62C42,-62 12,-62 12,-62 6,-62 0,-56 0,-50 0,-50 0,-38 0,-38 0,-32 6,-26 12,-26 12,-26 42,-26 42,-26 48,-26 54,-32 54,-38 54,-38 54,-50 54,-50 54,-56 48,-62 42,-62"/>
<text text-anchor="middle" x="27" y="-40.3" font-family="Segoe UI,Roboto,Helvetica,Arial,sans-serif" font-size="14.00" fill="#000000">List</text>
</g>
<!-- cataFB -->
<g id="node3" class="node">
<title>cataFB</title>
<path fill="#b2ebf2" stroke="#dddddd" d="M179,-90C179,-90 149,-90 149,-90 143,-90 137,-84 137,-78 137,-78 137,-66 137,-66 137,-60 143,-54 149,-54 149,-54 179,-54 179,-54 185,-54 191,-60 191,-66 191,-66 191,-78 191,-78 191,-84 185,-90 179,-90"/>
<text text-anchor="middle" x="164" y="-68.3" font-family="Segoe UI,Roboto,Helvetica,Arial,sans-serif" font-size="14.00" fill="#dddddd">F[B]</text>
</g>
<!-- List&#45;&gt;cataFB -->
<g id="edge1" class="edge">
<title>List&#45;&gt;cataFB</title>
<path fill="none" stroke="#dddddd" d="M54.03,-49.4C74.63,-53.67 103.64,-59.69 126.55,-64.44"/>
<polygon fill="#dddddd" stroke="#dddddd" points="126.09,-67.92 136.59,-66.52 127.51,-61.06 126.09,-67.92"/>
<text text-anchor="middle" x="89.5" y="-62.2" font-family="Segoe UI,Roboto,Helvetica,Arial,sans-serif" font-size="11.00" fill="#dddddd">project</text>
</g>
<!-- anaFB -->
<g id="node2" class="node">
<title>anaFB</title>
<path fill="#b2ebf2" stroke="#2980b9" d="M191,-36C191,-36 137,-36 137,-36 131,-36 125,-30 125,-24 125,-24 125,-12 125,-12 125,-6 131,0 137,0 137,0 191,0 191,0 197,0 203,-6 203,-12 203,-12 203,-24 203,-24 203,-30 197,-36 191,-36"/>
<text text-anchor="middle" x="164" y="-14.3" font-family="Segoe UI,Roboto,Helvetica,Arial,sans-serif" font-size="14.00" fill="#000000">ListF[List]</text>
</g>
<!-- anaFB&#45;&gt;List -->
<g id="edge6" class="edge">
<title>anaFB&#45;&gt;List</title>
<path fill="none" stroke="#2980b9" d="M124.79,-25.36C105.7,-29.04 82.74,-33.46 63.97,-37.07"/>
<polygon fill="#2980b9" stroke="#2980b9" points="63.19,-33.66 54.03,-38.99 64.51,-40.53 63.19,-33.66"/>
<text text-anchor="middle" x="89.5" y="-36.2" font-family="Segoe UI,Roboto,Helvetica,Arial,sans-serif" font-size="11.00" fill="#000000">embed</text>
</g>
<!-- cataFA -->
<g id="node5" class="node">
<title>cataFA</title>
<path fill="#b2ebf2" stroke="#dddddd" d="M350.5,-90C350.5,-90 320.5,-90 320.5,-90 314.5,-90 308.5,-84 308.5,-78 308.5,-78 308.5,-66 308.5,-66 308.5,-60 314.5,-54 320.5,-54 320.5,-54 350.5,-54 350.5,-54 356.5,-54 362.5,-60 362.5,-66 362.5,-66 362.5,-78 362.5,-78 362.5,-84 356.5,-90 350.5,-90"/>
<text text-anchor="middle" x="335.5" y="-68.3" font-family="Segoe UI,Roboto,Helvetica,Arial,sans-serif" font-size="14.00" fill="#dddddd">F[A]</text>
</g>
<!-- cataFB&#45;&gt;cataFA -->
<g id="edge2" class="edge">
<title>cataFB&#45;&gt;cataFA</title>
<path fill="none" stroke="#dddddd" d="M191.11,-72C219.73,-72 265.84,-72 298.02,-72"/>
<polygon fill="#dddddd" stroke="#dddddd" points="298.36,-75.5 308.36,-72 298.36,-68.5 298.36,-75.5"/>
<text text-anchor="middle" x="251.5" y="-75.2" font-family="Segoe UI,Roboto,Helvetica,Arial,sans-serif" font-size="11.00" fill="#dddddd">map(_, loop)</text>
</g>
<!-- anaFA -->
<g id="node4" class="node">
<title>anaFA</title>
<path fill="#b2ebf2" stroke="#dddddd" d="M359,-36C359,-36 312,-36 312,-36 306,-36 300,-30 300,-24 300,-24 300,-12 300,-12 300,-6 306,0 312,0 312,0 359,0 359,0 365,0 371,-6 371,-12 371,-12 371,-24 371,-24 371,-30 365,-36 359,-36"/>
<text text-anchor="middle" x="335.5" y="-14.3" font-family="Segoe UI,Roboto,Helvetica,Arial,sans-serif" font-size="14.00" fill="#dddddd">ListF[Int]</text>
</g>
<!-- anaFA&#45;&gt;anaFB -->
<g id="edge5" class="edge">
<title>anaFA&#45;&gt;anaFB</title>
<path fill="none" stroke="#dddddd" d="M299.76,-18C274.81,-18 240.85,-18 213.27,-18"/>
<polygon fill="#dddddd" stroke="#dddddd" points="213.04,-14.5 203.04,-18 213.04,-21.5 213.04,-14.5"/>
<text text-anchor="middle" x="251.5" y="-21.2" font-family="Segoe UI,Roboto,Helvetica,Arial,sans-serif" font-size="11.00" fill="#dddddd">map(_, loop)</text>
</g>
<!-- cataA -->
<g id="node7" class="node">
<title>cataA</title>
<path fill="#b2ebf2" stroke="#dddddd" d="M529,-90C529,-90 499,-90 499,-90 493,-90 487,-84 487,-78 487,-78 487,-66 487,-66 487,-60 493,-54 499,-54 499,-54 529,-54 529,-54 535,-54 541,-60 541,-66 541,-66 541,-78 541,-78 541,-84 535,-90 529,-90"/>
<text text-anchor="middle" x="514" y="-68.3" font-family="Segoe UI,Roboto,Helvetica,Arial,sans-serif" font-size="14.00" fill="#dddddd">A</text>
</g>
<!-- cataFA&#45;&gt;cataA -->
<g id="edge3" class="edge">
<title>cataFA&#45;&gt;cataA</title>
<path fill="none" stroke="#dddddd" d="M362.54,-72C392.65,-72 442.43,-72 476.41,-72"/>
<polygon fill="#dddddd" stroke="#dddddd" points="476.85,-75.5 486.85,-72 476.85,-68.5 476.85,-75.5"/>
<text text-anchor="middle" x="429" y="-75.2" font-family="Segoe UI,Roboto,Helvetica,Arial,sans-serif" font-size="11.00" fill="#dddddd">algebra</text>
</g>
<!-- anaA -->
<g id="node6" class="node">
<title>anaA</title>
<path fill="#b2ebf2" stroke="#dddddd" d="M529,-36C529,-36 499,-36 499,-36 493,-36 487,-30 487,-24 487,-24 487,-12 487,-12 487,-6 493,0 499,0 499,0 529,0 529,0 535,0 541,-6 541,-12 541,-12 541,-24 541,-24 541,-30 535,-36 529,-36"/>
<text text-anchor="middle" x="514" y="-14.3" font-family="Segoe UI,Roboto,Helvetica,Arial,sans-serif" font-size="14.00" fill="#dddddd">Int</text>
</g>
<!-- anaA&#45;&gt;anaFA -->
<g id="edge4" class="edge">
<title>anaA&#45;&gt;anaFA</title>
<path fill="none" stroke="#dddddd" d="M486.81,-18C459.17,-18 415.07,-18 381.77,-18"/>
<polygon fill="#dddddd" stroke="#dddddd" points="381.37,-14.5 371.37,-18 381.37,-21.5 381.37,-14.5"/>
<text text-anchor="middle" x="429" y="-21.2" font-family="Segoe UI,Roboto,Helvetica,Arial,sans-serif" font-size="11.00" fill="#dddddd">rangeCoAlgebra</text>
</g>
</g>
</svg>
