<?xml version="1.0" encoding="UTF-8" standalone="no"?>
<!DOCTYPE svg PUBLIC "-//W3C//DTD SVG 1.1//EN"
 "http://www.w3.org/Graphics/SVG/1.1/DTD/svg11.dtd">
<!-- Generated by graphviz version 2.43.0 (0)
 -->
<!-- Title: %3 Pages: 1 -->
<svg width="419pt" height="98pt"
 viewBox="0.00 0.00 419.00 98.00" xmlns="http://www.w3.org/2000/svg" xmlns:xlink="http://www.w3.org/1999/xlink">
<g id="graph0" class="graph" transform="scale(1 1) rotate(0) translate(4 94)">
<title>%3</title>
<!-- s3embed -->
<g id="node1" class="node">
<title>s3embed</title>
<path fill="#b2ebf2" stroke="#2980b9" d="M42,-36C42,-36 12,-36 12,-36 6,-36 0,-30 0,-24 0,-24 0,-12 0,-12 0,-6 6,0 12,0 12,0 42,0 42,0 48,0 54,-6 54,-12 54,-12 54,-24 54,-24 54,-30 48,-36 42,-36"/>
<text text-anchor="middle" x="27" y="-14.3" font-family="Segoe UI,Roboto,Helvetica,Arial,sans-serif" font-size="14.00" fill="#000000">3</text>
</g>
<!-- s2embed -->
<g id="node3" class="node">
<title>s2embed</title>
<path fill="#b2ebf2" stroke="#2980b9" d="M161,-36C161,-36 131,-36 131,-36 125,-36 119,-30 119,-24 119,-24 119,-12 119,-12 119,-6 125,0 131,0 131,0 161,0 161,0 167,0 173,-6 173,-12 173,-12 173,-24 173,-24 173,-30 167,-36 161,-36"/>
<text text-anchor="middle" x="146" y="-14.3" font-family="Segoe UI,Roboto,Helvetica,Arial,sans-serif" font-size="14.00" fill="#000000">2</text>
</g>
<!-- s3embed&#45;&gt;s2embed -->
<g id="edge4" class="edge">
<title>s3embed&#45;&gt;s2embed</title>
<path fill="none" stroke="#2980b9" d="M54.26,-18C70.21,-18 90.83,-18 108.37,-18"/>
<polygon fill="#2980b9" stroke="#2980b9" points="108.83,-21.5 118.83,-18 108.83,-14.5 108.83,-21.5"/>
<text text-anchor="middle" x="86.5" y="-21.2" font-family="Segoe UI,Roboto,Helvetica,Arial,sans-serif" font-size="11.00" fill="#000000">Cons</text>
</g>
<!-- s3 -->
<g id="node2" class="node">
<title>s3</title>
<path fill="#b2ebf2" stroke="#2980b9" d="M42,-90C42,-90 12,-90 12,-90 6,-90 0,-84 0,-78 0,-78 0,-66 0,-66 0,-60 6,-54 12,-54 12,-54 42,-54 42,-54 48,-54 54,-60 54,-66 54,-66 54,-78 54,-78 54,-84 48,-90 42,-90"/>
<text text-anchor="middle" x="27" y="-68.3" font-family="Segoe UI,Roboto,Helvetica,Arial,sans-serif" font-size="14.00" fill="#000000">3</text>
</g>
<!-- s2 -->
<g id="node4" class="node">
<title>s2</title>
<path fill="#b2ebf2" stroke="#2980b9" d="M161,-90C161,-90 131,-90 131,-90 125,-90 119,-84 119,-78 119,-78 119,-66 119,-66 119,-60 125,-54 131,-54 131,-54 161,-54 161,-54 167,-54 173,-60 173,-66 173,-66 173,-78 173,-78 173,-84 167,-90 161,-90"/>
<text text-anchor="middle" x="146" y="-68.3" font-family="Segoe UI,Roboto,Helvetica,Arial,sans-serif" font-size="14.00" fill="#000000">2</text>
</g>
<!-- s3&#45;&gt;s2 -->
<g id="edge1" class="edge">
<title>s3&#45;&gt;s2</title>
<path fill="none" stroke="#2980b9" d="M54.26,-72C70.21,-72 90.83,-72 108.37,-72"/>
<polygon fill="#2980b9" stroke="#2980b9" points="108.83,-75.5 118.83,-72 108.83,-68.5 108.83,-75.5"/>
<text text-anchor="middle" x="86.5" y="-75.2" font-family="Segoe UI,Roboto,Helvetica,Arial,sans-serif" font-size="11.00" fill="#000000">Some</text>
</g>
<!-- s1embed -->
<g id="node5" class="node">
<title>s1embed</title>
<path fill="#b2ebf2" stroke="#2980b9" d="M280,-36C280,-36 250,-36 250,-36 244,-36 238,-30 238,-24 238,-24 238,-12 238,-12 238,-6 244,0 250,0 250,0 280,0 280,0 286,0 292,-6 292,-12 292,-12 292,-24 292,-24 292,-30 286,-36 280,-36"/>
<text text-anchor="middle" x="265" y="-14.3" font-family="Segoe UI,Roboto,Helvetica,Arial,sans-serif" font-size="14.00" fill="#000000">1</text>
</g>
<!-- s2embed&#45;&gt;s1embed -->
<g id="edge5" class="edge">
<title>s2embed&#45;&gt;s1embed</title>
<path fill="none" stroke="#2980b9" d="M173.26,-18C189.21,-18 209.83,-18 227.37,-18"/>
<polygon fill="#2980b9" stroke="#2980b9" points="227.83,-21.5 237.83,-18 227.83,-14.5 227.83,-21.5"/>
<text text-anchor="middle" x="205.5" y="-21.2" font-family="Segoe UI,Roboto,Helvetica,Arial,sans-serif" font-size="11.00" fill="#000000">Cons</text>
</g>
<!-- s1 -->
<g id="node6" class="node">
<title>s1</title>
<path fill="#b2ebf2" stroke="#2980b9" d="M280,-90C280,-90 250,-90 250,-90 244,-90 238,-84 238,-78 238,-78 238,-66 238,-66 238,-60 244,-54 250,-54 250,-54 280,-54 280,-54 286,-54 292,-60 292,-66 292,-66 292,-78 292,-78 292,-84 286,-90 280,-90"/>
<text text-anchor="middle" x="265" y="-68.3" font-family="Segoe UI,Roboto,Helvetica,Arial,sans-serif" font-size="14.00" fill="#000000">1</text>
</g>
<!-- s2&#45;&gt;s1 -->
<g id="edge2" class="edge">
<title>s2&#45;&gt;s1</title>
<path fill="none" stroke="#2980b9" d="M173.26,-72C189.21,-72 209.83,-72 227.37,-72"/>
<polygon fill="#2980b9" stroke="#2980b9" points="227.83,-75.5 237.83,-72 227.83,-68.5 227.83,-75.5"/>
<text text-anchor="middle" x="205.5" y="-75.2" font-family="Segoe UI,Roboto,Helvetica,Arial,sans-serif" font-size="11.00" fill="#000000">Some</text>
</g>
<!-- nilembed -->
<g id="node7" class="node">
<title>nilembed</title>
<path fill="#b2ebf2" stroke="#2980b9" d="M399,-36C399,-36 369,-36 369,-36 363,-36 357,-30 357,-24 357,-24 357,-12 357,-12 357,-6 363,0 369,0 369,0 399,0 399,0 405,0 411,-6 411,-12 411,-12 411,-24 411,-24 411,-30 405,-36 399,-36"/>
<text text-anchor="middle" x="384" y="-14.3" font-family="Segoe UI,Roboto,Helvetica,Arial,sans-serif" font-size="14.00" fill="#000000">Nil</text>
</g>
<!-- s1embed&#45;&gt;nilembed -->
<g id="edge6" class="edge">
<title>s1embed&#45;&gt;nilembed</title>
<path fill="none" stroke="#2980b9" d="M292.26,-18C308.21,-18 328.83,-18 346.37,-18"/>
<polygon fill="#2980b9" stroke="#2980b9" points="346.83,-21.5 356.83,-18 346.83,-14.5 346.83,-21.5"/>
<text text-anchor="middle" x="324.5" y="-21.2" font-family="Segoe UI,Roboto,Helvetica,Arial,sans-serif" font-size="11.00" fill="#000000">Cons</text>
</g>
<!-- nil -->
<g id="node8" class="node">
<title>nil</title>
<path fill="#b2ebf2" stroke="#2980b9" d="M399,-90C399,-90 369,-90 369,-90 363,-90 357,-84 357,-78 357,-78 357,-66 357,-66 357,-60 363,-54 369,-54 369,-54 399,-54 399,-54 405,-54 411,-60 411,-66 411,-66 411,-78 411,-78 411,-84 405,-90 399,-90"/>
<text text-anchor="middle" x="384" y="-68.3" font-family="Segoe UI,Roboto,Helvetica,Arial,sans-serif" font-size="14.00" fill="#000000">None</text>
</g>
<!-- s1&#45;&gt;nil -->
<g id="edge3" class="edge">
<title>s1&#45;&gt;nil</title>
<path fill="none" stroke="#2980b9" d="M292.26,-72C308.21,-72 328.83,-72 346.37,-72"/>
<polygon fill="#2980b9" stroke="#2980b9" points="346.83,-75.5 356.83,-72 346.83,-68.5 346.83,-75.5"/>
<text text-anchor="middle" x="324.5" y="-75.2" font-family="Segoe UI,Roboto,Helvetica,Arial,sans-serif" font-size="11.00" fill="#000000">Some</text>
</g>
</g>
</svg>
