<?xml version="1.0" encoding="UTF-8" standalone="no"?>
<!DOCTYPE svg PUBLIC "-//W3C//DTD SVG 1.1//EN"
 "http://www.w3.org/Graphics/SVG/1.1/DTD/svg11.dtd">
<!-- Generated by graphviz version 2.43.0 (0)
 -->
<!-- Title: %3 Pages: 1 -->
<svg width="508pt" height="98pt"
 viewBox="0.00 0.00 508.00 98.00" xmlns="http://www.w3.org/2000/svg" xmlns:xlink="http://www.w3.org/1999/xlink">
<g id="graph0" class="graph" transform="scale(1 1) rotate(0) translate(4 94)">
<title>%3</title>
<!-- B -->
<g id="node1" class="node">
<title>B</title>
<path fill="#b2ebf2" stroke="#dddddd" d="M42,-62C42,-62 12,-62 12,-62 6,-62 0,-56 0,-50 0,-50 0,-38 0,-38 0,-32 6,-26 12,-26 12,-26 42,-26 42,-26 48,-26 54,-32 54,-38 54,-38 54,-50 54,-50 54,-56 48,-62 42,-62"/>
<text text-anchor="middle" x="27" y="-40.3" font-family="Segoe UI,Roboto,Helvetica,Arial,sans-serif" font-size="14.00" fill="#dddddd">B</text>
</g>
<!-- cataFB -->
<g id="node3" class="node">
<title>cataFB</title>
<path fill="#b2ebf2" stroke="#dddddd" d="M167,-90C167,-90 137,-90 137,-90 131,-90 125,-84 125,-78 125,-78 125,-66 125,-66 125,-60 131,-54 137,-54 137,-54 167,-54 167,-54 173,-54 179,-60 179,-66 179,-66 179,-78 179,-78 179,-84 173,-90 167,-90"/>
<text text-anchor="middle" x="152" y="-68.3" font-family="Segoe UI,Roboto,Helvetica,Arial,sans-serif" font-size="14.00" fill="#dddddd">F[B]</text>
</g>
<!-- B&#45;&gt;cataFB -->
<g id="edge1" class="edge">
<title>B&#45;&gt;cataFB</title>
<path fill="none" stroke="#dddddd" d="M54.09,-49.94C71.86,-53.98 95.62,-59.39 115.17,-63.84"/>
<polygon fill="#dddddd" stroke="#dddddd" points="114.43,-67.26 124.95,-66.07 115.98,-60.44 114.43,-67.26"/>
<text text-anchor="middle" x="89.5" y="-64.2" font-family="Segoe UI,Roboto,Helvetica,Arial,sans-serif" font-size="11.00" fill="#dddddd">project</text>
</g>
<!-- anaFB -->
<g id="node2" class="node">
<title>anaFB</title>
<path fill="#b2ebf2" stroke="#2980b9" d="M167,-36C167,-36 137,-36 137,-36 131,-36 125,-30 125,-24 125,-24 125,-12 125,-12 125,-6 131,0 137,0 137,0 167,0 167,0 173,0 179,-6 179,-12 179,-12 179,-24 179,-24 179,-30 173,-36 167,-36"/>
<text text-anchor="middle" x="152" y="-14.3" font-family="Segoe UI,Roboto,Helvetica,Arial,sans-serif" font-size="14.00" fill="#000000">F[B]</text>
</g>
<!-- anaFB&#45;&gt;B -->
<g id="edge6" class="edge">
<title>anaFB&#45;&gt;B</title>
<path fill="none" stroke="#dddddd" d="M124.95,-23.51C107.19,-27.26 83.42,-32.28 63.87,-36.42"/>
<polygon fill="#dddddd" stroke="#dddddd" points="63.15,-32.99 54.09,-38.49 64.59,-39.84 63.15,-32.99"/>
<text text-anchor="middle" x="89.5" y="-36.2" font-family="Segoe UI,Roboto,Helvetica,Arial,sans-serif" font-size="11.00" fill="#dddddd">embed</text>
</g>
<!-- cataFA -->
<g id="node5" class="node">
<title>cataFA</title>
<path fill="#b2ebf2" stroke="#dddddd" d="M318,-90C318,-90 288,-90 288,-90 282,-90 276,-84 276,-78 276,-78 276,-66 276,-66 276,-60 282,-54 288,-54 288,-54 318,-54 318,-54 324,-54 330,-60 330,-66 330,-66 330,-78 330,-78 330,-84 324,-90 318,-90"/>
<text text-anchor="middle" x="303" y="-68.3" font-family="Segoe UI,Roboto,Helvetica,Arial,sans-serif" font-size="14.00" fill="#dddddd">F[A]</text>
</g>
<!-- cataFB&#45;&gt;cataFA -->
<g id="edge2" class="edge">
<title>cataFB&#45;&gt;cataFA</title>
<path fill="none" stroke="#dddddd" d="M179.3,-72C203.34,-72 239.12,-72 265.85,-72"/>
<polygon fill="#dddddd" stroke="#dddddd" points="265.97,-75.5 275.97,-72 265.97,-68.5 265.97,-75.5"/>
<text text-anchor="middle" x="227.5" y="-75.2" font-family="Segoe UI,Roboto,Helvetica,Arial,sans-serif" font-size="11.00" fill="#dddddd">map(_, loop)</text>
</g>
<!-- anaFA -->
<g id="node4" class="node">
<title>anaFA</title>
<path fill="#b2ebf2" stroke="#2980b9" d="M318,-36C318,-36 288,-36 288,-36 282,-36 276,-30 276,-24 276,-24 276,-12 276,-12 276,-6 282,0 288,0 288,0 318,0 318,0 324,0 330,-6 330,-12 330,-12 330,-24 330,-24 330,-30 324,-36 318,-36"/>
<text text-anchor="middle" x="303" y="-14.3" font-family="Segoe UI,Roboto,Helvetica,Arial,sans-serif" font-size="14.00" fill="#000000">F[Int]</text>
</g>
<!-- anaFA&#45;&gt;anaFB -->
<g id="edge5" class="edge">
<title>anaFA&#45;&gt;anaFB</title>
<path fill="none" stroke="#2980b9" d="M275.97,-18C252.01,-18 216.24,-18 189.44,-18"/>
<polygon fill="#2980b9" stroke="#2980b9" points="189.3,-14.5 179.3,-18 189.3,-21.5 189.3,-14.5"/>
<text text-anchor="middle" x="227.5" y="-21.2" font-family="Segoe UI,Roboto,Helvetica,Arial,sans-serif" font-size="11.00" fill="#000000">map(_, loop)</text>
</g>
<!-- cataA -->
<g id="node7" class="node">
<title>cataA</title>
<path fill="#b2ebf2" stroke="#dddddd" d="M488,-90C488,-90 458,-90 458,-90 452,-90 446,-84 446,-78 446,-78 446,-66 446,-66 446,-60 452,-54 458,-54 458,-54 488,-54 488,-54 494,-54 500,-60 500,-66 500,-66 500,-78 500,-78 500,-84 494,-90 488,-90"/>
<text text-anchor="middle" x="473" y="-68.3" font-family="Segoe UI,Roboto,Helvetica,Arial,sans-serif" font-size="14.00" fill="#dddddd">A</text>
</g>
<!-- cataFA&#45;&gt;cataA -->
<g id="edge3" class="edge">
<title>cataFA&#45;&gt;cataA</title>
<path fill="none" stroke="#dddddd" d="M330.25,-72C358.61,-72 403.98,-72 435.73,-72"/>
<polygon fill="#dddddd" stroke="#dddddd" points="435.93,-75.5 445.93,-72 435.93,-68.5 435.93,-75.5"/>
<text text-anchor="middle" x="388" y="-75.2" font-family="Segoe UI,Roboto,Helvetica,Arial,sans-serif" font-size="11.00" fill="#dddddd">algebra</text>
</g>
<!-- anaA -->
<g id="node6" class="node">
<title>anaA</title>
<path fill="#b2ebf2" stroke="#dddddd" d="M488,-36C488,-36 458,-36 458,-36 452,-36 446,-30 446,-24 446,-24 446,-12 446,-12 446,-6 452,0 458,0 458,0 488,0 488,0 494,0 500,-6 500,-12 500,-12 500,-24 500,-24 500,-30 494,-36 488,-36"/>
<text text-anchor="middle" x="473" y="-14.3" font-family="Segoe UI,Roboto,Helvetica,Arial,sans-serif" font-size="14.00" fill="#dddddd">Int</text>
</g>
<!-- anaA&#45;&gt;anaFA -->
<g id="edge4" class="edge">
<title>anaA&#45;&gt;anaFA</title>
<path fill="none" stroke="#dddddd" d="M445.93,-18C417.65,-18 372.29,-18 340.47,-18"/>
<polygon fill="#dddddd" stroke="#dddddd" points="340.25,-14.5 330.25,-18 340.25,-21.5 340.25,-14.5"/>
<text text-anchor="middle" x="388" y="-21.2" font-family="Segoe UI,Roboto,Helvetica,Arial,sans-serif" font-size="11.00" fill="#dddddd">rangeCoAlgebra</text>
</g>
</g>
</svg>
