<?xml version="1.0" encoding="UTF-8" standalone="no"?>
<!DOCTYPE svg PUBLIC "-//W3C//DTD SVG 1.1//EN"
 "http://www.w3.org/Graphics/SVG/1.1/DTD/svg11.dtd">
<!-- Generated by graphviz version 2.43.0 (0)
 -->
<!-- Title: %3 Pages: 1 -->
<svg width="589pt" height="44pt"
 viewBox="0.00 0.00 589.00 44.00" xmlns="http://www.w3.org/2000/svg" xmlns:xlink="http://www.w3.org/1999/xlink">
<g id="graph0" class="graph" transform="scale(1 1) rotate(0) translate(4 40)">
<title>%3</title>
<!-- anaFA -->
<g id="node1" class="node">
<title>anaFA</title>
<path fill="#ffffff" stroke="#586e75" d="M217,-36C217,-36 187,-36 187,-36 181,-36 175,-30 175,-24 175,-24 175,-12 175,-12 175,-6 181,0 187,0 187,0 217,0 217,0 223,0 229,-6 229,-12 229,-12 229,-24 229,-24 229,-30 223,-36 217,-36"/>
<text text-anchor="middle" x="202" y="-14.3" font-family="Inter,Arial" font-size="14.00" fill="#586e75">F[A]</text>
</g>
<!-- cataFA -->
<g id="node2" class="node">
<title>cataFA</title>
<path fill="#ffffff" stroke="#586e75" d="M391,-36C391,-36 341,-36 341,-36 335,-36 329,-30 329,-24 329,-24 329,-12 329,-12 329,-6 335,0 341,0 341,0 391,0 391,0 397,0 403,-6 403,-12 403,-12 403,-24 403,-24 403,-30 397,-36 391,-36"/>
<text text-anchor="middle" x="366" y="-14.3" font-family="Inter,Arial" font-size="14.00" fill="#586e75">F[String]</text>
</g>
<!-- anaFA&#45;&gt;cataFA -->
<g id="edge2" class="edge disabled">
<title>anaFA&#45;&gt;cataFA</title>
<path fill="none" stroke="#d0dce3" d="M229.03,-18C253.08,-18 289.39,-18 318.44,-18"/>
<polygon fill="#d0dce3" stroke="#d0dce3" points="318.77,-21.5 328.77,-18 318.77,-14.5 318.77,-21.5"/>
<text text-anchor="middle" x="279" y="-21.2" font-family="Inter,Arial" font-size="11.00" fill="#d0dce3">map(_, loop)</text>
</g>
<!-- cataA -->
<g id="node4" class="node disabled">
<title>cataA</title>
<path fill="#ffffff" stroke="#d0dce3" d="M569,-36C569,-36 537,-36 537,-36 531,-36 525,-30 525,-24 525,-24 525,-12 525,-12 525,-6 531,0 537,0 537,0 569,0 569,0 575,0 581,-6 581,-12 581,-12 581,-24 581,-24 581,-30 575,-36 569,-36"/>
<text text-anchor="middle" x="553" y="-14.3" font-family="Inter,Arial" font-size="14.00" fill="#d0dce3">String</text>
</g>
<!-- cataFA&#45;&gt;cataA -->
<g id="edge3" class="edge disabled">
<title>cataFA&#45;&gt;cataA</title>
<path fill="none" stroke="#d0dce3" d="M403.11,-18C435.37,-18 482.43,-18 514.97,-18"/>
<polygon fill="#d0dce3" stroke="#d0dce3" points="514.98,-21.5 524.98,-18 514.98,-14.5 514.98,-21.5"/>
<text text-anchor="middle" x="464" y="-21.2" font-family="Inter,Arial" font-size="11.00" fill="#d0dce3">mkStringAlgebra</text>
</g>
<!-- anaA -->
<g id="node3" class="node disabled">
<title>anaA</title>
<path fill="#ffffff" stroke="#d0dce3" d="M42,-36C42,-36 12,-36 12,-36 6,-36 0,-30 0,-24 0,-24 0,-12 0,-12 0,-6 6,0 12,0 12,0 42,0 42,0 48,0 54,-6 54,-12 54,-12 54,-24 54,-24 54,-30 48,-36 42,-36"/>
<text text-anchor="middle" x="27" y="-14.3" font-family="Inter,Arial" font-size="14.00" fill="#d0dce3">A</text>
</g>
<!-- anaA&#45;&gt;anaFA -->
<g id="edge1" class="edge disabled">
<title>anaA&#45;&gt;anaFA</title>
<path fill="none" stroke="#d0dce3" d="M54.27,-18C83.7,-18 131.59,-18 164.61,-18"/>
<polygon fill="#d0dce3" stroke="#d0dce3" points="164.76,-21.5 174.76,-18 164.76,-14.5 164.76,-21.5"/>
<text text-anchor="middle" x="114.5" y="-21.2" font-family="Inter,Arial" font-size="11.00" fill="#d0dce3">rangeCoAlgebra</text>
</g>
</g>
</svg>
