<?xml version="1.0" encoding="UTF-8" standalone="no"?>
<!DOCTYPE svg PUBLIC "-//W3C//DTD SVG 1.1//EN"
 "http://www.w3.org/Graphics/SVG/1.1/DTD/svg11.dtd">
<!-- Generated by graphviz version 2.43.0 (0)
 -->
<!-- Title: %3 Pages: 1 -->
<svg width="556pt" height="44pt"
 viewBox="0.00 0.00 556.00 44.00" xmlns="http://www.w3.org/2000/svg" xmlns:xlink="http://www.w3.org/1999/xlink">
<g id="graph0" class="graph" transform="scale(1 1) rotate(0) translate(4 40)">
<title>%3</title>
<!-- anaFA -->
<g id="node1" class="node">
<title>anaFA</title>
<path fill="#b2ebf2" stroke="#dddddd" d="M212,-36C212,-36 182,-36 182,-36 176,-36 170,-30 170,-24 170,-24 170,-12 170,-12 170,-6 176,0 182,0 182,0 212,0 212,0 218,0 224,-6 224,-12 224,-12 224,-24 224,-24 224,-30 218,-36 212,-36"/>
<text text-anchor="middle" x="197" y="-14.3" font-family="Segoe UI,Roboto,Helvetica,Arial,sans-serif" font-size="14.00" fill="#dddddd">F[A]</text>
</g>
<!-- cataFA -->
<g id="node2" class="node">
<title>cataFA</title>
<path fill="#b2ebf2" stroke="#dddddd" d="M363,-36C363,-36 333,-36 333,-36 327,-36 321,-30 321,-24 321,-24 321,-12 321,-12 321,-6 327,0 333,0 333,0 363,0 363,0 369,0 375,-6 375,-12 375,-12 375,-24 375,-24 375,-30 369,-36 363,-36"/>
<text text-anchor="middle" x="348" y="-14.3" font-family="Segoe UI,Roboto,Helvetica,Arial,sans-serif" font-size="14.00" fill="#dddddd">F[B]</text>
</g>
<!-- anaFA&#45;&gt;cataFA -->
<g id="edge2" class="edge">
<title>anaFA&#45;&gt;cataFA</title>
<path fill="none" stroke="#dddddd" d="M224.3,-18C248.34,-18 284.12,-18 310.85,-18"/>
<polygon fill="#dddddd" stroke="#dddddd" points="310.97,-21.5 320.97,-18 310.97,-14.5 310.97,-21.5"/>
<text text-anchor="middle" x="272.5" y="-21.2" font-family="Segoe UI,Roboto,Helvetica,Arial,sans-serif" font-size="11.00" fill="#dddddd">map(_, loop)</text>
</g>
<!-- cataA -->
<g id="node4" class="node">
<title>cataA</title>
<path fill="#b2ebf2" stroke="#dddddd" d="M536,-36C536,-36 506,-36 506,-36 500,-36 494,-30 494,-24 494,-24 494,-12 494,-12 494,-6 500,0 506,0 506,0 536,0 536,0 542,0 548,-6 548,-12 548,-12 548,-24 548,-24 548,-30 542,-36 536,-36"/>
<text text-anchor="middle" x="521" y="-14.3" font-family="Segoe UI,Roboto,Helvetica,Arial,sans-serif" font-size="14.00" fill="#dddddd">B</text>
</g>
<!-- cataFA&#45;&gt;cataA -->
<g id="edge3" class="edge">
<title>cataFA&#45;&gt;cataA</title>
<path fill="none" stroke="#dddddd" d="M375.34,-18C404.3,-18 451.01,-18 483.48,-18"/>
<polygon fill="#dddddd" stroke="#dddddd" points="483.91,-21.5 493.91,-18 483.91,-14.5 483.91,-21.5"/>
<text text-anchor="middle" x="434.5" y="-21.2" font-family="Segoe UI,Roboto,Helvetica,Arial,sans-serif" font-size="11.00" fill="#dddddd">mkStringAlgebra</text>
</g>
<!-- anaA -->
<g id="node3" class="node">
<title>anaA</title>
<path fill="#b2ebf2" stroke="#dddddd" d="M42,-36C42,-36 12,-36 12,-36 6,-36 0,-30 0,-24 0,-24 0,-12 0,-12 0,-6 6,0 12,0 12,0 42,0 42,0 48,0 54,-6 54,-12 54,-12 54,-24 54,-24 54,-30 48,-36 42,-36"/>
<text text-anchor="middle" x="27" y="-14.3" font-family="Segoe UI,Roboto,Helvetica,Arial,sans-serif" font-size="14.00" fill="#dddddd">A</text>
</g>
<!-- anaA&#45;&gt;anaFA -->
<g id="edge1" class="edge">
<title>anaA&#45;&gt;anaFA</title>
<path fill="none" stroke="#2980b9" d="M54.25,-18C82.61,-18 127.98,-18 159.73,-18"/>
<polygon fill="#2980b9" stroke="#2980b9" points="159.93,-21.5 169.93,-18 159.93,-14.5 159.93,-21.5"/>
<text text-anchor="middle" x="112" y="-21.2" font-family="Segoe UI,Roboto,Helvetica,Arial,sans-serif" font-size="11.00" fill="#000000">rangeCoAlgebra</text>
</g>
</g>
</svg>
