<?xml version="1.0" encoding="UTF-8" standalone="no"?>
<!DOCTYPE svg PUBLIC "-//W3C//DTD SVG 1.1//EN"
 "http://www.w3.org/Graphics/SVG/1.1/DTD/svg11.dtd">
<!-- Generated by graphviz version 2.40.1 (20161225.0304)
 -->
<!-- Title: %3 Pages: 1 -->
<svg width="222pt" height="299pt"
 viewBox="0.00 0.00 221.70 299.39" xmlns="http://www.w3.org/2000/svg" xmlns:xlink="http://www.w3.org/1999/xlink">
<g id="graph0" class="graph" transform="scale(1 1) rotate(0) translate(4 295.3933)">
<title>%3</title>
<!-- n1 -->
<g id="node1" class="node">
<title>n1</title>
<path fill="#b2ebf2" stroke="#dddddd" d="M153.8483,-291.3933C153.8483,-291.3933 123.8483,-291.3933 123.8483,-291.3933 117.8483,-291.3933 111.8483,-285.3933 111.8483,-279.3933 111.8483,-279.3933 111.8483,-267.3933 111.8483,-267.3933 111.8483,-261.3933 117.8483,-255.3933 123.8483,-255.3933 123.8483,-255.3933 153.8483,-255.3933 153.8483,-255.3933 159.8483,-255.3933 165.8483,-261.3933 165.8483,-267.3933 165.8483,-267.3933 165.8483,-279.3933 165.8483,-279.3933 165.8483,-285.3933 159.8483,-291.3933 153.8483,-291.3933"/>
<text text-anchor="middle" x="138.8483" y="-269.6933" font-family="Segoe UI,Roboto,Helvetica,Arial,sans-serif" font-size="14.00" fill="#dddddd">4</text>
</g>
<!-- n2 -->
<g id="node2" class="node">
<title>n2</title>
<path fill="#b2ebf2" stroke="#dddddd" d="M121.8483,-206.545C121.8483,-206.545 91.8483,-206.545 91.8483,-206.545 85.8483,-206.545 79.8483,-200.545 79.8483,-194.545 79.8483,-194.545 79.8483,-182.545 79.8483,-182.545 79.8483,-176.545 85.8483,-170.545 91.8483,-170.545 91.8483,-170.545 121.8483,-170.545 121.8483,-170.545 127.8483,-170.545 133.8483,-176.545 133.8483,-182.545 133.8483,-182.545 133.8483,-194.545 133.8483,-194.545 133.8483,-200.545 127.8483,-206.545 121.8483,-206.545"/>
<text text-anchor="middle" x="106.8483" y="-184.845" font-family="Segoe UI,Roboto,Helvetica,Arial,sans-serif" font-size="14.00" fill="#dddddd">2</text>
</g>
<!-- n1&#45;&gt;n2 -->
<g id="edge1" class="edge">
<title>n1&#45;&gt;n2</title>
<path fill="none" stroke="#dddddd" d="M131.9048,-254.9825C127.6405,-243.6757 122.0965,-228.9757 117.3079,-216.2787"/>
<polygon fill="#dddddd" stroke="#dddddd" points="120.4721,-214.75 113.6684,-206.6284 113.9224,-217.2202 120.4721,-214.75"/>
<text text-anchor="middle" x="133.3483" y="-228.5933" font-family="Segoe UI,Roboto,Helvetica,Arial,sans-serif" font-size="11.00" fill="#dddddd">left</text>
</g>
<!-- l1 -->
<g id="node5" class="node">
<title>l1</title>
<ellipse fill="#ffffff" stroke="#dddddd" cx="170.8483" cy="-188.545" rx="18.6979" ry="18.6979"/>
<text text-anchor="middle" x="170.8483" y="-184.845" font-family="Segoe UI,Roboto,Helvetica,Arial,sans-serif" font-size="14.00" fill="#dddddd">∅</text>
</g>
<!-- n1&#45;&gt;l1 -->
<g id="edge2" class="edge">
<title>n1&#45;&gt;l1</title>
<path fill="none" stroke="#2980b9" d="M145.7919,-254.9825C150.0851,-243.5988 155.6756,-228.7756 160.4864,-216.0198"/>
<polygon fill="#2980b9" stroke="#2980b9" points="163.8836,-216.9302 164.1376,-206.3384 157.3339,-214.46 163.8836,-216.9302"/>
<text text-anchor="middle" x="168.3483" y="-228.5933" font-family="Segoe UI,Roboto,Helvetica,Arial,sans-serif" font-size="11.00" fill="#000000">right</text>
</g>
<!-- n3 -->
<g id="node3" class="node">
<title>n3</title>
<path fill="#b2ebf2" stroke="#dddddd" d="M85.8483,-121.6967C85.8483,-121.6967 55.8483,-121.6967 55.8483,-121.6967 49.8483,-121.6967 43.8483,-115.6967 43.8483,-109.6967 43.8483,-109.6967 43.8483,-97.6967 43.8483,-97.6967 43.8483,-91.6967 49.8483,-85.6967 55.8483,-85.6967 55.8483,-85.6967 85.8483,-85.6967 85.8483,-85.6967 91.8483,-85.6967 97.8483,-91.6967 97.8483,-97.6967 97.8483,-97.6967 97.8483,-109.6967 97.8483,-109.6967 97.8483,-115.6967 91.8483,-121.6967 85.8483,-121.6967"/>
<text text-anchor="middle" x="70.8483" y="-99.9967" font-family="Segoe UI,Roboto,Helvetica,Arial,sans-serif" font-size="14.00" fill="#dddddd">1</text>
</g>
<!-- n2&#45;&gt;n3 -->
<g id="edge3" class="edge">
<title>n2&#45;&gt;n3</title>
<path fill="none" stroke="#dddddd" d="M99.0369,-170.1342C94.1921,-158.7154 87.8789,-143.836 82.4556,-131.0538"/>
<polygon fill="#dddddd" stroke="#dddddd" points="85.6488,-129.6187 78.5209,-121.7801 79.2048,-132.3528 85.6488,-129.6187"/>
<text text-anchor="middle" x="100.3483" y="-142.8967" font-family="Segoe UI,Roboto,Helvetica,Arial,sans-serif" font-size="11.00" fill="#dddddd">left</text>
</g>
<!-- n4 -->
<g id="node4" class="node">
<title>n4</title>
<path fill="#b2ebf2" stroke="#dddddd" d="M157.8483,-121.6967C157.8483,-121.6967 127.8483,-121.6967 127.8483,-121.6967 121.8483,-121.6967 115.8483,-115.6967 115.8483,-109.6967 115.8483,-109.6967 115.8483,-97.6967 115.8483,-97.6967 115.8483,-91.6967 121.8483,-85.6967 127.8483,-85.6967 127.8483,-85.6967 157.8483,-85.6967 157.8483,-85.6967 163.8483,-85.6967 169.8483,-91.6967 169.8483,-97.6967 169.8483,-97.6967 169.8483,-109.6967 169.8483,-109.6967 169.8483,-115.6967 163.8483,-121.6967 157.8483,-121.6967"/>
<text text-anchor="middle" x="142.8483" y="-99.9967" font-family="Segoe UI,Roboto,Helvetica,Arial,sans-serif" font-size="14.00" fill="#dddddd">3</text>
</g>
<!-- n2&#45;&gt;n4 -->
<g id="edge4" class="edge">
<title>n2&#45;&gt;n4</title>
<path fill="none" stroke="#dddddd" d="M114.6598,-170.1342C119.5046,-158.7154 125.8177,-143.836 131.2411,-131.0538"/>
<polygon fill="#dddddd" stroke="#dddddd" points="134.4919,-132.3528 135.1758,-121.7801 128.0479,-129.6187 134.4919,-132.3528"/>
<text text-anchor="middle" x="139.3483" y="-142.8967" font-family="Segoe UI,Roboto,Helvetica,Arial,sans-serif" font-size="11.00" fill="#dddddd">right</text>
</g>
<!-- l2 -->
<g id="node6" class="node">
<title>l2</title>
<ellipse fill="#ffffff" stroke="#dddddd" cx="18.8483" cy="-18.8483" rx="18.6979" ry="18.6979"/>
<text text-anchor="middle" x="18.8483" y="-15.1483" font-family="Segoe UI,Roboto,Helvetica,Arial,sans-serif" font-size="14.00" fill="#dddddd">∅</text>
</g>
<!-- n3&#45;&gt;l2 -->
<g id="edge5" class="edge">
<title>n3&#45;&gt;l2</title>
<path fill="none" stroke="#dddddd" d="M59.5651,-85.2858C52.09,-73.0888 42.1951,-56.9432 34.0315,-43.6228"/>
<polygon fill="#dddddd" stroke="#dddddd" points="36.917,-41.6328 28.7075,-34.9355 30.9487,-45.2906 36.917,-41.6328"/>
<text text-anchor="middle" x="57.3483" y="-58.8967" font-family="Segoe UI,Roboto,Helvetica,Arial,sans-serif" font-size="11.00" fill="#dddddd">left</text>
</g>
<!-- l3 -->
<g id="node7" class="node">
<title>l3</title>
<ellipse fill="#ffffff" stroke="#dddddd" cx="74.8483" cy="-18.8483" rx="18.6979" ry="18.6979"/>
<text text-anchor="middle" x="74.8483" y="-15.1483" font-family="Segoe UI,Roboto,Helvetica,Arial,sans-serif" font-size="14.00" fill="#dddddd">∅</text>
</g>
<!-- n3&#45;&gt;l3 -->
<g id="edge6" class="edge">
<title>n3&#45;&gt;l3</title>
<path fill="none" stroke="#dddddd" d="M71.7163,-85.2858C72.2281,-74.4291 72.8874,-60.444 73.469,-48.1075"/>
<polygon fill="#dddddd" stroke="#dddddd" points="76.9795,-47.9645 73.9544,-37.8107 69.9873,-47.6348 76.9795,-47.9645"/>
<text text-anchor="middle" x="85.3483" y="-58.8967" font-family="Segoe UI,Roboto,Helvetica,Arial,sans-serif" font-size="11.00" fill="#dddddd">right</text>
</g>
<!-- l4 -->
<g id="node8" class="node">
<title>l4</title>
<ellipse fill="#ffffff" stroke="#dddddd" cx="138.8483" cy="-18.8483" rx="18.6979" ry="18.6979"/>
<text text-anchor="middle" x="138.8483" y="-15.1483" font-family="Segoe UI,Roboto,Helvetica,Arial,sans-serif" font-size="14.00" fill="#dddddd">∅</text>
</g>
<!-- n4&#45;&gt;l4 -->
<g id="edge7" class="edge">
<title>n4&#45;&gt;l4</title>
<path fill="none" stroke="#dddddd" d="M141.9804,-85.2858C141.4686,-74.4291 140.8093,-60.444 140.2277,-48.1075"/>
<polygon fill="#dddddd" stroke="#dddddd" points="143.7094,-47.6348 139.7423,-37.8107 136.7172,-47.9645 143.7094,-47.6348"/>
<text text-anchor="middle" x="150.3483" y="-58.8967" font-family="Segoe UI,Roboto,Helvetica,Arial,sans-serif" font-size="11.00" fill="#dddddd">left</text>
</g>
<!-- l5 -->
<g id="node9" class="node">
<title>l5</title>
<ellipse fill="#ffffff" stroke="#dddddd" cx="194.8483" cy="-18.8483" rx="18.6979" ry="18.6979"/>
<text text-anchor="middle" x="194.8483" y="-15.1483" font-family="Segoe UI,Roboto,Helvetica,Arial,sans-serif" font-size="14.00" fill="#dddddd">∅</text>
</g>
<!-- n4&#45;&gt;l5 -->
<g id="edge8" class="edge">
<title>n4&#45;&gt;l5</title>
<path fill="none" stroke="#dddddd" d="M154.1316,-85.2858C161.6066,-73.0888 171.5016,-56.9432 179.6651,-43.6228"/>
<polygon fill="#dddddd" stroke="#dddddd" points="182.748,-45.2906 184.9892,-34.9355 176.7796,-41.6328 182.748,-45.2906"/>
<text text-anchor="middle" x="184.3483" y="-58.8967" font-family="Segoe UI,Roboto,Helvetica,Arial,sans-serif" font-size="11.00" fill="#dddddd">right</text>
</g>
</g>
</svg>
