<?xml version="1.0" encoding="UTF-8" standalone="no"?>
<!DOCTYPE svg PUBLIC "-//W3C//DTD SVG 1.1//EN"
 "http://www.w3.org/Graphics/SVG/1.1/DTD/svg11.dtd">
<!-- Generated by graphviz version 2.40.1 (20161225.0304)
 -->
<!-- Title: %3 Pages: 1 -->
<svg width="214pt" height="299pt"
 viewBox="0.00 0.00 213.70 299.39" xmlns="http://www.w3.org/2000/svg" xmlns:xlink="http://www.w3.org/1999/xlink">
<g id="graph0" class="graph" transform="scale(1 1) rotate(0) translate(4 295.3933)">
<title>%3</title>
<!-- n1 -->
<g id="node1" class="node">
<title>n1</title>
<ellipse fill="#b2ebf2" stroke="#dddddd" cx="130.8483" cy="-273.3933" rx="18" ry="18"/>
<text text-anchor="middle" x="130.8483" y="-269.6933" font-family="Segoe UI,Roboto,Helvetica,Arial,sans-serif" font-size="14.00" fill="#dddddd">4</text>
</g>
<!-- n2 -->
<g id="node2" class="node">
<title>n2</title>
<ellipse fill="#b2ebf2" stroke="#dddddd" cx="102.8483" cy="-188.545" rx="18" ry="18"/>
<text text-anchor="middle" x="102.8483" y="-184.845" font-family="Segoe UI,Roboto,Helvetica,Arial,sans-serif" font-size="14.00" fill="#dddddd">2</text>
</g>
<!-- n1&#45;&gt;n2 -->
<g id="edge1" class="edge">
<title>n1&#45;&gt;n2</title>
<path fill="none" stroke="#dddddd" d="M125.1821,-256.223C121.311,-244.4923 116.1033,-228.7115 111.6904,-215.3392"/>
<polygon fill="#dddddd" stroke="#dddddd" points="114.9637,-214.0892 108.5061,-205.6898 108.3163,-216.2829 114.9637,-214.0892"/>
<text text-anchor="middle" x="127.3483" y="-228.5933" font-family="Segoe UI,Roboto,Helvetica,Arial,sans-serif" font-size="11.00" fill="#dddddd">left</text>
</g>
<!-- l1 -->
<g id="node5" class="node">
<title>l1</title>
<ellipse fill="#ffffff" stroke="#2980b9" cx="157.8483" cy="-188.545" rx="18.6979" ry="18.6979"/>
<text text-anchor="middle" x="157.8483" y="-184.845" font-family="Segoe UI,Roboto,Helvetica,Arial,sans-serif" font-size="14.00" fill="#000000">∅</text>
</g>
<!-- n1&#45;&gt;l1 -->
<g id="edge2" class="edge">
<title>n1&#45;&gt;l1</title>
<path fill="none" stroke="#dddddd" d="M136.3122,-256.223C139.9714,-244.7239 144.869,-229.3328 149.0692,-216.1337"/>
<polygon fill="#dddddd" stroke="#dddddd" points="152.4158,-217.1588 152.113,-206.5683 145.7454,-215.0362 152.4158,-217.1588"/>
<text text-anchor="middle" x="158.3483" y="-228.5933" font-family="Segoe UI,Roboto,Helvetica,Arial,sans-serif" font-size="11.00" fill="#dddddd">right</text>
</g>
<!-- n3 -->
<g id="node3" class="node">
<title>n3</title>
<ellipse fill="#b2ebf2" stroke="#dddddd" cx="74.8483" cy="-103.6967" rx="18" ry="18"/>
<text text-anchor="middle" x="74.8483" y="-99.9967" font-family="Segoe UI,Roboto,Helvetica,Arial,sans-serif" font-size="14.00" fill="#dddddd">1</text>
</g>
<!-- n2&#45;&gt;n3 -->
<g id="edge3" class="edge">
<title>n2&#45;&gt;n3</title>
<path fill="none" stroke="#dddddd" d="M97.1821,-171.3747C93.311,-159.644 88.1033,-143.8632 83.6904,-130.4909"/>
<polygon fill="#dddddd" stroke="#dddddd" points="86.9637,-129.2409 80.5061,-120.8414 80.3163,-131.4346 86.9637,-129.2409"/>
<text text-anchor="middle" x="96.3483" y="-142.8967" font-family="Segoe UI,Roboto,Helvetica,Arial,sans-serif" font-size="11.00" fill="#dddddd">left</text>
</g>
<!-- n4 -->
<g id="node4" class="node">
<title>n4</title>
<ellipse fill="#b2ebf2" stroke="#dddddd" cx="130.8483" cy="-103.6967" rx="18" ry="18"/>
<text text-anchor="middle" x="130.8483" y="-99.9967" font-family="Segoe UI,Roboto,Helvetica,Arial,sans-serif" font-size="14.00" fill="#dddddd">3</text>
</g>
<!-- n2&#45;&gt;n4 -->
<g id="edge4" class="edge">
<title>n2&#45;&gt;n4</title>
<path fill="none" stroke="#dddddd" d="M108.5145,-171.3747C112.3857,-159.644 117.5934,-143.8632 122.0062,-130.4909"/>
<polygon fill="#dddddd" stroke="#dddddd" points="125.3804,-131.4346 125.1905,-120.8414 118.733,-129.2409 125.3804,-131.4346"/>
<text text-anchor="middle" x="130.3483" y="-142.8967" font-family="Segoe UI,Roboto,Helvetica,Arial,sans-serif" font-size="11.00" fill="#dddddd">right</text>
</g>
<!-- l2 -->
<g id="node6" class="node">
<title>l2</title>
<ellipse fill="#ffffff" stroke="#dddddd" cx="18.8483" cy="-18.8483" rx="18.6979" ry="18.6979"/>
<text text-anchor="middle" x="18.8483" y="-15.1483" font-family="Segoe UI,Roboto,Helvetica,Arial,sans-serif" font-size="14.00" fill="#dddddd">∅</text>
</g>
<!-- n3&#45;&gt;l2 -->
<g id="edge5" class="edge">
<title>n3&#45;&gt;l2</title>
<path fill="none" stroke="#dddddd" d="M64.8366,-88.5275C56.5518,-75.9747 44.6233,-57.9013 34.9911,-43.307"/>
<polygon fill="#dddddd" stroke="#dddddd" points="37.7731,-41.1682 29.3435,-34.7501 31.9308,-45.0242 37.7731,-41.1682"/>
<text text-anchor="middle" x="59.3483" y="-58.8967" font-family="Segoe UI,Roboto,Helvetica,Arial,sans-serif" font-size="11.00" fill="#dddddd">left</text>
</g>
<!-- l3 -->
<g id="node7" class="node">
<title>l3</title>
<ellipse fill="#ffffff" stroke="#dddddd" cx="74.8483" cy="-18.8483" rx="18.6979" ry="18.6979"/>
<text text-anchor="middle" x="74.8483" y="-15.1483" font-family="Segoe UI,Roboto,Helvetica,Arial,sans-serif" font-size="14.00" fill="#dddddd">∅</text>
</g>
<!-- n3&#45;&gt;l3 -->
<g id="edge6" class="edge">
<title>n3&#45;&gt;l3</title>
<path fill="none" stroke="#dddddd" d="M74.8483,-85.2858C74.8483,-74.4291 74.8483,-60.444 74.8483,-48.1075"/>
<polygon fill="#dddddd" stroke="#dddddd" points="78.3484,-47.8107 74.8483,-37.8107 71.3484,-47.8108 78.3484,-47.8107"/>
<text text-anchor="middle" x="86.3483" y="-58.8967" font-family="Segoe UI,Roboto,Helvetica,Arial,sans-serif" font-size="11.00" fill="#dddddd">right</text>
</g>
<!-- l4 -->
<g id="node8" class="node">
<title>l4</title>
<ellipse fill="#ffffff" stroke="#dddddd" cx="130.8483" cy="-18.8483" rx="18.6979" ry="18.6979"/>
<text text-anchor="middle" x="130.8483" y="-15.1483" font-family="Segoe UI,Roboto,Helvetica,Arial,sans-serif" font-size="14.00" fill="#dddddd">∅</text>
</g>
<!-- n4&#45;&gt;l4 -->
<g id="edge7" class="edge">
<title>n4&#45;&gt;l4</title>
<path fill="none" stroke="#dddddd" d="M130.8483,-85.2858C130.8483,-74.4291 130.8483,-60.444 130.8483,-48.1075"/>
<polygon fill="#dddddd" stroke="#dddddd" points="134.3484,-47.8107 130.8483,-37.8107 127.3484,-47.8108 134.3484,-47.8107"/>
<text text-anchor="middle" x="139.3483" y="-58.8967" font-family="Segoe UI,Roboto,Helvetica,Arial,sans-serif" font-size="11.00" fill="#dddddd">left</text>
</g>
<!-- l5 -->
<g id="node9" class="node">
<title>l5</title>
<ellipse fill="#ffffff" stroke="#dddddd" cx="186.8483" cy="-18.8483" rx="18.6979" ry="18.6979"/>
<text text-anchor="middle" x="186.8483" y="-15.1483" font-family="Segoe UI,Roboto,Helvetica,Arial,sans-serif" font-size="14.00" fill="#dddddd">∅</text>
</g>
<!-- n4&#45;&gt;l5 -->
<g id="edge8" class="edge">
<title>n4&#45;&gt;l5</title>
<path fill="none" stroke="#dddddd" d="M140.86,-88.5275C149.1448,-75.9747 161.0733,-57.9013 170.7056,-43.307"/>
<polygon fill="#dddddd" stroke="#dddddd" points="173.7658,-45.0242 176.3532,-34.7501 167.9235,-41.1682 173.7658,-45.0242"/>
<text text-anchor="middle" x="174.3483" y="-58.8967" font-family="Segoe UI,Roboto,Helvetica,Arial,sans-serif" font-size="11.00" fill="#dddddd">right</text>
</g>
</g>
</svg>
