<?xml version="1.0" encoding="UTF-8" standalone="no"?>
<!DOCTYPE svg PUBLIC "-//W3C//DTD SVG 1.1//EN"
 "http://www.w3.org/Graphics/SVG/1.1/DTD/svg11.dtd">
<!-- Generated by graphviz version 2.40.1 (20161225.0304)
 -->
<!-- Title: %3 Pages: 1 -->
<svg width="598pt" height="56pt"
 viewBox="0.00 0.00 598.00 55.50" xmlns="http://www.w3.org/2000/svg" xmlns:xlink="http://www.w3.org/1999/xlink">
<g id="graph0" class="graph" transform="scale(1 1) rotate(0) translate(4 51.5)">
<title>%3</title>
<!-- ListStruct -->
<g id="node1" class="node">
<title>ListStruct</title>
<path fill="#b2ebf2" stroke="#dddddd" d="M423,-.5C423,-.5 461,-.5 461,-.5 467,-.5 473,-6.5 473,-12.5 473,-12.5 473,-34.5 473,-34.5 473,-40.5 467,-46.5 461,-46.5 461,-46.5 423,-46.5 423,-46.5 417,-46.5 411,-40.5 411,-34.5 411,-34.5 411,-12.5 411,-12.5 411,-6.5 417,-.5 423,-.5"/>
<text text-anchor="middle" x="442" y="-31.3" font-family="Segoe UI,Roboto,Helvetica,Arial,sans-serif" font-size="14.00" fill="#dddddd">Int, List</text>
<polyline fill="none" stroke="#dddddd" points="411,-23.5 473,-23.5 "/>
<text text-anchor="middle" x="442" y="-8.3" font-family="Segoe UI,Roboto,Helvetica,Arial,sans-serif" font-size="14.00" fill="#dddddd">∅</text>
</g>
<!-- List -->
<g id="node5" class="node">
<title>List</title>
<path fill="#b2ebf2" stroke="#dddddd" d="M578,-41.5C578,-41.5 548,-41.5 548,-41.5 542,-41.5 536,-35.5 536,-29.5 536,-29.5 536,-17.5 536,-17.5 536,-11.5 542,-5.5 548,-5.5 548,-5.5 578,-5.5 578,-5.5 584,-5.5 590,-11.5 590,-17.5 590,-17.5 590,-29.5 590,-29.5 590,-35.5 584,-41.5 578,-41.5"/>
<text text-anchor="middle" x="563" y="-19.8" font-family="Segoe UI,Roboto,Helvetica,Arial,sans-serif" font-size="14.00" fill="#dddddd">List</text>
</g>
<!-- ListStruct&#45;&gt;List -->
<g id="edge6" class="edge">
<title>ListStruct:cons&#45;&gt;List</title>
<path fill="none" stroke="#dddddd" stroke-dasharray="5,2" d="M473,-35.5C473,-35.5 501.1853,-31.742 526.01,-28.432"/>
<polygon fill="#dddddd" stroke="#dddddd" points="526.5474,-31.8914 535.997,-27.1004 525.6221,-24.9528 526.5474,-31.8914"/>
<text text-anchor="middle" x="504.5" y="-35.7" font-family="Segoe UI,Roboto,Helvetica,Arial,sans-serif" font-size="11.00" fill="#dddddd">Cons</text>
</g>
<!-- ListStruct&#45;&gt;List -->
<g id="edge7" class="edge">
<title>ListStruct:nil&#45;&gt;List</title>
<path fill="none" stroke="#dddddd" stroke-dasharray="5,2" d="M473,-11.5C473,-11.5 501.1853,-15.258 526.01,-18.568"/>
<polygon fill="#dddddd" stroke="#dddddd" points="525.6221,-22.0472 535.997,-19.8996 526.5474,-15.1086 525.6221,-22.0472"/>
<text text-anchor="middle" x="504.5" y="-16.7" font-family="Segoe UI,Roboto,Helvetica,Arial,sans-serif" font-size="11.00" fill="#dddddd">Nil</text>
</g>
<!-- ListStruct2 -->
<g id="node2" class="node">
<title>ListStruct2</title>
<path fill="#b2ebf2" stroke="#2980b9" d="M273,-.5C273,-.5 325,-.5 325,-.5 331,-.5 337,-6.5 337,-12.5 337,-12.5 337,-34.5 337,-34.5 337,-40.5 331,-46.5 325,-46.5 325,-46.5 273,-46.5 273,-46.5 267,-46.5 261,-40.5 261,-34.5 261,-34.5 261,-12.5 261,-12.5 261,-6.5 267,-.5 273,-.5"/>
<text text-anchor="middle" x="299" y="-31.3" font-family="Segoe UI,Roboto,Helvetica,Arial,sans-serif" font-size="14.00" fill="#000000">Int, String</text>
<polyline fill="none" stroke="#2980b9" points="261,-23.5 337,-23.5 "/>
<text text-anchor="middle" x="299" y="-8.3" font-family="Segoe UI,Roboto,Helvetica,Arial,sans-serif" font-size="14.00" fill="#000000">∅</text>
</g>
<!-- ListStruct2&#45;&gt;ListStruct -->
<g id="edge4" class="edge">
<title>ListStruct2:cons&#45;&gt;ListStruct:cons</title>
<path fill="none" stroke="#dddddd" d="M337,-35.5C337,-35.5 380.3774,-35.5 400.7106,-35.5"/>
<polygon fill="#dddddd" stroke="#dddddd" points="401,-39.0001 411,-35.5 401,-32.0001 401,-39.0001"/>
<text text-anchor="middle" x="374" y="-38.7" font-family="Segoe UI,Roboto,Helvetica,Arial,sans-serif" font-size="11.00" fill="#dddddd">recurse</text>
</g>
<!-- ListStruct2&#45;&gt;ListStruct -->
<g id="edge5" class="edge">
<title>ListStruct2:nil&#45;&gt;ListStruct:nil</title>
<path fill="none" stroke="#dddddd" d="M337,-11.5C337,-11.5 380.3774,-11.5 400.7106,-11.5"/>
<polygon fill="#dddddd" stroke="#dddddd" points="401,-15.0001 411,-11.5 401,-8.0001 401,-15.0001"/>
</g>
<!-- choice -->
<g id="node3" class="node">
<title>choice</title>
<path fill="none" stroke="#dddddd" stroke-dasharray="5,2" d="M149,-.5C149,-.5 179,-.5 179,-.5 185,-.5 191,-6.5 191,-12.5 191,-12.5 191,-34.5 191,-34.5 191,-40.5 185,-46.5 179,-46.5 179,-46.5 149,-46.5 149,-46.5 143,-46.5 137,-40.5 137,-34.5 137,-34.5 137,-12.5 137,-12.5 137,-6.5 143,-.5 149,-.5"/>
<text text-anchor="middle" x="164" y="-31.3" font-family="Segoe UI,Roboto,Helvetica,Arial,sans-serif" font-size="14.00" fill="#dddddd">true</text>
<polyline fill="none" stroke="#dddddd" stroke-dasharray="5,2" points="137,-23.5 191,-23.5 "/>
<text text-anchor="middle" x="164" y="-8.3" font-family="Segoe UI,Roboto,Helvetica,Arial,sans-serif" font-size="14.00" fill="#dddddd">false</text>
</g>
<!-- choice&#45;&gt;ListStruct2 -->
<g id="edge2" class="edge">
<title>choice:true&#45;&gt;ListStruct2:cons</title>
<path fill="none" stroke="#dddddd" d="M191,-35.5C191,-35.5 231.6151,-35.5 250.9707,-35.5"/>
<polygon fill="#dddddd" stroke="#dddddd" points="251,-39.0001 261,-35.5 251,-32.0001 251,-39.0001"/>
<text text-anchor="middle" x="226" y="-38.7" font-family="Segoe UI,Roboto,Helvetica,Arial,sans-serif" font-size="11.00" fill="#dddddd">update</text>
</g>
<!-- choice&#45;&gt;ListStruct2 -->
<g id="edge3" class="edge">
<title>choice:false&#45;&gt;ListStruct2:nil</title>
<path fill="none" stroke="#dddddd" d="M191,-11.5C191,-11.5 231.6151,-11.5 250.9707,-11.5"/>
<polygon fill="#dddddd" stroke="#dddddd" points="251,-15.0001 261,-11.5 251,-8.0001 251,-15.0001"/>
</g>
<!-- A -->
<g id="node4" class="node">
<title>A</title>
<path fill="#b2ebf2" stroke="#2980b9" d="M42,-41.5C42,-41.5 12,-41.5 12,-41.5 6,-41.5 0,-35.5 0,-29.5 0,-29.5 0,-17.5 0,-17.5 0,-11.5 6,-5.5 12,-5.5 12,-5.5 42,-5.5 42,-5.5 48,-5.5 54,-11.5 54,-17.5 54,-17.5 54,-29.5 54,-29.5 54,-35.5 48,-41.5 42,-41.5"/>
<text text-anchor="middle" x="27" y="-19.8" font-family="Segoe UI,Roboto,Helvetica,Arial,sans-serif" font-size="14.00" fill="#000000">String</text>
</g>
<!-- A&#45;&gt;choice -->
<g id="edge1" class="edge">
<title>A&#45;&gt;choice</title>
<path fill="none" stroke="#dddddd" d="M54.0668,-23.5C74.8949,-23.5 103.9092,-23.5 126.9006,-23.5"/>
<polygon fill="#dddddd" stroke="#dddddd" points="126.9895,-27.0001 136.9894,-23.5 126.9894,-20.0001 126.9895,-27.0001"/>
<text text-anchor="middle" x="95.5" y="-26.7" font-family="Segoe UI,Roboto,Helvetica,Arial,sans-serif" font-size="11.00" fill="#dddddd">predicate</text>
</g>
</g>
</svg>
