<?xml version="1.0" encoding="UTF-8" standalone="no"?>
<!DOCTYPE svg PUBLIC "-//W3C//DTD SVG 1.1//EN"
 "http://www.w3.org/Graphics/SVG/1.1/DTD/svg11.dtd">
<!-- Generated by graphviz version 2.40.1 (20161225.0304)
 -->
<!-- Title: %3 Pages: 1 -->
<svg width="648pt" height="56pt"
 viewBox="0.00 0.00 648.00 55.50" xmlns="http://www.w3.org/2000/svg" xmlns:xlink="http://www.w3.org/1999/xlink">
<g id="graph0" class="graph" transform="scale(1 1) rotate(0) translate(4 51.5)">
<title>%3</title>
<!-- ListStruct -->
<g id="node1" class="node">
<title>ListStruct</title>
<path fill="#b2ebf2" stroke="#dddddd" d="M458,-.5C458,-.5 511,-.5 511,-.5 517,-.5 523,-6.5 523,-12.5 523,-12.5 523,-34.5 523,-34.5 523,-40.5 517,-46.5 511,-46.5 511,-46.5 458,-46.5 458,-46.5 452,-46.5 446,-40.5 446,-34.5 446,-34.5 446,-12.5 446,-12.5 446,-6.5 452,-.5 458,-.5"/>
<text text-anchor="middle" x="484.5" y="-31.3" font-family="Segoe UI,Roboto,Helvetica,Arial,sans-serif" font-size="14.00" fill="#dddddd">head, List</text>
<polyline fill="none" stroke="#dddddd" points="446,-23.5 523,-23.5 "/>
<text text-anchor="middle" x="484.5" y="-8.3" font-family="Segoe UI,Roboto,Helvetica,Arial,sans-serif" font-size="14.00" fill="#dddddd">∅</text>
</g>
<!-- List -->
<g id="node5" class="node">
<title>List</title>
<path fill="#b2ebf2" stroke="#dddddd" d="M628,-41.5C628,-41.5 598,-41.5 598,-41.5 592,-41.5 586,-35.5 586,-29.5 586,-29.5 586,-17.5 586,-17.5 586,-11.5 592,-5.5 598,-5.5 598,-5.5 628,-5.5 628,-5.5 634,-5.5 640,-11.5 640,-17.5 640,-17.5 640,-29.5 640,-29.5 640,-35.5 634,-41.5 628,-41.5"/>
<text text-anchor="middle" x="613" y="-19.8" font-family="Segoe UI,Roboto,Helvetica,Arial,sans-serif" font-size="14.00" fill="#dddddd">List</text>
</g>
<!-- ListStruct&#45;&gt;List -->
<g id="edge6" class="edge">
<title>ListStruct:cons&#45;&gt;List</title>
<path fill="none" stroke="#dddddd" stroke-dasharray="5,2" d="M523,-35.5C523,-35.5 551.1853,-31.742 576.01,-28.432"/>
<polygon fill="#dddddd" stroke="#dddddd" points="576.5474,-31.8914 585.997,-27.1004 575.6221,-24.9528 576.5474,-31.8914"/>
<text text-anchor="middle" x="554.5" y="-35.7" font-family="Segoe UI,Roboto,Helvetica,Arial,sans-serif" font-size="11.00" fill="#dddddd">Cons</text>
</g>
<!-- ListStruct&#45;&gt;List -->
<g id="edge7" class="edge">
<title>ListStruct:nil&#45;&gt;List</title>
<path fill="none" stroke="#dddddd" stroke-dasharray="5,2" d="M523,-11.5C523,-11.5 551.1853,-15.258 576.01,-18.568"/>
<polygon fill="#dddddd" stroke="#dddddd" points="575.6221,-22.0472 585.997,-19.8996 576.5474,-15.1086 575.6221,-22.0472"/>
<text text-anchor="middle" x="554.5" y="-16.7" font-family="Segoe UI,Roboto,Helvetica,Arial,sans-serif" font-size="11.00" fill="#dddddd">Nil</text>
</g>
<!-- ListStruct2 -->
<g id="node2" class="node">
<title>ListStruct2</title>
<path fill="#b2ebf2" stroke="#2980b9" d="M293,-.5C293,-.5 360,-.5 360,-.5 366,-.5 372,-6.5 372,-12.5 372,-12.5 372,-34.5 372,-34.5 372,-40.5 366,-46.5 360,-46.5 360,-46.5 293,-46.5 293,-46.5 287,-46.5 281,-40.5 281,-34.5 281,-34.5 281,-12.5 281,-12.5 281,-6.5 287,-.5 293,-.5"/>
<text text-anchor="middle" x="326.5" y="-31.3" font-family="Segoe UI,Roboto,Helvetica,Arial,sans-serif" font-size="14.00" fill="#000000">head, String</text>
<polyline fill="none" stroke="#2980b9" points="281,-23.5 372,-23.5 "/>
<text text-anchor="middle" x="326.5" y="-8.3" font-family="Segoe UI,Roboto,Helvetica,Arial,sans-serif" font-size="14.00" fill="#000000">∅</text>
</g>
<!-- ListStruct2&#45;&gt;ListStruct -->
<g id="edge4" class="edge">
<title>ListStruct2:cons&#45;&gt;ListStruct:cons</title>
<path fill="none" stroke="#dddddd" d="M372,-35.5C372,-35.5 415.3774,-35.5 435.7106,-35.5"/>
<polygon fill="#dddddd" stroke="#dddddd" points="436,-39.0001 446,-35.5 436,-32.0001 436,-39.0001"/>
<text text-anchor="middle" x="409" y="-38.7" font-family="Segoe UI,Roboto,Helvetica,Arial,sans-serif" font-size="11.00" fill="#dddddd">recurse</text>
</g>
<!-- ListStruct2&#45;&gt;ListStruct -->
<g id="edge5" class="edge">
<title>ListStruct2:nil&#45;&gt;ListStruct:nil</title>
<path fill="none" stroke="#dddddd" d="M372,-11.5C372,-11.5 415.3774,-11.5 435.7106,-11.5"/>
<polygon fill="#dddddd" stroke="#dddddd" points="436,-15.0001 446,-11.5 436,-8.0001 436,-15.0001"/>
</g>
<!-- choice -->
<g id="node3" class="node">
<title>choice</title>
<path fill="none" stroke="#2980b9" stroke-dasharray="5,2" d="M149,-.5C149,-.5 179,-.5 179,-.5 185,-.5 191,-6.5 191,-12.5 191,-12.5 191,-34.5 191,-34.5 191,-40.5 185,-46.5 179,-46.5 179,-46.5 149,-46.5 149,-46.5 143,-46.5 137,-40.5 137,-34.5 137,-34.5 137,-12.5 137,-12.5 137,-6.5 143,-.5 149,-.5"/>
<text text-anchor="middle" x="164" y="-31.3" font-family="Segoe UI,Roboto,Helvetica,Arial,sans-serif" font-size="14.00" fill="#000000">true</text>
<polyline fill="none" stroke="#2980b9" stroke-dasharray="5,2" points="137,-23.5 191,-23.5 "/>
<text text-anchor="middle" x="164" y="-8.3" font-family="Segoe UI,Roboto,Helvetica,Arial,sans-serif" font-size="14.00" fill="#000000">false</text>
</g>
<!-- choice&#45;&gt;ListStruct2 -->
<g id="edge2" class="edge">
<title>choice:true&#45;&gt;ListStruct2:cons</title>
<path fill="none" stroke="#2980b9" d="M191,-35.5C191,-35.5 247.0358,-35.5 270.6759,-35.5"/>
<polygon fill="#2980b9" stroke="#2980b9" points="271,-39.0001 281,-35.5 271,-32.0001 271,-39.0001"/>
<text text-anchor="middle" x="236" y="-38.7" font-family="Segoe UI,Roboto,Helvetica,Arial,sans-serif" font-size="11.00" fill="#000000">head / List</text>
</g>
<!-- choice&#45;&gt;ListStruct2 -->
<g id="edge3" class="edge">
<title>choice:false&#45;&gt;ListStruct2:nil</title>
<path fill="none" stroke="#dddddd" d="M191,-11.5C191,-11.5 247.0358,-11.5 270.6759,-11.5"/>
<polygon fill="#dddddd" stroke="#dddddd" points="271,-15.0001 281,-11.5 271,-8.0001 271,-15.0001"/>
</g>
<!-- String -->
<g id="node4" class="node">
<title>String</title>
<path fill="#b2ebf2" stroke="#dddddd" d="M42,-41.5C42,-41.5 12,-41.5 12,-41.5 6,-41.5 0,-35.5 0,-29.5 0,-29.5 0,-17.5 0,-17.5 0,-11.5 6,-5.5 12,-5.5 12,-5.5 42,-5.5 42,-5.5 48,-5.5 54,-11.5 54,-17.5 54,-17.5 54,-29.5 54,-29.5 54,-35.5 48,-41.5 42,-41.5"/>
<text text-anchor="middle" x="27" y="-19.8" font-family="Segoe UI,Roboto,Helvetica,Arial,sans-serif" font-size="14.00" fill="#dddddd">String</text>
</g>
<!-- String&#45;&gt;choice -->
<g id="edge1" class="edge">
<title>String&#45;&gt;choice</title>
<path fill="none" stroke="#dddddd" d="M54.0668,-23.5C74.8949,-23.5 103.9092,-23.5 126.9006,-23.5"/>
<polygon fill="#dddddd" stroke="#dddddd" points="126.9895,-27.0001 136.9894,-23.5 126.9894,-20.0001 126.9895,-27.0001"/>
<text text-anchor="middle" x="95.5" y="-26.7" font-family="Segoe UI,Roboto,Helvetica,Arial,sans-serif" font-size="11.00" fill="#dddddd">predicate</text>
</g>
</g>
</svg>
