<?xml version="1.0" encoding="UTF-8" standalone="no"?>
<!DOCTYPE svg PUBLIC "-//W3C//DTD SVG 1.1//EN"
 "http://www.w3.org/Graphics/SVG/1.1/DTD/svg11.dtd">
<!-- Generated by graphviz version 2.40.1 (20161225.0304)
 -->
<!-- Title: %3 Pages: 1 -->
<svg width="645pt" height="56pt"
 viewBox="0.00 0.00 645.00 55.50" xmlns="http://www.w3.org/2000/svg" xmlns:xlink="http://www.w3.org/1999/xlink">
<g id="graph0" class="graph" transform="scale(1 1) rotate(0) translate(4 51.5)">
<title>%3</title>
<!-- ListStruct -->
<g id="node1" class="node">
<title>ListStruct</title>
<path fill="#b2ebf2" stroke="#2980b9" d="M455,-.5C455,-.5 508,-.5 508,-.5 514,-.5 520,-6.5 520,-12.5 520,-12.5 520,-34.5 520,-34.5 520,-40.5 514,-46.5 508,-46.5 508,-46.5 455,-46.5 455,-46.5 449,-46.5 443,-40.5 443,-34.5 443,-34.5 443,-12.5 443,-12.5 443,-6.5 449,-.5 455,-.5"/>
<text text-anchor="middle" x="481.5" y="-31.3" font-family="Segoe UI,Roboto,Helvetica,Arial,sans-serif" font-size="14.00" fill="#000000">head, List</text>
<polyline fill="none" stroke="#2980b9" points="443,-23.5 520,-23.5 "/>
<text text-anchor="middle" x="481.5" y="-8.3" font-family="Segoe UI,Roboto,Helvetica,Arial,sans-serif" font-size="14.00" fill="#000000">∅</text>
</g>
<!-- List -->
<g id="node5" class="node">
<title>List</title>
<path fill="#b2ebf2" stroke="#2980b9" d="M625,-41.5C625,-41.5 595,-41.5 595,-41.5 589,-41.5 583,-35.5 583,-29.5 583,-29.5 583,-17.5 583,-17.5 583,-11.5 589,-5.5 595,-5.5 595,-5.5 625,-5.5 625,-5.5 631,-5.5 637,-11.5 637,-17.5 637,-17.5 637,-29.5 637,-29.5 637,-35.5 631,-41.5 625,-41.5"/>
<text text-anchor="middle" x="610" y="-19.8" font-family="Segoe UI,Roboto,Helvetica,Arial,sans-serif" font-size="14.00" fill="#000000">List</text>
</g>
<!-- ListStruct&#45;&gt;List -->
<g id="edge6" class="edge">
<title>ListStruct:cons&#45;&gt;List</title>
<path fill="none" stroke="#2980b9" stroke-dasharray="5,2" d="M520,-35.5C520,-35.5 548.1853,-31.742 573.01,-28.432"/>
<polygon fill="#2980b9" stroke="#2980b9" points="573.5474,-31.8914 582.997,-27.1004 572.6221,-24.9528 573.5474,-31.8914"/>
<text text-anchor="middle" x="551.5" y="-35.7" font-family="Segoe UI,Roboto,Helvetica,Arial,sans-serif" font-size="11.00" fill="#000000">Cons</text>
</g>
<!-- ListStruct&#45;&gt;List -->
<g id="edge7" class="edge">
<title>ListStruct:nil&#45;&gt;List</title>
<path fill="none" stroke="#2980b9" stroke-dasharray="5,2" d="M520,-11.5C520,-11.5 548.1853,-15.258 573.01,-18.568"/>
<polygon fill="#2980b9" stroke="#2980b9" points="572.6221,-22.0472 582.997,-19.8996 573.5474,-15.1086 572.6221,-22.0472"/>
<text text-anchor="middle" x="551.5" y="-16.7" font-family="Segoe UI,Roboto,Helvetica,Arial,sans-serif" font-size="11.00" fill="#000000">Nil</text>
</g>
<!-- ListStruct2 -->
<g id="node2" class="node">
<title>ListStruct2</title>
<path fill="#b2ebf2" stroke="#2980b9" d="M290,-.5C290,-.5 357,-.5 357,-.5 363,-.5 369,-6.5 369,-12.5 369,-12.5 369,-34.5 369,-34.5 369,-40.5 363,-46.5 357,-46.5 357,-46.5 290,-46.5 290,-46.5 284,-46.5 278,-40.5 278,-34.5 278,-34.5 278,-12.5 278,-12.5 278,-6.5 284,-.5 290,-.5"/>
<text text-anchor="middle" x="323.5" y="-31.3" font-family="Segoe UI,Roboto,Helvetica,Arial,sans-serif" font-size="14.00" fill="#000000">head, String</text>
<polyline fill="none" stroke="#2980b9" points="278,-23.5 369,-23.5 "/>
<text text-anchor="middle" x="323.5" y="-8.3" font-family="Segoe UI,Roboto,Helvetica,Arial,sans-serif" font-size="14.00" fill="#000000">∅</text>
</g>
<!-- ListStruct2&#45;&gt;ListStruct -->
<g id="edge4" class="edge">
<title>ListStruct2:cons&#45;&gt;ListStruct:cons</title>
<path fill="none" stroke="#2980b9" d="M369,-35.5C369,-35.5 412.3774,-35.5 432.7106,-35.5"/>
<polygon fill="#2980b9" stroke="#2980b9" points="433,-39.0001 443,-35.5 433,-32.0001 433,-39.0001"/>
<text text-anchor="middle" x="406" y="-38.7" font-family="Segoe UI,Roboto,Helvetica,Arial,sans-serif" font-size="11.00" fill="#000000">recurse</text>
</g>
<!-- ListStruct2&#45;&gt;ListStruct -->
<g id="edge5" class="edge">
<title>ListStruct2:nil&#45;&gt;ListStruct:nil</title>
<path fill="none" stroke="#2980b9" d="M369,-11.5C369,-11.5 412.3774,-11.5 432.7106,-11.5"/>
<polygon fill="#2980b9" stroke="#2980b9" points="433,-15.0001 443,-11.5 433,-8.0001 433,-15.0001"/>
</g>
<!-- String -->
<g id="node3" class="node">
<title>String</title>
<path fill="#b2ebf2" stroke="#2980b9" d="M42,-41.5C42,-41.5 12,-41.5 12,-41.5 6,-41.5 0,-35.5 0,-29.5 0,-29.5 0,-17.5 0,-17.5 0,-11.5 6,-5.5 12,-5.5 12,-5.5 42,-5.5 42,-5.5 48,-5.5 54,-11.5 54,-17.5 54,-17.5 54,-29.5 54,-29.5 54,-35.5 48,-41.5 42,-41.5"/>
<text text-anchor="middle" x="27" y="-19.8" font-family="Segoe UI,Roboto,Helvetica,Arial,sans-serif" font-size="14.00" fill="#000000">String</text>
</g>
<!-- choice -->
<g id="node4" class="node">
<title>choice</title>
<path fill="none" stroke="#2980b9" stroke-dasharray="5,2" d="M149,-.5C149,-.5 179,-.5 179,-.5 185,-.5 191,-6.5 191,-12.5 191,-12.5 191,-34.5 191,-34.5 191,-40.5 185,-46.5 179,-46.5 179,-46.5 149,-46.5 149,-46.5 143,-46.5 137,-40.5 137,-34.5 137,-34.5 137,-12.5 137,-12.5 137,-6.5 143,-.5 149,-.5"/>
<text text-anchor="middle" x="164" y="-31.3" font-family="Segoe UI,Roboto,Helvetica,Arial,sans-serif" font-size="14.00" fill="#000000">true</text>
<polyline fill="none" stroke="#2980b9" stroke-dasharray="5,2" points="137,-23.5 191,-23.5 "/>
<text text-anchor="middle" x="164" y="-8.3" font-family="Segoe UI,Roboto,Helvetica,Arial,sans-serif" font-size="14.00" fill="#000000">false</text>
</g>
<!-- String&#45;&gt;choice -->
<g id="edge1" class="edge">
<title>String&#45;&gt;choice</title>
<path fill="none" stroke="#2980b9" d="M54.0668,-23.5C74.8949,-23.5 103.9092,-23.5 126.9006,-23.5"/>
<polygon fill="#2980b9" stroke="#2980b9" points="126.9895,-27.0001 136.9894,-23.5 126.9894,-20.0001 126.9895,-27.0001"/>
<text text-anchor="middle" x="95.5" y="-26.7" font-family="Segoe UI,Roboto,Helvetica,Arial,sans-serif" font-size="11.00" fill="#000000">predicate</text>
</g>
<!-- choice&#45;&gt;ListStruct2 -->
<g id="edge2" class="edge">
<title>choice:true&#45;&gt;ListStruct2:cons</title>
<path fill="none" stroke="#2980b9" d="M191,-35.5C191,-35.5 244.6329,-35.5 267.6783,-35.5"/>
<polygon fill="#2980b9" stroke="#2980b9" points="268,-39.0001 278,-35.5 268,-32.0001 268,-39.0001"/>
<text text-anchor="middle" x="234.5" y="-38.7" font-family="Segoe UI,Roboto,Helvetica,Arial,sans-serif" font-size="11.00" fill="#000000">head / tail</text>
</g>
<!-- choice&#45;&gt;ListStruct2 -->
<g id="edge3" class="edge">
<title>choice:false&#45;&gt;ListStruct2:nil</title>
<path fill="none" stroke="#2980b9" d="M191,-11.5C191,-11.5 244.6329,-11.5 267.6783,-11.5"/>
<polygon fill="#2980b9" stroke="#2980b9" points="268,-15.0001 278,-11.5 268,-8.0001 268,-15.0001"/>
</g>
</g>
</svg>
