<?xml version="1.0" encoding="UTF-8" standalone="no"?>
<!DOCTYPE svg PUBLIC "-//W3C//DTD SVG 1.1//EN"
 "http://www.w3.org/Graphics/SVG/1.1/DTD/svg11.dtd">
<!-- Generated by graphviz version 2.40.1 (20161225.0304)
 -->
<!-- Title: %3 Pages: 1 -->
<svg width="615pt" height="56pt"
 viewBox="0.00 0.00 615.00 55.50" xmlns="http://www.w3.org/2000/svg" xmlns:xlink="http://www.w3.org/1999/xlink">
<g id="graph0" class="graph" transform="scale(1 1) rotate(0) translate(4 51.5)">
<title>%3</title>
<!-- ListStruct -->
<g id="node1" class="node">
<title>ListStruct</title>
<path fill="#b2ebf2" stroke="#2980b9" d="M440,-.5C440,-.5 478,-.5 478,-.5 484,-.5 490,-6.5 490,-12.5 490,-12.5 490,-34.5 490,-34.5 490,-40.5 484,-46.5 478,-46.5 478,-46.5 440,-46.5 440,-46.5 434,-46.5 428,-40.5 428,-34.5 428,-34.5 428,-12.5 428,-12.5 428,-6.5 434,-.5 440,-.5"/>
<text text-anchor="middle" x="459" y="-31.3" font-family="Segoe UI,Roboto,Helvetica,Arial,sans-serif" font-size="14.00" fill="#000000">Int, List</text>
<polyline fill="none" stroke="#2980b9" points="428,-23.5 490,-23.5 "/>
<text text-anchor="middle" x="459" y="-8.3" font-family="Segoe UI,Roboto,Helvetica,Arial,sans-serif" font-size="14.00" fill="#000000">∅</text>
</g>
<!-- List -->
<g id="node5" class="node">
<title>List</title>
<path fill="#b2ebf2" stroke="#2980b9" d="M595,-41.5C595,-41.5 565,-41.5 565,-41.5 559,-41.5 553,-35.5 553,-29.5 553,-29.5 553,-17.5 553,-17.5 553,-11.5 559,-5.5 565,-5.5 565,-5.5 595,-5.5 595,-5.5 601,-5.5 607,-11.5 607,-17.5 607,-17.5 607,-29.5 607,-29.5 607,-35.5 601,-41.5 595,-41.5"/>
<text text-anchor="middle" x="580" y="-19.8" font-family="Segoe UI,Roboto,Helvetica,Arial,sans-serif" font-size="14.00" fill="#000000">List</text>
</g>
<!-- ListStruct&#45;&gt;List -->
<g id="edge6" class="edge">
<title>ListStruct:cons&#45;&gt;List</title>
<path fill="none" stroke="#2980b9" stroke-dasharray="5,2" d="M490,-35.5C490,-35.5 518.1853,-31.742 543.01,-28.432"/>
<polygon fill="#2980b9" stroke="#2980b9" points="543.5474,-31.8914 552.997,-27.1004 542.6221,-24.9528 543.5474,-31.8914"/>
<text text-anchor="middle" x="521.5" y="-35.7" font-family="Segoe UI,Roboto,Helvetica,Arial,sans-serif" font-size="11.00" fill="#000000">Cons</text>
</g>
<!-- ListStruct&#45;&gt;List -->
<g id="edge7" class="edge">
<title>ListStruct:nil&#45;&gt;List</title>
<path fill="none" stroke="#2980b9" stroke-dasharray="5,2" d="M490,-11.5C490,-11.5 518.1853,-15.258 543.01,-18.568"/>
<polygon fill="#2980b9" stroke="#2980b9" points="542.6221,-22.0472 552.997,-19.8996 543.5474,-15.1086 542.6221,-22.0472"/>
<text text-anchor="middle" x="521.5" y="-16.7" font-family="Segoe UI,Roboto,Helvetica,Arial,sans-serif" font-size="11.00" fill="#000000">Nil</text>
</g>
<!-- ListStruct2 -->
<g id="node2" class="node">
<title>ListStruct2</title>
<path fill="#b2ebf2" stroke="#2980b9" d="M290,-.5C290,-.5 342,-.5 342,-.5 348,-.5 354,-6.5 354,-12.5 354,-12.5 354,-34.5 354,-34.5 354,-40.5 348,-46.5 342,-46.5 342,-46.5 290,-46.5 290,-46.5 284,-46.5 278,-40.5 278,-34.5 278,-34.5 278,-12.5 278,-12.5 278,-6.5 284,-.5 290,-.5"/>
<text text-anchor="middle" x="316" y="-31.3" font-family="Segoe UI,Roboto,Helvetica,Arial,sans-serif" font-size="14.00" fill="#000000">Int, String</text>
<polyline fill="none" stroke="#2980b9" points="278,-23.5 354,-23.5 "/>
<text text-anchor="middle" x="316" y="-8.3" font-family="Segoe UI,Roboto,Helvetica,Arial,sans-serif" font-size="14.00" fill="#000000">∅</text>
</g>
<!-- ListStruct2&#45;&gt;ListStruct -->
<g id="edge4" class="edge">
<title>ListStruct2:cons&#45;&gt;ListStruct:cons</title>
<path fill="none" stroke="#2980b9" d="M354,-35.5C354,-35.5 397.3774,-35.5 417.7106,-35.5"/>
<polygon fill="#2980b9" stroke="#2980b9" points="418,-39.0001 428,-35.5 418,-32.0001 418,-39.0001"/>
<text text-anchor="middle" x="391" y="-38.7" font-family="Segoe UI,Roboto,Helvetica,Arial,sans-serif" font-size="11.00" fill="#000000">recurse</text>
</g>
<!-- ListStruct2&#45;&gt;ListStruct -->
<g id="edge5" class="edge">
<title>ListStruct2:nil&#45;&gt;ListStruct:nil</title>
<path fill="none" stroke="#2980b9" d="M354,-11.5C354,-11.5 397.3774,-11.5 417.7106,-11.5"/>
<polygon fill="#2980b9" stroke="#2980b9" points="418,-15.0001 428,-11.5 418,-8.0001 418,-15.0001"/>
</g>
<!-- String -->
<g id="node3" class="node">
<title>String</title>
<path fill="#b2ebf2" stroke="#2980b9" d="M42,-41.5C42,-41.5 12,-41.5 12,-41.5 6,-41.5 0,-35.5 0,-29.5 0,-29.5 0,-17.5 0,-17.5 0,-11.5 6,-5.5 12,-5.5 12,-5.5 42,-5.5 42,-5.5 48,-5.5 54,-11.5 54,-17.5 54,-17.5 54,-29.5 54,-29.5 54,-35.5 48,-41.5 42,-41.5"/>
<text text-anchor="middle" x="27" y="-19.8" font-family="Segoe UI,Roboto,Helvetica,Arial,sans-serif" font-size="14.00" fill="#000000">String</text>
</g>
<!-- choice -->
<g id="node4" class="node">
<title>choice</title>
<path fill="none" stroke="#2980b9" stroke-dasharray="5,2" d="M149,-.5C149,-.5 179,-.5 179,-.5 185,-.5 191,-6.5 191,-12.5 191,-12.5 191,-34.5 191,-34.5 191,-40.5 185,-46.5 179,-46.5 179,-46.5 149,-46.5 149,-46.5 143,-46.5 137,-40.5 137,-34.5 137,-34.5 137,-12.5 137,-12.5 137,-6.5 143,-.5 149,-.5"/>
<text text-anchor="middle" x="164" y="-31.3" font-family="Segoe UI,Roboto,Helvetica,Arial,sans-serif" font-size="14.00" fill="#000000">true</text>
<polyline fill="none" stroke="#2980b9" stroke-dasharray="5,2" points="137,-23.5 191,-23.5 "/>
<text text-anchor="middle" x="164" y="-8.3" font-family="Segoe UI,Roboto,Helvetica,Arial,sans-serif" font-size="14.00" fill="#000000">false</text>
</g>
<!-- String&#45;&gt;choice -->
<g id="edge1" class="edge">
<title>String&#45;&gt;choice</title>
<path fill="none" stroke="#2980b9" d="M54.0668,-23.5C74.8949,-23.5 103.9092,-23.5 126.9006,-23.5"/>
<polygon fill="#2980b9" stroke="#2980b9" points="126.9895,-27.0001 136.9894,-23.5 126.9894,-20.0001 126.9895,-27.0001"/>
<text text-anchor="middle" x="95.5" y="-26.7" font-family="Segoe UI,Roboto,Helvetica,Arial,sans-serif" font-size="11.00" fill="#000000">predicate</text>
</g>
<!-- choice&#45;&gt;ListStruct2 -->
<g id="edge2" class="edge">
<title>choice:true&#45;&gt;ListStruct2:cons</title>
<path fill="none" stroke="#2980b9" d="M191,-35.5C191,-35.5 244.6329,-35.5 267.6783,-35.5"/>
<polygon fill="#2980b9" stroke="#2980b9" points="268,-39.0001 278,-35.5 268,-32.0001 268,-39.0001"/>
<text text-anchor="middle" x="234.5" y="-38.7" font-family="Segoe UI,Roboto,Helvetica,Arial,sans-serif" font-size="11.00" fill="#000000">head / tail</text>
</g>
<!-- choice&#45;&gt;ListStruct2 -->
<g id="edge3" class="edge">
<title>choice:false&#45;&gt;ListStruct2:nil</title>
<path fill="none" stroke="#2980b9" d="M191,-11.5C191,-11.5 244.6329,-11.5 267.6783,-11.5"/>
<polygon fill="#2980b9" stroke="#2980b9" points="268,-15.0001 278,-11.5 268,-8.0001 268,-15.0001"/>
</g>
</g>
</svg>
