<?xml version="1.0" encoding="UTF-8" standalone="no"?>
<!DOCTYPE svg PUBLIC "-//W3C//DTD SVG 1.1//EN"
 "http://www.w3.org/Graphics/SVG/1.1/DTD/svg11.dtd">
<!-- Generated by graphviz version 2.40.1 (20161225.0304)
 -->
<!-- Title: %3 Pages: 1 -->
<svg width="646pt" height="56pt"
 viewBox="0.00 0.00 646.00 55.50" xmlns="http://www.w3.org/2000/svg" xmlns:xlink="http://www.w3.org/1999/xlink">
<g id="graph0" class="graph" transform="scale(1 1) rotate(0) translate(4 51.5)">
<title>%3</title>
<!-- ListStruct -->
<g id="node1" class="node">
<title>ListStruct</title>
<path fill="#b2ebf2" stroke="#2980b9" d="M459,-.5C459,-.5 509,-.5 509,-.5 515,-.5 521,-6.5 521,-12.5 521,-12.5 521,-34.5 521,-34.5 521,-40.5 515,-46.5 509,-46.5 509,-46.5 459,-46.5 459,-46.5 453,-46.5 447,-40.5 447,-34.5 447,-34.5 447,-12.5 447,-12.5 447,-6.5 453,-.5 459,-.5"/>
<text text-anchor="middle" x="484" y="-31.3" font-family="Segoe UI,Roboto,Helvetica,Arial,sans-serif" font-size="14.00" fill="#000000">head, tail</text>
<polyline fill="none" stroke="#2980b9" points="447,-23.5 521,-23.5 "/>
<text text-anchor="middle" x="484" y="-8.3" font-family="Segoe UI,Roboto,Helvetica,Arial,sans-serif" font-size="14.00" fill="#000000">∅</text>
</g>
<!-- List -->
<g id="node5" class="node">
<title>List</title>
<path fill="#b2ebf2" stroke="#2980b9" d="M626,-41.5C626,-41.5 596,-41.5 596,-41.5 590,-41.5 584,-35.5 584,-29.5 584,-29.5 584,-17.5 584,-17.5 584,-11.5 590,-5.5 596,-5.5 596,-5.5 626,-5.5 626,-5.5 632,-5.5 638,-11.5 638,-17.5 638,-17.5 638,-29.5 638,-29.5 638,-35.5 632,-41.5 626,-41.5"/>
<text text-anchor="middle" x="611" y="-19.8" font-family="Segoe UI,Roboto,Helvetica,Arial,sans-serif" font-size="14.00" fill="#000000">List</text>
</g>
<!-- ListStruct&#45;&gt;List -->
<g id="edge6" class="edge">
<title>ListStruct:cons&#45;&gt;List</title>
<path fill="none" stroke="#2980b9" stroke-dasharray="5,2" d="M521,-35.5C521,-35.5 549.1853,-31.742 574.01,-28.432"/>
<polygon fill="#2980b9" stroke="#2980b9" points="574.5474,-31.8914 583.997,-27.1004 573.6221,-24.9528 574.5474,-31.8914"/>
<text text-anchor="middle" x="552.5" y="-35.7" font-family="Segoe UI,Roboto,Helvetica,Arial,sans-serif" font-size="11.00" fill="#000000">Cons</text>
</g>
<!-- ListStruct&#45;&gt;List -->
<g id="edge7" class="edge">
<title>ListStruct:nil&#45;&gt;List</title>
<path fill="none" stroke="#2980b9" stroke-dasharray="5,2" d="M521,-11.5C521,-11.5 549.1853,-15.258 574.01,-18.568"/>
<polygon fill="#2980b9" stroke="#2980b9" points="573.6221,-22.0472 583.997,-19.8996 574.5474,-15.1086 573.6221,-22.0472"/>
<text text-anchor="middle" x="552.5" y="-16.7" font-family="Segoe UI,Roboto,Helvetica,Arial,sans-serif" font-size="11.00" fill="#000000">Nil</text>
</g>
<!-- ListStruct2 -->
<g id="node2" class="node">
<title>ListStruct2</title>
<path fill="#b2ebf2" stroke="#2980b9" d="M294,-.5C294,-.5 361,-.5 361,-.5 367,-.5 373,-6.5 373,-12.5 373,-12.5 373,-34.5 373,-34.5 373,-40.5 367,-46.5 361,-46.5 361,-46.5 294,-46.5 294,-46.5 288,-46.5 282,-40.5 282,-34.5 282,-34.5 282,-12.5 282,-12.5 282,-6.5 288,-.5 294,-.5"/>
<text text-anchor="middle" x="327.5" y="-31.3" font-family="Segoe UI,Roboto,Helvetica,Arial,sans-serif" font-size="14.00" fill="#000000">head, String</text>
<polyline fill="none" stroke="#2980b9" points="282,-23.5 373,-23.5 "/>
<text text-anchor="middle" x="327.5" y="-8.3" font-family="Segoe UI,Roboto,Helvetica,Arial,sans-serif" font-size="14.00" fill="#000000">∅</text>
</g>
<!-- ListStruct2&#45;&gt;ListStruct -->
<g id="edge4" class="edge">
<title>ListStruct2:cons&#45;&gt;ListStruct:cons</title>
<path fill="none" stroke="#2980b9" d="M373,-35.5C373,-35.5 416.3774,-35.5 436.7106,-35.5"/>
<polygon fill="#2980b9" stroke="#2980b9" points="437,-39.0001 447,-35.5 437,-32.0001 437,-39.0001"/>
<text text-anchor="middle" x="410" y="-38.7" font-family="Segoe UI,Roboto,Helvetica,Arial,sans-serif" font-size="11.00" fill="#000000">recurse</text>
</g>
<!-- ListStruct2&#45;&gt;ListStruct -->
<g id="edge5" class="edge">
<title>ListStruct2:nil&#45;&gt;ListStruct:nil</title>
<path fill="none" stroke="#2980b9" d="M373,-11.5C373,-11.5 416.3774,-11.5 436.7106,-11.5"/>
<polygon fill="#2980b9" stroke="#2980b9" points="437,-15.0001 447,-11.5 437,-8.0001 437,-15.0001"/>
</g>
<!-- choice -->
<g id="node3" class="node">
<title>choice</title>
<path fill="none" stroke="#2980b9" stroke-dasharray="5,2" d="M153,-.5C153,-.5 183,-.5 183,-.5 189,-.5 195,-6.5 195,-12.5 195,-12.5 195,-34.5 195,-34.5 195,-40.5 189,-46.5 183,-46.5 183,-46.5 153,-46.5 153,-46.5 147,-46.5 141,-40.5 141,-34.5 141,-34.5 141,-12.5 141,-12.5 141,-6.5 147,-.5 153,-.5"/>
<text text-anchor="middle" x="168" y="-31.3" font-family="Segoe UI,Roboto,Helvetica,Arial,sans-serif" font-size="14.00" fill="#000000">true</text>
<polyline fill="none" stroke="#2980b9" stroke-dasharray="5,2" points="141,-23.5 195,-23.5 "/>
<text text-anchor="middle" x="168" y="-8.3" font-family="Segoe UI,Roboto,Helvetica,Arial,sans-serif" font-size="14.00" fill="#000000">false</text>
</g>
<!-- choice&#45;&gt;ListStruct2 -->
<g id="edge2" class="edge">
<title>choice:true&#45;&gt;ListStruct2:cons</title>
<path fill="none" stroke="#2980b9" d="M195,-35.5C195,-35.5 248.6329,-35.5 271.6783,-35.5"/>
<polygon fill="#2980b9" stroke="#2980b9" points="272,-39.0001 282,-35.5 272,-32.0001 272,-39.0001"/>
<text text-anchor="middle" x="238.5" y="-38.7" font-family="Segoe UI,Roboto,Helvetica,Arial,sans-serif" font-size="11.00" fill="#000000">head / tail</text>
</g>
<!-- choice&#45;&gt;ListStruct2 -->
<g id="edge3" class="edge">
<title>choice:false&#45;&gt;ListStruct2:nil</title>
<path fill="none" stroke="#2980b9" d="M195,-11.5C195,-11.5 248.6329,-11.5 271.6783,-11.5"/>
<polygon fill="#2980b9" stroke="#2980b9" points="272,-15.0001 282,-11.5 272,-8.0001 272,-15.0001"/>
</g>
<!-- String -->
<g id="node4" class="node">
<title>String</title>
<path fill="#b2ebf2" stroke="#2980b9" d="M42,-41.5C42,-41.5 12,-41.5 12,-41.5 6,-41.5 0,-35.5 0,-29.5 0,-29.5 0,-17.5 0,-17.5 0,-11.5 6,-5.5 12,-5.5 12,-5.5 42,-5.5 42,-5.5 48,-5.5 54,-11.5 54,-17.5 54,-17.5 54,-29.5 54,-29.5 54,-35.5 48,-41.5 42,-41.5"/>
<text text-anchor="middle" x="27" y="-19.8" font-family="Segoe UI,Roboto,Helvetica,Arial,sans-serif" font-size="14.00" fill="#000000">String</text>
</g>
<!-- String&#45;&gt;choice -->
<g id="edge1" class="edge">
<title>String&#45;&gt;choice</title>
<path fill="none" stroke="#2980b9" d="M54.1862,-23.5C75.9356,-23.5 106.6645,-23.5 130.7114,-23.5"/>
<polygon fill="#2980b9" stroke="#2980b9" points="130.8973,-27.0001 140.8972,-23.5 130.8972,-20.0001 130.8973,-27.0001"/>
<text text-anchor="middle" x="97.5" y="-26.7" font-family="Segoe UI,Roboto,Helvetica,Arial,sans-serif" font-size="11.00" fill="#000000">nonEmpty</text>
</g>
</g>
</svg>
